<svg width="761" height="780" xmlns="http://www.w3.org/2000/svg" xmlns:xlink="http://www.w3.org/1999/xlink" overflow="hidden"><defs><clipPath id="clip0"><rect x="0" y="0" width="761" height="780"/></clipPath><clipPath id="clip1"><rect x="2" y="2" width="756" height="776"/></clipPath><clipPath id="clip2"><rect x="2" y="2" width="756" height="776"/></clipPath><clipPath id="clip3"><rect x="2" y="2" width="756" height="776"/></clipPath></defs><g clip-path="url(#clip0)"><rect x="0" y="0" width="761" height="780.004" fill="#FFFFFF" fill-opacity="0"/><rect x="3.50002" y="3.50004" width="755" height="774.004" stroke="#000000" stroke-width="3.3326" stroke-miterlimit="8" fill="none"/><rect x="3.50002" y="3.50004" width="755" height="774.004" stroke="#000000" stroke-width="3.3326" stroke-linejoin="round" stroke-miterlimit="10" fill="none"/><g clip-path="url(#clip1)"><g clip-path="url(#clip2)"><g clip-path="url(#clip3)"><path d="M195.342 157.58 196.963 145.157 206.699 140.132 208.897 140.76 212.352 137.933 218.093 138.349 218.407 135.611C230.412 136.197 232.845 132.987 234.965 129.768L245.015 125.685 248.784 125.685 246.899 123.173 247.528 120.849 247.213 117.833C251.144 117.319 255.992 117.95 256.021 113.838L272.339 114.065 274.538 109.04C271.421 107.896 270.863 103.389 271.281 98.6005 271.591 95.0444 271.31 86.9552 271.31 86.9552 270.234 85.6573 268.894 84.4342 268.584 82.5699 265.967 82.0874 262.755 82.0295 261.661 80.4591 257.862 79.8066 254.098 79.46 250.701 79.8016 244.482 80.4276 241.922 78.1865 239.362 72.2938 233.373 71.9031 227.022 84.7739 222.402 91.1379 211.23 94.2448 203.145 99.2806 197.591 105.899 198.333 108.589 197.029 109.625 194.318 111.402 192.565 112.55 186.401 122.39 188.483 127.884 188.509 132.176 185.163 139.33 175.549 144.089 175.549 144.089 171.067 148.279 163.977 150.592 160.986 151.568 154.051 152.346 151.953 154.281L195.342 157.58Z" stroke="#000000" stroke-width="0.629167" stroke-linecap="round" fill="#CC37CC" transform="matrix(1 0 0 1.00017 -67.1798 -55.5267)"/><path d="M143.498 223.916C144.789 214.669 139.041 201.674 157.002 201.303L160.772 173.351 192.806 176.177 195.241 157.307C195.241 157.307 152.392 154.143 152.392 154.143 148.415 160.246 146.108 165.413 140.104 167.794 134.439 170.041 132.223 177.032 130.621 183.087L113.759 202.382C113.152 206.762 110.606 209.689 107.199 211.97 104.118 216 102.237 221.007 101.764 225.459L106.061 221.564 143.498 223.916Z" stroke="#000000" stroke-width="0.629167" stroke-linecap="round" fill="#CC37CC" transform="matrix(1 0 0 1.00017 -67.1798 -55.5267)"/><path d="M196.632 145.064 206.716 140.039 208.799 140.784 212.254 137.782 218.053 138.315 218.367 135.634C230.371 136.22 232.863 133.01 234.982 129.791L245.033 125.65 248.744 125.767 246.801 123.196 247.313 121.164 247.231 117.799C251.162 117.284 256.009 117.915 256.039 113.804L272.298 114.03 274.555 109.354C271.439 108.21 270.881 103.704 271.299 98.9151 271.609 95.359 271.327 87.2698 271.327 87.2698 270.252 85.9718 268.911 84.7487 268.601 82.8845 269.471 82.4982 273.551 83.1676 276.029 79.8488 277.306 78.1381 278.937 74.6859 281.067 75.3603 283.553 76.1474 288.316 76.6451 288.607 75.0671 288.918 73.3797 293.533 69.6651 300.197 69.6865 312.403 69.7261 328.174 65.0823 333.327 66.5923 338.481 68.1016 345.193 64.5865 348.172 64.7771 351.173 64.9696 352.077 68.2426 356.171 65.4585 357.7 64.4172 363.225 68.7459 368.491 67.2132 368.491 67.2132 365.347 68.6094 365.17 71.8364 364.897 76.808 364.436 92.2811 364.436 92.2811 363.913 91.4443 360.17 92.0723 359.582 94.5971 358.783 98.0286 354.92 97.1408 354.614 98.8748 353.997 102.364 357.041 105.569 360.628 108.699 361.547 109.502 360.29 113.946 361.2 114.759 363.979 117.237 368.902 118.924 368.902 118.924 370.046 130.295 372.07 138.148 372.07 138.148 366.859 138.496 369.644 143.333 373.152 148.496 373.152 148.496 373.371 178.073 373.371 178.073 373.371 178.073 368.665 179.027 368.99 180.241 369.72 182.965 369.89 184.978 373.329 188.039 375.538 190.005 375.579 193.32 375.388 195.498 375.169 198.01 377.704 199.149 378.368 199.133 383.532 199.008 387.897 196.494 392.789 209.983 392.789 209.983 330.925 250.639 330.925 250.639 321.743 254.593 306.62 256.959 306.1 256.73 302.651 255.212 306.648 251.414 305.491 248.874 304.333 246.331 302.937 244.418 299.006 244.844 296.914 245.07 295.817 242.381 294.989 242.518 291.642 243.072 290.79 239.269 290.05 238.592 287.114 235.907 284.2 235.126 284.867 232.684 284.867 232.684 194.458 163.767 194.458 163.767L196.632 145.064Z" stroke="#000000" stroke-width="0.629167" stroke-linecap="round" fill="#CC37CC" transform="matrix(1 0 0 1.00017 -67.1798 -55.5267)"/><path d="M143.479 223.762C144.771 214.515 139.023 201.52 156.984 201.149L160.753 173.197 192.787 176.023C192.787 176.023 194.521 163.462 194.521 163.462 194.521 163.462 226.807 188.254 226.807 188.254 226.807 188.254 210.726 188.644 210.726 188.644 210.726 188.644 211.542 281.231 211.542 281.231 211.542 281.231 215.611 282.682 215.611 282.682 215.611 282.682 212.868 291.675 212.868 291.675 212.868 291.675 165.471 289.064 165.471 289.064 165.471 289.064 160.068 292.885 160.068 292.885 160.068 292.885 157.152 291.928 157.152 291.928 157.152 291.928 155.091 285.65 155.091 285.65 155.091 285.65 152.226 284.941 152.226 284.941 152.226 284.941 146.995 297.845 143.665 296.54 143.665 296.54 142.185 294.933 140.51 293.202 139.035 291.677 137.426 290.167 136.285 288.016 134.699 285.024 133.601 280.221 131.415 280.565 126.764 281.295 123.22 275.127 123.22 275.127 123.22 275.127 117.801 273.623 113.916 274.702 108.896 276.097 103.225 274.649 102.213 275.306L106.821 262.503 107.291 247.578 104.484 243.096C105.985 240.442 110.569 237.995 107.573 230.052 107.231 229.143 105.599 229.633 105.599 229.633L103.663 223.794 106.042 221.409 143.479 223.762Z" stroke="#000000" stroke-width="0.629167" stroke-linecap="round" fill="#CFFD0E" transform="matrix(1 0 0 1.00017 -67.1798 -55.5267)"/><path d="M391.324 107.949C391.324 107.949 392.896 114.035 388.196 117.373 385.832 119.052 378.101 124.721 378.101 124.721 378.757 128.181 379.566 136.835 372.059 138.014 366.899 138.824 369.603 142.995 373.054 148.653 373.054 148.653 373.273 178.113 373.273 178.113 373.273 178.113 368.682 179.009 369.008 180.223 369.737 182.947 369.791 184.902 373.231 187.963 375.439 189.928 375.48 193.477 375.29 195.654 375.07 198.167 377.897 199.248 378.56 199.231 383.724 199.107 387.798 196.652 392.691 210.14 392.691 210.14 416.956 210.887 416.956 210.887 419.783 211.486 422.777 215.817 422.777 215.817 422.777 215.817 436.673 211.869 436.673 211.869 436.673 211.869 518.494 252.324 518.494 252.324 518.494 252.324 518.346 245.753 518.346 245.753 527.391 246.49 528.43 245.448 528.43 245.448 528.43 245.448 522.839 149.861 522.839 149.861 519.553 145.351 516.314 140.931 520.265 135.93 520.265 135.93 520.291 130.626 519.302 127.617 518.273 124.485 521.096 122.356 521.096 122.356 521.051 118.303 513.272 118.611 509.179 118.4 503.808 118.125 500.199 117.389 501.134 113.366 501.134 113.366 487.093 108.324 481.659 111.648 478.772 113.414 472.684 116.235 471.576 119.852 470.831 122.284 471.498 123.933 472.948 126.403 475.486 130.728 466.916 145.575 457.119 133.693 457.119 133.693 444.251 130.15 436.984 128.562 429.871 127.007 424.962 120.77 427.915 116.994 428.203 116.625 408.608 110.957 408.608 110.957 399.559 112.357 392.933 109.712 391.324 107.949Z" stroke="#000000" stroke-width="0.629167" stroke-linecap="round" fill="#CC37CC" transform="matrix(1 0 0 1.00017 -67.1798 -55.5267)"/><path d="M381.944 64.9262C380.047 64.991 372.609 61.1142 368.431 67.1925 368.431 67.1925 365.286 68.5855 365.109 71.8131 364.835 76.7841 364.361 92.261 364.361 92.261 363.838 91.4242 360.113 92.0559 359.525 94.5807 358.725 98.0122 354.857 97.1138 354.551 98.8471 353.933 102.337 356.98 105.548 360.567 108.678 361.486 109.481 360.226 113.921 361.137 114.734 363.914 117.212 368.844 118.902 368.844 118.902 369.988 130.273 372.01 138.131 372.01 138.131 372.759 138.599 380.704 135.872 377.965 124.701 377.647 123.407 394.249 118.03 391.269 107.639 390.959 106.558 388.256 107.838 387.818 105.877 386.832 101.478 386.959 100.395 385.287 99.7349 384.447 99.4033 380.973 102.739 380.268 102.313 378.692 101.361 376.727 99.1453 377.577 98.0481 379.043 96.1574 389.63 89.5946 389.736 85.9763 389.894 80.5919 387.906 80.0722 385.266 78.6383 383.766 77.8241 384.304 75.2729 384.79 73.8176 385.087 72.9254 390.803 70.9801 390.144 68.9126 389.696 67.5096 388.867 67.295 388.563 66.1984 388.339 65.3887 384.021 69.901 383.748 69.2039 383.028 67.3661 382.811 66.2412 381.944 64.9262Z" stroke="#000000" stroke-width="0.629167" stroke-linecap="round" fill="#CC37CC" transform="matrix(1 0 0 1.00017 -67.1798 -55.5267)"/><path d="M527.263 225.001 610.295 222.524 612.97 225.167 618.451 224.476 619.018 219.849 625.098 218.17 626.386 212.474 629.055 213.354 632.413 209.85 630.595 200.878 633.502 200.981 626.435 194.689 607.049 162.67 606.961 158.784C602.374 155.776 598.98 151.973 596.931 147.272L596.751 144.289 593.826 142.16 594.589 137.424 603.28 149.038C604.059 149.934 603.183 150.578 603.885 151.55 606.157 154.696 610.068 157.867 612.373 159.71 613.55 159.314 614.931 159.595 615.515 157.22L617.782 142.136 607.591 121.374C600.71 126.189 593.829 128.113 586.948 120.946L578.538 121.59C576.617 122.416 574.571 123.675 573.461 121.658L559.893 129.586 537.424 124.581C534.048 123.887 530.446 122.743 527.66 123.23 524.802 124.974 522.768 123.626 520.735 122.272 519.579 124.281 518.36 126.313 519.469 127.499L520.378 135.68C518.389 138.886 516.553 142.173 522.839 149.722L527.263 225.001Z" stroke="#000000" stroke-width="0.629167" stroke-linecap="round" fill="#CC37CC" transform="matrix(1 0 0 1.00017 -67.1798 -55.5267)"/><path d="M518.373 252.147 436.469 211.811 425.62 215.09C426.362 221.497 425.816 226.459 425.931 230.381 426.1 236.131 430.101 240.164 435.588 242.107L433.159 248.018 429.669 279.665 412.575 298.475C412.032 299.542 411.73 300.61 411.794 301.677 411.253 302.902 410.558 303.435 409.817 303.754 408.622 304.496 409.212 305.749 409.073 306.679 408.079 313.347 422.02 323.222 422.02 323.222 422.738 326.235 423.799 328.911 424.331 332.091 424.905 335.519 423.227 339.657 423.71 342.627 424.411 346.94 429.196 347.372 428.542 353.955L417.567 352.945C414.381 359.305 416.611 363.448 424.433 365.304L429.599 380.728C437.9 378.834 443.744 379.841 454.588 374.942L464.453 373.964C466.272 370.861 470.123 369.209 468.803 363.863L482.454 362.372C483.521 361.379 484.034 359.83 485.766 359.501 488.442 359.419 489.225 357.679 489.941 355.882 491.189 352.927 494.332 351.868 496.694 350.027 497.12 340.28 504.488 343.071 508.978 341.226L508.44 337.844C505.871 335.043 503.655 331.863 502.851 322.947L498.061 323.847 497.956 319.515C499.422 317.941 500.476 314.21 500.1 311.558L502.33 310.511 501.781 304.878 508.375 296.449 508.17 292.32 519.536 291.723 518.373 252.147Z" stroke="#000000" stroke-width="0.629167" stroke-linecap="round" fill="#E27575" transform="matrix(1 0 0 1.00017 -67.1798 -55.5267)"/><path d="M314.427 255.661 313.525 288.346C312.08 289.185 310.07 288.329 309.521 291.854 307.914 292.786 305.934 293.439 305.578 295.309L283.489 295.096 279.001 298.867 270.644 298.913C270.403 300.713 270.445 302.964 271.868 304.078 273.13 305.065 272.944 307.145 272.625 308.978L283.193 323.078 287.026 324.511C289.151 322.646 291.088 322.099 292.052 328.367L305.14 330.224C306.053 328.132 305.833 325.231 308.205 324.18 311.766 322.167 311.183 318.647 312.454 315.801 315.36 314.415 313.502 312.443 328.862 312.586 332.834 315.083 336.667 315.919 340.85 320.94 340.85 320.94 343.93 321.066 343.93 321.066 344.018 320.013 347.125 317.848 349.025 317.487 351.083 316.367 354.741 318.316 359.617 322.598L368.303 323.375 376.646 317.393 391.229 317.019C393.429 317.879 395.058 319.845 398.304 319.032 400.636 316.407 405.096 313.901 410.219 311.741 409.425 309.419 408.53 307.152 409.271 304.172 410.521 303.121 412.057 302.955 412.208 299.047L429.828 279.495 433.096 248.315 435.585 242.045C430.548 239.983 427.098 238.029 425.992 231.075 425.39 227.288 426.249 222.399 425.875 215.327L422.738 215.866C421.016 213.839 419.348 211.666 417.145 210.92L392.441 210.02 329.849 251.286 314.427 255.661Z" stroke="#000000" stroke-width="0.629167" stroke-linecap="round" fill="#CFFD0E" transform="matrix(1 0 0 1.00017 -67.1798 -55.5267)"/><path d="M226.758 188.233 210.724 188.664 211.482 281.184 215.71 282.678 212.746 291.723 165.494 289.05 160.056 292.862 157.085 291.764 155.027 285.656 152.326 284.934C147.004 296.567 146.188 295.213 144.212 297.203 144.535 298.392 143.759 299.528 144.141 300.618 145.338 304.027 146.089 307.485 144.287 308.96 146.749 311.151 149.925 312.896 150.838 316.055 151.013 320.083 150.794 323.19 149.71 324.282 148.636 325.358 149.912 327.866 152.144 325.988L154.315 324.668C155.029 325.805 156.603 326.426 156.373 328.13L161.159 324.858 167.001 327.286C167.595 326.39 166.85 325.049 169.123 324.713 170.317 324.746 171.156 323.892 171.508 321.821L174.716 322.6C175.578 325.621 176.63 328.67 176.076 331.488L180.809 335.063 177.195 338.372 178.195 339.883 180.833 338.126 181.223 344.456 184.555 347.517C185.921 346.161 188.1 344.452 189.75 345.309 191.304 346.117 192.029 349.279 193.496 348.292 195.03 347.26 195.317 346.293 197.694 346.297 199.484 346.299 196.16 343.204 198.389 343.268 199.424 343.298 201.043 342.079 202.833 342.55 204.548 343.001 202.414 349.393 203.672 348.02 206.79 344.618 213.003 345.937 213.603 346.697 215.343 340.468 211.944 334.724 223.877 327.533L229.144 316.44C236.165 313.495 243.701 314.835 250.156 307.174 258.272 301.753 266.382 297.676 270.765 298.892L278.959 298.9 283.563 294.971 305.603 295.247C306.161 294.164 306.468 293.368 309.513 291.872 309.536 289.21 311.923 289.064 313.581 288.226L314.446 255.566 306.173 256.759C302.905 254.635 305.654 253.958 305.683 249.234 303.821 245.04 301.452 244.409 299.125 244.822 297.082 245.185 296.162 242.288 295.089 242.506 293.243 242.882 291.22 241.11 289.996 238.502 289.58 237.616 288.436 237.212 287.663 236.681 285.944 235.5 284.376 234.593 284.821 232.752 284.821 232.752 245.467 202.693 226.758 188.233Z" stroke="#000000" stroke-width="0.629167" stroke-linecap="round" fill="#CFFD0E" transform="matrix(1 0 0 1.00017 -67.1798 -55.5267)"/><path d="M663.135 298.576C665.067 299.898 666.998 299.731 668.93 302.759L674.064 301.731 675.064 300.121 675.914 299.895 677.046 302.013C679.645 300.639 681.979 300.582 683.627 301.882 684.628 302.673 686.106 301.573 687.182 301.173 689.183 302.795 691.171 304.573 693.342 304.51 700.388 310.335 706.466 316.644 712.122 323.163L718.225 318.911C717.344 316.582 716.18 314.449 712.047 314.349 711.839 312.474 711.046 310.81 708.416 309.801 707.857 307.55 705.925 307.593 704.396 306.953 703.113 303.375 699.979 301.414 697.406 298.961 694.506 299.643 693.165 297.721 691.794 295.856L689.586 295.426 688.006 296.395C686.358 295.039 685.911 293.168 685.452 291.302L683.086 290.671 683.684 293.947C682.256 294.821 681.476 292.46 680.727 289.916L675.914 282.927C672.774 268.302 670.037 266.509 667.231 262.515 666.457 264.335 666.325 266.546 665.054 267.539L657.97 271.225C656.831 273.212 655.057 273.799 653.176 273.779 650.521 286.437 649.124 294.607 649.25 304.882L654.705 304.875 655.233 303.109 657.756 303.251 659.832 306.54 663.135 298.576Z" stroke="#000000" stroke-width="0.629167" stroke-linecap="round" fill="#C1BBCE" transform="matrix(1 0 0 1.00017 -67.1798 -55.5267)"/><path d="M718.131 318.634 711.94 323.256C710.864 326.374 711.455 328.885 710.581 330.368 707.026 336.376 707.479 336.843 708.58 338.175 710.065 339.97 713.978 338.69 716.004 337.491L719.245 338.877 722.85 333.424C720.629 331.54 718.408 332.515 716.193 332.407 716.797 329.69 719.848 329.069 722.013 327.693 723.617 322.744 720.213 319.588 718.131 318.634Z" stroke="#000000" stroke-width="0.629167" stroke-linecap="round" fill="#C1BBCE" transform="matrix(1 0 0 1.00017 -67.1798 -55.5267)"/><path d="M774.85 369.381 744.524 403.988 732.671 403.775C731.211 404.181 725.725 407.555 722.579 410.328 719.993 412.602 716.017 413.928 711.94 415.782 709.524 415.796 706.592 416.672 704.899 415.478 700.936 411.634 696.393 413.517 691.907 414.916 690.422 417.648 688.396 419.839 685.024 420.68L668.81 418.161C665.142 415.047 661.103 412.157 656.082 409.852L647.073 409.229 647.079 401.909 639.995 399.315 634.873 387.621 627.524 381.742C628.894 379.547 625.297 377.735 623.467 375.787 620.979 376.348 618.492 375.84 616.004 374.503L618.193 371.872 618.059 368.486 624.516 368.602C625.926 367.717 627.486 367.379 628.518 365.108L628.334 346.133 631.406 341.3 634.634 341.419 636.113 333.322C639.995 328.54 641.372 322.7 647.784 318.981L649.47 304.944 654.604 304.797 655.315 303.126 657.813 303.169 659.945 306.719 663.022 298.56C665.054 299.867 667.709 299.917 668.899 302.792L674.083 301.779 674.957 300.119 675.889 299.92 677.141 302.125C678.783 301.147 680.828 300.106 683.464 301.812 684.225 302.138 685.112 302.309 687.081 301.165 689.158 302.288 690.416 304.576 693.354 304.464 699.992 310.261 706.428 316.29 712.122 323.163 711.613 323.649 711.38 325.484 711.002 329.629L708.542 334.038C706.56 337.29 708.958 340.158 712.733 338.808L716.042 337.535 719.364 338.896C715.356 343.522 724.907 351.579 733.52 359.625L764.607 369.559 774.85 369.381Z" stroke="#000000" stroke-width="0.629167" stroke-linecap="round" fill="#C1BBCE" transform="matrix(1 0 0 1.00017 -67.1798 -55.5267)"/><path d="M722.9 333.203 719.207 338.965C715.614 344.143 725.461 352.06 733.564 359.621L764.872 369.664 774.963 369.243 744.556 404.031 732.268 403.788C728.361 405.981 724.542 408.227 721.749 411.085 718.552 413.076 714.972 414.309 711.575 415.897 709.474 420.5 705.963 424.26 702.798 428.228L702.892 468.598 709.052 476.344 723.214 460.48 746.959 438.072 749.69 437.745 759.637 428.334 760.04 426.451C765.501 422.304 772.302 415.344 773.995 411.907 776.996 405.828 780.865 400.678 785.175 395.745L794.524 368.75C796.343 366.996 797.702 364.636 798.847 361.983 799.318 359.152 801.011 358.151 802.313 356.561L803.377 343.042C806.409 343.468 804.943 337.479 805.119 333.821 803.949 332.778 802.641 331.059 805.088 329.677L805.069 326.308C802.867 326.49 800.652 323.978 798.494 325.675 795.789 328.221 792.177 330.043 788.063 330.382 783.482 330.76 779.751 333.409 777.832 332.759 774.731 335.332 770.779 336.205 765.652 334.72 762.229 337.767 759.983 341.724 748.985 338.928L741.976 343.94C731.161 346.872 728.349 338.118 722.9 333.203Z" stroke="#000000" stroke-width="0.629167" stroke-linecap="round" fill="#C1BBCE" transform="matrix(1 0 0 1.00017 -67.1798 -55.5267)"/><path d="M429.662 380.647 419.984 396.523 421.282 408.064C425.417 416.187 430.239 423.693 436.666 429.754 440.655 425.314 442.409 421.89 450.31 419.844L457.185 422.833 464.894 420.663C466.805 418.444 466.65 414.932 466.8 411.611 469.45 407.29 472.304 405.018 475.181 402.961 477.312 404.61 481.086 403.339 481.37 408.271 483.896 411.112 486.278 412.806 488.118 410.169 490.252 413.324 499.322 412.317 505.561 413.008 505.922 411.837 506.583 410.29 507.861 407.972 509.95 407.656 511.828 406.834 515.016 409.153L528.195 404.542 529.054 406.488 534.324 405.641 534.232 403.678 545.876 402.711 548.469 406.04 549.67 404.239 551.659 405.691 553.335 403.765 558.762 403.553C557.652 400.478 558.125 396.831 549.901 394.893L545.673 386.255C541.433 382.197 533.919 380.322 533.371 373.802L530.121 370.662C527.368 370.791 524.97 371.984 521.901 367.005 516.942 366.252 513.577 365.475 516.834 355.432 514.286 349.282 510.394 346.37 507.016 341.674 499.907 343.033 497.053 342.671 496.803 350.021 494.544 351.819 491.228 352.736 490.196 355.557 489.302 357.642 488.562 359.247 485.399 359.516 484.497 360.073 483.403 361.206 482.274 362.445L468.801 363.851C469.506 366.385 469.233 368.67 466.334 371.498 465.56 372.253 465.005 373.18 464.282 373.992L454.58 374.895C443.366 379.843 437.736 378.793 429.662 380.647Z" stroke="#000000" stroke-width="0.629167" stroke-linecap="round" fill="#E27575" transform="matrix(1 0 0 1.00017 -67.1798 -55.5267)"/><path d="M465.3 420.823C463.461 426.309 461.267 430.202 458.975 436.169 455.969 443.996 456.638 456.061 455.105 466.733 447.154 470.337 444.638 476.115 440.57 481.272L437.397 496.451C431.657 502.068 426.318 509.282 419.404 510.2 418.983 501.733 411.649 505.802 410.842 509.135 407.349 511.444 406.209 509.046 404.235 508.314 401.711 510.131 399.882 512.295 399.857 515.361 400.212 520.259 397.987 519.994 396.378 520.961L397.318 524.694 410.431 520.208 439.109 520.723 441.771 522.278C448.29 546.448 453.578 544.066 458.254 545.245 465.54 542.195 467.488 543.891 471.362 543.874L474.178 532.882 481.833 533.312 482.812 531.307 487.064 531.969 487.129 536.412 496.358 535.737 497.318 560.074 502.581 571.029 498.565 576.469 502.224 579.563 504.18 575.649 516.285 575.434 520.673 573.963 524.47 573.894 525.846 579.304 532.902 576.972C533.281 578.597 533.979 579.786 534.911 580.657 537.201 582.798 541.483 585.745 545.3 585.804 547.99 585.845 550.155 583.08 552.513 583.576 555.727 588.032 559.534 589.324 563.522 589.655 566.485 594.252 568.477 599.822 576.904 598.955L580.205 601.25 579.97 589.486C574.117 591.367 570.566 588.644 567.542 584.868 568.139 580.225 570.016 576.008 572.155 571.879 572.342 567.104 571.699 562.707 570.526 557.925 570.27 556.878 571.635 552.977 573.378 550.693L592.359 546.045C590.393 535.408 583.481 533.248 581.498 525.718 579.072 516.501 577.886 505.451 579.179 494.672 578.819 489.624 576.509 486.952 573.17 485.531L578.833 477.417 583.421 472.383 584.133 454.748 590.566 444.979 600.919 435.661 594.676 431.601 594.707 420.478 581.775 409.511C580.621 409.619 580.087 410.761 579.278 411.444 576.672 412.255 574.274 411.001 571.783 410.661 570.443 413.661 564.921 412.086 564.268 410.375 564.077 409.876 564.51 408.87 563.757 408.589 562.126 406.389 560.448 404.902 558.818 403.515L553.433 403.776 551.68 405.794 549.698 404.152 548.464 406.08 545.888 402.711 534.261 403.721 534.265 405.595 529.091 406.546 528.273 404.557 515.085 409.23C511.392 406.552 510.035 408.006 507.873 407.917L505.551 412.971C494.596 412.556 490.021 412.552 488.215 410.111 484.747 413.931 483.903 409.223 481.779 408.678 480.578 403.094 477.404 404.749 475.194 402.865 471.105 405.61 468.873 408.355 466.961 411.099 466.984 414.918 466.377 418.105 465.3 420.823Z" stroke="#000000" stroke-width="0.629167" stroke-linecap="round" fill="#E27575" transform="matrix(1 0 0 1.00017 -67.1798 -55.5267)"/><path d="M390.509 642.039C392.767 641.442 395.21 638.441 397.237 640.85 399.25 638.359 404.838 633.439 413.872 642.656L459.266 642.039 464.129 646.28 492.742 649.979 510.841 645.902 498.607 634.986 499.543 596.319 521.372 596.967 519 594.436 521.571 573.989C521.277 574.062 520.94 573.913 520.654 574.017 515.393 575.933 509.799 575.491 504.154 575.604L502.193 579.45 498.614 576.435 502.604 571.12 497.218 560.206 496.395 535.713 487.069 536.375 487.073 531.952 482.929 531.346 481.841 533.314 474.226 532.922 471.333 544.009C467.553 543.328 464.062 542.398 458.399 545.26 453.395 543.652 448.866 547.401 441.784 522.277L439.105 520.676 410.426 520.214 397.379 524.693C400.646 534.093 407.548 539.43 407.314 553.332L405.071 555.483C406.923 561.761 408.575 568.328 412.699 571.325 413.105 573.083 412.215 574.361 412.1 575.681 411.677 580.512 409.138 594.205 408.022 591.764 408.022 591.764 403.424 592.768 403.011 596.471 402.811 598.275 400.585 598.531 399.757 600.754 397.445 606.969 395.008 616.827 393.251 625.791 393.047 626.829 391.693 626.373 391.525 627.363 391.043 630.217 391.58 632.243 391.4 635.276 391.346 636.182 390.196 634.659 389.973 635.779 389.698 637.17 390.813 641.089 390.509 642.039Z" stroke="#000000" stroke-width="0.629167" stroke-linecap="round" fill="#E27575" transform="matrix(1 0 0 1.00017 -67.1798 -55.5267)"/><path d="M390.544 642.039C390.992 647.903 391.539 653.729 396.915 657.869L419.123 697.412 419.688 715.564 423.65 723.963C423.873 727.229 422.667 730.5 424.676 733.772L427.435 749.218 439.494 762.651C446.987 754.604 449.713 761.103 451.591 766.256 456.175 765.822 460.761 765.4 465.346 766.193 467.494 764.255 469.691 762.33 473.073 760.883L474.837 691.958 485.035 692.285 486.499 653.471 511.4 651.276 513.313 656.479C515.106 654.51 517.558 650.892 521.222 650.722 524.532 650.571 526.151 648.425 529.41 646.689L527.023 643.222 510.99 645.89 493.09 650.055 464.119 646.186 459.268 642.109 413.641 642.637C411.462 639.749 403.208 633.181 397.24 640.926 395.222 638.516 392.787 641.536 390.544 642.039Z" stroke="#000000" stroke-width="0.629167" stroke-linecap="round" fill="#E50101" transform="matrix(1 0 0 1.00017 -67.1798 -55.5267)"/><path d="M439.494 762.657 456.384 796.638 456.605 804.408C455.751 806.277 454.351 806.334 452.785 806.032 452.151 806.925 451.557 808.076 452.947 808.945 455.04 812.663 456.555 817.18 459.221 820.364 461.411 822.982 464.66 824.347 467.237 826.605L473.944 827.14C475.324 826.171 474.069 824.85 479.071 824.366L488.895 824.303C491.996 823.082 488.506 820.012 498.621 820.767 500.283 820.974 501.002 822.799 503.608 821.39 508.304 820.635 512.787 822.422 517.362 823.114 518.718 822.031 518.213 820.188 525.83 821.66L526.61 818.697 535.537 818.835 588.459 769.653C596.852 766.174 598.707 756.007 601.059 746.355L594.415 745.909C594.347 745.103 588.037 749.614 587.236 749.702 583.824 750.086 581.855 748.985 582.345 743.008 582.71 738.547 587.483 734.999 588.745 734.175 590.428 733.08 592.106 737.22 593.782 736.125 593.782 736.125 593.19 717.174 592.481 701.32 588.918 699.155 586.363 695.424 580.014 697.563 576.682 695.072 573.349 695.33 570.016 694.55L533.405 723.586 532.061 729.651C527.902 731.853 523.742 731.551 519.582 731.998 516.432 729.601 513.037 728.185 509.344 727.958L503.236 733.306C502.665 736.251 500.954 736.534 499.643 737.748 497.564 738.95 496.479 740.491 496.027 742.234 489.873 743.757 485.556 742.75 481.547 741.322 482.319 737.723 484.634 735.389 482.704 729.575L474.19 720.056 473.082 760.952C470.508 762.066 467.933 763.758 465.357 766.231 461.065 765.859 457.499 765.268 451.545 766.344 450.581 761.826 446.456 754.358 439.494 762.657Z" stroke="#000000" stroke-width="0.629167" stroke-linecap="round" fill="#E50101" transform="matrix(1 0 0 1.00017 -67.1798 -55.5267)"/><path d="M529.46 646.802 522.773 650.558C516.172 650.596 515.764 654.484 513.292 656.573L511.433 651.345 486.436 653.534 485.011 692.253 474.774 692.008 474.084 719.955C476.881 723.391 480.658 727.128 482.551 729.626 484.394 732.061 483.216 736.817 481.426 741.259 486.379 743.354 491.183 743.455 495.951 742.215 496.66 740.334 497.632 738.981 498.917 738.252 500.984 737.062 502.687 735.546 503.322 733.074L509.55 727.877C513.389 728.216 516.342 729.739 519.339 731.935 525.686 732.023 529.463 730.865 532.098 729.525L533.328 723.674 569.879 694.468C565.278 691.121 562.982 691.882 560.355 691.265 557.707 690.649 554.443 685.943 555.321 677.858 552.786 677.361 551.164 675.945 549.771 674.303 548.181 671.642 546.103 671.9 544.255 670.773 541.39 666.791 536.122 661.676 535.716 658.599 535.52 657.108 534.735 657.19 533.617 655.529 532.326 653.61 530.627 649.155 529.46 646.802Z" stroke="#000000" stroke-width="0.629167" stroke-linecap="round" fill="#E50101" transform="matrix(1 0 0 1.00017 -67.1798 -55.5267)"/><path d="M709.146 476.353C707.762 478.513 706.246 480.507 703.207 480.596 702.081 483.594 700.615 486.331 696.852 487.251 692.713 494.737 689.56 503.34 684.382 509.663L669.905 499.962 667.628 491.525 623.52 463.827 638.038 441.631 638.346 429.195 633.363 425.084C632.74 420.285 631.62 415.946 627.669 414.2L632.803 409.712 647.155 409.063 656.082 409.828C659.146 411.409 660.77 411.464 668.867 418.216L685.131 420.66C687.723 419.767 690.133 418.44 691.939 414.827 695.865 414.26 700.03 410.863 705.126 415.708 706.793 416.3 709.461 416.049 712.11 415.665 709.077 420.512 705.887 424.421 702.716 428.461L702.987 468.799 709.146 476.353Z" stroke="#000000" stroke-width="0.629167" stroke-linecap="round" fill="#C1BBCE" transform="matrix(1 0 0 1.00017 -67.1798 -55.5267)"/><path d="M623.521 463.77 619.705 469.455 590.749 469.948 595.495 479.7C588.02 487.242 592.773 488.671 594.551 491.587 591.273 497.692 588.75 505.148 582.192 505.398 580.543 505.813 579.336 505.4 579.028 507.427 578.305 512.169 580.385 521.992 582.291 527.667 584.245 532.048 587.699 535.011 589.573 538.68 591.301 541.225 591.724 543.77 592.54 546.315L596.556 550.844C598.251 550.341 600.138 550.797 602.81 555.182L614.861 559.16C617.46 561.568 621.566 562.218 625.601 562.95L631.916 583.797 643.726 584.099C645.764 582.815 647.809 582.924 649.847 585.577 654.239 584.885 658.171 583.724 663.947 584.416 665.778 582.455 668.049 580.993 671.837 581.235 676.373 584.851 689.309 577.499 694.877 573.9 693.524 571.448 691.045 570.116 688.742 568.606 688.931 565.819 687.805 562.769 686.798 559.744 685.628 557.896 684.722 556.114 685.496 554.753L682.759 548.768 684.477 548.207C684.03 543.644 684.061 539.338 686.779 536.48 684.917 532.616 678.556 529.551 678.921 524.967L684.351 509.675 669.943 500.13 667.552 491.627 623.521 463.77Z" stroke="#000000" stroke-width="0.629167" stroke-linecap="round" fill="#C1BBCE" transform="matrix(1 0 0 1.00017 -67.1798 -55.5267)"/><path d="M592.415 546.061C592.415 546.061 573.261 550.784 573.261 550.784 572.016 553.061 571.134 554.376 570.65 556.956 570.525 557.624 571.102 559 571.305 560.88 571.707 564.603 572.968 571.131 571.827 572.893 569.153 577.021 567.345 584.645 567.497 584.863 569.023 587.05 572.123 589.284 573.95 589.766 576.47 590.432 579.298 590.117 579.911 589.171L580.212 601.261C579.23 600.451 577.822 599.883 577.126 599.002 573.107 598.659 569.481 600.81 563.57 589.63 559.686 589.296 555.846 588.163 552.528 583.543 550.918 583.122 548.233 585.324 545.812 585.866 538.885 585.204 536.894 581.919 535.127 580.91 533.926 579.797 533.166 578.501 532.932 576.986L525.805 579.351 524.524 573.837 521.576 573.933 519.041 594.584 521.373 596.936 499.63 596.374 498.583 635.075 510.694 645.777 527.107 643.203 529.509 646.809 530.549 649.243 543.393 649.375 545.146 650.917 547.545 650.288C554.47 641.228 560.783 638.912 567.158 635.905L567.42 629.89C572.45 626.773 577.875 625.023 584.156 626.227L581.802 620.271 613.706 610.275 610.307 605.306 616.06 594.584 620.506 594.061 617.629 590.139 620.244 576.017 622.859 574.187 617.629 563.988 615.246 559.265 603.014 555.161C598.854 549.247 597.879 550.36 596.584 550.705L592.415 546.061Z" stroke="#000000" stroke-width="0.629167" stroke-linecap="round" fill="#C1BBCE" transform="matrix(1 0 0 1.00017 -67.1798 -55.5267)"/><path d="M581.861 620.365 584.084 626.179 583.913 629.086 591.607 629.664 609.635 636.679C611.48 646.752 610.298 655.176 607.371 662.651 607.292 664.111 606.804 665.514 606.982 666.847 607.314 669.364 608.553 672.831 607.146 675.712 603.526 683.137 600.143 690.567 599.271 691.052 596.281 692.706 592.565 697.545 592.462 701.414L594.262 745.927 601.078 746.362 602.893 740.064 600.157 741.089C600.575 738.591 600 736.1 602.62 733.608L624.491 724.964C627.199 722.975 628.881 719.962 630.765 717.149L628.212 716.268 632.74 699.174 630.412 698.381 628.532 683.999C622.336 680.198 625.92 674.29 628.42 672.913L641.643 661.676 642.732 663.916 647.633 658.498 646.557 656.825 649.74 656.246 650.69 653.503 666.891 645.525 670.937 645.569C674.001 643.247 676.467 640.75 680.941 638.831L680.651 636.427 686.05 632.25C687.346 630.922 688.459 628.952 690.152 629.021L690.391 626.345 689.365 625.207 692.316 620.779 693.065 617.823 692.593 615.891 690.787 613.14 691.41 602.309C690.032 600.969 690.794 600.056 691.53 599.14L691.171 587.183 695.519 579.868C695.626 577.863 695.789 575.859 695.059 573.855 688.396 577.82 677.248 584.724 671.61 581.183 669.138 581.485 666.369 581.48 663.978 584.586 661.953 584.396 660.122 584.011 657.693 584.22L649.715 585.664C648.268 583.934 646.815 582.216 643.461 584.093L631.822 583.714 630.003 601.904C635.748 606.522 640.8 612.464 643.323 618.552 644.858 622.258 642.077 627.602 641.536 632.338L635.767 634.835 636.069 642.939 633.225 643.367C633.917 641.674 634.678 639.951 632.199 639.737 629.057 637.075 626.651 634.074 626.319 630.11 628.724 626.2 629.695 621.773 629.055 616.775L623.457 615.748C621.278 616.278 618.751 616.232 618.182 614.496 616.671 609.883 615.207 609.639 613.495 610.105L581.861 620.365Z" stroke="#000000" stroke-width="0.629167" stroke-linecap="round" fill="#C1BBCE" transform="matrix(1 0 0 1.00017 -67.1798 -55.5267)"/><path d="M530.497 649.268 533.682 655.717C534.727 656.932 536.091 658.064 535.996 660.04 538.482 664.293 541.581 667.313 544.416 670.862 546.59 671.541 548.514 672.529 549.836 674.272 551.17 675.882 552.688 677.505 555.367 677.921 554.237 684.477 557.179 690.127 560.26 691.303 563.909 691.467 567.36 692.146 569.977 694.644 577.399 695.525 578.267 696.557 580.024 697.57 586.104 695.537 588.938 698.929 592.396 701.269 593.223 696.311 596.143 693.537 599.449 690.926 602.058 687.125 604.453 681.174 606.946 676.203 608.794 673.127 607.304 669.874 606.858 666.671L607.348 662.588C611.84 651.326 610.462 644.6 609.732 636.673L591.495 629.639 583.831 629.089 584.085 626.492C577.588 624.387 572.301 627.224 567.457 629.896L567.237 635.88C552.317 642.536 551.524 646.154 547.417 650.338L545.192 651.024 543.378 649.419 530.497 649.268Z" stroke="#000000" stroke-width="0.629167" stroke-linecap="round" fill="#C1BBCE" transform="matrix(1 0 0 1.00017 -67.1798 -55.5267)"/><path d="M593.838 736.471 594.314 745.726C591.548 747.11 589.491 748.494 587.134 749.879 584.548 749.816 582.892 749.136 582.482 747.066 581.83 743.769 582.202 741.523 584.032 738.749 585.363 736.735 587.767 734.193 589.381 733.923 590.211 733.784 591.436 735.03 592.152 736.081L593.838 736.471Z" stroke="#000000" stroke-width="0.629167" stroke-linecap="round" fill="#E50101" transform="matrix(1 0 0 1.00017 -67.1798 -55.5267)"/><path d="M559.735 780.425C558.976 780.494 557.651 780.714 556.699 781.098 555.999 781.375 555.366 781.67 554.843 782.193 554.42 782.62 554.307 783.243 554.169 783.797 554.025 784.37 552.859 785.112 552.398 785.232 551.751 785.389 550.879 785.232 550.205 785.232 548.855 785.232 548.213 784.936 547.422 783.879 546.456 782.595 545.245 781.601 544.385 780.167 543.777 779.154 543.223 778.537 542.867 777.468 542.6 776.668 542.698 775.781 542.698 774.938 542.698 773.862 543.195 772.881 544.132 772.409 544.245 772.352 544.357 772.296 544.47 772.239 545.572 771.692 545.846 770.446 546.663 769.628 547.561 768.728 548.726 767.929 549.698 767.099 550.316 766.564 551.198 766.092 551.892 765.746 552.956 765.218 553.972 764.935 555.097 764.651 555.94 764.438 556.923 764.154 557.627 763.978 557.766 763.94 557.908 763.922 558.048 763.89 558.189 763.865 558.329 763.833 558.47 763.808 559.464 763.607 560.718 764.104 561.253 764.821 561.987 765.797 562.907 766.74 563.615 767.684 563.985 768.181 563.962 769.395 564.289 770.05 564.756 770.981 565.31 771.679 565.639 772.661 565.976 773.674 565.491 774.731 565.049 775.618 564.522 776.668 563.811 777.273 563.024 778.059 562.381 778.707 561.693 779.229 561 779.745 560.634 780.022 560.141 780.179 559.735 780.425Z" stroke="#000000" stroke-width="0.629167" stroke-linecap="square" fill="#E50101" transform="matrix(1 0 0 1.00017 -67.1798 -55.5267)"/><path d="M625.589 562.934 631.853 583.59 630.003 601.928C633.722 605.278 637.421 607.996 642.643 616.703 643.298 617.796 643.984 620.528 643.751 622.718L641.479 632.413 635.804 634.886 636.245 643.367 633.237 643.411C634.785 639.428 633.3 640.171 632.633 639.932 628.521 637.333 626.98 633.508 626.223 630.085 629.588 624.903 629.387 620.743 629.004 616.74L623.438 615.711C619.141 616.761 618.305 615.184 617.891 613.751 615.558 608.289 614.487 610.394 613.632 610.024L610.312 605.455 616.135 594.661 620.676 594.152 617.585 590.124 620.292 576.086 622.868 574.186 615.426 559.477C617.59 561.374 619.983 562.02 625.589 562.934Z" stroke="#000000" stroke-width="0.629167" stroke-linecap="round" fill="#C1BBCE" transform="matrix(1 0 0 1.00017 -67.1798 -55.5267)"/><path d="M575.81 487.231 577.339 485.794 579.193 485.887 580.119 488.482 585.309 487.463 585.587 484.219 592.075 483.848C589.931 487.576 593.125 489.609 594.484 491.494 590.139 501.647 586.439 505.215 583.08 505.38 578.628 505.4 579.21 507.03 578.73 508.454 578.406 503.94 578.641 499.729 578.925 496.034 579.272 491.514 577.768 488.186 575.81 487.231Z" stroke="#000000" stroke-width="0.629167" stroke-linecap="round" fill="#C1BBCE" transform="matrix(1 0 0 1.00017 -67.1798 -55.5267)"/><path d="M590.638 469.9 586.005 473.607 584.429 473.607 583.502 472.31C579.393 476.41 576.322 481.03 573.169 485.609 574.305 485.88 575.214 486.435 575.856 487.324L577.386 485.887 579.147 486.026 580.027 488.389 585.356 487.324 585.587 484.126 592.214 483.756C593.187 482.427 594.051 481.099 595.504 479.77L590.638 469.9Z" stroke="#000000" stroke-width="0.629167" stroke-linecap="round" fill="#C1BBCE" transform="matrix(1 0 0 1.00017 -67.1798 -55.5267)"/><path d="M594.694 420.319 596.772 418.744C605.129 420.875 613.838 419.655 622.547 418.441L627.764 414.126C630.727 415.87 632.942 418.862 633.382 425.103L638.403 429.116 638.403 441.303 619.73 469.415 590.614 469.954 586.159 473.564 584.42 473.598 583.419 472.259 584.087 454.888 590.613 444.985 601.021 435.648 594.729 431.67 594.694 420.319Z" stroke="#000000" stroke-width="0.629167" stroke-linecap="round" fill="#C1BBCE" transform="matrix(1 0 0 1.00017 -67.1798 -55.5267)"/><path d="M173.537 750.275 327.251 750.275 327.251 741.75" stroke="#000000" stroke-width="1.8875" stroke-linecap="round" fill="none" transform="matrix(1 0 0 1.00017 -67.1798 -55.5267)"/><path d="M269.441 750.514 269.441 758.567" stroke="#000000" stroke-width="1.8875" stroke-linecap="round" fill="none" transform="matrix(1 0 0 1.00017 -67.1798 -55.5267)"/><path d="M173.526 741.574 173.526 759.02" stroke="#000000" stroke-width="1.8875" stroke-linecap="round" fill="none" transform="matrix(1 0 0 1.00017 -67.1798 -55.5267)"/><path d="M21.9772-7.31591C21.5201-7.31591 21.1551-7.12236 20.8823-6.73528 20.5395-6.24128 20.368-5.32887 20.368-3.99803 20.368-2.6672 20.5238-1.78151 20.8353-1.34097 21.1468-0.900433 21.5311-0.680164 21.9883-0.680164 22.4454-0.680164 22.8297-0.901355 23.1412-1.34374 23.4527-1.78612 23.6085-2.67089 23.6085-3.99803 23.6085-5.33256 23.4527-6.21916 23.1412-6.65786 22.8297-7.09656 22.4417-7.31591 21.9772-7.31591ZM15.6855-7.31591C15.2284-7.31591 14.8634-7.12236 14.5906-6.73528 14.2478-6.24128 14.0764-5.32887 14.0764-3.99803 14.0764-2.6672 14.2321-1.78151 14.5436-1.34097 14.8552-0.900433 15.2395-0.680164 15.6966-0.680164 16.1537-0.680164 16.5381-0.901355 16.8496-1.34374 17.1611-1.78612 17.3168-2.67089 17.3168-3.99803 17.3168-5.33256 17.1611-6.21916 16.8496-6.65786 16.5381-7.09656 16.15-7.31591 15.6855-7.31591ZM9.39388-7.31591C8.93675-7.31591 8.57178-7.12236 8.29898-6.73528 7.95613-6.24128 7.78471-5.32887 7.78471-3.99803 7.78471-2.6672 7.94046-1.78151 8.25198-1.34097 8.56349-0.900433 8.94781-0.680164 9.40494-0.680164 9.86207-0.680164 10.2464-0.901355 10.5579-1.34374 10.8694-1.78612 11.0252-2.67089 11.0252-3.99803 11.0252-5.33256 10.8694-6.21916 10.5579-6.65786 10.2464-7.09656 9.85838-7.31591 9.39388-7.31591ZM21.9883-8.13984C22.4233-8.13984 22.8048-8.05229 23.1329-7.87718 23.461-7.70207 23.732-7.44954 23.9458-7.1196 24.1596-6.78965 24.3274-6.38782 24.449-5.91411 24.5707-5.44039 24.6315-4.8017 24.6315-3.99803 24.6315-3.04691 24.5338-2.27919 24.3384-1.69488 24.143-1.11057 23.8509-0.658966 23.462-0.340082 23.073-0.0211975 22.5818 0.138245 21.9883 0.138245 21.2067 0.138245 20.5929-0.141931 20.1469-0.702283 19.6123-1.37692 19.345-2.4755 19.345-3.99803 19.345-4.95653 19.4436-5.72794 19.6409-6.31225 19.8381-6.89656 20.1312-7.34724 20.5201-7.66428 20.909-7.98132 21.3984-8.13984 21.9883-8.13984ZM15.6966-8.13984C16.1316-8.13984 16.5132-8.05229 16.8413-7.87718 17.1694-7.70207 17.4403-7.44954 17.6541-7.1196 17.868-6.78965 18.0357-6.38782 18.1574-5.91411 18.279-5.44039 18.3398-4.8017 18.3398-3.99803 18.3398-3.04691 18.2421-2.27919 18.0468-1.69488 17.8514-1.11057 17.5592-0.658966 17.1703-0.340082 16.7814-0.0211975 16.2901 0.138245 15.6966 0.138245 14.9151 0.138245 14.3013-0.141931 13.8552-0.702283 13.3206-1.37692 13.0534-2.4755 13.0534-3.99803 13.0534-4.95653 13.152-5.72794 13.3492-6.31225 13.5464-6.89656 13.8395-7.34724 14.2284-7.66428 14.6174-7.98132 15.1068-8.13984 15.6966-8.13984ZM9.40494-8.13984C9.83995-8.13984 10.2215-8.05229 10.5496-7.87718 10.8777-7.70207 11.1487-7.44954 11.3625-7.1196 11.5763-6.78965 11.744-6.38782 11.8657-5.91411 11.9873-5.44039 12.0482-4.8017 12.0482-3.99803 12.0482-3.04691 11.9505-2.27919 11.7551-1.69488 11.5597-1.11057 11.2676-0.658966 10.8786-0.340082 10.4897-0.0211975 9.99847 0.138245 9.40494 0.138245 8.62339 0.138245 8.00959-0.141931 7.56352-0.702283 7.02897-1.37692 6.7617-2.4755 6.7617-3.99803 6.7617-4.95653 6.86031-5.72794 7.05754-6.31225 7.25477-6.89656 7.54785-7.34724 7.93678-7.66428 8.32571-7.98132 8.81509-8.13984 9.40494-8.13984ZM3.57777-8.13984 4.21923-8.13984 4.21923 0 3.22387 0 3.22387-6.34266C2.98424-6.1141 2.66996-5.88553 2.28104-5.65697 1.89211-5.42841 1.54281-5.25698 1.23314-5.1427L1.23314-6.10488C1.78981-6.36663 2.27643-6.68367 2.69301-7.05601 3.10958-7.42834 3.4045-7.78962 3.57777-8.13984Z" stroke="#000000" stroke-width="0.838113" stroke-linecap="round" fill-rule="evenodd" transform="matrix(1 0 0 1.00017 188.226 716.64)"/><text fill="#000000" fill-opacity="0" font-family="Arial,Arial_MSFontService,sans-serif" font-size="8.27809" x="1.23314" y="-0.896516">1000 </text><path d="M9.07991-6.00535C9.51492-6.00535 9.87159-5.91503 10.1499-5.73439 10.4283-5.55375 10.6246-5.30122 10.7388-4.97681 11.2033-5.6625 11.8079-6.00535 12.5526-6.00535 13.1351-6.00535 13.583-5.84406 13.8963-5.52149 14.2097-5.19892 14.3664-4.70216 14.3664-4.03121L14.3664 0 13.3766 0 13.3766-3.69943C13.3766-4.09757 13.3443-4.3842 13.2798-4.55931 13.2153-4.73442 13.0982-4.87543 12.9286-4.98234 12.7591-5.08925 12.56-5.1427 12.3314-5.1427 11.9185-5.1427 11.5757-5.00538 11.3029-4.73073 11.0301-4.45609 10.8937-4.01647 10.8937-3.41188L10.8937 0 9.89832 0 9.89832-3.81555C9.89832-4.25793 9.81721-4.58972 9.655-4.81091 9.4928-5.0321 9.22737-5.1427 8.85872-5.1427 8.57854-5.1427 8.31956-5.06897 8.08178-4.92151 7.844-4.77405 7.67166-4.55839 7.56475-4.27452 7.45784-3.99066 7.40438-3.58146 7.40438-3.04691L7.40438 0 6.40902 0 6.40902-5.87263 7.29932-5.87263 7.29932-5.04869C7.48364-5.33624 7.7288-5.56757 8.03478-5.74268 8.34076-5.91779 8.68914-6.00535 9.07991-6.00535ZM0.752051-8.10666 1.74741-8.10666 1.74741-3.48376 4.1031-5.87263 5.39154-5.87263 3.14645-3.6939 5.61826 0 4.39065 0 2.44969-3.00267 1.74741-2.32804 1.74741 0 0.752051 0Z" stroke="#000000" stroke-width="0.838113" stroke-linecap="round" fill-rule="evenodd" transform="matrix(1 0 0 1.00017 216.539 716.64)"/><text fill="#000000" fill-opacity="0" font-family="Arial,Arial_MSFontService,sans-serif" font-size="8.10666" x="0.752051" y="-1.01333">km</text><path d="M21.9772-7.31591C21.5201-7.31591 21.1551-7.12236 20.8823-6.73528 20.5395-6.24128 20.368-5.32887 20.368-3.99803 20.368-2.6672 20.5238-1.78151 20.8353-1.34097 21.1468-0.900433 21.5311-0.680164 21.9883-0.680164 22.4454-0.680164 22.8297-0.901355 23.1412-1.34374 23.4527-1.78612 23.6085-2.67089 23.6085-3.99803 23.6085-5.33256 23.4527-6.21916 23.1412-6.65786 22.8297-7.09656 22.4417-7.31591 21.9772-7.31591ZM15.6855-7.31591C15.2284-7.31591 14.8634-7.12236 14.5906-6.73528 14.2478-6.24128 14.0764-5.32887 14.0764-3.99803 14.0764-2.6672 14.2321-1.78151 14.5436-1.34097 14.8552-0.900433 15.2395-0.680164 15.6966-0.680164 16.1537-0.680164 16.5381-0.901355 16.8496-1.34374 17.1611-1.78612 17.3168-2.67089 17.3168-3.99803 17.3168-5.33256 17.1611-6.21916 16.8496-6.65786 16.5381-7.09656 16.15-7.31591 15.6855-7.31591ZM9.39388-7.31591C8.93675-7.31591 8.57178-7.12236 8.29898-6.73528 7.95613-6.24128 7.78471-5.32887 7.78471-3.99803 7.78471-2.6672 7.94046-1.78151 8.25198-1.34097 8.56349-0.900433 8.94781-0.680164 9.40494-0.680164 9.86207-0.680164 10.2464-0.901355 10.5579-1.34374 10.8694-1.78612 11.0252-2.67089 11.0252-3.99803 11.0252-5.33256 10.8694-6.21916 10.5579-6.65786 10.2464-7.09656 9.85838-7.31591 9.39388-7.31591ZM21.9883-8.13984C22.4233-8.13984 22.8048-8.05229 23.1329-7.87718 23.461-7.70207 23.732-7.44954 23.9458-7.1196 24.1596-6.78965 24.3274-6.38782 24.449-5.91411 24.5707-5.44039 24.6315-4.8017 24.6315-3.99803 24.6315-3.04691 24.5338-2.27919 24.3384-1.69488 24.143-1.11057 23.8509-0.658966 23.462-0.340082 23.073-0.0211975 22.5818 0.138245 21.9883 0.138245 21.2067 0.138245 20.5929-0.141931 20.1469-0.702283 19.6123-1.37692 19.345-2.4755 19.345-3.99803 19.345-4.95653 19.4436-5.72794 19.6409-6.31225 19.8381-6.89656 20.1312-7.34724 20.5201-7.66428 20.909-7.98132 21.3984-8.13984 21.9883-8.13984ZM15.6966-8.13984C16.1316-8.13984 16.5132-8.05229 16.8413-7.87718 17.1694-7.70207 17.4403-7.44954 17.6541-7.1196 17.868-6.78965 18.0357-6.38782 18.1574-5.91411 18.279-5.44039 18.3398-4.8017 18.3398-3.99803 18.3398-3.04691 18.2421-2.27919 18.0468-1.69488 17.8514-1.11057 17.5592-0.658966 17.1703-0.340082 16.7814-0.0211975 16.2901 0.138245 15.6966 0.138245 14.9151 0.138245 14.3013-0.141931 13.8552-0.702283 13.3206-1.37692 13.0534-2.4755 13.0534-3.99803 13.0534-4.95653 13.152-5.72794 13.3492-6.31225 13.5464-6.89656 13.8395-7.34724 14.2284-7.66428 14.6174-7.98132 15.1068-8.13984 15.6966-8.13984ZM9.40494-8.13984C9.83995-8.13984 10.2215-8.05229 10.5496-7.87718 10.8777-7.70207 11.1487-7.44954 11.3625-7.1196 11.5763-6.78965 11.744-6.38782 11.8657-5.91411 11.9873-5.44039 12.0482-4.8017 12.0482-3.99803 12.0482-3.04691 11.9505-2.27919 11.7551-1.69488 11.5597-1.11057 11.2676-0.658966 10.8786-0.340082 10.4897-0.0211975 9.99847 0.138245 9.40494 0.138245 8.62339 0.138245 8.00959-0.141931 7.56352-0.702283 7.02897-1.37692 6.7617-2.4755 6.7617-3.99803 6.7617-4.95653 6.86031-5.72794 7.05754-6.31225 7.25477-6.89656 7.54785-7.34724 7.93678-7.66428 8.32571-7.98132 8.81509-8.13984 9.40494-8.13984ZM3.57777-8.13984 4.21923-8.13984 4.21923 0 3.22387 0 3.22387-6.34266C2.98424-6.1141 2.66996-5.88553 2.28104-5.65697 1.89211-5.42841 1.54281-5.25698 1.23314-5.1427L1.23314-6.10488C1.78981-6.36663 2.27643-6.68367 2.69301-7.05601 3.10958-7.42834 3.4045-7.78962 3.57777-8.13984Z" stroke="#000000" stroke-width="0.629167" stroke-linecap="round" fill-rule="evenodd" transform="matrix(1 0 0 1.00017 238.766 681.929)"/><text fill="#000000" fill-opacity="0" font-family="Arial,Arial_MSFontService,sans-serif" font-size="8.27809" x="1.23314" y="-0.896516">1000 </text><path d="M9.56038-5.87263 10.5557-5.87263 10.5557 0 9.56038 0ZM3.41741-6.00535C3.85242-6.00535 4.20909-5.91503 4.48742-5.73439 4.76575-5.55375 4.96206-5.30122 5.07634-4.97681 5.54084-5.6625 6.14543-6.00535 6.89011-6.00535 7.47258-6.00535 7.9205-5.84406 8.23385-5.52149 8.5472-5.19892 8.70388-4.70216 8.70388-4.03121L8.70388 0 7.71405 0 7.71405-3.69943C7.71405-4.09757 7.68179-4.3842 7.61728-4.55931 7.55276-4.73442 7.43572-4.87543 7.26614-4.98234 7.09656-5.08925 6.89749-5.1427 6.66892-5.1427 6.25603-5.1427 5.91318-5.00538 5.64038-4.73073 5.36758-4.45609 5.23118-4.01647 5.23118-3.41188L5.23118 0 4.23582 0 4.23582-3.81555C4.23582-4.25793 4.15471-4.58972 3.99251-4.81091 3.8303-5.0321 3.56487-5.1427 3.19622-5.1427 2.91604-5.1427 2.65706-5.06897 2.41928-4.92151 2.1815-4.77405 2.00916-4.55839 1.90225-4.27452 1.79534-3.99066 1.74188-3.58146 1.74188-3.04691L1.74188 0 0.746521 0 0.746521-5.87263 1.63682-5.87263 1.63682-5.04869C1.82114-5.33624 2.0663-5.56757 2.37228-5.74268 2.67826-5.91779 3.02664-6.00535 3.41741-6.00535ZM9.56038-8.10666 10.5557-8.10666 10.5557-6.962 9.56038-6.962Z" stroke="#000000" stroke-width="0.629167" stroke-linecap="round" fill-rule="evenodd" transform="matrix(1 0 0 1.00017 267.079 681.929)"/><text fill="#000000" fill-opacity="0" font-family="Arial,Arial_MSFontService,sans-serif" font-size="8.10666" x="0.746521" y="-1.01333">mi</text><path d="M3.10221-7.31591C2.64508-7.31591 2.28011-7.12236 2.00731-6.73528 1.66447-6.24128 1.49304-5.32887 1.49304-3.99803 1.49304-2.6672 1.6488-1.78151 1.96031-1.34097 2.27182-0.900433 2.65614-0.680164 3.11327-0.680164 3.5704-0.680164 3.95472-0.901355 4.26623-1.34374 4.57774-1.78612 4.7335-2.67089 4.7335-3.99803 4.7335-5.33256 4.57774-6.21916 4.26623-6.65786 3.95472-7.09656 3.56671-7.31591 3.10221-7.31591ZM3.11327-8.13984C3.54828-8.13984 3.92983-8.05229 4.25793-7.87718 4.58604-7.70207 4.85699-7.44954 5.07081-7.1196 5.28463-6.78965 5.45237-6.38782 5.57402-5.91411 5.69568-5.44039 5.75651-4.8017 5.75651-3.99803 5.75651-3.04691 5.65881-2.27919 5.46343-1.69488 5.26804-1.11057 4.97588-0.658966 4.58696-0.340082 4.19803-0.0211975 3.7068 0.138245 3.11327 0.138245 2.33173 0.138245 1.71792-0.141931 1.27185-0.702283 0.737305-1.37692 0.470032-2.4755 0.470032-3.99803 0.470032-4.95653 0.568646-5.72794 0.765875-6.31225 0.963104-6.89656 1.25618-7.34724 1.64511-7.66428 2.03404-7.98132 2.52343-8.13984 3.11327-8.13984Z" stroke="#000000" stroke-width="0.629167" stroke-linecap="round" fill-rule="evenodd" transform="matrix(1 0 0 1.00017 103.258 681.778)"/><text fill="#000000" fill-opacity="0" font-family="Arial,Arial_MSFontService,sans-serif" font-size="8.27809" x="0.470032" y="-0.896516">0</text><path d="M3.10221-7.31591C2.64508-7.31591 2.28011-7.12236 2.00731-6.73528 1.66447-6.24128 1.49304-5.32887 1.49304-3.99803 1.49304-2.6672 1.6488-1.78151 1.96031-1.34097 2.27182-0.900433 2.65614-0.680164 3.11327-0.680164 3.5704-0.680164 3.95472-0.901355 4.26623-1.34374 4.57774-1.78612 4.7335-2.67089 4.7335-3.99803 4.7335-5.33256 4.57774-6.21916 4.26623-6.65786 3.95472-7.09656 3.56671-7.31591 3.10221-7.31591ZM3.11327-8.13984C3.54828-8.13984 3.92983-8.05229 4.25793-7.87718 4.58604-7.70207 4.85699-7.44954 5.07081-7.1196 5.28463-6.78965 5.45237-6.38782 5.57402-5.91411 5.69568-5.44039 5.75651-4.8017 5.75651-3.99803 5.75651-3.04691 5.65881-2.27919 5.46343-1.69488 5.26804-1.11057 4.97588-0.658966 4.58696-0.340082 4.19803-0.0211975 3.7068 0.138245 3.11327 0.138245 2.33173 0.138245 1.71792-0.141931 1.27185-0.702283 0.737305-1.37692 0.470032-2.4755 0.470032-3.99803 0.470032-4.95653 0.568646-5.72794 0.765875-6.31225 0.963104-6.89656 1.25618-7.34724 1.64511-7.66428 2.03404-7.98132 2.52343-8.13984 3.11327-8.13984Z" stroke="#000000" stroke-width="0.872554" stroke-linecap="round" fill-rule="evenodd" transform="matrix(1 0 0 1.00017 103.054 715.746)"/><text fill="#000000" fill-opacity="0" font-family="Arial,Arial_MSFontService,sans-serif" font-size="8.27809" x="0.470032" y="-0.896516">0</text><path d="M102.362 274.979C100.481 278.212 99.2026 279.901 99.1479 282.525 99.0239 288.526 93.0349 290.438 90.0375 294.8 92.826 298.866 95.8624 302.859 96.3349 307.605L107.881 307.605C110.371 304.279 114.039 305.369 118.217 308.371L124.883 308.865 126.353 310.754 121.525 312.433C118.22 311.728 115.239 310.456 112.499 308.763 110.563 309.91 108.351 310.595 105.571 310.335L104.312 312.433 94.236 312.853C93.642 315.582 93.0934 318.311 93.6062 321.04 96.0316 320.816 98.3922 321.172 100.947 319.787 104.389 320.668 107.658 319.897 110.819 318.1L128.231 318.309C134.775 322.052 142.937 322.438 150.494 322.929 150.85 318.986 153.054 315.063 144.462 309.075 145.781 307.377 145.287 303.472 144.133 300.652 143.48 299.056 144.733 298.554 144.14 296.85 143.323 296.396 142.34 295.106 140.965 293.808 139.426 292.356 136.305 288.185 136.305 288.185 134.477 282.704 132.121 280.462 132.121 280.462 126.512 281.38 123.047 275.065 123.047 275.065 118.259 273.772 115.755 274.725 113.672 274.834 108.232 275.119 107.124 275.79 102.362 274.979Z" stroke="#000000" stroke-width="0.629167" stroke-linecap="round" fill="#CFFD0E" transform="matrix(1 0 0 1.00017 -67.1798 -55.5267)"/><path d="M96.2902 307.639 107.835 307.639C110.326 304.313 113.994 305.403 118.173 308.405L124.839 308.899 126.308 310.788 121.48 312.467C118.175 311.762 115.194 310.491 112.453 308.797 110.518 309.944 108.306 310.629 105.526 310.369L104.267 312.467 94.2347 312.888C94.2347 312.888 96.2902 307.639 96.2902 307.639Z" stroke="#000000" stroke-width="0.629167" stroke-linecap="round" fill="#CFFD0E" transform="matrix(1 0 0 1.00017 -67.1798 -55.5267)"/><path d="M93.7207 321.17 94.4278 323.112C95.8913 324.115 98.6464 322.135 98.4816 326.894 99.8123 327.589 101.459 326.185 102.414 329.387 104.047 330.212 108.184 322.526 106.686 333.996L110.358 338.02C112.536 334.625 115.809 331.222 119.198 330.006 119.198 330.006 125.194 329.86 125.194 329.86L126.201 318.309 110.729 318.256C107.584 319.785 104.353 320.622 100.927 319.899 98.7439 320.681 96.4689 321.095 93.7207 321.17Z" stroke="#000000" stroke-width="0.629167" stroke-linecap="round" fill="#CFFD0E" transform="matrix(1 0 0 1.00017 -67.1798 -55.5267)"/><path d="M110.226 338.067C109.863 339.198 109.955 339.759 111.426 339.762 112.02 340.474 114.113 335.446 113.791 340.519L115.662 340.72C115.028 343.538 116.948 346.999 118.778 347.624 121.135 348.427 122.438 351.156 123.734 352.36L126.932 358.246C129.134 359.746 132.168 358.656 136.907 352.265 136.391 350.136 139.333 349.002 148.128 349.553 155.333 354.744 157.493 360.801 154.807 367.688 158.029 366.909 159.832 364.712 165.205 366.084 167.882 369.459 169.54 373.185 167.313 378.241 170.28 379.349 171.35 382.606 175.492 377.119 175.21 375.862 176.232 375.409 177.535 376.374 178.323 376.96 179.64 376.071 180.884 376.379L183.072 370.742 180.39 369.66 180.902 366.698 186.384 367.813C185.965 365.792 183.233 363.163 185.257 361.785 186.164 360.852 185.744 360.122 184.823 359.469L184.937 356.885C179.621 356.25 182.655 350.367 184.49 347.386L181.231 344.424 180.858 337.907 178.171 339.888 177.166 338.387 180.755 335.105 175.91 331.424C176.71 328.847 175.63 325.755 174.752 322.54L171.341 321.797C171.394 323.266 170.885 324.378 169.386 324.86 168.107 324.475 167.323 325.293 167.033 327.311L160.987 324.809 156.187 328.289C156.796 326.729 155.237 325.804 154.257 324.641L151.61 326.419C149.542 327.116 149.282 326.003 149.308 324.607 149.732 324.154 150.263 323.806 150.427 323.09 142.96 321.93 135.14 322.396 128.314 318.287L126.174 318.275 125.244 329.858 119.415 330.012C113.719 332.08 110.915 337.385 110.226 338.067Z" stroke="#000000" stroke-width="0.629167" stroke-linecap="round" fill="#CFFD0E" transform="matrix(1 0 0 1.00017 -67.1798 -55.5267)"/><path d="M393.774 512.549 398.837 509.488C400.957 504.508 402.688 505.953 404.371 508.193 402.219 510.135 399.984 512.013 399.774 515.466 400.282 520.253 398.061 519.853 396.482 520.674 395.782 519.375 394.786 518.135 395.132 516.625 395.09 515.198 395.11 513.76 393.774 512.549Z" stroke="#000000" stroke-width="0.629167" stroke-linecap="round" fill="#E27575" transform="matrix(1 0 0 1.00017 -67.1798 -55.5267)"/><path d="M393.811 512.538 383.237 498.888 390.314 494.392 389.482 486.732 398.14 481.486C399.618 480.325 400.728 477.505 403.386 481.653 407.985 481.107 410.665 482.29 412.128 484.567L415.792 482.069 417.29 466.833C417.22 461.584 411.346 458.156 418.373 450.68 419.554 445.767 415.159 442.402 410.297 442.604 409.107 444.125 408.66 446.574 405.73 445.919L405.884 438.608 407.632 435.943 421.786 436.11 428.624 438.542C431.175 437.237 434.592 441.11 436.966 441.508L436.606 429.783C441.97 422.949 445.922 420.909 450.344 419.874L457.088 422.955 465.414 420.624C463.37 426.094 461.141 430.584 459.07 435.951 455.521 445.151 456.706 456.363 455.09 466.666 447.402 470.037 444.614 475.955 440.603 481.236L437.287 496.497C430.05 504.251 423.663 510.466 419.538 510.128 419.511 505.769 414.78 501.903 410.918 509.069 408.225 510.853 406.287 509.927 404.219 507.963 401.225 504.009 400.241 507.359 398.89 509.378L393.811 512.538Z" stroke="#000000" stroke-width="0.629167" stroke-linecap="round" fill="#E27575" transform="matrix(1 0 0 1.00017 -67.1798 -55.5267)"/><path d="M383.3 498.888 364.357 479.287 359.841 467.748 364.004 463.752 365.17 457.258 370.499 458.423C370.805 458.105 371.284 457.872 370.998 457.258L366.374 454.888 367.834 448.266 385.573 447.356 385.651 435.943 407.632 435.943 405.928 438.344 405.731 445.789C407.716 446.545 409.04 444.908 410.325 442.555 413.704 442.029 419.905 445.081 418.22 450.91 415.405 454.075 414.124 457.024 415.129 459.716 415.868 461.698 416.759 463.623 417.329 466.563L415.625 482.069 412.09 484.626C410.501 482.001 407.569 481.055 403.469 481.57 402.209 479.991 400.971 477.974 398.581 481.159L389.413 486.801 390.207 494.382 383.3 498.888Z" stroke="#000000" stroke-width="0.629167" stroke-linecap="round" fill="#E27575" transform="matrix(1 0 0 1.00017 -67.1798 -55.5267)"/><path d="M385.531 447.318 368.458 448.142 365.044 445.905 370.166 436.073 385.414 435.897 385.531 447.318Z" stroke="#000000" stroke-width="0.629167" stroke-linecap="round" fill="#E27575" transform="matrix(1 0 0 1.00017 -67.1798 -55.5267)"/><path d="M436.954 441.547C434.138 440.308 430.768 437.5 428.78 438.608L421.678 436.074 407.466 435.943 385.152 435.943 369.956 436.11 371.498 424.453 367.501 419.292 369 417.46 368.001 415.961 365.336 416.794C362.045 416.386 360.867 414.056 360.095 411.357 358.317 410.689 355.831 410.929 355.845 407.969 359.583 401.498 360.395 392.664 367.692 389.067L367.946 386.215 378.363 385.722C382.254 388.22 381.012 391.09 387.62 390.253 392.195 381.994 395.513 366.824 401.471 366.172 405.079 357.291 406.149 344.688 412.295 339.529 415.324 338.448 417.906 337.163 419.027 335.214 419.681 334.076 419.837 330.396 419.292 328.713 418.9 327.504 418.147 328.446 416.958 326.874L415.169 320.054 416.617 318.881 422.119 323.543C422.901 327.36 424.803 330.896 424.433 335 424.034 340.969 421.571 341.822 427.523 348.633 428.537 350.321 428.767 352.108 428.549 353.952L417.456 352.851C416.22 355.877 413.478 362.754 424.407 365.18L429.562 380.667 419.954 396.645 421.294 408.308C425.348 415.784 430.045 423.568 436.606 429.616L436.954 441.547Z" stroke="#000000" stroke-width="0.629167" stroke-linecap="round" fill="#E27575" transform="matrix(1 0 0 1.00017 -67.1798 -55.5267)"/><path d="M355.823 408.086 353.707 407.987 353.012 411.692C349.384 411.78 345.756 411.396 342.128 410.071 333.461 415.466 326.597 414.584 323.055 402.132 320.363 395.181 316.004 392.925 311.388 391.394L296.309 391.48 296.968 367.412C299.361 364.367 300.85 360.117 302.194 355.673 306.226 354.68 305.365 351.135 305.55 348.135 309.58 345.465 306.938 341.277 305.279 338.47L305.54 330.641C305.883 328.421 305.377 326.02 308.562 323.981 309.801 322.458 311.04 323.2 312.28 315.748 314.49 314.05 316.823 312.379 328.723 312.757 332.883 314.932 338.178 316.697 341.066 321.179L343.744 321.051C345.472 319.833 346.006 317.687 349.148 317.569 350.94 317.532 351.045 315.808 359.548 322.481L368.412 323.309 376.644 317.375 391.4 317.087C393.553 317.984 395.317 319.951 398.107 319.094 401.796 315.421 406.27 313.523 410.477 311.751 412.158 314.446 414.498 317.081 416.596 318.761L415.196 319.88 416.97 327.018C417.794 327.642 419.296 327.861 419.333 328.956 420.917 335.958 416.993 338.124 412.352 339.67 406.442 344.269 404.957 356.888 401.561 366.045 394.958 367.995 392.76 380.205 387.711 390.244 382.84 391.194 381.608 388.824 378.552 385.526L367.939 386.213 367.661 389.051C360.885 392.592 359.325 400.616 355.823 408.086Z" stroke="#000000" stroke-width="0.629167" stroke-linecap="round" fill="#CFFD0E" transform="matrix(1 0 0 1.00017 -67.1798 -55.5267)"/><path d="M296.278 391.379 286.645 392.668 281.669 353.663C281.034 350.69 278.08 349.372 275.826 347.554L277.021 341.179 283.263 336.266 289.77 336.532 294.551 328.829 305.308 330.555 305.375 339.084C308.426 342.363 307.873 346.764 305.571 348.143 305.781 352.25 305.032 355.655 302.303 355.562 300.65 360.004 299.24 365.337 296.885 367.204L296.278 391.379Z" stroke="#000000" stroke-width="0.629167" stroke-linecap="round" fill="#CFFD0E" transform="matrix(1 0 0 1.00017 -67.1798 -55.5267)"/><path d="M278.988 394.785 286.487 392.621 281.512 353.616C280.876 350.643 277.922 349.325 275.668 347.508L276.864 341.133 268.022 339.988C266.367 343.296 267.249 346.444 271.259 349.397 274.499 362.611 274.096 375.304 275.113 388.2L278.988 394.785Z" stroke="#000000" stroke-width="0.629167" stroke-linecap="round" fill="#CFFD0E" transform="matrix(1 0 0 1.00017 -67.1798 -55.5267)"/><path d="M279.008 394.751C278.001 396.094 277.876 398.906 275.087 397.28 261.244 398.961 255.781 404.832 246.127 408.608L233.917 404.141 235.579 397.341C235.233 391.901 230.615 386.336 236.861 381.09 237.442 377.123 237.12 372.805 241.394 370.274L238.148 340.997 259.231 341.649C262.037 340.164 265.023 339.943 268.042 339.954 266.387 343.261 267.269 346.41 271.279 349.363 274.52 362.577 274.117 375.27 275.133 388.166L279.008 394.751Z" stroke="#000000" stroke-width="0.629167" stroke-linecap="round" fill="#CFFD0E" transform="matrix(1 0 0 1.00017 -67.1798 -55.5267)"/><path d="M186.44 411.55 190.465 411.93 222.454 402.876 233.933 404.162 235.595 397.362C235.249 391.922 230.63 386.357 236.877 381.111 237.458 377.144 237.136 372.827 241.409 370.295L239.948 356.917C238.191 356.955 237.456 355.13 236.535 353.546 234.486 350.024 227.616 350.439 221.268 354.773 218.247 352.635 214.725 351.163 213.542 346.573 209.3 345.009 205.998 345.859 203.268 348.183L203.762 343.606C203.097 341.867 200.709 342.367 197.9 343.414 197.193 343.494 197.689 344.605 198.482 345.972 197.453 346.361 196.423 346.417 195.395 346.614 194.678 347.496 193.644 348.429 192.499 348.669 189.623 343.629 187.955 344.577 184.537 347.348 183.366 348.298 182.599 350.594 182.121 352.599 181.582 354.857 182.548 357.037 185.013 356.721 185.013 356.721 184.784 359.764 184.784 359.764 186.542 360.55 186.163 360.864 184.526 362.586 183.787 363.364 186.599 366.926 186.265 367.767 186.265 367.767 180.865 366.693 180.865 366.693 180.721 367.545 180.531 368.77 180.452 369.71 180.452 369.71 182.994 370.797 182.994 370.797 182.994 370.797 181.008 376.082 181.008 376.082 181.267 376.496 178.607 376.23 177.955 376.318 177.955 376.318 177.995 379.628 177.995 379.628 180.754 380.37 179.247 386.834 176.657 387.887 176.657 387.887 180.455 390.271 180.455 390.271 181.292 389.617 183.637 390.189 185.161 394.346 185.161 394.346 188.948 396.726 188.865 399.723 188.8 402.102 187.193 402.48 186.759 404.323 186.759 404.323 186.44 411.55 186.44 411.55Z" stroke="#000000" stroke-width="0.629167" stroke-linecap="round" fill="#CFFD0E" transform="matrix(1 0 0 1.00017 -67.1798 -55.5267)"/><path d="M186.386 411.52 177.373 408.349 145.622 382.338 155.672 373.929 155.496 370.922 160.421 366.163C161.886 365.173 163.668 365.864 165.354 366.049 169.583 372.21 168.449 375.107 167.295 378.234 169.694 378.843 171.508 382.838 175.478 377.134 175.368 375.548 176.337 375.533 177.972 376.488L177.972 379.514C179.265 380.057 180.212 382.628 178.958 384.98 178.292 386.227 177.836 387.506 176.408 387.762L180.556 390.305C181.734 390.104 182.75 389.229 185.23 394.464 185.763 395.198 191.959 397.796 186.818 403.965L186.386 411.52Z" stroke="#000000" stroke-width="0.629167" stroke-linecap="round" fill="#CFFD0E" transform="matrix(1 0 0 1.00017 -67.1798 -55.5267)"/><path d="M145.607 382.389 137.348 378.194C136.428 375.638 133.883 374.243 131.285 372.886 131.529 369.275 129.133 368.453 127.533 367.148L126.988 358.527C130.61 359.936 133.816 356.281 136.971 352.208 136.185 349.033 143.377 349.359 148.179 349.452 152.963 353.616 157.972 357.609 154.886 367.734 156.933 366.963 158.864 366.077 161.133 365.529L155.438 370.858 155.621 373.89 145.607 382.389Z" stroke="#000000" stroke-width="0.629167" stroke-linecap="round" fill="#CFFD0E" transform="matrix(1 0 0 1.00017 -67.1798 -55.5267)"/><path d="M70.1552 307.134C70.1559 308.156 69.3272 308.986 68.3055 308.986 67.2831 308.986 66.4545 308.156 66.4551 307.134 66.4545 306.112 67.2831 305.282 68.3055 305.282 69.3272 305.282 70.1559 306.112 70.1552 307.134Z" stroke="#000000" stroke-width="0.629167" fill="#E27575" fill-rule="evenodd" transform="matrix(1 0 0 1.00017 201.076 93.6396)"/><path d="M77.3296 292.408C77.3296 293.221 76.6702 293.881 75.8567 293.881 75.0439 293.881 74.3845 293.221 74.3845 292.408 74.3845 291.595 75.0439 290.935 75.8567 290.935 76.6702 290.935 77.3296 291.595 77.3296 292.408L77.3296 292.408Z" stroke="#000000" stroke-width="0.629167" fill="#E27575" fill-rule="evenodd" transform="matrix(1 0 0 1.00017 201.076 93.6396)"/><path d="M239.872 357.014C237.87 356.744 237.163 354.052 235.525 352.499 232.295 349.439 226.196 351.713 221.332 354.714 215.408 351.754 214.606 349.088 213.514 346.631 214.699 343.434 213.892 339.233 215.5 335.835 216.935 332.801 219.432 329.992 223.812 327.584L229.16 316.37C233.751 314.852 237.919 314.274 241.513 313.009 244.969 311.791 248.082 309.799 249.977 307.255 256.824 303.026 265.325 297.602 270.576 298.944 270.503 300.667 270.495 302.377 271.558 303.872 273.338 305.082 272.96 307.086 272.596 309.086L283.179 323.314 287.21 324.654C287.798 323.981 290.675 320.43 292.094 328.261L294.494 328.775 289.863 336.583 283.304 336.237 276.991 341.166 267.485 340.037C262.021 339.943 261.519 341.006 259.193 341.643L238.097 341.04 239.872 357.014Z" stroke="#000000" stroke-width="0.629167" stroke-linecap="round" fill="#CFFD0E" transform="matrix(1 0 0 1.00017 -67.1798 -55.5267)"/><path d="M743.386 737.062 773.579 672.799C775.888 665.545 777.254 658.297 780.664 651.043 782.979 647.991 785.911 645.154 784.061 640.611L784.722 634.376C785.055 632.495 786.093 632.533 787.673 634.049L788.598 637.818C789.717 637.459 790.818 637.075 790.73 635.207L787.673 601.901 781.897 595.644 778.562 598.408 777.694 606.958 775.763 608.654C774.75 608.346 773.271 606.818 773.705 610.281L770.842 613.422C767.59 607.382 767.105 612.742 767.986 615.351 767.904 616.491 768.219 618.443 766.677 616.663L764.343 620.428 767.659 622.896 765.69 622.896 761.424 625.985 762.084 622.241 757.819 626.505 758.8 631.753 755.925 631.872 756.491 629.519C753.83 627.771 751.672 631.469 749.287 632.74L751.911 637.006 748.633 637.333 747.318 633.395 742.033 634.263C742.196 636.125 740.057 636.666 738.132 637.333L737.805 634.71 734.854 637.66 729.701 637.912 728.695 642.348 721.73 652.421C727.052 657.102 724.894 667.653 726.323 675.385 724.366 681.627 720.559 686.389 717.137 691.46 713.16 694.09 711.361 696.72 710.757 699.344 710.178 701.867 708.951 706.825 709.694 709.348 710.556 712.286 712.179 711.286 712.254 714.23L713.223 719.056C708.354 737.799 720.471 737.522 723.082 742.096 724.265 741.561 725.775 742.48 726.939 741.85 729.512 740.46 732.803 737.031 736.245 738.17 739.126 739.126 741.284 738.031 743.386 737.062Z" stroke="#000000" stroke-width="0.629167" stroke-linecap="round" fill="#C1BBCE" transform="matrix(1 0 0 1.00017 -67.1798 -55.5267)"/><path d="M90.1162 517.809 107.93 517.809 107.93 535.622 90.1162 535.622Z" stroke="#000000" stroke-width="0.629167" fill="#CC37CC" transform="matrix(1 0 0 1.00017 -67.1798 -55.5267)"/><path d="M90.1162 542.975 107.93 542.975 107.93 560.789 90.1162 560.789Z" stroke="#000000" stroke-width="0.629167" fill="#CFFD0E" transform="matrix(1 0 0 1.00017 -67.1798 -55.5267)"/><path d="M90.1162 568.142 107.93 568.142 107.93 585.955 90.1162 585.955Z" stroke="#000000" stroke-width="0.629167" fill="#E27575" transform="matrix(1 0 0 1.00017 -67.1798 -55.5267)"/><path d="M90.1162 593.309 107.93 593.309 107.93 611.122 90.1162 611.122Z" stroke="#000000" stroke-width="0.629167" fill="#C1BBCE" transform="matrix(1 0 0 1.00017 -67.1798 -55.5267)"/><text font-family="Arial,Arial_MSFontService,sans-serif" font-weight="400" font-size="24" transform="matrix(0.629167 0 0 0.629272 51.9473 475)">Northern Africa<tspan font-size="24" x="0" y="39.7285">Western Africa</tspan><tspan font-size="24" x="0" y="79.4569">Central Africa</tspan><tspan font-size="24" x="0" y="119.185">Eastern Africa</tspan></text><path d="M90.1162 618.475 107.93 618.475 107.93 636.289 90.1162 636.289Z" stroke="#000000" stroke-width="0.629167" fill="#E50101" transform="matrix(1 0 0 1.00017 -67.1798 -55.5267)"/><text font-family="Arial,Arial_MSFontService,sans-serif" font-weight="400" font-size="24" transform="matrix(0.629167 0 0 0.629272 51.9473 575)">Southern Africa<tspan font-weight="700" font-size="24" x="-48.489" y="-200.231">UN Subregions of Africa</tspan></text><path d="M632.69 209.581 629.267 213.061 626.456 212.432 625.139 218.114 619.063 219.707 618.512 224.327 613.145 224.937 610.589 222.263 527.48 224.779 528.483 245.601C524.95 245.869 521.306 245.879 518.436 245.483L518.593 252.109 519.556 291.49 508.291 292.1 508.428 296.308 501.979 304.467 502.392 310.267 500.229 311.251C500.023 314.873 499.607 318.045 498.086 319.037L498.165 323.735 502.864 322.752C503.81 328.027 504.04 333.568 508.467 337.577L509.037 341.096 506.934 341.392C510.483 345.809 514.578 349.948 516.902 354.978 512.958 367.196 518.566 365.476 521.975 366.971L521.994 366.794 531.137 348.902 536.17 348.902 539.631 348.902 542.462 354.328 546.551 353.935 558.86 353.935 558.86 349.295 571.718 349.708 571.816 353.385 577.695 351.497 577.695 347.919 584.42 345.441 594.584 352.126 605.378 338.285 604.749 329.555 601.014 326.763 608.21 326.763 608.21 323.185 612.299 324.836 616.094 345.933 620.793 347.722 623.605 353.07 623.605 360.483 628.461 358.694 628.481 358.694 628.324 345.855 631.488 341.156 634.691 341.195 636.264 333.075C640.064 328.403 641.555 322.413 647.652 319.056L649.577 303.701C648.47 292.862 651.76 283.504 653.333 273.559 654.9 272.913 656.699 274.105 657.97 271.102L664.991 267.543C666.376 266.621 666.847 264.46 667.25 262.234 666.3 260.108 664.935 260.493 663.676 260.229 661.6 256.249 658.165 255.898 655.183 254.35L651.011 229.124 647.708 225.625C648.551 216.585 637.912 214.982 632.69 209.581Z" stroke="#000000" stroke-width="0.629167" stroke-linecap="round" fill="#CC37CC" transform="matrix(1 0 0 1.00017 -67.1798 -55.5267)"/><path d="M628.444 358.706 628.425 358.706 623.569 360.495 623.569 353.083 620.757 347.735 616.058 345.945 612.263 324.849 608.174 323.197 608.174 326.776 600.977 326.776 604.713 329.568 605.343 338.297 594.549 352.139 584.383 345.454 577.659 347.932 577.659 351.51 571.78 353.397 571.682 349.72 558.823 349.308 558.823 353.948 546.516 353.948 542.426 354.341 539.595 348.914 536.134 348.914 531.101 348.914 521.959 366.807 521.939 366.983C522.042 367.029 522.174 367.03 522.273 367.082 523.592 368.928 524.142 371.183 530.236 370.483L533.755 373.707C532.995 379.049 540.907 381.994 545.533 385.839L549.838 394.333C553.543 396.133 557.997 396.905 558.548 403.121 561.015 404.523 561.985 406.576 563.798 408.39 564.631 409.224 563.855 410.022 564.683 410.671 567.029 412.513 571.259 412.964 571.839 410.317 571.839 410.317 575.754 411.799 578.584 411.457 580.34 411.245 580.178 409.587 581.926 409.216L594.509 420.227 596.751 418.595C605.388 420.599 614.028 419.449 622.664 418.201L632.967 409.374 647.224 408.862 647.362 401.45 640.026 398.914 634.955 387.687 627.599 381.474C628.885 379.494 625.375 377.516 623.667 375.536 621.353 376.166 618.842 375.66 616.196 374.298L618.083 371.879 618.044 368.399 624.788 368.281C626.099 367.456 627.522 367.098 628.524 365.037L628.445 358.706Z" stroke="#000000" stroke-width="0.629167" stroke-linecap="round" fill="#C1BBCE" transform="matrix(1 0 0 1.00017 -67.1798 -55.5267)"/></g></g></g><rect x="91" y="308.002" width="579" height="116.001" fill="#FF0000" fill-opacity="0.419608"/><text font-family="Century Gothic,Century Gothic_MSFontService,sans-serif" font-weight="700" font-size="29" transform="matrix(1 0 0 1.00001 122.565 342)">Millions of learners are illiterate even <tspan font-size="29" x="-0.419907" y="34.9998">though they have been at school for </tspan><tspan font-size="29" x="51.822" y="69.9996">the required number of years</tspan></text></g></svg>