<svg width="610" height="629" xmlns="http://www.w3.org/2000/svg" xmlns:xlink="http://www.w3.org/1999/xlink" overflow="hidden"><defs><clipPath id="clip0"><rect x="0" y="0" width="610" height="629"/></clipPath><clipPath id="clip1"><rect x="3" y="4" width="604" height="620"/></clipPath><clipPath id="clip2"><rect x="3" y="4" width="604" height="620"/></clipPath><clipPath id="clip3"><rect x="3" y="4" width="604" height="620"/></clipPath></defs><g clip-path="url(#clip0)"><rect x="0" y="0" width="610" height="629" fill="#FFFFFF" fill-opacity="0"/><rect x="3" y="3" width="604" height="623" stroke="#000000" stroke-width="2.33333" stroke-linejoin="round" stroke-miterlimit="10" fill="none"/><g clip-path="url(#clip1)"><g clip-path="url(#clip2)"><g clip-path="url(#clip3)"><path d="M156.273 126.064 157.571 116.126 165.359 112.106 167.118 112.608 169.882 110.347 174.474 110.679 174.726 108.488C184.329 108.958 186.276 106.39 187.972 103.815L196.012 100.548 199.027 100.548 197.52 98.5381 198.022 96.6793 197.771 94.2668C200.916 93.8551 204.793 94.3599 204.817 91.0706L217.871 91.2518 219.63 87.2317C217.137 86.3166 216.691 82.7113 217.025 78.8804 217.273 76.0355 217.048 69.5642 217.048 69.5642 216.187 68.5258 215.115 67.5473 214.867 66.056 212.774 65.6699 210.204 65.6236 209.329 64.3673 206.29 63.8453 203.279 63.568 200.561 63.8413 195.586 64.3421 193.538 62.5492 191.49 57.835 186.698 57.5224 181.617 67.8191 177.922 72.9103 168.984 75.3958 162.516 79.4245 158.073 84.719 158.666 86.8713 157.623 87.7003 155.454 89.1212 154.052 90.0403 149.121 97.9119 150.787 102.307 150.807 105.741 148.131 111.464 140.44 115.271 140.44 115.271 136.853 118.623 131.182 120.474 128.788 121.255 123.241 121.877 121.563 123.425L156.273 126.064Z" stroke="#000000" stroke-width="0.503333" stroke-linecap="round" fill="#CC37CC" transform="matrix(1 0 0 1.00145 -53.1438 -42.8816)"/><path d="M114.798 179.133C115.832 171.735 111.233 161.339 125.602 161.043L128.617 138.681 154.245 140.942 156.193 125.846C156.193 125.846 121.914 123.314 121.914 123.314 118.732 128.197 116.886 132.33 112.083 134.235 107.551 136.033 105.779 141.626 104.497 146.469L91.0072 161.905C90.5215 165.41 88.485 167.751 85.7594 169.576 83.2946 172.8 81.7897 176.805 81.4111 180.367L84.8484 177.251 114.798 179.133Z" stroke="#000000" stroke-width="0.503333" stroke-linecap="round" fill="#CC37CC" transform="matrix(1 0 0 1.00145 -53.1438 -42.8816)"/><path d="M157.305 116.052 165.373 112.031 167.039 112.627 169.803 110.226 174.442 110.652 174.693 108.507C184.297 108.976 186.29 106.408 187.986 103.833L196.026 100.52 198.995 100.613 197.441 98.5567 197.85 96.9309 197.785 94.2391C200.93 93.8274 204.807 94.3322 204.831 91.0429L217.839 91.2241 219.644 87.4834C217.151 86.5683 216.705 82.9629 217.039 79.1321 217.287 76.2872 217.062 69.8159 217.062 69.8159 216.201 68.7775 215.129 67.799 214.881 66.3076 215.577 65.9986 218.841 66.5341 220.823 63.879 221.845 62.5105 223.149 59.7487 224.854 60.2883 226.842 60.9179 230.652 61.3161 230.886 60.0537 231.135 58.7038 234.827 55.7321 240.158 55.7492 249.923 55.7809 262.539 52.0658 266.662 53.2738 270.785 54.4813 276.154 51.6692 278.538 51.8217 280.938 51.9757 281.662 54.594 284.936 52.3668 286.16 51.5338 290.58 54.9967 294.793 53.7706 294.793 53.7706 292.278 54.8875 292.136 57.4691 291.917 61.4464 291.549 73.8249 291.549 73.8249 291.131 73.1555 288.136 73.6578 287.666 75.6777 287.026 78.4229 283.936 77.7127 283.691 79.0998 283.197 81.8913 285.633 84.4553 288.503 86.9594 289.238 87.6016 288.232 91.1567 288.96 91.807 291.183 93.7896 295.121 95.1396 295.121 95.1396 296.036 104.236 297.656 110.518 297.656 110.518 293.487 110.797 295.715 114.666 298.522 118.797 298.522 118.797 298.697 142.458 298.697 142.458 298.697 142.458 294.932 143.222 295.192 144.192 295.776 146.372 295.912 147.983 298.663 150.431 300.43 152.004 300.463 154.656 300.311 156.398 300.135 158.408 302.164 159.319 302.694 159.307 306.825 159.206 310.318 157.196 314.231 167.986 314.231 167.986 264.74 200.511 264.74 200.511 257.394 203.674 245.296 205.567 244.88 205.384 242.12 204.17 245.319 201.132 244.393 199.1 243.466 197.065 242.349 195.534 239.205 195.875 237.532 196.056 236.653 193.905 235.991 194.014 233.314 194.458 232.632 191.415 232.04 190.874 229.691 188.725 227.36 188.101 227.894 186.147 227.894 186.147 155.567 131.014 155.567 131.014L157.305 116.052Z" stroke="#000000" stroke-width="0.503333" stroke-linecap="round" fill="#CC37CC" transform="matrix(1 0 0 1.00145 -53.1438 -42.8816)"/><path d="M114.783 179.009C115.816 171.612 111.218 161.216 125.587 160.919L128.602 138.558 154.23 140.819C154.23 140.819 155.617 130.77 155.617 130.77 155.617 130.77 181.446 150.603 181.446 150.603 181.446 150.603 168.581 150.915 168.581 150.915 168.581 150.915 169.233 224.985 169.233 224.985 169.233 224.985 172.489 226.146 172.489 226.146 172.489 226.146 170.294 233.34 170.294 233.34 170.294 233.34 132.377 231.251 132.377 231.251 132.377 231.251 128.055 234.308 128.055 234.308 128.055 234.308 125.722 233.543 125.722 233.543 125.722 233.543 124.073 228.52 124.073 228.52 124.073 228.52 121.78 227.953 121.78 227.953 121.78 227.953 117.596 238.276 114.932 237.232 114.932 237.232 113.748 235.947 112.408 234.562 111.228 233.342 109.941 232.133 109.028 230.412 107.759 228.019 106.881 224.177 105.132 224.452 101.412 225.036 98.5763 220.102 98.5763 220.102 98.5763 220.102 94.2406 218.899 91.133 219.762 87.1164 220.877 82.5799 219.72 81.77 220.245L85.4569 210.002 85.8329 198.063 83.5876 194.476C84.788 192.354 88.4553 190.396 86.0584 184.042 85.7846 183.314 84.479 183.707 84.479 183.707L82.9302 179.035 84.8333 177.128 114.783 179.009Z" stroke="#000000" stroke-width="0.503333" stroke-linecap="round" fill="#CFFD0E" transform="matrix(1 0 0 1.00145 -53.1438 -42.8816)"/><path d="M313.059 86.3594C313.059 86.3594 314.317 91.2282 310.557 93.8983 308.666 95.2417 302.481 99.7768 302.481 99.7768 303.006 102.545 303.653 109.468 297.647 110.411 293.519 111.059 295.683 114.396 298.443 118.922 298.443 118.922 298.618 142.491 298.618 142.491 298.618 142.491 294.946 143.207 295.206 144.178 295.79 146.357 295.833 147.922 298.585 150.37 300.351 151.943 300.384 154.782 300.232 156.524 300.056 158.533 302.318 159.398 302.848 159.385 306.979 159.285 310.239 157.321 314.152 168.112 314.152 168.112 333.565 168.71 333.565 168.71 335.827 169.188 338.221 172.653 338.221 172.653 338.221 172.653 349.339 169.495 349.339 169.495 349.339 169.495 414.795 201.859 414.795 201.859 414.795 201.859 414.677 196.602 414.677 196.602 421.913 197.192 422.744 196.358 422.744 196.358 422.744 196.358 418.271 119.888 418.271 119.888 415.643 116.281 413.051 112.745 416.212 108.744 416.212 108.744 416.233 104.501 415.442 102.094 414.618 99.588 416.877 97.8847 416.877 97.8847 416.841 94.6423 410.618 94.8884 407.343 94.7203 403.046 94.4998 400.159 93.9109 400.908 90.6926 400.908 90.6926 389.675 86.6589 385.327 89.318 383.018 90.7309 378.147 92.9878 377.261 95.882 376.664 97.8274 377.198 99.1466 378.358 101.123 380.389 104.582 373.533 116.46 365.695 106.954 365.695 106.954 355.401 104.12 349.587 102.85 343.896 101.606 339.969 96.6158 342.332 93.5953 342.562 93.3004 326.886 88.7654 326.886 88.7654 319.647 89.8858 314.347 87.7693 313.059 86.3594Z" stroke="#000000" stroke-width="0.503333" stroke-linecap="round" fill="#CC37CC" transform="matrix(1 0 0 1.00145 -53.1438 -42.8816)"/><path d="M305.556 51.941C304.038 51.9928 298.088 48.8913 294.745 53.754 294.745 53.754 292.229 54.8684 292.087 57.4505 291.868 61.4273 291.489 73.8088 291.489 73.8088 291.071 73.1394 288.09 73.6447 287.62 75.6646 286.98 78.4098 283.886 77.691 283.64 79.0777 283.147 81.8697 285.584 84.4382 288.453 86.9423 289.189 87.5845 288.181 91.1371 288.909 91.7869 291.132 93.77 295.075 95.1214 295.075 95.1214 295.99 104.219 297.608 110.505 297.608 110.505 298.207 110.879 304.563 108.697 302.372 99.7607 302.118 98.7258 315.399 94.4238 313.015 86.1113 312.767 85.2465 310.605 86.2703 310.254 84.7019 309.466 81.1826 309.567 80.3164 308.23 79.7879 307.558 79.5226 304.778 82.1913 304.214 81.8506 302.954 81.089 301.381 79.3163 302.062 78.4385 303.234 76.9259 311.704 71.6757 311.789 68.781 311.915 64.4735 310.325 64.0577 308.213 62.9106 307.013 62.2593 307.444 60.2183 307.832 59.0541 308.07 58.3404 312.642 56.7841 312.115 55.1301 311.757 54.0077 311.094 53.836 310.851 52.9587 310.671 52.3109 307.217 55.9208 306.998 55.3631 306.422 53.8929 306.249 52.9929 305.556 51.941Z" stroke="#000000" stroke-width="0.503333" stroke-linecap="round" fill="#CC37CC" transform="matrix(1 0 0 1.00145 -53.1438 -42.8816)"/><path d="M421.81 180.001 488.236 178.019 490.376 180.134 494.761 179.581 495.215 175.879 500.079 174.536 501.109 169.979 503.244 170.683 505.931 167.88 504.476 160.703 506.801 160.785 501.148 155.751 485.639 130.136 485.569 127.027C481.899 124.621 479.184 121.578 477.545 117.818L477.401 115.431 475.061 113.728 475.671 109.939 482.624 119.231C483.247 119.947 482.547 120.462 483.108 121.24 484.925 123.757 488.054 126.294 489.898 127.768 490.84 127.451 491.945 127.676 492.412 125.776L494.226 113.709 486.073 97.099C480.568 100.951 475.063 102.491 469.558 96.7568L462.831 97.2722C461.293 97.9331 459.657 98.9397 458.769 97.326L447.915 103.669 429.939 99.6645C427.238 99.1094 424.357 98.1943 422.128 98.5839 419.841 99.9791 418.214 98.901 416.588 97.8178 415.663 99.4249 414.688 101.051 415.575 101.999L416.302 108.544C414.711 111.109 413.243 113.738 418.271 119.778L421.81 180.001Z" stroke="#000000" stroke-width="0.503333" stroke-linecap="round" fill="#CC37CC" transform="matrix(1 0 0 1.00145 -53.1438 -42.8816)"/><path d="M414.698 201.718 349.175 169.449 340.496 172.072C341.09 177.198 340.653 181.167 340.745 184.305 340.88 188.905 344.081 192.131 348.47 193.686L346.527 198.414 343.735 223.732 330.06 238.78C329.625 239.634 329.384 240.488 329.435 241.342 329.002 242.321 328.447 242.748 327.853 243.003 326.898 243.597 327.37 244.599 327.259 245.343 326.464 250.678 337.616 258.578 337.616 258.578 338.19 260.988 339.039 263.129 339.465 265.672 339.924 268.415 338.581 271.725 338.968 274.102 339.529 277.552 343.357 277.898 342.834 283.164L334.053 282.356C331.505 287.444 333.289 290.759 339.546 292.243L343.68 304.583C350.32 303.067 354.995 303.873 363.67 299.953L371.562 299.171C373.018 296.689 376.099 295.368 375.043 291.091L385.964 289.898C386.817 289.103 387.227 287.864 388.613 287.601 390.754 287.535 391.38 286.143 391.953 284.706 392.951 282.341 395.466 281.495 397.355 280.022 397.696 272.224 403.59 274.457 407.183 272.981L406.752 270.275C404.697 268.034 402.924 265.49 402.281 258.358L398.449 259.078 398.365 255.612C399.538 254.353 400.381 251.368 400.08 249.247L401.864 248.409 401.425 243.902 406.7 237.159 406.536 233.856 415.629 233.378 414.698 201.718Z" stroke="#000000" stroke-width="0.503333" stroke-linecap="round" fill="#E27575" transform="matrix(1 0 0 1.00145 -53.1438 -42.8816)"/><path d="M251.542 204.528 250.82 230.677C249.664 231.348 248.056 230.664 247.617 233.483 246.331 234.229 244.747 234.751 244.462 236.248L226.791 236.077 223.201 239.094 216.515 239.131C216.322 240.57 216.356 242.371 217.494 243.262 218.504 244.052 218.356 245.716 218.1 247.182L226.554 258.462 229.621 259.609C231.321 258.117 232.871 257.679 233.641 262.694L244.112 264.18C244.842 262.506 244.667 260.185 246.564 259.344 249.413 257.733 248.947 254.918 249.963 252.641 252.288 251.532 250.801 249.954 263.089 250.069 266.267 252.066 269.334 252.735 272.68 256.752 272.68 256.752 275.144 256.853 275.144 256.853 275.215 256.01 277.7 254.278 279.22 253.99 280.866 253.094 283.793 254.653 287.694 258.078L294.643 258.7 301.316 253.914 312.983 253.615C314.743 254.303 316.047 255.876 318.643 255.225 320.509 253.125 324.077 251.121 328.175 249.393 327.54 247.535 326.824 245.722 327.417 243.338 328.417 242.497 329.646 242.364 329.766 239.237L343.863 223.596 346.477 198.652 348.468 193.636C344.438 191.986 341.678 190.423 340.794 184.86 340.312 181.831 340.999 177.919 340.7 172.262L338.19 172.693C336.813 171.071 335.478 169.332 333.716 168.736L313.953 168.016 263.879 201.029 251.542 204.528Z" stroke="#000000" stroke-width="0.503333" stroke-linecap="round" fill="#CFFD0E" transform="matrix(1 0 0 1.00145 -53.1438 -42.8816)"/><path d="M181.406 150.586 168.579 150.932 169.186 224.947 172.568 226.142 170.197 233.379 132.395 231.24 128.045 234.29 125.668 233.411 124.021 228.524 121.861 227.947C117.603 237.253 116.951 236.171 115.37 237.763 115.628 238.714 115.007 239.622 115.313 240.494 116.271 243.221 116.871 245.988 115.429 247.168 117.399 248.921 119.94 250.317 120.67 252.844 120.811 256.067 120.635 258.552 119.768 259.426 118.908 260.286 119.929 262.293 121.715 260.79L123.452 259.735C124.023 260.644 125.282 261.141 125.098 262.504L128.927 259.886 133.601 261.829C134.076 261.112 133.48 260.039 135.299 259.77 136.253 259.797 136.925 259.114 137.206 257.457L139.773 258.08C140.463 260.497 141.304 262.936 140.861 265.191L144.647 268.05 141.756 270.698 142.556 271.907 144.666 270.5 144.979 275.565 147.644 278.014C148.737 276.929 150.48 275.562 151.8 276.247 153.044 276.894 153.623 279.423 154.797 278.633 156.024 277.808 156.254 277.035 158.155 277.037 159.587 277.039 156.928 274.563 158.711 274.615 159.54 274.639 160.834 273.663 162.266 274.04 163.639 274.401 161.931 279.514 162.938 278.416 165.432 275.695 170.402 276.749 170.883 277.357 172.274 272.374 169.555 267.779 179.102 262.027L183.315 253.152C188.932 250.796 194.961 251.868 200.125 245.739 206.618 241.402 213.106 238.141 216.612 239.114L223.167 239.12 226.85 235.977 244.482 236.197C244.929 235.331 245.174 234.695 247.61 233.497 247.629 231.368 249.538 231.251 250.865 230.581L251.557 204.453 244.938 205.407C242.324 203.708 244.523 203.166 244.547 199.387 243.057 196.032 241.162 195.527 239.3 195.858 237.665 196.148 236.93 193.83 236.071 194.005 234.595 194.306 232.976 192.888 231.997 190.802 231.664 190.093 230.749 189.77 230.131 189.344 228.755 188.4 227.501 187.674 227.857 186.202 227.857 186.202 196.373 162.154 181.406 150.586Z" stroke="#000000" stroke-width="0.503333" stroke-linecap="round" fill="#CFFD0E" transform="matrix(1 0 0 1.00145 -53.1438 -42.8816)"/><path d="M530.508 238.861C532.054 239.918 533.599 239.784 535.144 242.207L539.251 241.385 540.051 240.097 540.731 239.916 541.637 241.611C543.716 240.511 545.583 240.465 546.902 241.505 547.702 242.139 548.885 241.258 549.746 240.938 551.346 242.236 552.937 243.658 554.673 243.608 560.311 248.268 565.173 253.316 569.698 258.531L574.58 255.129C573.875 253.266 572.944 251.559 569.637 251.479 569.471 249.979 568.837 248.648 566.733 247.841 566.285 246.04 564.74 246.075 563.517 245.562 562.49 242.7 559.984 241.131 557.925 239.169 555.604 239.714 554.532 238.177 553.435 236.685L551.668 236.341 550.405 237.116C549.086 236.031 548.729 234.535 548.362 233.041L546.469 232.537 546.947 235.157C545.805 235.857 545.18 233.968 544.581 231.932L540.731 226.342C538.219 214.642 536.03 213.207 533.785 210.012 533.166 211.468 533.06 213.237 532.043 214.031L526.376 216.98C525.465 218.569 524.046 219.04 522.541 219.023 520.416 229.15 519.299 235.685 519.4 243.906L523.764 243.9 524.186 242.487 526.205 242.601 527.866 245.232 530.508 238.861Z" stroke="#000000" stroke-width="0.503333" stroke-linecap="round" fill="#C1BBCE" transform="matrix(1 0 0 1.00145 -53.1438 -42.8816)"/><path d="M574.505 254.907 569.552 258.605C568.691 261.099 569.164 263.108 568.465 264.294 565.621 269.101 565.983 269.475 566.864 270.54 568.052 271.976 571.183 270.952 572.803 269.993L575.396 271.102 578.28 266.739C576.503 265.232 574.726 266.012 572.954 265.926 573.438 263.752 575.879 263.255 577.61 262.154 578.894 258.195 576.171 255.67 574.505 254.907Z" stroke="#000000" stroke-width="0.503333" stroke-linecap="round" fill="#C1BBCE" transform="matrix(1 0 0 1.00145 -53.1438 -42.8816)"/><path d="M619.88 295.504 595.62 323.19 586.137 323.02C584.969 323.345 580.58 326.044 578.063 328.262 575.995 330.082 572.813 331.142 569.552 332.626 567.619 332.636 565.274 333.338 563.92 332.382 560.749 329.307 557.115 330.813 553.526 331.933 552.338 334.119 550.717 335.871 548.019 336.544L535.048 334.528C532.114 332.037 528.883 329.726 524.866 327.882L517.658 327.383 517.663 321.527 511.996 319.452 507.899 310.097 502.019 305.393C503.115 303.638 500.237 302.188 498.774 300.63 496.783 301.078 494.793 300.672 492.803 299.602L494.554 297.498 494.447 294.789 499.613 294.882C500.741 294.174 501.988 293.903 502.814 292.086L502.667 276.906 505.125 273.04 507.707 273.135 508.89 266.657C511.996 262.832 513.098 258.16 518.227 255.185L519.576 243.956 523.683 243.837 524.252 242.5 526.25 242.535 527.956 245.376 530.418 238.848C532.043 239.894 534.168 239.934 535.119 242.234L539.266 241.423 539.966 240.096 540.711 239.936 541.713 241.7C543.026 240.917 544.662 240.084 546.771 241.45 547.38 241.711 548.09 241.847 549.665 240.932 551.326 241.83 552.333 243.661 554.683 243.572 559.994 248.209 565.143 253.032 569.698 258.531 569.29 258.919 569.104 260.387 568.802 263.703L566.834 267.231C565.248 269.832 567.166 272.127 570.186 271.046L572.834 270.028 575.491 271.116C572.285 274.818 579.926 281.263 586.816 287.7L611.686 295.647 619.88 295.504Z" stroke="#000000" stroke-width="0.503333" stroke-linecap="round" fill="#C1BBCE" transform="matrix(1 0 0 1.00145 -53.1438 -42.8816)"/><path d="M578.32 266.563 575.365 271.172C572.491 275.315 580.369 281.648 586.851 287.697L611.897 295.731 619.971 295.395 595.645 323.225 585.815 323.03C582.689 324.785 579.634 326.581 577.399 328.868 574.842 330.46 571.978 331.448 569.26 332.718 567.579 336.4 564.77 339.408 562.238 342.582L562.314 374.879 567.242 381.075 578.572 368.384 597.567 350.457 599.752 350.196 607.71 342.667 608.032 341.161C612.401 337.843 617.842 332.275 619.196 329.526 621.596 324.663 624.692 320.542 628.14 316.596L635.619 295C637.074 293.597 638.161 291.709 639.077 289.587 639.455 287.321 640.809 286.521 641.851 285.249L642.701 274.434C645.127 274.774 643.955 269.983 644.096 267.057 643.159 266.223 642.112 264.847 644.07 263.742L644.055 261.046C642.294 261.192 640.522 259.182 638.795 260.54 636.631 262.576 633.742 264.034 630.45 264.306 626.786 264.608 623.801 266.727 622.266 266.207 619.785 268.266 616.624 268.964 612.521 267.776 609.783 270.214 607.986 273.379 599.188 271.143L593.581 275.152C584.929 277.498 582.679 270.494 578.32 266.563Z" stroke="#000000" stroke-width="0.503333" stroke-linecap="round" fill="#C1BBCE" transform="matrix(1 0 0 1.00145 -53.1438 -42.8816)"/><path d="M343.73 304.518 335.988 317.218 337.025 326.451C340.334 332.95 344.191 338.955 349.333 343.803 352.524 340.251 353.927 337.512 360.248 335.875L365.748 338.266 371.915 336.531C373.444 334.755 373.32 331.946 373.44 329.289 375.56 325.832 377.843 324.015 380.145 322.369 381.849 323.688 384.869 322.671 385.096 326.617 387.117 328.89 389.022 330.245 390.495 328.136 392.201 330.659 399.457 329.854 404.449 330.407 404.737 329.47 405.266 328.232 406.289 326.378 407.96 326.125 409.463 325.467 412.013 327.323L422.556 323.634 423.243 325.19 427.459 324.513 427.386 322.942 436.701 322.169 438.775 324.832 439.736 323.391 441.327 324.553 442.668 323.012 447.009 322.843C446.121 320.382 446.5 317.465 439.921 315.915L436.538 309.004C433.147 305.758 427.135 304.257 426.697 299.042L424.097 296.53C421.895 296.632 419.976 297.587 417.521 293.604 413.554 293.001 410.861 292.38 413.467 284.346 411.429 279.426 408.316 277.096 405.613 273.339 399.926 274.426 397.642 274.136 397.442 280.016 395.636 281.455 392.982 282.189 392.157 284.445 391.441 286.113 390.85 287.397 388.319 287.613 387.598 288.059 386.723 288.965 385.819 289.956L375.041 291.081C375.605 293.108 375.387 294.936 373.067 297.199 372.448 297.803 372.004 298.544 371.426 299.193L363.664 299.916C354.692 303.874 350.189 303.034 343.73 304.518Z" stroke="#000000" stroke-width="0.503333" stroke-linecap="round" fill="#E27575" transform="matrix(1 0 0 1.00145 -53.1438 -42.8816)"/><path d="M372.24 336.659C370.769 341.047 369.014 344.162 367.18 348.935 364.775 355.197 365.31 364.849 364.084 373.386 357.724 376.27 355.711 380.892 352.456 385.017L349.918 397.161C345.326 401.654 341.054 407.426 335.523 408.16 335.187 401.386 329.319 404.642 328.674 407.308 325.879 409.155 324.967 407.236 323.388 406.652 321.369 408.105 319.906 409.836 319.885 412.289 320.17 416.207 318.39 415.995 317.102 416.769L317.854 419.755 328.345 416.166 351.287 416.578 353.417 417.823C358.632 437.159 362.862 435.252 366.603 436.196 372.432 433.756 373.99 435.113 377.09 435.099L379.342 426.305 385.467 426.65 386.25 425.046 389.651 425.575 389.703 429.13 397.086 428.589 397.854 448.059 402.065 456.823 398.852 461.175 401.779 463.65 403.344 460.519 413.028 460.347 416.539 459.17 419.576 459.116 420.676 463.443 426.322 461.578C426.625 462.878 427.184 463.829 427.929 464.526 429.761 466.239 433.186 468.596 436.24 468.643 438.392 468.676 440.124 466.464 442.01 466.861 444.581 470.426 447.627 471.459 450.818 471.724 453.188 475.402 454.782 479.857 461.523 479.164L464.164 481 463.976 471.589C459.294 473.094 456.453 470.915 454.033 467.894 454.512 464.18 456.013 460.807 457.724 457.503 457.873 453.684 457.359 450.165 456.421 446.34 456.216 445.502 457.308 442.381 458.702 440.554L473.887 436.836C472.314 428.327 466.785 426.598 465.199 420.575 463.257 413.201 462.309 404.361 463.343 395.737 463.055 391.699 461.207 389.562 458.536 388.425L463.067 381.934 466.737 377.906 467.306 363.798 472.453 355.983 480.735 348.529 475.741 345.281 475.766 336.382 465.42 327.609C464.497 327.695 464.069 328.609 463.422 329.155 461.338 329.804 459.419 328.801 457.426 328.529 456.354 330.929 451.936 329.669 451.414 328.3 451.262 327.901 451.608 327.096 451.005 326.871 449.701 325.112 448.359 323.922 447.055 322.812L442.747 323.021 441.344 324.635 439.759 323.322 438.771 324.864 436.711 322.169 427.409 322.976 427.412 324.476 423.273 325.237 422.618 323.645 412.068 327.384C409.113 325.241 408.028 326.405 406.298 326.334L404.44 330.376C395.677 330.045 392.017 330.041 390.572 328.089 387.798 331.145 387.123 327.378 385.423 326.943 384.463 322.475 381.923 323.799 380.156 322.292 376.884 324.488 375.099 326.684 373.568 328.88 373.588 331.934 373.101 334.484 372.24 336.659Z" stroke="#000000" stroke-width="0.503333" stroke-linecap="round" fill="#E27575" transform="matrix(1 0 0 1.00145 -53.1438 -42.8816)"/><path d="M312.407 513.632C314.213 513.153 316.168 510.752 317.79 512.68 319.4 510.687 323.87 506.751 331.098 514.125L367.413 513.632 371.303 517.024 394.194 519.984 408.672 516.722 398.886 507.989 399.635 477.055 417.098 477.574 415.2 475.549 417.257 459.191C417.022 459.25 416.752 459.13 416.523 459.214 412.314 460.747 407.839 460.392 403.324 460.483L401.754 463.56 398.891 461.148 402.083 456.896 397.774 448.165 397.116 428.571 389.656 429.1 389.658 425.562 386.344 425.077 385.473 426.651 379.381 426.338 377.067 435.207C374.042 434.662 371.25 433.918 366.719 436.208 362.716 434.921 359.093 437.921 353.428 417.822L351.284 416.541 328.34 416.171 317.903 419.754C320.517 427.274 326.038 431.544 325.851 442.666L324.057 444.386C325.538 449.409 326.86 454.663 330.159 457.06 330.484 458.466 329.772 459.489 329.68 460.545 329.342 464.41 327.31 475.364 326.418 473.411 326.418 473.411 322.739 474.215 322.409 477.177 322.249 478.62 320.468 478.825 319.806 480.603 317.956 485.575 316.006 493.462 314.6 500.632 314.438 501.463 313.354 501.099 313.22 501.891 312.835 504.174 313.264 505.795 313.12 508.221 313.077 508.945 312.157 507.727 311.979 508.623 311.758 509.736 312.65 512.872 312.407 513.632Z" stroke="#000000" stroke-width="0.503333" stroke-linecap="round" fill="#E27575" transform="matrix(1 0 0 1.00145 -53.1438 -42.8816)"/><path d="M312.436 513.632C312.793 518.323 313.231 522.983 317.532 526.295L335.298 557.93 335.75 572.451 338.92 579.171C339.099 581.783 338.133 584.4 339.741 587.018L341.948 599.374 351.595 610.121C357.59 603.683 359.771 608.882 361.273 613.005 364.94 612.657 368.609 612.32 372.277 612.954 373.995 611.404 375.752 609.864 378.458 608.706L379.87 553.566 388.028 553.828 389.199 522.777 409.12 521.02 410.651 525.183C412.085 523.608 414.047 520.713 416.978 520.578 419.625 520.457 420.921 518.74 423.528 517.351L421.619 514.578 408.792 516.712 394.472 520.044 371.295 516.949 367.415 513.687 330.913 514.11C329.17 511.799 322.566 506.545 317.792 512.741 316.178 510.813 314.229 513.229 312.436 513.632Z" stroke="#000000" stroke-width="0.503333" stroke-linecap="round" fill="#E50101" transform="matrix(1 0 0 1.00145 -53.1438 -42.8816)"/><path d="M351.595 610.126 365.107 637.311 365.284 643.527C364.601 645.022 363.481 645.067 362.228 644.825 361.721 645.54 361.245 646.461 362.358 647.156 364.032 650.13 365.244 653.744 367.376 656.291 369.129 658.385 371.728 659.477 373.79 661.284L379.155 661.712C380.259 660.937 379.255 659.88 383.257 659.492L391.116 659.442C393.597 658.466 390.805 656.009 398.897 656.613 400.226 656.78 400.802 658.239 402.887 657.112 406.643 656.508 410.23 657.937 413.889 658.491 414.975 657.625 414.57 656.15 420.664 657.328L421.288 654.957 428.43 655.068 470.767 615.723C477.482 612.939 478.966 604.805 480.847 597.084L475.532 596.727C475.477 596.083 470.429 599.691 469.789 599.762 467.059 600.069 465.484 599.188 465.876 594.406 466.168 590.838 469.986 587.999 470.996 587.34 472.342 586.464 473.685 589.776 475.025 588.9 475.025 588.9 474.552 573.74 473.984 561.056 471.134 559.324 469.09 556.339 464.011 558.051 461.345 556.057 458.679 556.264 456.013 555.64L426.724 578.869 425.649 583.721C422.321 585.482 418.994 585.241 415.666 585.598 413.146 583.68 410.43 582.548 407.475 582.367L402.589 586.645C402.132 589.001 400.763 589.227 399.714 590.199 398.052 591.16 397.183 592.393 396.822 593.787 391.898 595.005 388.444 594.2 385.237 593.058 385.855 590.178 387.707 588.311 386.163 583.66L379.352 576.045 378.466 608.762C376.406 609.652 374.346 611.006 372.286 612.984 368.852 612.688 365.999 612.214 361.236 613.075 360.465 609.461 357.165 603.487 351.595 610.126Z" stroke="#000000" stroke-width="0.503333" stroke-linecap="round" fill="#E50101" transform="matrix(1 0 0 1.00145 -53.1438 -42.8816)"/><path d="M423.568 517.442 418.218 520.447C412.938 520.477 412.612 523.587 410.634 525.259L409.146 521.076 389.149 522.827 388.009 553.803 379.819 553.606 379.267 575.964C381.505 578.713 384.527 581.702 386.041 583.701 387.515 585.648 386.573 589.454 385.141 593.007 389.103 594.683 392.946 594.764 396.761 593.772 397.328 592.267 398.105 591.185 399.134 590.601 400.787 589.65 402.15 588.437 402.658 586.459L407.64 582.301C410.711 582.573 413.074 583.791 415.471 585.548 420.549 585.618 423.57 584.692 425.678 583.62L426.663 578.939 455.903 555.574C452.222 552.897 450.386 553.506 448.284 553.012 446.166 552.519 443.554 548.754 444.257 542.286 442.229 541.889 440.931 540.756 439.817 539.442 438.545 537.313 436.882 537.52 435.404 536.619 433.112 533.433 428.897 529.341 428.573 526.879 428.416 525.686 427.788 525.752 426.894 524.423 425.861 522.888 424.502 519.324 423.568 517.442Z" stroke="#000000" stroke-width="0.503333" stroke-linecap="round" fill="#E50101" transform="matrix(1 0 0 1.00145 -53.1438 -42.8816)"/><path d="M567.317 381.083C566.21 382.81 564.997 384.406 562.566 384.477 561.665 386.875 560.492 389.065 557.482 389.801 554.17 395.79 551.648 402.672 547.506 407.731L535.924 399.969 534.102 393.22 498.816 371.061 510.43 353.305 510.677 343.356 506.691 340.067C506.192 336.228 505.296 332.757 502.135 331.36L506.243 327.77 517.724 327.25 524.866 327.862C527.317 329.127 528.616 329.171 535.094 334.573L548.105 336.528C550.179 335.813 552.106 334.752 553.551 331.861 556.692 331.408 560.024 328.69 564.101 332.566 565.435 333.04 567.569 332.839 569.688 332.532 567.262 336.409 564.71 339.537 562.173 342.768L562.389 375.039 567.317 381.083Z" stroke="#000000" stroke-width="0.503333" stroke-linecap="round" fill="#C1BBCE" transform="matrix(1 0 0 1.00145 -53.1438 -42.8816)"/><path d="M498.816 371.016 495.764 375.564 472.599 375.958 476.396 383.76C470.416 389.794 474.219 390.936 475.641 393.269 473.018 398.154 471 404.119 465.754 404.319 464.435 404.65 463.469 404.32 463.222 405.941 462.644 409.735 464.308 417.594 465.833 422.134 467.396 425.638 470.159 428.009 471.659 430.944 473.041 432.98 473.379 435.016 474.032 437.052L477.245 440.675C478.601 440.273 480.11 440.638 482.248 444.145L491.889 447.328C493.968 449.255 497.253 449.774 500.48 450.36L505.533 467.038 514.98 467.279C516.611 466.252 518.247 466.339 519.878 468.461 523.391 467.908 526.537 466.979 531.158 467.533 532.622 465.964 534.439 464.795 537.469 464.988 541.098 467.881 551.447 461.999 555.901 459.12 554.819 457.159 552.836 456.092 550.994 454.885 551.145 452.655 550.244 450.216 549.439 447.796 548.502 446.317 547.778 444.891 548.397 443.802L546.207 439.014 547.581 438.566C547.224 434.915 547.249 431.47 549.424 429.184 547.934 426.093 542.845 423.641 543.137 419.973L547.481 407.74 535.954 400.104 534.042 393.302 498.816 371.016Z" stroke="#000000" stroke-width="0.503333" stroke-linecap="round" fill="#C1BBCE" transform="matrix(1 0 0 1.00145 -53.1438 -42.8816)"/><path d="M473.932 436.849C473.932 436.849 458.609 440.628 458.609 440.628 457.613 442.449 456.907 443.501 456.52 445.565 456.42 446.099 456.882 447.2 457.044 448.704 457.366 451.683 458.375 456.905 457.462 458.314 455.322 461.617 453.876 467.716 453.998 467.891 455.219 469.64 457.698 471.427 459.16 471.813 461.176 472.346 463.439 472.094 463.929 471.337L464.17 481.009C463.384 480.361 462.257 479.907 461.701 479.202 458.485 478.927 455.585 480.648 450.856 471.704 447.749 471.437 444.677 470.531 442.022 466.835 440.735 466.498 438.586 468.259 436.649 468.693 431.108 468.163 429.515 465.536 428.102 464.728 427.141 463.838 426.533 462.801 426.345 461.589L420.644 463.48 419.619 459.07 417.261 459.146 415.233 475.668 417.099 477.549 399.704 477.099 398.867 508.06 408.555 516.621 421.686 514.563 423.607 517.447 424.439 519.395 434.714 519.5 436.117 520.734 438.036 520.23C443.576 512.982 448.626 511.13 453.726 508.724L453.936 503.912C457.96 501.419 462.3 500.018 467.325 500.981L465.442 496.217 490.965 488.22 488.245 484.245 492.848 475.668 496.404 475.249 494.103 472.111 496.195 460.814 498.287 459.35 494.103 451.191 492.197 447.412 482.411 444.129C479.083 439.398 478.304 440.288 477.267 440.564L473.932 436.849Z" stroke="#000000" stroke-width="0.503333" stroke-linecap="round" fill="#C1BBCE" transform="matrix(1 0 0 1.00145 -53.1438 -42.8816)"/><path d="M465.489 496.292 467.267 500.944 467.13 503.269 473.286 503.731 487.708 509.343C489.184 517.401 488.238 524.141 485.897 530.121 485.834 531.289 485.443 532.411 485.585 533.478 485.852 535.491 486.843 538.265 485.717 540.57 482.82 546.509 480.115 552.454 479.417 552.841 477.025 554.165 474.052 558.036 473.97 561.131L475.409 596.742 480.862 597.089 482.314 592.051 480.126 592.871C480.46 590.873 480 588.88 482.096 586.887L499.593 579.971C501.759 578.38 503.105 575.969 504.612 573.719L502.569 573.015 506.192 559.339 504.33 558.705 502.825 547.199C497.869 544.159 500.736 539.432 502.736 538.33L513.314 529.341 514.185 531.132 518.106 526.799 517.245 525.46 519.792 524.997 520.552 522.802 533.513 516.42 536.75 516.455C539.201 514.598 541.174 512.6 544.753 511.065L544.521 509.142 548.84 505.8C549.877 504.738 550.767 503.162 552.121 503.217L552.313 501.076 551.492 500.166 553.853 496.623 554.452 494.258 554.074 492.712 552.63 490.512 553.128 481.848C552.026 480.775 552.635 480.045 553.224 479.312L552.937 469.746 556.415 463.894C556.5 462.291 556.631 460.687 556.047 459.084 550.717 462.256 541.798 467.779 537.288 464.946 535.31 465.188 533.095 465.184 531.183 467.669 529.562 467.517 528.097 467.209 526.154 467.376L519.772 468.531C518.615 467.147 517.452 465.773 514.769 467.274L505.457 466.971 504.003 481.523C508.598 485.218 512.64 489.971 514.658 494.842 515.886 497.807 513.662 502.082 513.229 505.87L508.613 507.868 508.855 514.351 506.58 514.694C507.133 513.34 507.743 511.96 505.759 511.789 503.246 509.66 501.321 507.259 501.055 504.088 502.979 500.96 503.756 497.419 503.244 493.42L498.766 492.599C497.023 493.022 495.001 492.986 494.546 491.597 493.337 487.907 492.166 487.711 490.796 488.084L465.489 496.292Z" stroke="#000000" stroke-width="0.503333" stroke-linecap="round" fill="#C1BBCE" transform="matrix(1 0 0 1.00145 -53.1438 -42.8816)"/><path d="M424.398 519.415 426.945 524.574C427.781 525.545 428.873 526.451 428.797 528.032 430.785 531.434 433.265 533.85 435.533 536.689 437.272 537.233 438.811 538.023 439.869 539.417 440.936 540.706 442.151 542.004 444.293 542.337 443.389 547.581 445.743 552.101 448.208 553.043 451.127 553.173 453.888 553.717 455.981 555.715 461.92 556.42 462.614 557.245 464.019 558.056 468.883 556.43 471.151 559.143 473.917 561.015 474.578 557.049 476.914 554.829 479.559 552.741 481.647 549.7 483.562 544.939 485.557 540.963 487.035 538.501 485.844 535.899 485.486 533.337L485.879 530.07C489.472 521.061 488.37 515.68 487.786 509.338L473.196 503.711 467.065 503.271 467.268 501.194C462.071 499.51 457.841 501.78 453.965 503.917L453.79 508.704C441.854 514.029 441.219 516.923 437.934 520.271L436.153 520.819 434.702 519.536 424.398 519.415Z" stroke="#000000" stroke-width="0.503333" stroke-linecap="round" fill="#C1BBCE" transform="matrix(1 0 0 1.00145 -53.1438 -42.8816)"/><path d="M475.071 589.177 475.451 596.581C473.238 597.688 471.593 598.796 469.707 599.903 467.638 599.853 466.314 599.309 465.986 597.653 465.464 595.016 465.762 593.219 467.226 590.999 468.29 589.388 470.213 587.355 471.505 587.138 472.168 587.028 473.149 588.024 473.721 588.865L475.071 589.177Z" stroke="#000000" stroke-width="0.503333" stroke-linecap="round" fill="#E50101" transform="matrix(1 0 0 1.00145 -53.1438 -42.8816)"/><path d="M447.788 624.34C447.18 624.395 446.12 624.571 445.359 624.878 444.799 625.1 444.293 625.336 443.875 625.754 443.536 626.096 443.445 626.595 443.335 627.038 443.22 627.496 442.288 628.09 441.918 628.185 441.401 628.311 440.703 628.185 440.164 628.185 439.084 628.185 438.57 627.949 437.937 627.103 437.165 626.076 436.196 625.281 435.508 624.133 435.022 623.323 434.578 622.83 434.294 621.974 434.08 621.335 434.159 620.625 434.159 619.951 434.159 619.09 434.556 618.305 435.306 617.927 435.396 617.882 435.486 617.837 435.576 617.791 436.457 617.353 436.677 616.357 437.33 615.703 438.049 614.983 438.981 614.344 439.759 613.679 440.253 613.251 440.958 612.874 441.513 612.597 442.365 612.174 443.177 611.948 444.077 611.721 444.752 611.55 445.539 611.324 446.101 611.183 446.213 611.152 446.326 611.137 446.439 611.112 446.551 611.092 446.664 611.067 446.776 611.047 447.571 610.886 448.574 611.283 449.003 611.857 449.59 612.637 450.325 613.392 450.892 614.147 451.188 614.545 451.17 615.516 451.432 616.04 451.805 616.785 452.248 617.343 452.511 618.129 452.781 618.939 452.392 619.785 452.039 620.494 451.618 621.335 451.049 621.818 450.419 622.447 449.904 622.966 449.354 623.383 448.8 623.796 448.507 624.018 448.113 624.143 447.788 624.34Z" stroke="#000000" stroke-width="0.503333" stroke-linecap="square" fill="#E50101" transform="matrix(1 0 0 1.00145 -53.1438 -42.8816)"/><path d="M500.471 450.347 505.483 466.872 504.003 481.543C506.977 484.222 509.937 486.397 514.115 493.362 514.638 494.237 515.187 496.422 515.001 498.175L513.184 505.931 508.643 507.909 508.996 514.694 506.59 514.729C507.828 511.543 506.64 512.137 506.107 511.945 502.816 509.867 501.584 506.806 500.979 504.068 503.671 499.923 503.509 496.594 503.203 493.392L498.75 492.569C495.313 493.409 494.644 492.147 494.313 491.001 492.447 486.631 491.59 488.315 490.906 488.019L488.25 484.364 492.908 475.729 496.541 475.321 494.068 472.099 496.233 460.869 498.294 459.349 492.341 447.582C494.072 449.099 495.986 449.616 500.471 450.347Z" stroke="#000000" stroke-width="0.503333" stroke-linecap="round" fill="#C1BBCE" transform="matrix(1 0 0 1.00145 -53.1438 -42.8816)"/><path d="M460.648 389.785 461.871 388.635 463.354 388.71 464.095 390.785 468.247 389.97 468.47 387.375 473.66 387.078C471.945 390.061 474.5 391.687 475.588 393.195 472.111 401.318 469.151 404.172 466.464 404.304 462.902 404.32 463.368 405.624 462.984 406.763 462.725 403.152 462.913 399.784 463.14 396.827 463.418 393.212 462.215 390.548 460.648 389.785Z" stroke="#000000" stroke-width="0.503333" stroke-linecap="round" fill="#C1BBCE" transform="matrix(1 0 0 1.00145 -53.1438 -42.8816)"/><path d="M472.511 375.92 468.804 378.886 467.543 378.886 466.802 377.848C463.515 381.128 461.057 384.824 458.535 388.487 459.444 388.704 460.171 389.148 460.685 389.859L461.908 388.71 463.317 388.821 464.021 390.711 468.285 389.859 468.47 387.301 473.772 387.004C474.549 385.941 475.241 384.879 476.404 383.816L472.511 375.92Z" stroke="#000000" stroke-width="0.503333" stroke-linecap="round" fill="#C1BBCE" transform="matrix(1 0 0 1.00145 -53.1438 -42.8816)"/><path d="M475.755 336.255 477.418 334.995C484.103 336.7 491.071 335.724 498.038 334.753L502.211 331.301C504.582 332.696 506.353 335.09 506.706 340.083L510.722 343.293 510.722 353.042 495.784 375.532 472.492 375.963 468.927 378.851 467.536 378.878 466.735 377.807 467.269 363.91 472.49 355.988 480.817 348.518 475.783 345.336 475.755 336.255Z" stroke="#000000" stroke-width="0.503333" stroke-linecap="round" fill="#C1BBCE" transform="matrix(1 0 0 1.00145 -53.1438 -42.8816)"/><path d="M138.829 600.22 261.801 600.22 261.801 593.4" stroke="#000000" stroke-width="1.51" stroke-linecap="round" fill="none" transform="matrix(1 0 0 1.00145 -53.1438 -42.8816)"/><path d="M215.553 600.411 215.553 606.854" stroke="#000000" stroke-width="1.51" stroke-linecap="round" fill="none" transform="matrix(1 0 0 1.00145 -53.1438 -42.8816)"/><path d="M138.821 593.259 138.821 607.216" stroke="#000000" stroke-width="1.51" stroke-linecap="round" fill="none" transform="matrix(1 0 0 1.00145 -53.1438 -42.8816)"/><path d="M17.5818-5.85272C17.2161-5.85272 16.9241-5.69789 16.7058-5.38822 16.4316-4.99303 16.2944-4.2631 16.2944-3.19843 16.2944-2.13376 16.419-1.42521 16.6682-1.07278 16.9175-0.720347 17.2249-0.544131 17.5906-0.544131 17.9563-0.544131 18.2638-0.721084 18.513-1.07499 18.7622-1.4289 18.8868-2.13671 18.8868-3.19843 18.8868-4.26605 18.7622-4.97533 18.513-5.32629 18.2638-5.67725 17.9534-5.85272 17.5818-5.85272ZM12.5484-5.85272C12.1827-5.85272 11.8908-5.69789 11.6725-5.38822 11.3982-4.99303 11.2611-4.2631 11.2611-3.19843 11.2611-2.13376 11.3857-1.42521 11.6349-1.07278 11.8841-0.720347 12.1916-0.544131 12.5573-0.544131 12.923-0.544131 13.2304-0.721084 13.4796-1.07499 13.7289-1.4289 13.8535-2.13671 13.8535-3.19843 13.8535-4.26605 13.7289-4.97533 13.4796-5.32629 13.2304-5.67725 12.92-5.85272 12.5484-5.85272ZM7.5151-5.85272C7.1494-5.85272 6.85743-5.69789 6.63918-5.38822 6.36491-4.99303 6.22777-4.2631 6.22777-3.19843 6.22777-2.13376 6.35237-1.42521 6.60158-1.07278 6.85079-0.720347 7.15825-0.544131 7.52395-0.544131 7.88965-0.544131 8.19711-0.721084 8.44632-1.07499 8.69553-1.4289 8.82013-2.13671 8.82013-3.19843 8.82013-4.26605 8.69553-4.97533 8.44632-5.32629 8.19711-5.67725 7.8867-5.85272 7.5151-5.85272ZM17.5906-6.51188C17.9386-6.51188 18.2439-6.44183 18.5063-6.30174 18.7688-6.16166 18.9856-5.95963 19.1567-5.69568 19.3277-5.43172 19.4619-5.11026 19.5592-4.73128 19.6565-4.35231 19.7052-3.84136 19.7052-3.19843 19.7052-2.43753 19.6271-1.82335 19.4707-1.3559 19.3144-0.888452 19.0807-0.527173 18.7696-0.272065 18.4584-0.016958 18.0654 0.110596 17.5906 0.110596 16.9654 0.110596 16.4743-0.113545 16.1175-0.561826 15.6898-1.10153 15.476-1.9804 15.476-3.19843 15.476-3.96522 15.5549-4.58235 15.7127-5.0498 15.8705-5.51725 16.1049-5.87779 16.4161-6.13143 16.7272-6.38506 17.1187-6.51188 17.5906-6.51188ZM12.5573-6.51188C12.9053-6.51188 13.2105-6.44183 13.473-6.30174 13.7355-6.16166 13.9523-5.95963 14.1233-5.69568 14.2944-5.43172 14.4286-5.11026 14.5259-4.73128 14.6232-4.35231 14.6719-3.84136 14.6719-3.19843 14.6719-2.43753 14.5937-1.82335 14.4374-1.3559 14.2811-0.888452 14.0474-0.527173 13.7362-0.272065 13.4251-0.016958 13.0321 0.110596 12.5573 0.110596 11.932 0.110596 11.441-0.113545 11.0841-0.561826 10.6565-1.10153 10.4427-1.9804 10.4427-3.19843 10.4427-3.96522 10.5216-4.58235 10.6794-5.0498 10.8371-5.51725 11.0716-5.87779 11.3828-6.13143 11.6939-6.38506 12.0854-6.51188 12.5573-6.51188ZM7.52395-6.51188C7.87196-6.51188 8.1772-6.44183 8.43968-6.30174 8.70216-6.16166 8.91893-5.95963 9.08998-5.69568 9.26104-5.43172 9.39523-5.11026 9.49255-4.73128 9.58988-4.35231 9.63854-3.84136 9.63854-3.19843 9.63854-2.43753 9.56038-1.82335 9.40408-1.3559 9.24777-0.888452 9.01404-0.527173 8.7029-0.272065 8.39176-0.016958 7.99877 0.110596 7.52395 0.110596 6.89871 0.110596 6.40767-0.113545 6.05081-0.561826 5.62318-1.10153 5.40936-1.9804 5.40936-3.19843 5.40936-3.96522 5.48825-4.58235 5.64603-5.0498 5.80382-5.51725 6.03828-5.87779 6.34942-6.13143 6.66057-6.38506 7.05207-6.51188 7.52395-6.51188ZM2.86222-6.51188 3.37538-6.51188 3.37538 0 2.57909 0 2.57909-5.07413C2.38739-4.89128 2.13597-4.70843 1.82483-4.52558 1.51369-4.34272 1.23425-4.20559 0.986514-4.11416L0.986514-4.88391C1.43185-5.0933 1.82114-5.34693 2.1544-5.6448 2.48767-5.94268 2.7236-6.2317 2.86222-6.51188Z" stroke="#000000" stroke-width="0.67049" stroke-linecap="round" fill-rule="evenodd" transform="matrix(1 0 0 1.00145 151.181 575.646)"/><text fill="#000000" fill-opacity="0" font-family="Arial,Arial_MSFontService,sans-serif" font-size="6.62247" x="0.986514" y="-0.717213">1000 </text><path d="M7.26393-4.80428C7.61193-4.80428 7.89727-4.73202 8.11994-4.58751 8.3426-4.443 8.49965-4.24098 8.59107-3.98145 8.96268-4.53 9.44635-4.80428 10.0421-4.80428 10.5081-4.80428 10.8664-4.67525 11.1171-4.41719 11.3678-4.15914 11.4931-3.76173 11.4931-3.22497L11.4931 0 10.7012 0 10.7012-2.95954C10.7012-3.27806 10.6754-3.50736 10.6238-3.64745 10.5722-3.78753 10.4786-3.90034 10.3429-3.98587 10.2072-4.0714 10.048-4.11416 9.86514-4.11416 9.53483-4.11416 9.26055-4.0043 9.0423-3.78458 8.82406-3.56487 8.71494-3.21317 8.71494-2.7295L8.71494 0 7.91865 0 7.91865-3.05244C7.91865-3.40635 7.85377-3.67178 7.724-3.84873 7.59424-4.02568 7.3819-4.11416 7.08697-4.11416 6.86283-4.11416 6.65565-4.05518 6.46542-3.93721 6.2752-3.81924 6.13732-3.64671 6.0518-3.41962 5.96627-3.19253 5.92351-2.86517 5.92351-2.43753L5.92351 0 5.12722 0 5.12722-4.69811 5.83945-4.69811 5.83945-4.03896C5.98691-4.26899 6.18304-4.45406 6.42782-4.59415 6.67261-4.73423 6.95131-4.80428 7.26393-4.80428ZM0.601641-6.48533 1.39793-6.48533 1.39793-2.78701 3.28248-4.69811 4.31323-4.69811 2.51716-2.95512 4.49461 0 3.51252 0 1.95976-2.40214 1.39793-1.86243 1.39793 0 0.601641 0Z" stroke="#000000" stroke-width="0.67049" stroke-linecap="round" fill-rule="evenodd" transform="matrix(1 0 0 1.00145 173.831 575.646)"/><text fill="#000000" fill-opacity="0" font-family="Arial,Arial_MSFontService,sans-serif" font-size="6.48533" x="0.601641" y="-0.810667">km</text><path d="M17.5818-5.85272C17.2161-5.85272 16.9241-5.69789 16.7058-5.38822 16.4316-4.99303 16.2944-4.2631 16.2944-3.19843 16.2944-2.13376 16.419-1.42521 16.6682-1.07278 16.9175-0.720347 17.2249-0.544131 17.5906-0.544131 17.9563-0.544131 18.2638-0.721084 18.513-1.07499 18.7622-1.4289 18.8868-2.13671 18.8868-3.19843 18.8868-4.26605 18.7622-4.97533 18.513-5.32629 18.2638-5.67725 17.9534-5.85272 17.5818-5.85272ZM12.5484-5.85272C12.1827-5.85272 11.8908-5.69789 11.6725-5.38822 11.3982-4.99303 11.2611-4.2631 11.2611-3.19843 11.2611-2.13376 11.3857-1.42521 11.6349-1.07278 11.8841-0.720347 12.1916-0.544131 12.5573-0.544131 12.923-0.544131 13.2304-0.721084 13.4796-1.07499 13.7289-1.4289 13.8535-2.13671 13.8535-3.19843 13.8535-4.26605 13.7289-4.97533 13.4796-5.32629 13.2304-5.67725 12.92-5.85272 12.5484-5.85272ZM7.5151-5.85272C7.1494-5.85272 6.85743-5.69789 6.63918-5.38822 6.36491-4.99303 6.22777-4.2631 6.22777-3.19843 6.22777-2.13376 6.35237-1.42521 6.60158-1.07278 6.85079-0.720347 7.15825-0.544131 7.52395-0.544131 7.88965-0.544131 8.19711-0.721084 8.44632-1.07499 8.69553-1.4289 8.82013-2.13671 8.82013-3.19843 8.82013-4.26605 8.69553-4.97533 8.44632-5.32629 8.19711-5.67725 7.8867-5.85272 7.5151-5.85272ZM17.5906-6.51188C17.9386-6.51188 18.2439-6.44183 18.5063-6.30174 18.7688-6.16166 18.9856-5.95963 19.1567-5.69568 19.3277-5.43172 19.4619-5.11026 19.5592-4.73128 19.6565-4.35231 19.7052-3.84136 19.7052-3.19843 19.7052-2.43753 19.6271-1.82335 19.4707-1.3559 19.3144-0.888452 19.0807-0.527173 18.7696-0.272065 18.4584-0.016958 18.0654 0.110596 17.5906 0.110596 16.9654 0.110596 16.4743-0.113545 16.1175-0.561826 15.6898-1.10153 15.476-1.9804 15.476-3.19843 15.476-3.96522 15.5549-4.58235 15.7127-5.0498 15.8705-5.51725 16.1049-5.87779 16.4161-6.13143 16.7272-6.38506 17.1187-6.51188 17.5906-6.51188ZM12.5573-6.51188C12.9053-6.51188 13.2105-6.44183 13.473-6.30174 13.7355-6.16166 13.9523-5.95963 14.1233-5.69568 14.2944-5.43172 14.4286-5.11026 14.5259-4.73128 14.6232-4.35231 14.6719-3.84136 14.6719-3.19843 14.6719-2.43753 14.5937-1.82335 14.4374-1.3559 14.2811-0.888452 14.0474-0.527173 13.7362-0.272065 13.4251-0.016958 13.0321 0.110596 12.5573 0.110596 11.932 0.110596 11.441-0.113545 11.0841-0.561826 10.6565-1.10153 10.4427-1.9804 10.4427-3.19843 10.4427-3.96522 10.5216-4.58235 10.6794-5.0498 10.8371-5.51725 11.0716-5.87779 11.3828-6.13143 11.6939-6.38506 12.0854-6.51188 12.5573-6.51188ZM7.52395-6.51188C7.87196-6.51188 8.1772-6.44183 8.43968-6.30174 8.70216-6.16166 8.91893-5.95963 9.08998-5.69568 9.26104-5.43172 9.39523-5.11026 9.49255-4.73128 9.58988-4.35231 9.63854-3.84136 9.63854-3.19843 9.63854-2.43753 9.56038-1.82335 9.40408-1.3559 9.24777-0.888452 9.01404-0.527173 8.7029-0.272065 8.39176-0.016958 7.99877 0.110596 7.52395 0.110596 6.89871 0.110596 6.40767-0.113545 6.05081-0.561826 5.62318-1.10153 5.40936-1.9804 5.40936-3.19843 5.40936-3.96522 5.48825-4.58235 5.64603-5.0498 5.80382-5.51725 6.03828-5.87779 6.34942-6.13143 6.66057-6.38506 7.05207-6.51188 7.52395-6.51188ZM2.86222-6.51188 3.37538-6.51188 3.37538 0 2.57909 0 2.57909-5.07413C2.38739-4.89128 2.13597-4.70843 1.82483-4.52558 1.51369-4.34272 1.23425-4.20559 0.986514-4.11416L0.986514-4.88391C1.43185-5.0933 1.82114-5.34693 2.1544-5.6448 2.48767-5.94268 2.7236-6.2317 2.86222-6.51188Z" stroke="#000000" stroke-width="0.503333" stroke-linecap="round" fill-rule="evenodd" transform="matrix(1 0 0 1.00145 191.613 547.842)"/><text fill="#000000" fill-opacity="0" font-family="Arial,Arial_MSFontService,sans-serif" font-size="6.62247" x="0.986514" y="-0.717213">1000 </text><path d="M7.64831-4.69811 8.4446-4.69811 8.4446 0 7.64831 0ZM2.73393-4.80428C3.08193-4.80428 3.36727-4.73202 3.58994-4.58751 3.8126-4.443 3.96965-4.24098 4.06107-3.98145 4.43268-4.53 4.91635-4.80428 5.51209-4.80428 5.97807-4.80428 6.3364-4.67525 6.58708-4.41719 6.83776-4.15914 6.96311-3.76173 6.96311-3.22497L6.96311 0 6.17124 0 6.17124-2.95954C6.17124-3.27806 6.14543-3.50736 6.09382-3.64745 6.04221-3.78753 5.94857-3.90034 5.81291-3.98587 5.67725-4.0714 5.51799-4.11416 5.33514-4.11416 5.00482-4.11416 4.73055-4.0043 4.5123-3.78458 4.29406-3.56487 4.18494-3.21317 4.18494-2.7295L4.18494 0 3.38865 0 3.38865-3.05244C3.38865-3.40635 3.32377-3.67178 3.194-3.84873 3.06424-4.02568 2.85189-4.11416 2.55697-4.11416 2.33283-4.11416 2.12565-4.05518 1.93542-3.93721 1.7452-3.81924 1.60732-3.64671 1.5218-3.41962 1.43627-3.19253 1.39351-2.86517 1.39351-2.43753L1.39351 0 0.597217 0 0.597217-4.69811 1.30945-4.69811 1.30945-4.03896C1.45691-4.26899 1.65304-4.45406 1.89782-4.59415 2.14261-4.73423 2.42131-4.80428 2.73393-4.80428ZM7.64831-6.48533 8.4446-6.48533 8.4446-5.5696 7.64831-5.5696Z" stroke="#000000" stroke-width="0.503333" stroke-linecap="round" fill-rule="evenodd" transform="matrix(1 0 0 1.00145 214.263 547.842)"/><text fill="#000000" fill-opacity="0" font-family="Arial,Arial_MSFontService,sans-serif" font-size="6.48533" x="0.597217" y="-0.810667">mi</text><path d="M2.48177-5.85272C2.11606-5.85272 1.82409-5.69789 1.60585-5.38822 1.33157-4.99303 1.19443-4.2631 1.19443-3.19843 1.19443-2.13376 1.31904-1.42521 1.56825-1.07278 1.81746-0.720347 2.12491-0.544131 2.49062-0.544131 2.85632-0.544131 3.16377-0.721084 3.41298-1.07499 3.66219-1.4289 3.7868-2.13671 3.7868-3.19843 3.7868-4.26605 3.66219-4.97533 3.41298-5.32629 3.16377-5.67725 2.85337-5.85272 2.48177-5.85272ZM2.49062-6.51188C2.83862-6.51188 3.14387-6.44183 3.40635-6.30174 3.66883-6.16166 3.8856-5.95963 4.05665-5.69568 4.22771-5.43172 4.36189-5.11026 4.45922-4.73128 4.55654-4.35231 4.60521-3.84136 4.60521-3.19843 4.60521-2.43753 4.52705-1.82335 4.37074-1.3559 4.21443-0.888452 3.98071-0.527173 3.66957-0.272065 3.35842-0.016958 2.96544 0.110596 2.49062 0.110596 1.86538 0.110596 1.37434-0.113545 1.01748-0.561826 0.589844-1.10153 0.376025-1.9804 0.376025-3.19843 0.376025-3.96522 0.454917-4.58235 0.6127-5.0498 0.770483-5.51725 1.00495-5.87779 1.31609-6.13143 1.62723-6.38506 2.01874-6.51188 2.49062-6.51188Z" stroke="#000000" stroke-width="0.503333" stroke-linecap="round" fill-rule="evenodd" transform="matrix(1 0 0 1.00145 83.2062 547.721)"/><text fill="#000000" fill-opacity="0" font-family="Arial,Arial_MSFontService,sans-serif" font-size="6.62247" x="0.376025" y="-0.717213">0</text><path d="M2.48177-5.85272C2.11606-5.85272 1.82409-5.69789 1.60585-5.38822 1.33157-4.99303 1.19443-4.2631 1.19443-3.19843 1.19443-2.13376 1.31904-1.42521 1.56825-1.07278 1.81746-0.720347 2.12491-0.544131 2.49062-0.544131 2.85632-0.544131 3.16377-0.721084 3.41298-1.07499 3.66219-1.4289 3.7868-2.13671 3.7868-3.19843 3.7868-4.26605 3.66219-4.97533 3.41298-5.32629 3.16377-5.67725 2.85337-5.85272 2.48177-5.85272ZM2.49062-6.51188C2.83862-6.51188 3.14387-6.44183 3.40635-6.30174 3.66883-6.16166 3.8856-5.95963 4.05665-5.69568 4.22771-5.43172 4.36189-5.11026 4.45922-4.73128 4.55654-4.35231 4.60521-3.84136 4.60521-3.19843 4.60521-2.43753 4.52705-1.82335 4.37074-1.3559 4.21443-0.888452 3.98071-0.527173 3.66957-0.272065 3.35842-0.016958 2.96544 0.110596 2.49062 0.110596 1.86538 0.110596 1.37434-0.113545 1.01748-0.561826 0.589844-1.10153 0.376025-1.9804 0.376025-3.19843 0.376025-3.96522 0.454917-4.58235 0.6127-5.0498 0.770483-5.51725 1.00495-5.87779 1.31609-6.13143 1.62723-6.38506 2.01874-6.51188 2.49062-6.51188Z" stroke="#000000" stroke-width="0.698043" stroke-linecap="round" fill-rule="evenodd" transform="matrix(1 0 0 1.00145 83.0431 574.931)"/><text fill="#000000" fill-opacity="0" font-family="Arial,Arial_MSFontService,sans-serif" font-size="6.62247" x="0.376025" y="-0.717213">0</text><path d="M81.8898 219.983C80.3848 222.57 79.3621 223.92 79.3183 226.02 79.2191 230.821 74.4279 232.351 72.03 235.84 74.2608 239.093 76.6899 242.287 77.0679 246.084L86.3046 246.084C88.2967 243.423 91.2312 244.295 94.5738 246.697L99.9066 247.092 101.082 248.603 97.2198 249.947C94.5763 249.382 92.191 248.365 89.999 247.01 88.4508 247.928 86.681 248.476 84.4568 248.268L83.4496 249.947 75.3888 250.283C74.9136 252.466 74.4747 254.649 74.8849 256.832 76.8253 256.653 78.7138 256.938 80.7573 255.829 83.5116 256.534 86.1264 255.918 88.6551 254.48L102.585 254.647C107.82 257.642 114.35 257.95 120.395 258.343 120.68 255.188 122.443 252.051 115.57 247.26 116.625 245.901 116.23 242.778 115.307 240.521 114.784 239.244 115.786 238.843 115.312 237.48 114.658 237.117 113.872 236.084 112.772 235.047 111.541 233.885 109.044 230.548 109.044 230.548 107.582 226.163 105.696 224.369 105.696 224.369 101.209 225.104 98.4379 220.052 98.4379 220.052 94.6075 219.017 92.6043 219.78 90.9372 219.867 86.5854 220.095 85.6995 220.632 81.8898 219.983Z" stroke="#000000" stroke-width="0.503333" stroke-linecap="round" fill="#CFFD0E" transform="matrix(1 0 0 1.00145 -53.1438 -42.8816)"/><path d="M77.0322 246.111 86.2683 246.111C88.261 243.451 91.1954 244.322 94.5381 246.724L99.8709 247.119 101.047 248.631 97.1841 249.974C94.5401 249.409 92.1553 248.392 89.9628 247.038 88.4145 247.955 86.6448 248.503 84.4211 248.295L83.4134 249.974 75.3878 250.31C75.3878 250.31 77.0322 246.111 77.0322 246.111Z" stroke="#000000" stroke-width="0.503333" stroke-linecap="round" fill="#CFFD0E" transform="matrix(1 0 0 1.00145 -53.1438 -42.8816)"/><path d="M74.9765 256.936 75.5423 258.49C76.713 259.292 78.9171 257.708 78.7853 261.515 79.8498 262.072 81.167 260.948 81.9311 263.51 83.2377 264.169 86.5472 258.021 85.3487 267.197L88.2867 270.416C90.0287 267.7 92.6476 264.977 95.3585 264.005 95.3585 264.005 100.155 263.888 100.155 263.888L100.961 254.647 88.5831 254.605C86.0675 255.828 83.4824 256.498 80.7412 255.919 78.9951 256.544 77.1751 256.876 74.9765 256.936Z" stroke="#000000" stroke-width="0.503333" stroke-linecap="round" fill="#CFFD0E" transform="matrix(1 0 0 1.00145 -53.1438 -42.8816)"/><path d="M88.1805 270.454C87.8901 271.358 87.964 271.808 89.1408 271.81 89.616 272.379 91.2906 268.357 91.0329 272.416L92.5298 272.576C92.0224 274.831 93.5581 277.599 95.0228 278.099 96.9083 278.742 97.9507 280.925 98.987 281.888L101.545 286.596C103.307 287.797 105.735 286.925 109.525 281.812 109.113 280.109 111.467 279.202 118.503 279.642 124.266 283.795 125.994 288.641 123.846 294.15 126.423 293.527 127.866 291.77 132.164 292.868 134.306 295.567 135.632 298.548 133.85 302.593 136.224 303.479 137.08 306.085 140.393 301.695 140.168 300.689 140.986 300.327 142.028 301.1 142.659 301.568 143.712 300.857 144.707 301.104L146.457 296.594 144.312 295.728 144.721 293.358 149.107 294.25C148.772 292.633 146.586 290.531 148.205 289.428 148.931 288.681 148.596 288.097 147.859 287.575L147.95 285.508C143.697 285 146.124 280.294 147.592 277.909L144.985 275.539 144.686 270.326 142.537 271.91 141.733 270.71 144.604 268.084 140.728 265.139C141.368 263.077 140.504 260.604 139.802 258.032L137.073 257.438C137.115 258.613 136.708 259.503 135.509 259.888 134.486 259.58 133.858 260.234 133.626 261.849L128.79 259.847 124.95 262.631C125.437 261.384 124.19 260.643 123.405 259.713L121.288 261.135C119.634 261.693 119.426 260.803 119.446 259.686 119.786 259.323 120.211 259.045 120.341 258.472 114.368 257.544 108.112 257.917 102.651 254.63L100.939 254.62 100.195 263.886 95.5322 264.01C90.975 265.664 88.7316 269.908 88.1805 270.454Z" stroke="#000000" stroke-width="0.503333" stroke-linecap="round" fill="#CFFD0E" transform="matrix(1 0 0 1.00145 -53.1438 -42.8816)"/><path d="M315.019 410.039 319.07 407.59C320.766 403.606 322.15 404.762 323.497 406.554 321.775 408.108 319.987 409.611 319.819 412.373 320.226 416.202 318.448 415.882 317.186 416.539 316.625 415.5 315.829 414.508 316.106 413.3 316.072 412.159 316.088 411.008 315.019 410.039Z" stroke="#000000" stroke-width="0.503333" stroke-linecap="round" fill="#E27575" transform="matrix(1 0 0 1.00145 -53.1438 -42.8816)"/><path d="M315.049 410.03 306.59 399.11 312.251 395.513 311.585 389.385 318.512 385.189C319.695 384.26 320.583 382.004 322.709 385.322 326.388 384.886 328.532 385.832 329.702 387.654L332.633 385.656 333.832 373.466C333.776 369.267 329.077 366.525 334.698 360.544 335.643 356.614 332.127 353.922 328.237 354.083 327.285 355.3 326.928 357.259 324.584 356.735L324.707 350.886 326.106 348.755 337.429 348.888 342.899 350.833C344.94 349.79 347.673 352.888 349.573 353.206L349.285 343.826C353.576 338.359 356.738 336.727 360.275 335.899L365.671 338.364 372.331 336.499C370.696 340.875 368.913 344.467 367.256 348.761 364.417 356.12 365.365 365.09 364.072 373.333 357.922 376.029 355.692 380.764 352.482 384.989L349.829 397.198C344.04 403.401 338.93 408.373 335.631 408.102 335.609 404.615 331.824 401.523 328.735 407.256 326.58 408.682 325.03 407.942 323.375 406.37 320.98 403.207 320.192 405.887 319.112 407.503L315.049 410.03Z" stroke="#000000" stroke-width="0.503333" stroke-linecap="round" fill="#E27575" transform="matrix(1 0 0 1.00145 -53.1438 -42.8816)"/><path d="M306.64 399.11 291.486 383.43 287.873 374.199 291.203 371.001 292.136 365.806 296.399 366.739C296.644 366.484 297.027 366.298 296.799 365.806L293.1 363.91 294.267 358.613 308.458 357.885 308.521 348.755 326.106 348.755 324.743 350.675 324.585 356.631C326.173 357.236 327.232 355.926 328.26 354.044 330.963 353.623 335.924 356.065 334.576 360.728 332.324 363.26 331.3 365.619 332.103 367.773 332.695 369.359 333.407 370.899 333.863 373.25L332.5 385.656 329.672 387.701C328.401 385.601 326.055 384.844 322.776 385.256 321.767 383.992 320.777 382.379 318.865 384.927L311.53 389.441 312.165 395.505 306.64 399.11Z" stroke="#000000" stroke-width="0.503333" stroke-linecap="round" fill="#E27575" transform="matrix(1 0 0 1.00145 -53.1438 -42.8816)"/><path d="M308.425 357.854 294.767 358.514 292.035 356.724 296.133 348.858 308.331 348.717 308.425 357.854Z" stroke="#000000" stroke-width="0.503333" stroke-linecap="round" fill="#E27575" transform="matrix(1 0 0 1.00145 -53.1438 -42.8816)"/><path d="M349.563 353.238C347.31 352.246 344.614 350 343.024 350.886L337.342 348.859 325.973 348.755 308.122 348.755 295.965 348.888 297.198 339.563 294.001 335.433 295.2 333.968 294.401 332.769 292.269 333.435C289.636 333.109 288.693 331.245 288.076 329.086 286.654 328.551 284.665 328.743 284.676 326.375 287.667 321.198 288.316 314.131 294.154 311.254L294.357 308.972 302.691 308.578C305.803 310.576 304.81 312.872 310.096 312.202 313.756 305.595 316.41 293.459 321.177 292.938 324.063 285.833 324.919 275.751 329.836 271.623 332.259 270.758 334.325 269.73 335.221 268.171 335.745 267.261 335.869 264.317 335.433 262.971 335.12 262.003 334.518 262.757 333.566 261.499L332.135 256.043 333.294 255.105 337.695 258.835C338.321 261.888 339.842 264.717 339.547 268 339.228 272.775 337.257 273.458 342.018 278.906 342.829 280.257 343.014 281.686 342.839 283.161L333.965 282.28C332.976 284.702 330.782 290.203 339.526 292.144L343.649 304.533 335.963 317.316 337.035 326.647C340.279 332.627 344.036 338.854 349.285 343.693L349.563 353.238Z" stroke="#000000" stroke-width="0.503333" stroke-linecap="round" fill="#E27575" transform="matrix(1 0 0 1.00145 -53.1438 -42.8816)"/><path d="M284.659 326.469 282.965 326.39 282.41 329.354C279.508 329.424 276.605 329.117 273.703 328.057 266.769 332.373 261.278 331.667 258.444 321.706 256.29 316.145 252.803 314.34 249.111 313.115L237.047 313.184 237.574 293.93C239.489 291.494 240.68 288.093 241.756 284.538 244.981 283.744 244.292 280.908 244.44 278.508 247.664 276.372 245.551 273.022 244.223 270.776L244.432 264.513C244.706 262.737 244.302 260.816 246.849 259.185 247.841 257.966 248.832 258.56 249.824 252.598 251.592 251.24 253.459 249.903 262.979 250.205 266.306 251.946 270.543 253.358 272.852 256.943L274.995 256.84C276.378 255.866 276.805 254.15 279.319 254.055 280.752 254.025 280.836 252.646 287.638 257.984L294.73 258.647 301.315 253.9 313.12 253.669C314.842 254.387 316.253 255.961 318.486 255.275 321.437 252.337 325.016 250.818 328.381 249.401 329.727 251.557 331.599 253.664 333.277 255.009L332.157 255.904 333.576 261.615C334.235 262.114 335.436 262.289 335.467 263.165 336.734 268.766 333.595 270.499 329.882 271.736 325.153 275.415 323.965 285.511 321.249 292.836 315.966 294.396 314.208 304.164 310.169 312.195 306.272 312.956 305.286 311.059 302.842 308.421L294.351 308.971 294.129 311.241C288.708 314.073 287.46 320.493 284.659 326.469Z" stroke="#000000" stroke-width="0.503333" stroke-linecap="round" fill="#CFFD0E" transform="matrix(1 0 0 1.00145 -53.1438 -42.8816)"/><path d="M237.022 313.103 229.316 314.134 225.335 282.931C224.827 280.552 222.464 279.497 220.661 278.043L221.617 272.944 226.61 269.013 231.816 269.225 235.641 263.063 244.247 264.444 244.3 271.267C246.741 273.89 246.298 277.411 244.457 278.514 244.625 281.8 244.026 284.524 241.842 284.45 240.52 288.003 239.392 292.27 237.508 293.763L237.022 313.103Z" stroke="#000000" stroke-width="0.503333" stroke-linecap="round" fill="#CFFD0E" transform="matrix(1 0 0 1.00145 -53.1438 -42.8816)"/><path d="M223.191 315.828 229.189 314.097 225.209 282.893C224.701 280.514 222.338 279.46 220.535 278.006L221.491 272.906 214.417 271.991C213.093 274.637 213.799 277.155 217.007 279.518 219.599 290.089 219.277 300.243 220.09 310.56L223.191 315.828Z" stroke="#000000" stroke-width="0.503333" stroke-linecap="round" fill="#CFFD0E" transform="matrix(1 0 0 1.00145 -53.1438 -42.8816)"/><path d="M223.207 315.801C222.401 316.875 222.301 319.125 220.07 317.824 208.995 319.169 204.625 323.866 196.901 326.887L187.134 323.313 188.464 317.873C188.187 313.521 184.492 309.069 189.489 304.872 189.953 301.699 189.696 298.244 193.115 296.219L190.519 272.798 207.385 273.32C209.629 272.131 212.018 271.955 214.434 271.964 213.109 274.609 213.816 277.128 217.023 279.49 219.616 290.061 219.293 300.216 220.106 310.533L223.207 315.801Z" stroke="#000000" stroke-width="0.503333" stroke-linecap="round" fill="#CFFD0E" transform="matrix(1 0 0 1.00145 -53.1438 -42.8816)"/><path d="M149.152 329.24 152.372 329.544 177.964 322.3 187.146 323.33 188.476 317.89C188.199 313.538 184.504 309.085 189.501 304.889 189.966 301.715 189.709 298.261 193.127 296.236L191.959 285.534C190.552 285.564 189.965 284.104 189.228 282.837 187.589 280.019 182.093 280.351 177.015 283.818 174.597 282.108 171.78 280.93 170.833 277.258 167.44 276.007 164.798 276.687 162.614 278.546L163.01 274.885C162.478 273.493 160.567 273.893 158.32 274.731 157.754 274.795 158.151 275.684 158.786 276.777 157.962 277.089 157.139 277.134 156.316 277.291 155.742 277.997 154.915 278.743 153.999 278.935 151.698 274.903 150.364 275.662 147.63 277.879 146.692 278.638 146.079 280.475 145.697 282.079 145.266 283.886 146.039 285.63 148.01 285.377 148.01 285.377 147.827 287.811 147.827 287.811 149.233 288.44 148.93 288.691 147.621 290.069 147.03 290.691 149.279 293.541 149.012 294.213 149.012 294.213 144.692 293.354 144.692 293.354 144.576 294.036 144.424 295.016 144.362 295.768 144.362 295.768 146.395 296.638 146.395 296.638 146.395 296.638 144.806 300.866 144.806 300.866 145.014 301.197 142.886 300.984 142.364 301.055 142.364 301.055 142.396 303.702 142.396 303.702 144.603 304.296 143.398 309.467 141.325 310.31 141.325 310.31 144.364 312.217 144.364 312.217 145.033 311.694 146.91 312.151 148.128 315.477 148.128 315.477 151.158 317.381 151.092 319.779 151.04 321.681 149.755 321.984 149.407 323.458 149.407 323.458 149.152 329.24 149.152 329.24Z" stroke="#000000" stroke-width="0.503333" stroke-linecap="round" fill="#CFFD0E" transform="matrix(1 0 0 1.00145 -53.1438 -42.8816)"/><path d="M149.108 329.216 141.899 326.679 116.498 305.871 124.537 299.143 124.397 296.738 128.336 292.93C129.509 292.138 130.934 292.691 132.283 292.839 135.666 297.768 134.759 300.086 133.836 302.587 135.756 303.075 137.206 306.271 140.383 301.708 140.294 300.439 141.07 300.427 142.378 301.19L142.378 303.611C143.412 304.046 144.169 306.103 143.166 307.984 142.634 308.982 142.269 310.005 141.127 310.21L144.445 312.244C145.387 312.083 146.2 311.383 148.184 315.571 148.61 316.158 153.568 318.237 149.454 323.172L149.108 329.216Z" stroke="#000000" stroke-width="0.503333" stroke-linecap="round" fill="#CFFD0E" transform="matrix(1 0 0 1.00145 -53.1438 -42.8816)"/><path d="M116.486 305.911 109.878 302.555C109.143 300.51 107.106 299.395 105.028 298.309 105.223 295.42 103.307 294.762 102.026 293.718L101.59 286.821C104.488 287.949 107.052 285.025 109.577 281.767 108.948 279.227 114.702 279.487 118.544 279.561 122.37 282.892 126.377 286.087 123.909 294.187 125.546 293.571 127.091 292.861 128.907 292.424L124.35 296.686 124.497 299.112 116.486 305.911Z" stroke="#000000" stroke-width="0.503333" stroke-linecap="round" fill="#CFFD0E" transform="matrix(1 0 0 1.00145 -53.1438 -42.8816)"/><path d="M56.1242 245.707C56.1247 246.525 55.4618 247.189 54.6444 247.189 53.8265 247.189 53.1636 246.525 53.1641 245.707 53.1636 244.889 53.8265 244.226 54.6444 244.226 55.4618 244.226 56.1247 244.889 56.1242 245.707Z" stroke="#000000" stroke-width="0.503333" fill="#E27575" fill-rule="evenodd" transform="matrix(1 0 0 1.00145 161.461 76.605)"/><path d="M61.8637 233.927C61.8637 234.577 61.3362 235.104 60.6854 235.104 60.0351 235.104 59.5076 234.577 59.5076 233.927 59.5076 233.276 60.0351 232.748 60.6854 232.748 61.3362 232.748 61.8637 233.276 61.8637 233.927L61.8637 233.927Z" stroke="#000000" stroke-width="0.503333" fill="#E27575" fill-rule="evenodd" transform="matrix(1 0 0 1.00145 161.461 76.605)"/><path d="M191.898 285.611C190.296 285.395 189.73 283.241 188.42 282 185.836 279.551 180.957 281.37 177.066 283.771 172.327 281.403 171.684 279.27 170.811 277.304 171.759 274.747 171.114 271.386 172.4 268.668 173.548 266.241 175.546 263.994 179.049 262.067L183.328 253.096C187 251.882 190.335 251.42 193.21 250.407 195.975 249.433 198.465 247.839 199.981 245.804 205.459 242.42 212.26 238.082 216.461 239.155 216.403 240.533 216.396 241.901 217.246 243.098 218.671 244.065 218.368 245.669 218.077 247.269L226.543 258.651 229.768 259.723C230.239 259.185 232.54 256.344 233.675 262.609L235.595 263.02 231.891 269.267 226.643 268.989 221.592 272.932 213.988 272.03C209.617 271.954 209.216 272.805 207.355 273.315L190.478 272.832 191.898 285.611Z" stroke="#000000" stroke-width="0.503333" stroke-linecap="round" fill="#CFFD0E" transform="matrix(1 0 0 1.00145 -53.1438 -42.8816)"/><path d="M594.708 589.65 618.863 538.24C620.711 532.436 621.803 526.638 624.531 520.834 626.383 518.393 628.729 516.123 627.249 512.489L627.777 507.501C628.044 505.996 628.875 506.026 630.138 507.239L630.878 510.254C631.774 509.967 632.655 509.66 632.584 508.165L630.138 481.521 625.518 476.515 622.85 478.726 622.155 485.566 620.61 486.923C619.8 486.677 618.617 485.454 618.964 488.225L616.674 490.738C614.072 485.906 613.684 490.193 614.389 492.281 614.323 493.193 614.575 494.755 613.342 493.331L611.474 496.343 614.127 498.317 612.552 498.317 609.139 500.788 609.668 497.793 606.255 501.204 607.04 505.402 604.74 505.498 605.193 503.615C603.064 502.216 601.337 505.176 599.43 506.192L601.529 509.605 598.906 509.867 597.854 506.716 593.626 507.41C593.757 508.9 592.046 509.333 590.506 509.867L590.244 507.768 587.883 510.128 583.761 510.33 582.956 513.878 577.384 521.937C581.642 525.681 579.916 534.122 581.058 540.308 579.493 545.301 576.448 549.111 573.709 553.168 570.528 555.272 569.089 557.376 568.606 559.475 568.143 561.494 567.161 565.46 567.755 567.478 568.445 569.829 569.743 569.028 569.804 571.384L570.579 575.245C566.683 590.239 576.377 590.017 578.466 593.677 579.412 593.249 580.62 593.984 581.551 593.48 583.61 592.368 586.242 589.625 588.996 590.536 591.301 591.301 593.027 590.425 594.708 589.65Z" stroke="#000000" stroke-width="0.503333" stroke-linecap="round" fill="#C1BBCE" transform="matrix(1 0 0 1.00145 -53.1438 -42.8816)"/><path d="M72.0929 414.247 86.3438 414.247 86.3438 428.498 72.0929 428.498Z" stroke="#000000" stroke-width="0.503333" fill="#CC37CC" transform="matrix(1 0 0 1.00145 -53.1438 -42.8816)"/><path d="M72.0929 434.38 86.3438 434.38 86.3438 448.631 72.0929 448.631Z" stroke="#000000" stroke-width="0.503333" fill="#CFFD0E" transform="matrix(1 0 0 1.00145 -53.1438 -42.8816)"/><path d="M72.0929 454.514 86.3438 454.514 86.3438 468.764 72.0929 468.764Z" stroke="#000000" stroke-width="0.503333" fill="#E27575" transform="matrix(1 0 0 1.00145 -53.1438 -42.8816)"/><path d="M72.0929 474.647 86.3438 474.647 86.3438 488.898 72.0929 488.898Z" stroke="#000000" stroke-width="0.503333" fill="#C1BBCE" transform="matrix(1 0 0 1.00145 -53.1438 -42.8816)"/><text font-family="Arial,Arial_MSFontService,sans-serif" font-weight="400" font-size="24" transform="matrix(0.503333 0 0 0.504065 42.1578 382)">Northern Africa<tspan font-size="24" x="0" y="39.6774">Western Africa</tspan><tspan font-size="24" x="0" y="79.3548">Central Africa</tspan><tspan font-size="24" x="0" y="119.032">Eastern Africa</tspan></text><path d="M72.0929 494.78 86.3438 494.78 86.3438 509.031 72.0929 509.031Z" stroke="#000000" stroke-width="0.503333" fill="#E50101" transform="matrix(1 0 0 1.00145 -53.1438 -42.8816)"/><text font-family="Arial,Arial_MSFontService,sans-serif" font-weight="400" font-size="24" transform="matrix(0.503333 0 0 0.504065 42.1578 463)">Southern Africa<tspan font-weight="700" font-size="24" x="-48.489" y="-202.355">UN Subregions of Africa</tspan></text><path d="M506.152 167.665 503.414 170.449 501.164 169.945 500.111 174.491 495.25 175.766 494.81 179.461 490.516 179.949 488.471 177.81 421.984 179.823 422.786 196.481C419.96 196.695 417.045 196.703 414.749 196.386L414.875 201.687 415.645 233.192 406.632 233.68 406.743 237.046 401.583 243.574 401.914 248.214 400.183 249.001C400.018 251.898 399.686 254.436 398.469 255.229L398.532 258.988 402.291 258.202C403.048 262.422 403.232 266.854 406.774 270.061L407.23 272.877 405.547 273.113C408.387 276.647 411.662 279.959 413.522 283.982 410.366 293.756 414.853 292.381 417.58 293.577L417.596 293.435 424.909 279.121 428.936 279.121 431.704 279.121 433.969 283.463 437.241 283.148 447.088 283.148 447.088 279.436 457.374 279.767 457.453 282.708 462.156 281.198 462.156 278.335 467.536 276.353 475.668 281.701 484.303 270.628 483.799 263.644 480.811 261.411 486.568 261.411 486.568 258.548 489.839 259.869 492.875 276.747 496.634 278.178 498.884 282.456 498.884 288.386 502.769 286.955 502.785 286.955 502.659 276.684 505.191 272.924 507.753 272.956 509.011 266.46C512.051 262.722 513.244 257.931 518.121 255.245L519.661 242.961C518.776 234.29 521.408 226.804 522.666 218.847 523.92 218.33 525.359 219.284 526.376 216.881L531.993 214.034C533.1 213.297 533.478 211.568 533.8 209.787 533.04 208.087 531.948 208.394 530.941 208.183 529.28 204.999 526.532 204.719 524.146 203.48L520.809 183.299 518.167 180.5C518.841 173.268 510.33 171.985 506.152 167.665Z" stroke="#000000" stroke-width="0.503333" stroke-linecap="round" fill="#CC37CC" transform="matrix(1 0 0 1.00145 -53.1438 -42.8816)"/><path d="M502.755 286.965 502.74 286.965 498.855 288.396 498.855 282.466 496.606 278.188 492.846 276.756 489.811 259.879 486.539 258.558 486.539 261.421 480.782 261.421 483.771 263.654 484.274 270.638 475.639 281.711 467.507 276.363 462.127 278.345 462.127 281.208 457.424 282.718 457.346 279.776 447.059 279.446 447.059 283.158 437.212 283.158 433.941 283.473 431.676 279.132 428.907 279.132 424.881 279.132 417.567 293.445 417.551 293.587C417.634 293.623 417.739 293.624 417.819 293.665 418.873 295.143 419.313 296.947 424.189 296.386L427.004 298.966C426.396 303.239 432.725 305.595 436.426 308.671L439.871 315.466C442.835 316.906 446.398 317.524 446.839 322.497 448.812 323.618 449.588 325.261 451.039 326.712 451.705 327.379 451.084 328.017 451.746 328.537 453.623 330.01 457.007 330.371 457.472 328.254 457.472 328.254 460.603 329.439 462.867 329.166 464.272 328.996 464.143 327.67 465.541 327.373L475.607 336.181 477.401 334.876C484.31 336.479 491.222 335.559 498.131 334.561L506.373 327.499 517.779 327.09 517.89 321.16 512.021 319.131 507.964 310.149 502.079 305.179C503.108 303.596 500.3 302.013 498.934 300.429 497.082 300.932 495.074 300.528 492.957 299.438L494.467 297.503 494.435 294.719 499.831 294.625C500.88 293.965 502.018 293.678 502.819 292.029L502.756 286.965Z" stroke="#000000" stroke-width="0.503333" stroke-linecap="round" fill="#C1BBCE" transform="matrix(1 0 0 1.00145 -53.1438 -42.8816)"/></g></g></g><rect x="73" y="251" width="464" height="89" fill="#FF0000" fill-opacity="0.419608"/><text font-family="Century Gothic,Century Gothic_MSFontService,sans-serif" font-weight="700" font-size="22" transform="translate(111.587 278)">Millions of learners are illiterate even <tspan font-size="22" x="-19.7533" y="26">though they have been at school for the </tspan><tspan font-size="22" x="59.1667" y="52">required number of years</tspan></text></g></svg>