<svg width="610" height="625" xmlns="http://www.w3.org/2000/svg" xmlns:xlink="http://www.w3.org/1999/xlink" overflow="hidden"><defs><clipPath id="clip0"><rect x="0" y="0" width="610" height="625"/></clipPath><clipPath id="clip1"><rect x="3" y="2" width="604" height="620"/></clipPath><clipPath id="clip2"><rect x="3" y="2" width="604" height="620"/></clipPath><clipPath id="clip3"><rect x="3" y="2" width="604" height="620"/></clipPath></defs><g clip-path="url(#clip0)"><rect x="0" y="0" width="610" height="624.833" fill="#FFFFFF" fill-opacity="0"/><rect x="3.50005" y="3.49912" width="604" height="618.835" stroke="#000000" stroke-width="3.33333" stroke-linejoin="round" stroke-miterlimit="10" fill="none"/><g clip-path="url(#clip1)"><g clip-path="url(#clip2)"><g clip-path="url(#clip3)"><path d="M156.207 126.01 157.503 116.076 165.288 112.058 167.046 112.56 169.809 110.3 174.4 110.632 174.651 108.442C184.25 108.911 186.196 106.344 187.891 103.77L195.928 100.505 198.942 100.505 197.435 98.4959 197.938 96.6379 197.686 94.2264C200.83 93.8149 204.706 94.3195 204.729 91.0316L217.778 91.2128 219.536 87.1944C217.044 86.2797 216.598 82.6758 216.932 78.8466 217.18 76.003 216.955 69.5344 216.955 69.5344 216.095 68.4965 215.023 67.5184 214.775 66.0277 212.683 65.6418 210.114 65.5955 209.239 64.3397 206.201 63.818 203.192 63.5408 200.475 63.814 195.502 64.3146 193.455 62.5225 191.408 57.8103 186.618 57.4978 181.54 67.7901 177.846 72.8791 168.912 75.3635 162.446 79.3905 158.005 84.6828 158.598 86.8341 157.556 87.6628 155.388 89.0831 153.986 90.0017 149.057 97.87 150.722 102.263 150.743 105.696 148.067 111.416 140.379 115.222 140.379 115.222 136.795 118.572 131.126 120.422 128.733 121.203 123.188 121.824 121.511 123.372L156.207 126.01Z" stroke="#000000" stroke-width="0.503118" stroke-linecap="round" fill="#CC37CC" transform="matrix(1.00043 0 0 1 -53.1438 -43.7943)"/><path d="M114.749 179.056C115.782 171.662 111.186 161.27 125.548 160.974L128.562 138.622 154.179 140.882 156.126 125.792C156.126 125.792 121.862 123.261 121.862 123.261 118.681 128.142 116.836 132.274 112.035 134.178 107.505 135.975 105.733 141.565 104.452 146.407L90.9682 161.836C90.4827 165.339 88.4471 167.68 85.7227 169.503 83.259 172.726 81.7546 176.73 81.3763 180.29L84.8121 177.175 114.749 179.056Z" stroke="#000000" stroke-width="0.503118" stroke-linecap="round" fill="#CC37CC" transform="matrix(1.00043 0 0 1 -53.1438 -43.7943)"/><path d="M157.238 116.002 165.302 111.983 166.968 112.579 169.73 110.179 174.368 110.604 174.619 108.461C184.218 108.93 186.21 106.363 187.905 103.789L195.942 100.477 198.91 100.57 197.356 98.5145 197.766 96.8894 197.7 94.1988C200.844 93.7872 204.72 94.2918 204.743 91.004L217.745 91.1851 219.55 87.4459C217.058 86.5312 216.612 82.9274 216.946 79.0982 217.194 76.2546 216.969 69.786 216.969 69.786 216.109 68.748 215.037 67.77 214.789 66.2792 215.484 65.9703 218.747 66.5056 220.728 63.8517 221.75 62.4837 223.054 59.7231 224.757 60.2625 226.745 60.8918 230.554 61.2898 230.787 60.028 231.036 58.6786 234.726 55.7082 240.055 55.7253 249.816 55.757 262.427 52.0435 266.548 53.251 270.669 54.458 276.036 51.6471 278.418 51.7995 280.818 51.9535 281.541 54.5707 284.815 52.3444 286.038 51.5117 290.456 54.9732 294.667 53.7476 294.667 53.7476 292.152 54.864 292.011 57.4445 291.792 61.4201 291.424 73.7933 291.424 73.7933 291.006 73.1242 288.013 73.6263 287.542 75.6453 286.903 78.3893 283.815 77.6794 283.57 79.066 283.076 81.8563 285.511 84.4192 288.379 86.9222 289.114 87.5641 288.108 91.1177 288.836 91.7677 291.058 93.7495 294.995 95.0988 294.995 95.0988 295.91 104.192 297.529 110.471 297.529 110.471 293.361 110.749 295.588 114.617 298.394 118.746 298.394 118.746 298.569 142.397 298.569 142.397 298.569 142.397 294.805 143.161 295.066 144.131 295.649 146.309 295.786 147.919 298.536 150.367 300.301 151.939 300.334 154.59 300.182 156.331 300.007 158.34 302.034 159.251 302.565 159.238 306.694 159.138 310.185 157.128 314.096 167.915 314.096 167.915 264.626 200.425 264.626 200.425 257.284 203.587 245.191 205.479 244.775 205.296 242.017 204.082 245.214 201.045 244.288 199.014 243.362 196.981 242.246 195.451 239.102 195.791 237.43 195.972 236.552 193.822 235.89 193.931 233.214 194.375 232.532 191.333 231.94 190.792 229.593 188.645 227.262 188.02 227.796 186.068 227.796 186.068 155.5 130.958 155.5 130.958L157.238 116.002Z" stroke="#000000" stroke-width="0.503118" stroke-linecap="round" fill="#CC37CC" transform="matrix(1.00043 0 0 1 -53.1438 -43.7943)"/><path d="M114.734 178.933C115.767 171.539 111.17 161.147 125.533 160.85L128.547 138.498 154.164 140.758C154.164 140.758 155.55 130.714 155.55 130.714 155.55 130.714 181.368 150.538 181.368 150.538 181.368 150.538 168.509 150.851 168.509 150.851 168.509 150.851 169.161 224.889 169.161 224.889 169.161 224.889 172.415 226.049 172.415 226.049 172.415 226.049 170.221 233.24 170.221 233.24 170.221 233.24 132.32 231.152 132.32 231.152 132.32 231.152 128 234.207 128 234.207 128 234.207 125.668 233.443 125.668 233.443 125.668 233.443 124.02 228.423 124.02 228.423 124.02 228.423 121.728 227.856 121.728 227.856 121.728 227.856 117.546 238.174 114.883 237.131 114.883 237.131 113.699 235.846 112.36 234.461 111.18 233.242 109.894 232.034 108.981 230.314 107.713 227.921 106.835 224.081 105.087 224.356 101.368 224.94 98.5341 220.007 98.5341 220.007 98.5341 220.007 94.2003 218.805 91.094 219.668 87.0791 220.783 82.5445 219.626 81.735 220.151L85.4204 209.912 85.7962 197.978 83.5518 194.393C84.7517 192.272 88.4174 190.315 86.0216 183.963 85.7479 183.236 84.4428 183.628 84.4428 183.628L82.8947 178.959 84.797 177.052 114.734 178.933Z" stroke="#000000" stroke-width="0.503118" stroke-linecap="round" fill="#CFFD0E" transform="matrix(1.00043 0 0 1 -53.1438 -43.7943)"/><path d="M312.925 86.3224C312.925 86.3224 314.182 91.1891 310.424 93.8581 308.534 95.201 302.352 99.7341 302.352 99.7341 302.876 102.501 303.523 109.421 297.52 110.364 293.394 111.011 295.556 114.347 298.315 118.871 298.315 118.871 298.49 142.43 298.49 142.43 298.49 142.43 294.82 143.146 295.08 144.117 295.663 146.295 295.707 147.858 298.457 150.306 300.223 151.878 300.255 154.715 300.103 156.457 299.928 158.466 302.188 159.33 302.718 159.317 306.848 159.217 310.106 157.254 314.018 168.04 314.018 168.04 333.422 168.638 333.422 168.638 335.683 169.116 338.077 172.579 338.077 172.579 338.077 172.579 349.189 169.422 349.189 169.422 349.189 169.422 414.617 201.773 414.617 201.773 414.617 201.773 414.499 196.518 414.499 196.518 421.732 197.107 422.563 196.274 422.563 196.274 422.563 196.274 418.092 119.837 418.092 119.837 415.465 116.231 412.875 112.696 416.034 108.697 416.034 108.697 416.055 104.456 415.264 102.05 414.441 99.5454 416.698 97.8428 416.698 97.8428 416.663 94.6018 410.442 94.8478 407.169 94.6797 402.874 94.4594 399.988 93.8707 400.736 90.6538 400.736 90.6538 389.508 86.6218 385.162 89.2798 382.854 90.692 377.985 92.948 377.099 95.8409 376.503 97.7855 377.037 99.1042 378.196 101.079 380.226 104.537 373.373 116.41 365.539 106.909 365.539 106.909 355.249 104.075 349.438 102.806 343.749 101.562 339.824 96.5745 342.185 93.5553 342.415 93.2604 326.746 88.7273 326.746 88.7273 319.511 89.8473 314.212 87.7317 312.925 86.3224Z" stroke="#000000" stroke-width="0.503118" stroke-linecap="round" fill="#CC37CC" transform="matrix(1.00043 0 0 1 -53.1438 -43.7943)"/><path d="M305.425 51.9187C303.908 51.9706 297.96 48.8704 294.619 53.731 294.619 53.731 292.104 54.8449 291.962 57.4259 291.743 61.401 291.364 73.7772 291.364 73.7772 290.946 73.1081 287.967 73.6132 287.497 75.6322 286.857 78.3762 283.764 77.6578 283.519 79.0438 283.025 81.8346 285.462 84.402 288.33 86.9051 289.065 87.547 288.058 91.098 288.786 91.7476 291.007 93.7299 294.949 95.0807 294.949 95.0807 295.863 104.174 297.48 110.458 297.48 110.458 298.08 110.832 304.433 108.651 302.243 99.718 301.988 98.6835 315.264 94.3834 312.881 86.0744 312.633 85.2101 310.472 86.2334 310.121 84.6657 309.333 81.1479 309.435 80.282 308.098 79.7537 307.426 79.4886 304.648 82.1561 304.084 81.8155 302.824 81.0543 301.252 79.2823 301.933 78.4049 303.104 76.893 311.571 71.645 311.655 68.7516 311.782 64.4459 310.192 64.0303 308.081 62.8837 306.881 62.2327 307.312 60.1925 307.7 59.0288 307.938 58.3154 312.509 56.7597 311.981 55.1065 311.624 53.9845 310.961 53.813 310.718 52.9361 310.538 52.2885 307.085 55.8969 306.867 55.3394 306.291 53.8698 306.118 52.9703 305.425 51.9187Z" stroke="#000000" stroke-width="0.503118" stroke-linecap="round" fill="#CC37CC" transform="matrix(1.00043 0 0 1 -53.1438 -43.7943)"/><path d="M421.63 179.924 488.027 177.943 490.166 180.057 494.549 179.504 495.003 175.804 499.865 174.461 500.894 169.906 503.029 170.61 505.714 167.808 504.26 160.634 506.584 160.716 500.933 155.685 485.431 130.081 485.361 126.973C481.693 124.567 478.979 121.526 477.341 117.767L477.197 115.382 474.857 113.679 475.467 109.892 482.417 119.18C483.04 119.896 482.34 120.411 482.902 121.188 484.718 123.704 487.845 126.24 489.689 127.713 490.63 127.396 491.734 127.621 492.201 125.722L494.014 113.66 485.864 97.0575C480.362 100.908 474.86 102.447 469.357 96.7153L462.632 97.2305C461.096 97.8911 459.46 98.8974 458.573 97.2844L447.723 103.625 429.755 99.6219C427.055 99.0669 424.175 98.1523 421.947 98.5417 419.662 99.9363 418.035 98.8586 416.41 97.7759 415.485 99.3824 414.51 101.007 415.397 101.955L416.124 108.498C414.533 111.061 413.066 113.69 418.092 119.726L421.63 179.924Z" stroke="#000000" stroke-width="0.503118" stroke-linecap="round" fill="#CC37CC" transform="matrix(1.00043 0 0 1 -53.1438 -43.7943)"/><path d="M414.521 201.632 349.025 169.377 340.35 171.998C340.944 177.122 340.507 181.09 340.599 184.226 340.734 188.824 343.934 192.049 348.321 193.603L346.379 198.329 343.588 223.636 329.919 238.678C329.484 239.531 329.243 240.385 329.294 241.238 328.861 242.218 328.306 242.644 327.713 242.899 326.758 243.492 327.229 244.494 327.119 245.238 326.324 250.57 337.471 258.467 337.471 258.467 338.045 260.876 338.894 263.016 339.32 265.559 339.779 268.3 338.436 271.609 338.823 273.984 339.384 277.433 343.21 277.779 342.687 283.043L333.91 282.235C331.363 287.321 333.146 290.634 339.401 292.118L343.532 304.452C350.17 302.937 354.844 303.743 363.515 299.825L371.403 299.043C372.858 296.562 375.938 295.241 374.882 290.966L385.798 289.774C386.652 288.979 387.061 287.741 388.447 287.478 390.586 287.412 391.212 286.021 391.785 284.584 392.783 282.22 395.297 281.374 397.185 279.902 397.526 272.107 403.418 274.339 407.008 272.864L406.578 270.159C404.523 267.919 402.751 265.377 402.109 258.247L398.278 258.967 398.194 255.502C399.367 254.244 400.209 251.261 399.909 249.14L401.692 248.303 401.253 243.798 406.526 237.058 406.362 233.756 415.451 233.278 414.521 201.632Z" stroke="#000000" stroke-width="0.503118" stroke-linecap="round" fill="#E27575" transform="matrix(1.00043 0 0 1 -53.1438 -43.7943)"/><path d="M251.434 204.441 250.713 230.578C249.557 231.249 247.95 230.565 247.511 233.383 246.226 234.129 244.643 234.651 244.358 236.146L226.694 235.976 223.105 238.992 216.423 239.028C216.229 240.467 216.264 242.267 217.401 243.158 218.411 243.948 218.262 245.611 218.007 247.077L226.457 258.352 229.523 259.498C231.222 258.006 232.771 257.569 233.541 262.581L244.008 264.066C244.738 262.394 244.562 260.073 246.458 259.233 249.306 257.623 248.84 254.809 249.856 252.532 252.18 251.424 250.694 249.847 262.977 249.962 266.153 251.958 269.218 252.627 272.563 256.642 272.563 256.642 275.026 256.743 275.026 256.743 275.097 255.901 277.581 254.17 279.1 253.881 280.746 252.985 283.671 254.544 287.571 257.968L294.517 258.59 301.188 253.805 312.849 253.507C314.609 254.194 315.911 255.767 318.507 255.116 320.372 253.017 323.938 251.014 328.035 249.286 327.399 247.429 326.684 245.617 327.277 243.233 328.276 242.393 329.504 242.26 329.625 239.135L343.716 223.5 346.328 198.567 348.319 193.553C344.291 191.904 341.532 190.342 340.648 184.781 340.167 181.753 340.853 177.843 340.554 172.188L338.045 172.619C336.668 170.998 335.335 169.26 333.573 168.664L313.818 167.944 263.766 200.943 251.434 204.441Z" stroke="#000000" stroke-width="0.503118" stroke-linecap="round" fill="#CFFD0E" transform="matrix(1.00043 0 0 1 -53.1438 -43.7943)"/><path d="M181.329 150.522 168.507 150.867 169.114 224.851 172.494 226.045 170.124 233.279 132.339 231.141 127.99 234.189 125.614 233.311 123.968 228.427 121.808 227.85C117.553 237.152 116.9 236.069 115.32 237.661 115.578 238.612 114.958 239.52 115.264 240.391 116.221 243.117 116.821 245.883 115.38 247.063 117.349 248.814 119.888 250.21 120.618 252.736 120.759 255.957 120.583 258.442 119.716 259.314 118.858 260.175 119.878 262.181 121.663 260.678L123.399 259.623C123.97 260.533 125.229 261.029 125.045 262.392L128.872 259.775 133.544 261.717C134.019 261 133.423 259.928 135.241 259.659 136.195 259.685 136.866 259.003 137.147 257.347L139.713 257.97C140.403 260.386 141.244 262.823 140.801 265.077L144.586 267.935 141.695 270.582 142.495 271.79 144.604 270.385 144.917 275.447 147.581 277.895C148.673 276.81 150.416 275.444 151.735 276.129 152.978 276.775 153.558 279.303 154.73 278.514 155.957 277.689 156.187 276.916 158.088 276.919 159.519 276.921 156.861 274.446 158.643 274.497 159.471 274.521 160.765 273.546 162.197 273.923 163.569 274.283 161.862 279.394 162.868 278.297 165.361 275.577 170.33 276.631 170.81 277.239 172.201 272.258 169.482 267.665 179.025 261.915L183.237 253.044C188.851 250.689 194.877 251.76 200.039 245.634 206.529 241.299 213.015 238.039 216.519 239.011L223.071 239.018 226.753 235.876 244.377 236.096C244.824 235.231 245.069 234.594 247.504 233.397 247.523 231.269 249.431 231.152 250.757 230.482L251.449 204.365 244.833 205.319C242.22 203.621 244.418 203.079 244.442 199.302 242.953 195.948 241.058 195.443 239.198 195.774 237.564 196.064 236.828 193.747 235.97 193.922 234.494 194.223 232.877 192.805 231.898 190.72 231.565 190.012 230.65 189.689 230.032 189.263 228.657 188.32 227.404 187.594 227.759 186.122 227.759 186.122 196.289 162.085 181.329 150.522Z" stroke="#000000" stroke-width="0.503118" stroke-linecap="round" fill="#CFFD0E" transform="matrix(1.00043 0 0 1 -53.1438 -43.7943)"/><path d="M530.281 238.759C531.826 239.816 533.37 239.682 534.915 242.103L539.02 241.281 539.82 239.994 540.5 239.814 541.405 241.507C543.483 240.408 545.35 240.363 546.668 241.402 547.468 242.035 548.65 241.155 549.51 240.835 551.11 242.133 552.7 243.554 554.436 243.504 560.071 248.161 564.931 253.207 569.454 258.42L574.334 255.02C573.63 253.157 572.699 251.452 569.394 251.371 569.228 249.872 568.594 248.541 566.491 247.735 566.043 245.935 564.498 245.969 563.276 245.457 562.249 242.596 559.744 241.028 557.686 239.067 555.367 239.611 554.295 238.075 553.198 236.584L551.432 236.24 550.169 237.015C548.851 235.93 548.494 234.434 548.127 232.942L546.235 232.437 546.713 235.057C545.571 235.756 544.947 233.868 544.348 231.833L540.5 226.245C537.989 214.55 535.8 213.116 533.557 209.922 532.938 211.377 532.832 213.146 531.816 213.939L526.151 216.887C525.24 218.476 523.821 218.946 522.317 218.93 520.194 229.051 519.077 235.584 519.177 243.801L523.539 243.796 523.962 242.384 525.979 242.497 527.64 245.127 530.281 238.759Z" stroke="#000000" stroke-width="0.503118" stroke-linecap="round" fill="#C1BBCE" transform="matrix(1.00043 0 0 1 -53.1438 -43.7943)"/><path d="M574.259 254.798 569.308 258.494C568.448 260.987 568.921 262.995 568.221 264.181 565.379 268.986 565.741 269.359 566.621 270.424 567.809 271.859 570.938 270.836 572.558 269.877L575.149 270.986 578.032 266.625C576.256 265.118 574.48 265.898 572.709 265.812 573.192 263.639 575.632 263.143 577.363 262.042 578.646 258.085 575.924 255.561 574.259 254.798Z" stroke="#000000" stroke-width="0.503118" stroke-linecap="round" fill="#C1BBCE" transform="matrix(1.00043 0 0 1 -53.1438 -43.7943)"/><path d="M619.615 295.378 595.365 323.052 585.886 322.881C584.719 323.206 580.331 325.904 577.816 328.122 575.748 329.941 572.568 331.001 569.308 332.483 567.376 332.494 565.032 333.195 563.678 332.24 560.508 329.166 556.876 330.672 553.289 331.791 552.101 333.976 550.481 335.727 547.785 336.4L534.819 334.385C531.886 331.895 528.656 329.584 524.641 327.742L517.437 327.243 517.442 321.389 511.777 319.315 507.681 309.964 501.804 305.263C502.9 303.508 500.023 302.059 498.56 300.501 496.571 300.95 494.581 300.543 492.592 299.474L494.342 297.37 494.236 294.663 499.399 294.756C500.527 294.048 501.774 293.777 502.599 291.961L502.452 276.788 504.909 272.923 507.49 273.018 508.672 266.543C511.777 262.719 512.878 258.05 518.005 255.076L519.353 243.851 523.459 243.733 524.027 242.397 526.025 242.431 527.73 245.27 530.191 238.746C531.816 239.791 533.939 239.831 534.89 242.13L539.035 241.319 539.735 239.993 540.479 239.833 541.481 241.596C542.794 240.814 544.429 239.982 546.537 241.347 547.146 241.607 547.855 241.744 549.43 240.829 551.09 241.727 552.096 243.556 554.446 243.467 559.754 248.103 564.901 252.924 569.454 258.42 569.046 258.808 568.86 260.275 568.558 263.59L566.591 267.116C565.006 269.716 566.923 272.01 569.942 270.93L572.588 269.912 575.245 271C572.04 274.7 579.677 281.143 586.565 287.577L611.424 295.52 619.615 295.378Z" stroke="#000000" stroke-width="0.503118" stroke-linecap="round" fill="#C1BBCE" transform="matrix(1.00043 0 0 1 -53.1438 -43.7943)"/><path d="M578.072 266.449 575.119 271.056C572.246 275.197 580.12 281.528 586.6 287.574L611.635 295.604 619.705 295.268 595.39 323.086 585.564 322.892C582.439 324.646 579.385 326.441 577.152 328.727 574.596 330.319 571.733 331.306 569.016 332.576 567.336 336.256 564.528 339.263 561.998 342.436L562.073 374.718 566.999 380.912 578.324 368.226 597.312 350.307 599.495 350.046 607.449 342.521 607.771 341.015C612.138 337.698 617.577 332.133 618.931 329.385 621.33 324.524 624.425 320.405 627.871 316.46L635.347 294.873C636.801 293.471 637.888 291.584 638.804 289.463 639.181 287.198 640.534 286.398 641.576 285.126L642.426 274.316C644.851 274.657 643.679 269.868 643.82 266.943 642.884 266.109 641.838 264.734 643.795 263.629L643.78 260.935C642.019 261.08 640.248 259.072 638.522 260.428 636.359 262.464 633.471 263.921 630.18 264.193 626.518 264.495 623.534 266.613 622 266.093 619.519 268.151 616.36 268.849 612.259 267.662 609.522 270.098 607.726 273.262 598.932 271.027L593.327 275.034C584.678 277.379 582.429 270.379 578.072 266.449Z" stroke="#000000" stroke-width="0.503118" stroke-linecap="round" fill="#C1BBCE" transform="matrix(1.00043 0 0 1 -53.1438 -43.7943)"/><path d="M343.583 304.387 335.844 317.082 336.881 326.312C340.188 332.807 344.044 338.81 349.183 343.656 352.373 340.105 353.776 337.368 360.094 335.732L365.591 338.121 371.756 336.387C373.284 334.612 373.16 331.804 373.28 329.148 375.399 325.692 377.682 323.876 379.982 322.231 381.686 323.55 384.704 322.533 384.931 326.477 386.951 328.749 388.856 330.103 390.327 327.995 392.033 330.518 399.286 329.713 404.276 330.265 404.564 329.329 405.093 328.092 406.115 326.238 407.786 325.985 409.287 325.328 411.837 327.183L422.375 323.495 423.062 325.051 427.276 324.374 427.203 322.804 436.514 322.031 438.587 324.693 439.548 323.253 441.138 324.414 442.479 322.874 446.818 322.704C445.93 320.245 446.309 317.329 439.733 315.779L436.352 308.872C432.961 305.627 426.952 304.127 426.514 298.914L423.916 296.403C421.714 296.505 419.796 297.46 417.342 293.479 413.377 292.876 410.686 292.255 413.29 284.224 411.253 279.306 408.141 276.977 405.439 273.222 399.754 274.309 397.472 274.019 397.272 279.897 395.466 281.335 392.814 282.068 391.989 284.323 391.274 285.991 390.683 287.274 388.153 287.49 387.432 287.935 386.557 288.841 385.654 289.832L374.88 290.956C375.444 292.983 375.226 294.809 372.907 297.071 372.289 297.675 371.845 298.416 371.267 299.065L363.509 299.787C354.541 303.744 350.039 302.905 343.583 304.387Z" stroke="#000000" stroke-width="0.503118" stroke-linecap="round" fill="#E27575" transform="matrix(1.00043 0 0 1 -53.1438 -43.7943)"/><path d="M372.081 336.514C370.61 340.901 368.856 344.014 367.023 348.786 364.619 355.045 365.154 364.693 363.928 373.226 357.57 376.109 355.558 380.729 352.305 384.852L349.768 396.991C345.178 401.483 340.908 407.251 335.379 407.985 335.043 401.214 329.178 404.469 328.533 407.134 325.74 408.98 324.828 407.062 323.25 406.477 321.231 407.93 319.769 409.661 319.749 412.112 320.033 416.029 318.253 415.817 316.966 416.591L317.718 419.576 328.204 415.988 351.137 416.4 353.266 417.644C358.479 436.971 362.707 435.066 366.446 436.009 372.273 433.57 373.83 434.926 376.928 434.913L379.18 426.123 385.302 426.467 386.085 424.864 389.485 425.393 389.536 428.946 396.916 428.406 397.684 447.867 401.893 456.627 398.682 460.978 401.607 463.452 403.171 460.322 412.851 460.15 416.36 458.974 419.397 458.919 420.496 463.245 426.139 461.38C426.442 462.68 427.001 463.63 427.746 464.327 429.577 466.039 433.001 468.395 436.053 468.442 438.205 468.475 439.936 466.264 441.821 466.661 444.391 470.225 447.436 471.257 450.625 471.522 452.994 475.198 454.587 479.652 461.326 478.959L463.965 480.794 463.778 471.387C459.097 472.891 456.257 470.714 453.839 467.694 454.317 463.981 455.818 460.609 457.528 457.307 457.677 453.489 457.163 449.973 456.226 446.149 456.02 445.312 457.112 442.192 458.506 440.365L473.684 436.649C472.112 428.143 466.585 426.416 465 420.395 463.059 413.024 462.111 404.188 463.145 395.568 462.857 391.531 461.009 389.395 458.34 388.259L462.868 381.77 466.537 377.744 467.106 363.643 472.251 355.831 480.529 348.38 475.537 345.133 475.562 336.238 465.22 327.468C464.298 327.555 463.871 328.468 463.224 329.014 461.14 329.662 459.222 328.66 457.23 328.389 456.159 330.787 451.743 329.528 451.221 328.159 451.069 327.76 451.415 326.956 450.812 326.731 449.509 324.972 448.167 323.783 446.863 322.674L442.557 322.883 441.155 324.496 439.571 323.183 438.583 324.725 436.524 322.031 427.226 322.838 427.229 324.337 423.091 325.098 422.437 323.507 411.892 327.244C408.938 325.102 407.853 326.265 406.124 326.194L404.267 330.235C395.507 329.903 391.849 329.9 390.405 327.948 387.632 331.003 386.957 327.238 385.258 326.803 384.298 322.337 381.76 323.661 379.993 322.154 376.723 324.349 374.938 326.544 373.409 328.739 373.428 331.792 372.942 334.341 372.081 336.514Z" stroke="#000000" stroke-width="0.503118" stroke-linecap="round" fill="#E27575" transform="matrix(1.00043 0 0 1 -53.1438 -43.7943)"/><path d="M312.273 513.412C314.079 512.934 316.032 510.534 317.654 512.461 319.263 510.468 323.732 506.534 330.956 513.905L367.255 513.412 371.145 516.803 394.025 519.761 408.497 516.501 398.715 507.772 399.464 476.851 416.919 477.369 415.022 475.345 417.078 458.994C416.843 459.053 416.574 458.934 416.345 459.017 412.138 460.55 407.664 460.195 403.151 460.286L401.582 463.361 398.72 460.951 401.911 456.7 397.604 447.973 396.946 428.387 389.489 428.916 389.491 425.38 386.178 424.895 385.308 426.468 379.219 426.155 376.905 435.021C373.882 434.476 371.091 433.732 366.562 436.021 362.561 434.735 358.939 437.733 353.276 417.643L351.133 416.362 328.2 415.993 317.767 419.575C320.38 427.091 325.899 431.36 325.712 442.476L323.918 444.196C325.399 449.216 326.72 454.468 330.018 456.864 330.342 458.27 329.631 459.292 329.539 460.348 329.201 464.211 327.17 475.161 326.278 473.208 326.278 473.208 322.601 474.012 322.271 476.973 322.111 478.415 320.331 478.62 319.669 480.397 317.82 485.367 315.871 493.251 314.466 500.418 314.303 501.248 313.22 500.884 313.086 501.676 312.701 503.958 313.13 505.578 312.986 508.003 312.943 508.728 312.023 507.51 311.845 508.406 311.625 509.518 312.516 512.652 312.273 513.412Z" stroke="#000000" stroke-width="0.503118" stroke-linecap="round" fill="#E27575" transform="matrix(1.00043 0 0 1 -53.1438 -43.7943)"/><path d="M312.302 513.412C312.66 518.101 313.097 522.76 317.396 526.07L335.154 557.691 335.606 572.206 338.775 578.923C338.954 581.534 337.989 584.15 339.595 586.766L341.802 599.118 351.445 609.859C357.437 603.424 359.617 608.622 361.118 612.742 364.784 612.395 368.451 612.058 372.118 612.692 373.835 611.142 375.592 609.603 378.296 608.446L379.707 553.329 387.862 553.591 389.033 522.553 408.945 520.797 410.475 524.958C411.909 523.383 413.869 520.491 416.799 520.355 419.446 520.234 420.741 518.518 423.346 517.13L421.438 514.358 408.617 516.491 394.304 519.821 371.136 516.727 367.257 513.467 330.771 513.89C329.029 511.58 322.428 506.328 317.656 512.521 316.043 510.594 314.095 513.009 312.302 513.412Z" stroke="#000000" stroke-width="0.503118" stroke-linecap="round" fill="#E50101" transform="matrix(1.00043 0 0 1 -53.1438 -43.7943)"/><path d="M351.445 609.864 364.951 637.038 365.128 643.251C364.445 644.746 363.326 644.791 362.073 644.549 361.566 645.264 361.091 646.184 362.203 646.879 363.876 649.852 365.087 653.465 367.219 656.01 368.971 658.103 371.569 659.195 373.63 661.001L378.993 661.429C380.096 660.654 379.093 659.598 383.093 659.21L390.948 659.16C393.428 658.184 390.638 655.729 398.726 656.332 400.055 656.498 400.63 657.957 402.714 656.83 406.469 656.227 410.054 657.656 413.712 658.209 414.797 657.344 414.393 655.869 420.484 657.047L421.108 654.677 428.246 654.788 470.566 615.459C477.277 612.677 478.761 604.546 480.642 596.829L475.329 596.471C475.274 595.827 470.228 599.435 469.588 599.505 466.859 599.812 465.285 598.932 465.677 594.152 465.969 590.585 469.785 587.747 470.794 587.088 472.14 586.213 473.482 589.523 474.822 588.648 474.822 588.648 474.349 573.494 473.782 560.815 470.932 559.085 468.889 556.101 463.812 557.812 461.148 555.819 458.483 556.026 455.818 555.402L426.541 578.621 425.467 583.471C422.141 585.232 418.814 584.99 415.488 585.347 412.969 583.431 410.254 582.299 407.301 582.117L402.417 586.394C401.96 588.748 400.591 588.975 399.543 589.946 397.881 590.907 397.013 592.14 396.652 593.533 391.731 594.751 388.278 593.946 385.072 592.804 385.69 589.926 387.541 588.059 385.998 583.41L379.189 575.798 378.304 608.501C376.245 609.391 374.186 610.745 372.127 612.722 368.694 612.425 365.842 611.952 361.082 612.813 360.31 609.2 357.012 603.228 351.445 609.864Z" stroke="#000000" stroke-width="0.503118" stroke-linecap="round" fill="#E50101" transform="matrix(1.00043 0 0 1 -53.1438 -43.7943)"/><path d="M423.387 517.22 418.039 520.224C412.761 520.254 412.435 523.363 410.458 525.034L408.971 520.853 388.983 522.604 387.843 553.565 379.656 553.369 379.105 575.718C381.341 578.465 384.362 581.453 385.876 583.451 387.349 585.398 386.408 589.201 384.976 592.753 388.936 594.429 392.778 594.509 396.591 593.518 397.158 592.014 397.935 590.932 398.963 590.348 400.616 589.398 401.978 588.185 402.485 586.208L407.466 582.052C410.535 582.324 412.897 583.541 415.293 585.297 420.369 585.368 423.389 584.442 425.496 583.37L426.48 578.691 455.708 555.336C452.029 552.66 450.193 553.269 448.092 552.776 445.975 552.283 443.365 548.519 444.067 542.054 442.04 541.657 440.742 540.525 439.629 539.212 438.357 537.083 436.695 537.29 435.218 536.389 432.927 533.204 428.714 529.114 428.39 526.654 428.232 525.461 427.605 525.527 426.711 524.198 425.678 522.664 424.32 519.102 423.387 517.22Z" stroke="#000000" stroke-width="0.503118" stroke-linecap="round" fill="#E50101" transform="matrix(1.00043 0 0 1 -53.1438 -43.7943)"/><path d="M567.074 380.92C565.967 382.646 564.755 384.241 562.325 384.313 561.424 386.709 560.252 388.899 557.243 389.634 553.933 395.62 551.412 402.499 547.271 407.556L535.695 399.798 533.873 393.052 498.602 370.903 510.212 353.154 510.458 343.209 506.474 339.922C505.976 336.084 505.08 332.615 501.92 331.218L506.026 327.629 517.502 327.11 524.641 327.722C527.091 328.986 528.389 329.031 534.865 334.429L547.87 336.384C549.943 335.67 551.87 334.609 553.314 331.719 556.453 331.266 559.784 328.55 563.859 332.424 565.193 332.897 567.326 332.697 569.444 332.389 567.019 336.265 564.468 339.391 561.932 342.622L562.149 374.879 567.074 380.92Z" stroke="#000000" stroke-width="0.503118" stroke-linecap="round" fill="#C1BBCE" transform="matrix(1.00043 0 0 1 -53.1438 -43.7943)"/><path d="M498.603 370.857 495.551 375.403 472.397 375.797 476.192 383.596C470.214 389.627 474.016 390.769 475.437 393.101 472.816 397.983 470.799 403.946 465.555 404.146 464.236 404.477 463.27 404.147 463.024 405.768 462.446 409.56 464.109 417.415 465.634 421.953 467.196 425.456 469.958 427.826 471.457 430.759 472.838 432.795 473.177 434.83 473.829 436.865L477.04 440.487C478.396 440.084 479.905 440.449 482.042 443.955L491.678 447.136C493.756 449.062 497.04 449.582 500.266 450.167L505.316 466.838 514.76 467.079C516.39 466.052 518.025 466.14 519.655 468.261 523.167 467.707 526.312 466.779 530.93 467.333 532.394 465.764 534.211 464.596 537.239 464.789 540.867 467.681 551.211 461.801 555.663 458.923 554.582 456.963 552.599 455.897 550.758 454.69 550.909 452.461 550.008 450.023 549.203 447.604 548.268 446.126 547.543 444.701 548.162 443.612L545.973 438.826 547.347 438.378C546.99 434.729 547.015 431.286 549.188 429.001 547.699 425.91 542.613 423.459 542.904 419.793L547.246 407.565 535.725 399.933 533.813 393.133 498.603 370.857Z" stroke="#000000" stroke-width="0.503118" stroke-linecap="round" fill="#C1BBCE" transform="matrix(1.00043 0 0 1 -53.1438 -43.7943)"/><path d="M473.729 436.662C473.729 436.662 458.413 440.439 458.413 440.439 457.417 442.26 456.711 443.311 456.325 445.374 456.225 445.908 456.686 447.009 456.849 448.512 457.17 451.489 458.178 456.709 457.266 458.118 455.127 461.419 453.681 467.516 453.803 467.69 455.024 469.439 457.502 471.225 458.963 471.611 460.978 472.143 463.24 471.892 463.73 471.135L463.971 480.803C463.186 480.155 462.059 479.701 461.503 478.996 458.289 478.722 455.39 480.442 450.663 471.502 447.557 471.235 444.487 470.329 441.833 466.635 440.546 466.298 438.398 468.059 436.462 468.492 430.923 467.962 429.332 465.336 427.918 464.529 426.958 463.639 426.35 462.603 426.163 461.391L420.464 463.282 419.44 458.873 417.082 458.95 415.055 475.464 416.92 477.345 399.533 476.895 398.696 507.842 408.38 516.4 421.505 514.342 423.426 517.225 424.257 519.172 434.528 519.278 435.931 520.511 437.848 520.008C443.386 512.763 448.434 510.911 453.532 508.506L453.741 503.696C457.764 501.204 462.102 499.804 467.125 500.767L465.243 496.004 490.755 488.011 488.036 484.038 492.637 475.464 496.192 475.045 493.892 471.909 495.983 460.616 498.074 459.153 493.892 450.997 491.986 447.22 482.205 443.939C478.878 439.21 478.099 440.1 477.063 440.376L473.729 436.662Z" stroke="#000000" stroke-width="0.503118" stroke-linecap="round" fill="#C1BBCE" transform="matrix(1.00043 0 0 1 -53.1438 -43.7943)"/><path d="M465.289 496.08 467.067 500.729 466.93 503.053 473.083 503.515 487.499 509.125C488.975 517.18 488.029 523.917 485.689 529.894 485.626 531.061 485.236 532.183 485.377 533.25 485.644 535.262 486.634 538.034 485.509 540.339 482.614 546.275 479.909 552.217 479.212 552.605 476.821 553.928 473.849 557.797 473.767 560.891L475.206 596.486 480.656 596.834 482.108 591.797 479.92 592.617C480.255 590.62 479.795 588.628 481.889 586.635L499.379 579.723C501.545 578.133 502.889 575.723 504.396 573.474L502.354 572.769 505.976 559.1 504.114 558.466 502.61 546.965C497.656 543.926 500.522 539.201 502.521 538.1L513.095 529.114 513.965 530.905 517.884 526.573 517.024 525.235 519.57 524.772 520.33 522.578 533.285 516.199 536.52 516.234C538.97 514.378 540.942 512.38 544.519 510.846L544.288 508.924 548.605 505.583C549.641 504.522 550.532 502.946 551.885 503.002L552.076 500.861 551.256 499.952 553.616 496.41 554.215 494.047 553.837 492.502 552.393 490.302 552.891 481.641C551.789 480.569 552.398 479.84 552.987 479.107L552.7 469.545 556.177 463.696C556.262 462.093 556.393 460.49 555.809 458.887 550.481 462.058 541.566 467.579 537.058 464.747 535.081 464.989 532.867 464.985 530.955 467.469 529.335 467.317 527.871 467.009 525.929 467.176L519.55 468.33C518.393 466.947 517.23 465.574 514.549 467.074L505.241 466.771 503.787 481.317C508.38 485.01 512.421 489.762 514.438 494.63 515.666 497.594 513.442 501.867 513.009 505.654L508.396 507.651 508.637 514.131 506.363 514.473C506.916 513.12 507.525 511.741 505.543 511.57 503.03 509.442 501.106 507.042 500.841 503.873 502.764 500.745 503.54 497.206 503.029 493.208L498.552 492.388C496.81 492.811 494.789 492.775 494.334 491.387 493.125 487.698 491.955 487.503 490.586 487.875L465.289 496.08Z" stroke="#000000" stroke-width="0.503118" stroke-linecap="round" fill="#C1BBCE" transform="matrix(1.00043 0 0 1 -53.1438 -43.7943)"/><path d="M424.216 519.192 426.763 524.349C427.598 525.32 428.689 526.226 428.613 527.806 430.601 531.207 433.079 533.622 435.346 536.459 437.085 537.003 438.623 537.793 439.68 539.186 440.747 540.474 441.961 541.772 444.103 542.104 443.2 547.347 445.553 551.865 448.016 552.806 450.934 552.937 453.694 553.48 455.786 555.477 461.722 556.182 462.416 557.007 463.82 557.817 468.682 556.192 470.949 558.904 473.714 560.775 474.375 556.811 476.71 554.592 479.354 552.504 481.441 549.465 483.355 544.706 485.349 540.731 486.827 538.271 485.636 535.67 485.278 533.109L485.671 529.844C489.262 520.838 488.161 515.459 487.577 509.12L472.993 503.495 466.865 503.055 467.068 500.979C461.873 499.296 457.645 501.565 453.771 503.701L453.595 508.486C441.665 513.809 441.031 516.702 437.746 520.048L435.967 520.596 434.516 519.313 424.216 519.192Z" stroke="#000000" stroke-width="0.503118" stroke-linecap="round" fill="#C1BBCE" transform="matrix(1.00043 0 0 1 -53.1438 -43.7943)"/><path d="M474.867 588.925 475.248 596.326C473.035 597.432 471.391 598.539 469.506 599.646 467.438 599.596 466.114 599.052 465.786 597.397 465.265 594.761 465.562 592.965 467.026 590.746 468.09 589.136 470.012 587.103 471.303 586.887 471.966 586.776 472.946 587.772 473.518 588.613L474.867 588.925Z" stroke="#000000" stroke-width="0.503118" stroke-linecap="round" fill="#E50101" transform="matrix(1.00043 0 0 1 -53.1438 -43.7943)"/><path d="M447.596 624.072C446.989 624.128 445.929 624.304 445.169 624.611 444.609 624.832 444.103 625.069 443.685 625.486 443.346 625.828 443.255 626.326 443.145 626.769 443.03 627.227 442.098 627.821 441.729 627.916 441.212 628.042 440.514 627.916 439.976 627.916 438.896 627.916 438.383 627.68 437.75 626.835 436.977 625.808 436.009 625.013 435.322 623.866 434.836 623.056 434.392 622.563 434.108 621.708 433.894 621.069 433.973 620.359 433.973 619.685 433.973 618.825 434.37 618.04 435.119 617.663 435.21 617.617 435.299 617.572 435.389 617.527 436.271 617.089 436.49 616.093 437.143 615.439 437.861 614.719 438.793 614.081 439.571 613.416 440.065 612.989 440.769 612.611 441.324 612.335 442.176 611.912 442.988 611.686 443.887 611.459 444.561 611.288 445.348 611.062 445.91 610.921 446.022 610.891 446.135 610.876 446.247 610.85 446.36 610.83 446.472 610.805 446.585 610.785 447.379 610.624 448.382 611.022 448.81 611.595 449.397 612.375 450.133 613.13 450.699 613.884 450.995 614.282 450.977 615.253 451.238 615.776 451.612 616.521 452.054 617.079 452.318 617.864 452.587 618.674 452.199 619.519 451.846 620.229 451.425 621.069 450.855 621.552 450.227 622.181 449.712 622.699 449.162 623.117 448.608 623.529 448.315 623.75 447.921 623.876 447.596 624.072Z" stroke="#000000" stroke-width="0.503118" stroke-linecap="square" fill="#E50101" transform="matrix(1.00043 0 0 1 -53.1438 -43.7943)"/><path d="M500.257 450.155 505.266 466.672 503.787 481.336C506.76 484.015 509.719 486.188 513.895 493.151 514.418 494.025 514.966 496.21 514.78 497.961L512.964 505.714 508.426 507.691 508.778 514.473 506.373 514.508C507.611 511.324 506.423 511.917 505.89 511.726 502.601 509.648 501.369 506.589 500.764 503.852 503.455 499.709 503.294 496.382 502.988 493.181L498.537 492.358C495.101 493.197 494.433 491.937 494.101 490.79 492.236 486.423 491.379 488.106 490.695 487.811L488.041 484.157 492.697 475.525 496.328 475.118 493.856 471.897 496.021 460.672 498.081 459.152 492.13 447.39C493.86 448.907 495.774 449.424 500.257 450.155Z" stroke="#000000" stroke-width="0.503118" stroke-linecap="round" fill="#C1BBCE" transform="matrix(1.00043 0 0 1 -53.1438 -43.7943)"/><path d="M460.451 389.618 461.674 388.469 463.156 388.543 463.897 390.618 468.047 389.803 468.269 387.209 473.458 386.913C471.743 389.894 474.297 391.52 475.384 393.027 471.909 401.146 468.951 403.999 466.264 404.131 462.704 404.147 463.17 405.451 462.785 406.589 462.527 402.98 462.714 399.612 462.941 396.657 463.219 393.043 462.017 390.381 460.451 389.618Z" stroke="#000000" stroke-width="0.503118" stroke-linecap="round" fill="#C1BBCE" transform="matrix(1.00043 0 0 1 -53.1438 -43.7943)"/><path d="M472.308 375.759 468.603 378.723 467.343 378.723 466.602 377.686C463.316 380.965 460.86 384.659 458.339 388.321 459.247 388.537 459.974 388.981 460.488 389.692L461.711 388.543 463.119 388.655 463.823 390.544 468.084 389.692 468.269 387.135 473.569 386.839C474.346 385.776 475.037 384.714 476.2 383.652L472.308 375.759Z" stroke="#000000" stroke-width="0.503118" stroke-linecap="round" fill="#C1BBCE" transform="matrix(1.00043 0 0 1 -53.1438 -43.7943)"/><path d="M475.552 336.111 477.213 334.852C483.896 336.556 490.86 335.58 497.825 334.61L501.996 331.159C504.366 332.554 506.137 334.946 506.489 339.937L510.504 343.146 510.504 352.891 495.572 375.371 472.289 375.802 468.726 378.689 467.336 378.716 466.536 377.645 467.069 363.755 472.288 355.836 480.611 348.369 475.58 345.188 475.552 336.111Z" stroke="#000000" stroke-width="0.503118" stroke-linecap="round" fill="#C1BBCE" transform="matrix(1.00043 0 0 1 -53.1438 -43.7943)"/><path d="M138.77 599.963 261.689 599.963 261.689 593.146" stroke="#000000" stroke-width="1.50935" stroke-linecap="round" fill="none" transform="matrix(1.00043 0 0 1 -53.1438 -43.7943)"/><path d="M215.46 600.154 215.46 606.594" stroke="#000000" stroke-width="1.50935" stroke-linecap="round" fill="none" transform="matrix(1.00043 0 0 1 -53.1438 -43.7943)"/><path d="M138.761 593.005 138.761 606.956" stroke="#000000" stroke-width="1.50935" stroke-linecap="round" fill="none" transform="matrix(1.00043 0 0 1 -53.1438 -43.7943)"/><path d="M17.5742-5.85022C17.2087-5.85022 16.9168-5.69545 16.6987-5.38592 16.4245-4.99089 16.2875-4.26127 16.2875-3.19706 16.2875-2.13285 16.412-1.4246 16.6611-1.07232 16.9102-0.720038 17.2175-0.543898 17.5831-0.543898 17.9486-0.543898 18.256-0.720775 18.5051-1.07453 18.7542-1.42828 18.8787-2.13579 18.8787-3.19706 18.8787-4.26422 18.7542-4.9732 18.5051-5.32401 18.256-5.67482 17.9457-5.85022 17.5742-5.85022ZM12.5431-5.85022C12.1775-5.85022 11.8857-5.69545 11.6675-5.38592 11.3934-4.99089 11.2563-4.26127 11.2563-3.19706 11.2563-2.13285 11.3808-1.4246 11.6299-1.07232 11.879-0.720038 12.1864-0.543898 12.5519-0.543898 12.9175-0.543898 13.2248-0.720775 13.4739-1.07453 13.723-1.42828 13.8475-2.13579 13.8475-3.19706 13.8475-4.26422 13.723-4.9732 13.4739-5.32401 13.2248-5.67482 12.9145-5.85022 12.5431-5.85022ZM7.51188-5.85022C7.14634-5.85022 6.85449-5.69545 6.63634-5.38592 6.36218-4.99089 6.2251-4.26127 6.2251-3.19706 6.2251-2.13285 6.34965-1.4246 6.59875-1.07232 6.84786-0.720038 7.15518-0.543898 7.52073-0.543898 7.88627-0.543898 8.1936-0.720775 8.4427-1.07453 8.6918-1.42828 8.81635-2.13579 8.81635-3.19706 8.81635-4.26422 8.6918-4.9732 8.4427-5.32401 8.1936-5.67482 7.88333-5.85022 7.51188-5.85022ZM17.5831-6.50909C17.9309-6.50909 18.2361-6.43907 18.4984-6.29905 18.7608-6.15902 18.9775-5.95708 19.1484-5.69324 19.3194-5.4294 19.4536-5.10807 19.5508-4.72926 19.6481-4.35045 19.6968-3.83971 19.6968-3.19706 19.6968-2.43649 19.6186-1.82257 19.4624-1.35532 19.3062-0.888072 19.0725-0.526947 18.7615-0.271949 18.4505-0.0169507 18.0577 0.110548 17.5831 0.110548 16.9581 0.110548 16.4673-0.113496 16.1106-0.561586 15.6831-1.10106 15.4694-1.97955 15.4694-3.19706 15.4694-3.96353 15.5483-4.58039 15.706-5.04764 15.8637-5.51489 16.0981-5.87528 16.4091-6.1288 16.7201-6.38233 17.1114-6.50909 17.5831-6.50909ZM12.5519-6.50909C12.8998-6.50909 13.2049-6.43907 13.4672-6.29905 13.7296-6.15902 13.9463-5.95708 14.1173-5.69324 14.2883-5.4294 14.4224-5.10807 14.5197-4.72926 14.6169-4.35045 14.6656-3.83971 14.6656-3.19706 14.6656-2.43649 14.5875-1.82257 14.4312-1.35532 14.275-0.888072 14.0414-0.526947 13.7304-0.271949 13.4193-0.0169507 13.0265 0.110548 12.5519 0.110548 11.9269 0.110548 11.4361-0.113496 11.0794-0.561586 10.6519-1.10106 10.4382-1.97955 10.4382-3.19706 10.4382-3.96353 10.5171-4.58039 10.6748-5.04764 10.8325-5.51489 11.0669-5.87528 11.3779-6.1288 11.6889-6.38233 12.0802-6.50909 12.5519-6.50909ZM7.52073-6.50909C7.86859-6.50909 8.1737-6.43907 8.43607-6.29905 8.69844-6.15902 8.91511-5.95708 9.08609-5.69324 9.25707-5.4294 9.39121-5.10807 9.48849-4.72926 9.58577-4.35045 9.63441-3.83971 9.63441-3.19706 9.63441-2.43649 9.55629-1.82257 9.40005-1.35532 9.24381-0.888072 9.01018-0.526947 8.69917-0.271949 8.38816-0.0169507 7.99535 0.110548 7.52073 0.110548 6.89576 0.110548 6.40493-0.113496 6.04822-0.561586 5.62077-1.10106 5.40704-1.97955 5.40704-3.19706 5.40704-3.96353 5.4859-4.58039 5.64362-5.04764 5.80133-5.51489 6.03569-5.87528 6.3467-6.1288 6.65771-6.38233 7.04906-6.50909 7.52073-6.50909ZM2.86099-6.50909 3.37394-6.50909 3.37394 0 2.57799 0 2.57799-5.07196C2.38637-4.88919 2.13506-4.70641 1.82405-4.52364 1.51304-4.34087 1.23372-4.20379 0.986092-4.1124L0.986092-4.88182C1.43123-5.09112 1.82036-5.34464 2.15348-5.64239 2.4866-5.94013 2.72244-6.22903 2.86099-6.50909Z" stroke="#000000" stroke-width="0.670203" stroke-linecap="round" fill-rule="evenodd" transform="matrix(1.00043 0 0 1 151.181 573.572)"/><text fill="#000000" fill-opacity="0" font-family="Arial,Arial_MSFontService,sans-serif" font-size="6.61964" x="0.986092" y="-0.716906">1000 </text><path d="M7.26082-4.80222C7.60868-4.80222 7.89389-4.73 8.11646-4.58555 8.33903-4.4411 8.49601-4.23916 8.5874-3.97974 8.95884-4.52806 9.4423-4.80222 10.0378-4.80222 10.5036-4.80222 10.8617-4.67325 11.1123-4.4153 11.3629-4.15736 11.4882-3.76012 11.4882-3.22359L11.4882 0 10.6967 0 10.6967-2.95827C10.6967-3.27665 10.6709-3.50586 10.6193-3.64588 10.5677-3.78591 10.4741-3.89867 10.3385-3.98416 10.2029-4.06965 10.0437-4.1124 9.86091-4.1124 9.53074-4.1124 9.25658-4.00259 9.03843-3.78296 8.82028-3.56334 8.71121-3.2118 8.71121-2.72833L8.71121 0 7.91526 0 7.91526-3.05113C7.91526-3.40489 7.85041-3.67021 7.7207-3.84708 7.59099-4.02396 7.37873-4.1124 7.08394-4.1124 6.85989-4.1124 6.6528-4.05344 6.46266-3.93552 6.27251-3.8176 6.1347-3.64515 6.04921-3.41816 5.96372-3.19116 5.92097-2.86394 5.92097-2.43649L5.92097 0 5.12502 0 5.12502-4.69609 5.83695-4.69609 5.83695-4.03723C5.98435-4.26717 6.18039-4.45215 6.42507-4.59218 6.66975-4.73221 6.94833-4.80222 7.26082-4.80222ZM0.601383-6.48256 1.39733-6.48256 1.39733-2.78582 3.28108-4.69609 4.31139-4.69609 2.51608-2.95385 4.49269 0 3.51102 0 1.95892-2.40111 1.39733-1.86163 1.39733 0 0.601383 0Z" stroke="#000000" stroke-width="0.670203" stroke-linecap="round" fill-rule="evenodd" transform="matrix(1.00043 0 0 1 173.831 573.572)"/><text fill="#000000" fill-opacity="0" font-family="Arial,Arial_MSFontService,sans-serif" font-size="6.48256" x="0.601383" y="-0.810319">km</text><path d="M17.5742-5.85022C17.2087-5.85022 16.9168-5.69545 16.6987-5.38592 16.4245-4.99089 16.2875-4.26127 16.2875-3.19706 16.2875-2.13285 16.412-1.4246 16.6611-1.07232 16.9102-0.720038 17.2175-0.543898 17.5831-0.543898 17.9486-0.543898 18.256-0.720775 18.5051-1.07453 18.7542-1.42828 18.8787-2.13579 18.8787-3.19706 18.8787-4.26422 18.7542-4.9732 18.5051-5.32401 18.256-5.67482 17.9457-5.85022 17.5742-5.85022ZM12.5431-5.85022C12.1775-5.85022 11.8857-5.69545 11.6675-5.38592 11.3934-4.99089 11.2563-4.26127 11.2563-3.19706 11.2563-2.13285 11.3808-1.4246 11.6299-1.07232 11.879-0.720038 12.1864-0.543898 12.5519-0.543898 12.9175-0.543898 13.2248-0.720775 13.4739-1.07453 13.723-1.42828 13.8475-2.13579 13.8475-3.19706 13.8475-4.26422 13.723-4.9732 13.4739-5.32401 13.2248-5.67482 12.9145-5.85022 12.5431-5.85022ZM7.51188-5.85022C7.14634-5.85022 6.85449-5.69545 6.63634-5.38592 6.36218-4.99089 6.2251-4.26127 6.2251-3.19706 6.2251-2.13285 6.34965-1.4246 6.59875-1.07232 6.84786-0.720038 7.15518-0.543898 7.52073-0.543898 7.88627-0.543898 8.1936-0.720775 8.4427-1.07453 8.6918-1.42828 8.81635-2.13579 8.81635-3.19706 8.81635-4.26422 8.6918-4.9732 8.4427-5.32401 8.1936-5.67482 7.88333-5.85022 7.51188-5.85022ZM17.5831-6.50909C17.9309-6.50909 18.2361-6.43907 18.4984-6.29905 18.7608-6.15902 18.9775-5.95708 19.1484-5.69324 19.3194-5.4294 19.4536-5.10807 19.5508-4.72926 19.6481-4.35045 19.6968-3.83971 19.6968-3.19706 19.6968-2.43649 19.6186-1.82257 19.4624-1.35532 19.3062-0.888072 19.0725-0.526947 18.7615-0.271949 18.4505-0.0169507 18.0577 0.110548 17.5831 0.110548 16.9581 0.110548 16.4673-0.113496 16.1106-0.561586 15.6831-1.10106 15.4694-1.97955 15.4694-3.19706 15.4694-3.96353 15.5483-4.58039 15.706-5.04764 15.8637-5.51489 16.0981-5.87528 16.4091-6.1288 16.7201-6.38233 17.1114-6.50909 17.5831-6.50909ZM12.5519-6.50909C12.8998-6.50909 13.2049-6.43907 13.4672-6.29905 13.7296-6.15902 13.9463-5.95708 14.1173-5.69324 14.2883-5.4294 14.4224-5.10807 14.5197-4.72926 14.6169-4.35045 14.6656-3.83971 14.6656-3.19706 14.6656-2.43649 14.5875-1.82257 14.4312-1.35532 14.275-0.888072 14.0414-0.526947 13.7304-0.271949 13.4193-0.0169507 13.0265 0.110548 12.5519 0.110548 11.9269 0.110548 11.4361-0.113496 11.0794-0.561586 10.6519-1.10106 10.4382-1.97955 10.4382-3.19706 10.4382-3.96353 10.5171-4.58039 10.6748-5.04764 10.8325-5.51489 11.0669-5.87528 11.3779-6.1288 11.6889-6.38233 12.0802-6.50909 12.5519-6.50909ZM7.52073-6.50909C7.86859-6.50909 8.1737-6.43907 8.43607-6.29905 8.69844-6.15902 8.91511-5.95708 9.08609-5.69324 9.25707-5.4294 9.39121-5.10807 9.48849-4.72926 9.58577-4.35045 9.63441-3.83971 9.63441-3.19706 9.63441-2.43649 9.55629-1.82257 9.40005-1.35532 9.24381-0.888072 9.01018-0.526947 8.69917-0.271949 8.38816-0.0169507 7.99535 0.110548 7.52073 0.110548 6.89576 0.110548 6.40493-0.113496 6.04822-0.561586 5.62077-1.10106 5.40704-1.97955 5.40704-3.19706 5.40704-3.96353 5.4859-4.58039 5.64362-5.04764 5.80133-5.51489 6.03569-5.87528 6.3467-6.1288 6.65771-6.38233 7.04906-6.50909 7.52073-6.50909ZM2.86099-6.50909 3.37394-6.50909 3.37394 0 2.57799 0 2.57799-5.07196C2.38637-4.88919 2.13506-4.70641 1.82405-4.52364 1.51304-4.34087 1.23372-4.20379 0.986092-4.1124L0.986092-4.88182C1.43123-5.09112 1.82036-5.34464 2.15348-5.64239 2.4866-5.94013 2.72244-6.22903 2.86099-6.50909Z" stroke="#000000" stroke-width="0.503118" stroke-linecap="round" fill-rule="evenodd" transform="matrix(1.00043 0 0 1 191.613 545.82)"/><text fill="#000000" fill-opacity="0" font-family="Arial,Arial_MSFontService,sans-serif" font-size="6.61964" x="0.986092" y="-0.716906">1000 </text><path d="M7.64503-4.69609 8.44098-4.69609 8.44098 0 7.64503 0ZM2.73276-4.80222C3.08061-4.80222 3.36583-4.73 3.5884-4.58555 3.81097-4.4411 3.96795-4.23916 4.05934-3.97974 4.43078-4.52806 4.91424-4.80222 5.50973-4.80222 5.97551-4.80222 6.33368-4.67325 6.58426-4.4153 6.83484-4.15736 6.96012-3.76012 6.96012-3.22359L6.96012 0 6.1686 0 6.1686-2.95827C6.1686-3.27665 6.1428-3.50586 6.09121-3.64588 6.03963-3.78591 5.94603-3.89867 5.81042-3.98416 5.67482-4.06965 5.51563-4.1124 5.33285-4.1124 5.00268-4.1124 4.72852-4.00259 4.51037-3.78296 4.29222-3.56334 4.18315-3.2118 4.18315-2.72833L4.18315 0 3.3872 0 3.3872-3.05113C3.3872-3.40489 3.32235-3.67021 3.19264-3.84708 3.06293-4.02396 2.85067-4.1124 2.55588-4.1124 2.33183-4.1124 2.12474-4.05344 1.9346-3.93552 1.74445-3.8176 1.60664-3.64515 1.52115-3.41816 1.43565-3.19116 1.39291-2.86394 1.39291-2.43649L1.39291 0 0.596961 0 0.596961-4.69609 1.30889-4.69609 1.30889-4.03723C1.45629-4.26717 1.65233-4.45215 1.89701-4.59218 2.14169-4.73221 2.42027-4.80222 2.73276-4.80222ZM7.64503-6.48256 8.44098-6.48256 8.44098-5.56722 7.64503-5.56722Z" stroke="#000000" stroke-width="0.503118" stroke-linecap="round" fill-rule="evenodd" transform="matrix(1.00043 0 0 1 214.263 545.82)"/><text fill="#000000" fill-opacity="0" font-family="Arial,Arial_MSFontService,sans-serif" font-size="6.48256" x="0.596961" y="-0.810319">mi</text><path d="M2.48071-5.85022C2.11516-5.85022 1.82331-5.69545 1.60516-5.38592 1.331-4.99089 1.19392-4.26127 1.19392-3.19706 1.19392-2.13285 1.31847-1.4246 1.56758-1.07232 1.81668-0.720038 2.124-0.543898 2.48955-0.543898 2.8551-0.543898 3.16242-0.720775 3.41152-1.07453 3.66062-1.42828 3.78518-2.13579 3.78518-3.19706 3.78518-4.26422 3.66062-4.9732 3.41152-5.32401 3.16242-5.67482 2.85215-5.85022 2.48071-5.85022ZM2.48955-6.50909C2.83741-6.50909 3.14252-6.43907 3.40489-6.29905 3.66726-6.15902 3.88393-5.95708 4.05491-5.69324 4.2259-5.4294 4.36003-5.10807 4.45731-4.72926 4.55459-4.35045 4.60323-3.83971 4.60323-3.19706 4.60323-2.43649 4.52511-1.82257 4.36887-1.35532 4.21263-0.888072 3.979-0.526947 3.66799-0.271949 3.35699-0.0169507 2.96417 0.110548 2.48955 0.110548 1.86458 0.110548 1.37375-0.113496 1.01705-0.561586 0.589591-1.10106 0.375864-1.97955 0.375864-3.19706 0.375864-3.96353 0.454722-4.58039 0.612438-5.04764 0.770154-5.51489 1.00452-5.87528 1.31553-6.1288 1.62653-6.38233 2.01788-6.50909 2.48955-6.50909Z" stroke="#000000" stroke-width="0.503118" stroke-linecap="round" fill-rule="evenodd" transform="matrix(1.00043 0 0 1 83.2062 545.699)"/><text fill="#000000" fill-opacity="0" font-family="Arial,Arial_MSFontService,sans-serif" font-size="6.61964" x="0.375864" y="-0.716906">0</text><path d="M2.48071-5.85022C2.11516-5.85022 1.82331-5.69545 1.60516-5.38592 1.331-4.99089 1.19392-4.26127 1.19392-3.19706 1.19392-2.13285 1.31847-1.4246 1.56758-1.07232 1.81668-0.720038 2.124-0.543898 2.48955-0.543898 2.8551-0.543898 3.16242-0.720775 3.41152-1.07453 3.66062-1.42828 3.78518-2.13579 3.78518-3.19706 3.78518-4.26422 3.66062-4.9732 3.41152-5.32401 3.16242-5.67482 2.85215-5.85022 2.48071-5.85022ZM2.48955-6.50909C2.83741-6.50909 3.14252-6.43907 3.40489-6.29905 3.66726-6.15902 3.88393-5.95708 4.05491-5.69324 4.2259-5.4294 4.36003-5.10807 4.45731-4.72926 4.55459-4.35045 4.60323-3.83971 4.60323-3.19706 4.60323-2.43649 4.52511-1.82257 4.36887-1.35532 4.21263-0.888072 3.979-0.526947 3.66799-0.271949 3.35699-0.0169507 2.96417 0.110548 2.48955 0.110548 1.86458 0.110548 1.37375-0.113496 1.01705-0.561586 0.589591-1.10106 0.375864-1.97955 0.375864-3.19706 0.375864-3.96353 0.454722-4.58039 0.612438-5.04764 0.770154-5.51489 1.00452-5.87528 1.31553-6.1288 1.62653-6.38233 2.01788-6.50909 2.48955-6.50909Z" stroke="#000000" stroke-width="0.697744" stroke-linecap="round" fill-rule="evenodd" transform="matrix(1.00043 0 0 1 83.0431 572.857)"/><text fill="#000000" fill-opacity="0" font-family="Arial,Arial_MSFontService,sans-serif" font-size="6.61964" x="0.375864" y="-0.716906">0</text><path d="M81.8548 219.889C80.3504 222.475 79.3281 223.825 79.2843 225.924 79.1852 230.722 74.396 232.251 71.9992 235.739 74.229 238.991 76.6571 242.183 77.0349 245.979L86.2676 245.979C88.2589 243.319 91.1921 244.19 94.5333 246.591L99.8639 246.986 101.039 248.497 97.1782 249.84C94.5358 249.275 92.1516 248.258 89.9605 246.905 88.4129 247.822 86.6439 248.37 84.4207 248.161L83.4139 249.84 75.3565 250.175C74.8816 252.358 74.4428 254.54 74.8529 256.722 76.7924 256.543 78.6801 256.828 80.7227 255.72 83.4758 256.425 86.0895 255.808 88.6172 254.371L102.541 254.538C107.774 257.531 114.301 257.84 120.343 258.233 120.628 255.079 122.391 251.943 115.52 247.154 116.575 245.796 116.18 242.674 115.257 240.418 114.735 239.142 115.737 238.741 115.262 237.379 114.609 237.015 113.823 235.983 112.724 234.946 111.493 233.785 108.997 230.45 108.997 230.45 107.536 226.066 105.651 224.273 105.651 224.273 101.166 225.007 98.3958 219.958 98.3958 219.958 94.567 218.924 92.5646 219.686 90.8983 219.773 86.5483 220.001 85.6629 220.538 81.8548 219.889Z" stroke="#000000" stroke-width="0.503118" stroke-linecap="round" fill="#CFFD0E" transform="matrix(1.00043 0 0 1 -53.1438 -43.7943)"/><path d="M76.9992 246.006 86.2314 246.006C88.2232 243.347 91.1564 244.217 94.4976 246.618L99.8281 247.013 101.003 248.524 97.1425 249.867C94.4996 249.302 92.1158 248.286 89.9243 246.932 88.3767 247.849 86.6077 248.397 84.3849 248.189L83.3777 249.867 75.3555 250.203C75.3555 250.203 76.9992 246.006 76.9992 246.006Z" stroke="#000000" stroke-width="0.503118" stroke-linecap="round" fill="#CFFD0E" transform="matrix(1.00043 0 0 1 -53.1438 -43.7943)"/><path d="M74.9444 256.826 75.5099 258.379C76.6802 259.181 78.8833 257.597 78.7515 261.403 79.8156 261.959 81.1323 260.836 81.896 263.397 83.2021 264.056 86.5101 257.91 85.3122 267.083L88.2489 270.3C89.9902 267.586 92.6079 264.864 95.3177 263.892 95.3177 263.892 100.112 263.775 100.112 263.775L100.917 254.538 88.5452 254.496C86.0306 255.719 83.4466 256.388 80.7066 255.809 78.9613 256.435 77.1421 256.766 74.9444 256.826Z" stroke="#000000" stroke-width="0.503118" stroke-linecap="round" fill="#CFFD0E" transform="matrix(1.00043 0 0 1 -53.1438 -43.7943)"/><path d="M88.1427 270.338C87.8524 271.242 87.9264 271.691 89.1027 271.693 89.5776 272.262 91.2515 268.242 90.9939 272.299L92.4902 272.459C91.983 274.713 93.518 277.481 94.9821 277.98 96.8668 278.623 97.9088 280.805 98.9447 281.768L101.502 286.474C103.263 287.674 105.689 286.802 109.478 281.692 109.066 279.989 111.419 279.082 118.452 279.523 124.213 283.674 125.94 288.517 123.793 294.024 126.369 293.402 127.811 291.645 132.107 292.742 134.248 295.441 135.574 298.42 133.793 302.463 136.165 303.349 137.022 305.954 140.333 301.566 140.108 300.561 140.925 300.198 141.967 300.971 142.598 301.439 143.651 300.728 144.645 300.975L146.395 296.467 144.25 295.601 144.659 293.233 149.043 294.124C148.708 292.508 146.524 290.406 148.142 289.304 148.868 288.558 148.532 287.974 147.795 287.452L147.886 285.386C143.635 284.878 146.062 280.174 147.529 277.79L144.923 275.421 144.624 270.21 142.476 271.794 141.672 270.594 144.542 267.969 140.668 265.025C141.308 262.965 140.444 260.492 139.742 257.921L137.014 257.328C137.056 258.502 136.649 259.391 135.451 259.776 134.428 259.469 133.801 260.123 133.569 261.737L128.735 259.736 124.896 262.519C125.383 261.272 124.137 260.532 123.352 259.602L121.236 261.024C119.583 261.581 119.375 260.691 119.395 259.575 119.735 259.212 120.159 258.934 120.29 258.361 114.319 257.434 108.066 257.807 102.607 254.521L100.896 254.511 100.152 263.773 95.4913 263.897C90.936 265.551 88.6936 269.792 88.1427 270.338Z" stroke="#000000" stroke-width="0.503118" stroke-linecap="round" fill="#CFFD0E" transform="matrix(1.00043 0 0 1 -53.1438 -43.7943)"/><path d="M314.884 409.864 318.933 407.416C320.628 403.434 322.013 404.589 323.358 406.38 321.637 407.933 319.85 409.435 319.682 412.196 320.089 416.024 318.312 415.704 317.05 416.361 316.49 415.322 315.693 414.33 315.971 413.123 315.937 411.982 315.953 410.832 314.884 409.864Z" stroke="#000000" stroke-width="0.503118" stroke-linecap="round" fill="#E27575" transform="matrix(1.00043 0 0 1 -53.1438 -43.7943)"/><path d="M314.914 409.855 306.459 398.939 312.118 395.344 311.452 389.219 318.376 385.024C319.558 384.095 320.445 381.84 322.57 385.157 326.248 384.721 328.392 385.667 329.561 387.488L332.491 385.49 333.689 373.306C333.633 369.109 328.936 366.368 334.555 360.39 335.5 356.461 331.985 353.77 328.097 353.932 327.145 355.148 326.788 357.106 324.445 356.582L324.568 350.736 325.966 348.605 337.285 348.739 342.753 350.683C344.793 349.64 347.525 352.737 349.423 353.055L349.136 343.679C353.425 338.214 356.585 336.583 360.121 335.756L365.514 338.219 372.172 336.355C370.537 340.729 368.755 344.32 367.099 348.612 364.261 355.968 365.209 364.934 363.916 373.173 357.769 375.868 355.539 380.601 352.331 384.824L349.68 397.028C343.893 403.228 338.785 408.198 335.487 407.927 335.465 404.442 331.682 401.351 328.594 407.081 326.44 408.507 324.89 407.767 323.237 406.196 320.843 403.035 320.055 405.714 318.975 407.328L314.914 409.855Z" stroke="#000000" stroke-width="0.503118" stroke-linecap="round" fill="#E27575" transform="matrix(1.00043 0 0 1 -53.1438 -43.7943)"/><path d="M306.509 398.939 291.361 383.266 287.75 374.038 291.079 370.843 292.011 365.649 296.272 366.582C296.517 366.327 296.9 366.141 296.672 365.649L292.974 363.755 294.141 358.459 308.326 357.731 308.389 348.605 325.966 348.605 324.604 350.525 324.446 356.478C326.033 357.083 327.092 355.774 328.119 353.893 330.822 353.472 335.78 355.913 334.433 360.573 332.182 363.105 331.158 365.462 331.961 367.615 332.552 369.2 333.264 370.74 333.72 373.091L332.358 385.49 329.531 387.535C328.26 385.436 325.916 384.679 322.637 385.091 321.629 383.828 320.64 382.215 318.729 384.762L311.397 389.274 312.032 395.336 306.509 398.939Z" stroke="#000000" stroke-width="0.503118" stroke-linecap="round" fill="#E27575" transform="matrix(1.00043 0 0 1 -53.1438 -43.7943)"/><path d="M308.293 357.701 294.64 358.36 291.91 356.571 296.006 348.709 308.199 348.568 308.293 357.701Z" stroke="#000000" stroke-width="0.503118" stroke-linecap="round" fill="#E27575" transform="matrix(1.00043 0 0 1 -53.1438 -43.7943)"/><path d="M349.413 353.087C347.161 352.095 344.467 349.85 342.877 350.736L337.198 348.709 325.833 348.605 307.99 348.605 295.838 348.739 297.071 339.417 293.875 335.29 295.074 333.825 294.275 332.626 292.144 333.292C289.512 332.966 288.57 331.103 287.952 328.945 286.531 328.411 284.543 328.602 284.554 326.235 287.543 321.061 288.193 313.996 294.028 311.121L294.231 308.839 302.561 308.445C305.672 310.443 304.679 312.738 309.963 312.068 313.622 305.464 316.275 293.333 321.039 292.813 323.924 285.711 324.78 275.633 329.695 271.507 332.117 270.642 334.182 269.615 335.078 268.056 335.601 267.147 335.725 264.204 335.29 262.858 334.977 261.891 334.375 262.645 333.423 261.387L331.993 255.934 333.151 254.996 337.551 258.724C338.176 261.776 339.697 264.603 339.401 267.885 339.082 272.658 337.113 273.341 341.872 278.787 342.683 280.137 342.867 281.566 342.692 283.04L333.822 282.16C332.834 284.58 330.641 290.079 339.38 292.019L343.502 304.403 335.82 317.18 336.891 326.507C340.133 332.484 343.889 338.709 349.136 343.545L349.413 353.087Z" stroke="#000000" stroke-width="0.503118" stroke-linecap="round" fill="#E27575" transform="matrix(1.00043 0 0 1 -53.1438 -43.7943)"/><path d="M284.537 326.329 282.844 326.25 282.289 329.213C279.388 329.283 276.486 328.976 273.585 327.916 266.655 332.231 261.166 331.525 258.333 321.568 256.181 316.01 252.695 314.206 249.004 312.981L236.946 313.05 237.473 293.804C239.386 291.369 240.577 287.97 241.652 284.417 244.876 283.623 244.188 280.788 244.335 278.389 247.558 276.254 245.446 272.905 244.119 270.66L244.327 264.399C244.601 262.625 244.197 260.704 246.744 259.074 247.735 257.856 248.726 258.449 249.717 252.49 251.484 251.132 253.35 249.796 262.866 250.098 266.192 251.838 270.427 253.249 272.736 256.833L274.877 256.73C276.259 255.757 276.687 254.041 279.199 253.947 280.632 253.917 280.716 252.538 287.515 257.874L294.604 258.536 301.186 253.791 312.986 253.561C314.707 254.278 316.118 255.851 318.349 255.166 321.299 252.229 324.877 250.711 328.241 249.294 329.585 251.449 331.457 253.556 333.134 254.9L332.015 255.795 333.433 261.503C334.092 262.002 335.293 262.176 335.323 263.052 336.589 268.651 333.452 270.384 329.74 271.62 325.014 275.298 323.827 285.389 321.111 292.71 315.831 294.27 314.073 304.034 310.036 312.061 306.141 312.822 305.156 310.926 302.712 308.288L294.225 308.838 294.003 311.107C288.584 313.939 287.337 320.356 284.537 326.329Z" stroke="#000000" stroke-width="0.503118" stroke-linecap="round" fill="#CFFD0E" transform="matrix(1.00043 0 0 1 -53.1438 -43.7943)"/><path d="M236.921 312.969 229.217 314 225.239 282.81C224.731 280.432 222.369 279.378 220.566 277.924L221.522 272.827 226.513 268.898 231.717 269.11 235.54 262.951 244.142 264.331 244.195 271.151C246.635 273.773 246.193 277.292 244.352 278.395 244.52 281.679 243.921 284.402 241.739 284.328 240.417 287.88 239.289 292.144 237.406 293.637L236.921 312.969Z" stroke="#000000" stroke-width="0.503118" stroke-linecap="round" fill="#CFFD0E" transform="matrix(1.00043 0 0 1 -53.1438 -43.7943)"/><path d="M223.095 315.693 229.091 313.963 225.113 282.772C224.604 280.394 222.243 279.34 220.44 277.887L221.396 272.789 214.326 271.874C213.002 274.519 213.708 277.037 216.914 279.398 219.505 289.965 219.183 300.115 219.996 310.427L223.095 315.693Z" stroke="#000000" stroke-width="0.503118" stroke-linecap="round" fill="#CFFD0E" transform="matrix(1.00043 0 0 1 -53.1438 -43.7943)"/><path d="M223.111 315.666C222.306 316.739 222.206 318.988 219.976 317.688 208.906 319.032 204.537 323.727 196.817 326.747L187.054 323.174 188.383 317.737C188.106 313.387 184.413 308.936 189.408 304.742 189.872 301.569 189.615 298.116 193.032 296.092L190.437 272.681 207.296 273.203C209.54 272.015 211.927 271.838 214.342 271.847 213.018 274.492 213.724 277.01 216.93 279.371 219.522 289.937 219.199 300.088 220.012 310.4L223.111 315.666Z" stroke="#000000" stroke-width="0.503118" stroke-linecap="round" fill="#CFFD0E" transform="matrix(1.00043 0 0 1 -53.1438 -43.7943)"/><path d="M149.088 329.099 152.307 329.403 177.887 322.162 187.066 323.191 188.395 317.754C188.118 313.404 184.425 308.953 189.42 304.758 189.885 301.586 189.628 298.134 193.045 296.11L191.877 285.412C190.471 285.441 189.884 283.982 189.147 282.716 187.508 279.899 182.015 280.231 176.939 283.697 174.523 281.987 171.706 280.81 170.76 277.139 167.369 275.889 164.728 276.568 162.545 278.427L162.94 274.767C162.408 273.376 160.499 273.776 158.252 274.614 157.687 274.678 158.083 275.566 158.718 276.659 157.894 276.97 157.071 277.015 156.249 277.173 155.676 277.878 154.849 278.624 153.933 278.816 151.633 274.785 150.3 275.544 147.566 277.76 146.63 278.519 146.017 280.355 145.635 281.958 145.203 283.764 145.976 285.507 147.947 285.255 147.947 285.255 147.764 287.688 147.764 287.688 149.169 288.317 148.867 288.567 147.558 289.945 146.967 290.567 149.215 293.415 148.948 294.087 148.948 294.087 144.63 293.229 144.63 293.229 144.515 293.91 144.363 294.889 144.3 295.642 144.3 295.642 146.332 296.511 146.332 296.511 146.332 296.511 144.744 300.737 144.744 300.737 144.952 301.068 142.825 300.855 142.303 300.926 142.303 300.926 142.335 303.572 142.335 303.572 144.541 304.166 143.336 309.335 141.265 310.177 141.265 310.177 144.302 312.083 144.302 312.083 144.971 311.56 146.847 312.018 148.065 315.342 148.065 315.342 151.093 317.245 151.027 319.642 150.976 321.544 149.691 321.846 149.343 323.32 149.343 323.32 149.088 329.099 149.088 329.099Z" stroke="#000000" stroke-width="0.503118" stroke-linecap="round" fill="#CFFD0E" transform="matrix(1.00043 0 0 1 -53.1438 -43.7943)"/><path d="M149.045 329.075 141.838 326.54 116.448 305.74 124.484 299.015 124.344 296.611 128.281 292.805C129.454 292.013 130.878 292.566 132.226 292.713 135.608 297.641 134.702 299.957 133.779 302.457 135.697 302.945 137.147 306.14 140.323 301.578 140.234 300.31 141.009 300.298 142.317 301.061L142.317 303.481C143.351 303.915 144.108 305.972 143.105 307.852 142.573 308.849 142.208 309.872 141.066 310.077L144.383 312.11C145.325 311.95 146.138 311.25 148.12 315.436 148.547 316.023 153.502 318.101 149.39 323.034L149.045 329.075Z" stroke="#000000" stroke-width="0.503118" stroke-linecap="round" fill="#CFFD0E" transform="matrix(1.00043 0 0 1 -53.1438 -43.7943)"/><path d="M116.436 305.78 109.831 302.426C109.096 300.381 107.06 299.267 104.983 298.181 105.178 295.293 103.262 294.636 101.982 293.592L101.547 286.699C104.443 287.826 107.007 284.903 109.53 281.646 108.901 279.107 114.653 279.368 118.493 279.442 122.318 282.771 126.323 285.965 123.856 294.061 125.493 293.445 127.037 292.736 128.852 292.298L124.297 296.559 124.444 298.984 116.436 305.78Z" stroke="#000000" stroke-width="0.503118" stroke-linecap="round" fill="#CFFD0E" transform="matrix(1.00043 0 0 1 -53.1438 -43.7943)"/><path d="M56.1002 245.602C56.1007 246.42 55.4381 247.083 54.621 247.083 53.8034 247.083 53.1408 246.42 53.1413 245.602 53.1408 244.784 53.8034 244.121 54.621 244.121 55.4381 244.121 56.1007 244.784 56.1002 245.602Z" stroke="#000000" stroke-width="0.503118" fill="#E27575" fill-rule="evenodd" transform="matrix(1.00043 0 0 1 161.461 75.4677)"/><path d="M61.8372 233.827C61.8372 234.477 61.3099 235.004 60.6594 235.004 60.0094 235.004 59.4821 234.477 59.4821 233.827 59.4821 233.176 60.0094 232.649 60.6594 232.649 61.3099 232.649 61.8372 233.176 61.8372 233.827L61.8372 233.827Z" stroke="#000000" stroke-width="0.503118" fill="#E27575" fill-rule="evenodd" transform="matrix(1.00043 0 0 1 161.461 75.4677)"/><path d="M191.816 285.489C190.214 285.273 189.649 283.12 188.339 281.879 185.757 279.432 180.879 281.25 176.99 283.65 172.253 281.283 171.611 279.151 170.738 277.186 171.686 274.629 171.04 271.27 172.326 268.553 173.474 266.127 175.47 263.881 178.973 261.955L183.25 252.988C186.92 251.774 190.254 251.312 193.127 250.3 195.891 249.326 198.38 247.733 199.896 245.699 205.371 242.317 212.169 237.98 216.368 239.053 216.31 240.43 216.303 241.798 217.153 242.994 218.577 243.961 218.274 245.564 217.983 247.163L226.446 258.54 229.669 259.612C230.14 259.074 232.44 256.234 233.575 262.497L235.494 262.908 231.791 269.151 226.546 268.874 221.498 272.816 213.896 271.913C209.527 271.838 209.126 272.688 207.266 273.198L190.396 272.716 191.816 285.489Z" stroke="#000000" stroke-width="0.503118" stroke-linecap="round" fill="#CFFD0E" transform="matrix(1.00043 0 0 1 -53.1438 -43.7943)"/><path d="M594.454 589.398 618.599 538.009C620.445 532.208 621.537 526.412 624.264 520.611 626.115 518.171 628.46 515.902 626.98 512.27L627.509 507.284C627.775 505.779 628.606 505.81 629.868 507.022L630.608 510.036C631.503 509.749 632.384 509.442 632.314 507.948L629.868 481.315 625.25 476.311 622.583 478.521 621.889 485.358 620.344 486.715C619.534 486.468 618.352 485.247 618.699 488.016L616.41 490.528C613.809 485.698 613.421 489.983 614.126 492.07 614.06 492.982 614.312 494.543 613.079 493.119L611.213 496.13 613.864 498.104 612.289 498.104 608.878 500.574 609.407 497.58 605.995 500.99 606.78 505.186 604.481 505.281 604.934 503.4C602.806 502.001 601.08 504.959 599.173 505.976L601.271 509.387 598.65 509.648 597.598 506.499 593.372 507.193C593.503 508.682 591.792 509.115 590.253 509.648L589.991 507.55 587.632 509.91 583.511 510.111 582.706 513.658 577.137 521.713C581.393 525.456 579.667 533.894 580.809 540.077 579.245 545.068 576.201 548.876 573.464 552.932 570.284 555.035 568.845 557.138 568.362 559.236 567.899 561.253 566.918 565.218 567.512 567.235 568.201 569.585 569.499 568.785 569.56 571.139L570.334 574.998C566.44 589.986 576.13 589.765 578.218 593.422 579.164 592.995 580.372 593.729 581.302 593.226 583.36 592.114 585.991 589.372 588.743 590.283 591.048 591.048 592.773 590.172 594.454 589.398Z" stroke="#000000" stroke-width="0.503118" stroke-linecap="round" fill="#C1BBCE" transform="matrix(1.00043 0 0 1 -53.1438 -43.7943)"/><path d="M72.0621 414.07 86.3068 414.07 86.3068 428.314 72.0621 428.314Z" stroke="#000000" stroke-width="0.503118" fill="#CC37CC" transform="matrix(1.00043 0 0 1 -53.1438 -43.7943)"/><path d="M72.0621 434.194 86.3068 434.194 86.3068 448.439 72.0621 448.439Z" stroke="#000000" stroke-width="0.503118" fill="#CFFD0E" transform="matrix(1.00043 0 0 1 -53.1438 -43.7943)"/><path d="M72.0621 454.319 86.3068 454.319 86.3068 468.564 72.0621 468.564Z" stroke="#000000" stroke-width="0.503118" fill="#E27575" transform="matrix(1.00043 0 0 1 -53.1438 -43.7943)"/><path d="M72.0621 474.444 86.3068 474.444 86.3068 488.688 72.0621 488.688Z" stroke="#000000" stroke-width="0.503118" fill="#C1BBCE" transform="matrix(1.00043 0 0 1 -53.1438 -43.7943)"/><text font-family="Arial,Arial_MSFontService,sans-serif" font-weight="400" font-size="24" transform="matrix(0.503333 0 0 0.503118 42.1578 380)">Northern Africa<tspan font-size="24" x="0" y="39.7521">Western Africa</tspan><tspan font-size="24" x="0" y="79.5042">Central Africa</tspan><tspan font-size="24" x="0" y="121.244">Eastern Africa</tspan></text><path d="M72.0621 494.568 86.3068 494.568 86.3068 508.813 72.0621 508.813Z" stroke="#000000" stroke-width="0.503118" fill="#E50101" transform="matrix(1.00043 0 0 1 -53.1438 -43.7943)"/><text font-family="Arial,Arial_MSFontService,sans-serif" font-weight="400" font-size="24" transform="matrix(0.503333 0 0 0.503118 42.1578 461)">Southern Africa<tspan font-weight="700" font-size="24" x="-48.489" y="-200.748">UN Subregions of Africa</tspan></text><path d="M505.935 167.593 503.198 170.376 500.95 169.873 499.897 174.416 495.038 175.69 494.598 179.385 490.306 179.872 488.262 177.734 421.803 179.746 422.605 196.397C419.78 196.611 416.866 196.619 414.571 196.302L414.697 201.601 415.467 233.092 406.458 233.58 406.569 236.945 401.412 243.469 401.742 248.108 400.012 248.894C399.847 251.79 399.515 254.327 398.298 255.12L398.361 258.877 402.119 258.091C402.875 262.31 403.059 266.74 406.6 269.946L407.056 272.76 405.374 272.996C408.212 276.529 411.486 279.839 413.345 283.861 410.19 293.631 414.675 292.256 417.401 293.451L417.417 293.31 424.728 279.002 428.753 279.002 431.52 279.002 433.784 283.341 437.054 283.027 446.896 283.027 446.896 279.316 457.179 279.647 457.257 282.587 461.958 281.077 461.958 278.216 467.336 276.235 475.464 281.58 484.095 270.512 483.592 263.531 480.605 261.299 486.359 261.299 486.359 258.437 489.63 259.758 492.664 276.628 496.422 278.059 498.67 282.335 498.67 288.263 502.554 286.832 502.569 286.832 502.444 276.565 504.974 272.808 507.535 272.839 508.793 266.346C511.832 262.61 513.024 257.82 517.899 255.136L519.439 242.857C518.554 234.189 521.185 226.706 522.443 218.754 523.695 218.237 525.134 219.19 526.151 216.788L531.765 213.943C532.872 213.205 533.25 211.477 533.572 209.698 532.812 207.997 531.72 208.305 530.714 208.094 529.054 204.911 526.307 204.631 523.922 203.393L520.586 183.221 517.945 180.423C518.619 173.194 510.111 171.912 505.935 167.593Z" stroke="#000000" stroke-width="0.503118" stroke-linecap="round" fill="#CC37CC" transform="matrix(1.00043 0 0 1 -53.1438 -43.7943)"/><path d="M502.54 286.842 502.525 286.842 498.642 288.272 498.642 282.345 496.393 278.069 492.635 276.638 489.601 259.768 486.331 258.447 486.331 261.309 480.576 261.309 483.564 263.541 484.067 270.522 475.435 281.591 467.306 276.245 461.93 278.226 461.93 281.087 457.228 282.597 457.15 279.657 446.867 279.327 446.867 283.037 437.025 283.037 433.755 283.351 431.491 279.012 428.724 279.012 424.699 279.012 417.388 293.32 417.372 293.461C417.455 293.497 417.561 293.498 417.64 293.54 418.694 295.016 419.134 296.819 424.007 296.259L426.822 298.838C426.213 303.109 432.54 305.464 436.239 308.539L439.682 315.331C442.645 316.771 446.207 317.388 446.647 322.359 448.62 323.48 449.396 325.122 450.845 326.572 451.512 327.239 450.891 327.877 451.553 328.396 453.429 329.869 456.811 330.23 457.276 328.113 457.276 328.113 460.406 329.298 462.669 329.025 464.073 328.855 463.944 327.53 465.341 327.233L475.404 336.037 477.196 334.732C484.103 336.335 491.012 335.416 497.918 334.418L506.157 327.359 517.557 326.95 517.668 321.022 511.802 318.994 507.747 310.017 501.865 305.048C502.892 303.466 500.086 301.883 498.72 300.301 496.87 300.804 494.862 300.399 492.746 299.31L494.255 297.376 494.224 294.593 499.617 294.499C500.665 293.839 501.803 293.553 502.604 291.904L502.541 286.842Z" stroke="#000000" stroke-width="0.503118" stroke-linecap="round" fill="#C1BBCE" transform="matrix(1.00043 0 0 1 -53.1438 -43.7943)"/></g></g></g><rect x="73" y="248.934" width="464" height="88.9763" fill="#FF0000" fill-opacity="0.419608"/><text font-family="Century Gothic,Century Gothic_MSFontService,sans-serif" font-weight="700" font-size="22" transform="matrix(1 0 0 0.999733 111.587 276)">Millions of learners are illiterate even <tspan font-size="22" x="-19.7533" y="26.0069">though they have been at school for the </tspan><tspan font-size="22" x="59.1667" y="52.0139">required number of years</tspan></text></g></svg>