<svg width="761" height="512" xmlns="http://www.w3.org/2000/svg" xmlns:xlink="http://www.w3.org/1999/xlink" overflow="hidden"><defs><clipPath id="clip0"><rect x="0" y="0" width="761" height="512"/></clipPath></defs><g clip-path="url(#clip0)"><rect x="0" y="0" width="761" height="512.446" fill="#FFFFFF" fill-opacity="0"/><rect x="3.50002" y="3.50307" width="755" height="506.44" stroke="#000000" stroke-width="3.3326" stroke-miterlimit="8" fill="none"/><text font-family="ABC Junior Typing,ABC Junior Typing_MSFontService,sans-serif" font-weight="700" font-size="53" transform="matrix(1 0 0 1.00087 88.1004 65)">Guidelines for Teaching</text><rect x="9.00002" y="378.329" width="125" height="125.109"/><text fill="#FFFFFF" font-family="Century Gothic,Century Gothic_MSFontService,sans-serif" font-weight="700" font-size="73" transform="matrix(1 0 0 1.00087 18.6402 469)">11<tspan font-size="47" x="81.982" y="0">E</tspan></text><rect x="155" y="132.115" width="594" height="368.32" stroke="#0D0D0D" stroke-width="1.99956" stroke-miterlimit="8" fill="#FFFFFF"/><text font-family="Arial,Arial_MSFontService,sans-serif" font-weight="400" font-size="33" transform="matrix(1 0 0 1.00087 162.946 168)">•<tspan font-family="Calibri,Calibri_MSFontService,sans-serif" font-size="33" x="35.9921" y="0">LANGUAGE SKILLS </tspan><tspan font-family="Calibri,Calibri_MSFontService,sans-serif" font-size="33" x="288.124" y="0">–</tspan><tspan font-family="Calibri,Calibri_MSFontService,sans-serif" font-size="33" x="312.285" y="0">critical focus</tspan><tspan font-size="33" x="0" y="39.9652">•</tspan><tspan font-family="Calibri,Calibri_MSFontService,sans-serif" font-size="33" x="35.9921" y="39.9652">Fire Safety Messages</tspan><tspan font-size="33" x="0" y="79.9304">•</tspan><tspan font-family="Calibri,Calibri_MSFontService,sans-serif" font-size="33" x="35.9921" y="79.9304">Parent involvement</tspan><tspan font-size="33" x="0" y="119.896">•</tspan><tspan font-family="Calibri,Calibri_MSFontService,sans-serif" font-size="33" x="35.9921" y="119.896">Community training</tspan><tspan font-size="33" x="0" y="159.861">•</tspan><tspan font-family="Calibri,Calibri_MSFontService,sans-serif" font-size="33" x="35.9921" y="159.861">Multi</tspan><tspan font-family="Calibri,Calibri_MSFontService,sans-serif" font-size="33" x="108.476" y="159.861">-</tspan><tspan font-family="Calibri,Calibri_MSFontService,sans-serif" font-size="33" x="118.641" y="159.861">sensory</tspan><tspan font-size="33" x="0" y="199.826">•</tspan><tspan font-family="Calibri,Calibri_MSFontService,sans-serif" font-size="33" x="35.9921" y="199.826">Visual, Auditory, Tactile Learning</tspan><tspan font-size="33" x="0" y="239.791">•</tspan><tspan font-family="Calibri,Calibri_MSFontService,sans-serif" font-size="33" x="35.9921" y="239.791">Practical hands on learning</tspan><tspan font-size="33" x="0" y="279.756">•</tspan><tspan font-family="Calibri,Calibri_MSFontService,sans-serif" font-size="33" x="35.9921" y="279.756">Cater for all learners with barriers to </tspan><tspan font-family="Calibri,Calibri_MSFontService,sans-serif" font-size="33" x="35.9921" y="319.722">learning.</tspan></text></g></svg>