<svg width="610" height="364" xmlns="http://www.w3.org/2000/svg" xmlns:xlink="http://www.w3.org/1999/xlink" overflow="hidden"><defs><clipPath id="clip0"><rect x="0" y="0" width="610" height="364"/></clipPath></defs><g clip-path="url(#clip0)"><rect x="0" y="0" width="610" height="363.667" fill="#FFFFFF" fill-opacity="0"/><rect x="3.50005" y="3.49685" width="604" height="358.672" stroke="#000000" stroke-width="3.33333" stroke-miterlimit="8" fill="none"/><text font-family="ABC Junior Typing,ABC Junior Typing_MSFontService,sans-serif" font-weight="700" font-size="48" transform="matrix(1 0 0 0.999085 158.425 56)">Researchers</text><rect x="8" y="231.788" width="124" height="124.886"/><text fill="#FFFFFF" font-family="Century Gothic,Century Gothic_MSFontService,sans-serif" font-weight="700" font-size="100" transform="matrix(1 0 0 0.999085 16.2546 332)">1<tspan font-size="73" x="56" y="0">D</tspan></text><path d="M153.108 131.326 377.774 131.326 377.774 244.079 153.108 244.079Z" fill="#FF0000" fill-rule="evenodd"/><path d="M377.774 131.326 602.441 131.326 602.441 244.079 377.774 244.079Z" fill="#00B0F0" fill-rule="evenodd"/><path d="M153.108 244.079 377.774 244.079 377.774 356.831 153.108 356.831Z" fill="#FFFF00" fill-rule="evenodd"/><path d="M377.774 244.079 602.441 244.079 602.441 356.831 377.774 356.831Z" fill-rule="evenodd"/><path d="M377.774 130.66 377.774 357.497" stroke="#000000" stroke-width="1.33333" stroke-linejoin="round" stroke-miterlimit="10" fill="none" fill-rule="evenodd"/><path d="M152.441 244.079 603.108 244.079" stroke="#000000" stroke-width="1.33333" stroke-linejoin="round" stroke-miterlimit="10" fill="none" fill-rule="evenodd"/><path d="M153.108 130.66 153.108 357.497" stroke="#000000" stroke-width="1.33333" stroke-linejoin="round" stroke-miterlimit="10" fill="none" fill-rule="evenodd"/><path d="M602.441 130.66 602.441 357.497" stroke="#000000" stroke-width="1.33333" stroke-linejoin="round" stroke-miterlimit="10" fill="none" fill-rule="evenodd"/><path d="M152.441 131.326 603.108 131.326" stroke="#000000" stroke-width="1.33333" stroke-linejoin="round" stroke-miterlimit="10" fill="none" fill-rule="evenodd"/><path d="M152.441 356.831 603.108 356.831" stroke="#000000" stroke-width="1.33333" stroke-linejoin="round" stroke-miterlimit="10" fill="none" fill-rule="evenodd"/><text font-family="Calibri,Calibri_MSFontService,sans-serif" font-weight="700" font-size="27" transform="matrix(1 0 0 0.999085 217.378 181)">NYBORG<tspan font-size="27" x="21.0667" y="32.0293">1993</tspan><tspan font-size="27" x="225.897" y="0">HANSEN</tspan><tspan font-size="27" x="245.73" y="32.0293">2009</tspan><tspan font-size="27" x="-10.8933" y="112.103">BENJAMIN</tspan><tspan font-size="27" x="21.0667" y="144.132">2005</tspan><tspan fill="#FFFFFF" font-size="27" x="216.69" y="112.103">STRYDOM</tspan><tspan fill="#FFFFFF" font-size="27" x="245.73" y="144.132">2021</tspan></text></g></svg>