<svg width="761" height="512" xmlns="http://www.w3.org/2000/svg" xmlns:xlink="http://www.w3.org/1999/xlink" overflow="hidden"><defs><clipPath id="clip0"><rect x="0" y="0" width="761" height="512"/></clipPath></defs><g clip-path="url(#clip0)"><rect x="0" y="0" width="761" height="512.446" fill="#FFFFFF" fill-opacity="0"/><rect x="3.50002" y="3.50307" width="755" height="506.44" stroke="#000000" stroke-width="3.3326" stroke-miterlimit="8" fill="none"/><text font-family="ABC Junior Typing,ABC Junior Typing_MSFontService,sans-serif" font-weight="700" font-size="53" transform="matrix(1 0 0 1.00087 218.185 65)">Researchers</text><rect x="9.00002" y="378.329" width="125" height="125.109"/><text fill="#FFFFFF" font-family="Century Gothic,Century Gothic_MSFontService,sans-serif" font-weight="700" font-size="73" transform="matrix(1 0 0 1.00087 34.97 469)">1<tspan font-size="47" x="40.991" y="0">D</tspan></text><path d="M155.966 179.411 452.52 179.411 452.52 340.182 155.966 340.182Z" fill="#FF0000" fill-rule="evenodd"/><path d="M452.52 179.411 749.075 179.411 749.075 340.182 452.52 340.182Z" fill="#00B0F0" fill-rule="evenodd"/><path d="M155.966 340.182 452.52 340.182 452.52 500.953 155.966 500.953Z" fill="#FFFF00" fill-rule="evenodd"/><path d="M452.52 340.182 749.075 340.182 749.075 500.953 452.52 500.953Z" fill-rule="evenodd"/><path d="M452.52 178.744 452.52 501.62" stroke="#000000" stroke-width="1.33304" stroke-linejoin="round" stroke-miterlimit="10" fill="none" fill-rule="evenodd"/><path d="M155.299 340.182 749.741 340.182" stroke="#000000" stroke-width="1.33304" stroke-linejoin="round" stroke-miterlimit="10" fill="none" fill-rule="evenodd"/><path d="M155.966 178.744 155.966 501.62" stroke="#000000" stroke-width="1.33304" stroke-linejoin="round" stroke-miterlimit="10" fill="none" fill-rule="evenodd"/><path d="M749.075 178.744 749.075 501.62" stroke="#000000" stroke-width="1.33304" stroke-linejoin="round" stroke-miterlimit="10" fill="none" fill-rule="evenodd"/><path d="M155.299 179.411 749.741 179.411" stroke="#000000" stroke-width="1.33304" stroke-linejoin="round" stroke-miterlimit="10" fill="none" fill-rule="evenodd"/><path d="M155.299 500.953 749.741 500.953" stroke="#000000" stroke-width="1.33304" stroke-linejoin="round" stroke-miterlimit="10" fill="none" fill-rule="evenodd"/><text font-family="Calibri,Calibri_MSFontService,sans-serif" font-weight="700" font-size="40" transform="matrix(1 0 0 1.00087 232.082 249)">NYBORG<tspan font-size="40" x="31.5064" y="47.9582">1993</tspan><tspan font-size="40" x="298.564" y="0">HANSEN</tspan><tspan font-size="40" x="328.058" y="47.9582">2009</tspan><tspan font-size="40" x="-16.2132" y="160.86">BENJAMIN</tspan><tspan font-size="40" x="31.5031" y="208.818">2005</tspan><tspan fill="#FFFFFF" font-size="40" x="284.717" y="160.86">STRYDOM</tspan><tspan fill="#FFFFFF" font-size="40" x="328.061" y="208.818">2021</tspan></text></g></svg>