<svg width="610" height="364" xmlns="http://www.w3.org/2000/svg" xmlns:xlink="http://www.w3.org/1999/xlink" overflow="hidden"><defs><clipPath id="clip0"><rect x="0" y="0" width="610" height="364"/></clipPath><clipPath id="clip1"><rect x="370" y="-32" width="78" height="403"/></clipPath><clipPath id="clip2"><rect x="370" y="41" width="78" height="404"/></clipPath><clipPath id="clip3"><rect x="370" y="114" width="78" height="404"/></clipPath></defs><g clip-path="url(#clip0)"><rect x="0" y="0" width="610" height="363.667" fill="#FFFFFF" fill-opacity="0"/><rect x="3.50005" y="3.49685" width="604" height="358.672" stroke="#000000" stroke-width="3.33333" stroke-miterlimit="8" fill="none"/><rect x="8" y="229.79" width="125" height="124.886"/><text fill="#FFFFFF" font-family="Century Gothic,Century Gothic_MSFontService,sans-serif" font-weight="700" font-size="100" transform="matrix(1 0 0 0.999085 21.3271 330)">2<tspan font-size="73" x="56" y="0">B</tspan><tspan fill="#000000" font-family="ABC Junior Typing,ABC Junior Typing_MSFontService,sans-serif" font-size="40" x="77.7762" y="-267.245">Basic Concept Colour</tspan><tspan fill="#000000" font-family="ABC Junior Typing,ABC Junior Typing_MSFontService,sans-serif" font-size="40" x="167.343" y="-207.19">Colour </tspan><tspan fill="#000000" font-family="ABC Junior Typing,ABC Junior Typing_MSFontService,sans-serif" font-size="40" x="307.676" y="-207.19">Sets</tspan></text><path d="M370.907 136.143 447.866 136.143 447.866 208.351 370.907 208.351Z" fill="#FF0000" fill-rule="evenodd"/><path d="M447.866 136.143 524.826 136.143 524.826 208.351 447.866 208.351Z" fill="#00B0F0" fill-rule="evenodd"/><path d="M524.826 136.143 601.785 136.143 601.785 208.351 524.826 208.351Z" fill="#FFFF66" fill-rule="evenodd"/><path d="M447.866 135.477 447.866 209.017" stroke="#000000" stroke-width="1.33333" stroke-linejoin="round" stroke-miterlimit="10" fill="none" fill-rule="evenodd"/><path d="M524.826 135.477 524.826 209.017" stroke="#000000" stroke-width="1.33333" stroke-linejoin="round" stroke-miterlimit="10" fill="none" fill-rule="evenodd"/><path d="M370.907 135.477 370.907 209.017" stroke="#000000" stroke-width="1.33333" stroke-linejoin="round" stroke-miterlimit="10" fill="none" fill-rule="evenodd"/><path d="M601.785 135.477 601.785 209.017" stroke="#000000" stroke-width="1.33333" stroke-linejoin="round" stroke-miterlimit="10" fill="none" fill-rule="evenodd"/><path d="M370.24 136.143 602.452 136.143" stroke="#000000" stroke-width="1.33333" stroke-linejoin="round" stroke-miterlimit="10" fill="none" fill-rule="evenodd"/><path d="M370.24 208.351 602.452 208.351" stroke="#000000" stroke-width="1.33333" stroke-linejoin="round" stroke-miterlimit="10" fill="none" fill-rule="evenodd"/><g clip-path="url(#clip1)"><text fill="#0D0D0D" font-family="Calibri,Calibri_MSFontService,sans-serif" font-weight="700" font-size="48" transform="matrix(1 0 0 0.999085 397.22 186)">1</text></g><path d="M370.907 209.829 447.866 209.829 447.866 281.952 370.907 281.952Z" fill="#00FF00" fill-rule="evenodd"/><path d="M447.866 209.829 524.826 209.829 524.826 281.952 447.866 281.952Z" fill="#FF9933" fill-rule="evenodd"/><path d="M524.826 209.829 601.785 209.829 601.785 281.952 524.826 281.952Z" fill="#CC66FF" fill-rule="evenodd"/><path d="M447.866 209.163 447.866 282.618" stroke="#000000" stroke-width="1.33333" stroke-linejoin="round" stroke-miterlimit="10" fill="none" fill-rule="evenodd"/><path d="M524.826 209.163 524.826 282.618" stroke="#000000" stroke-width="1.33333" stroke-linejoin="round" stroke-miterlimit="10" fill="none" fill-rule="evenodd"/><path d="M370.907 209.163 370.907 282.618" stroke="#000000" stroke-width="1.33333" stroke-linejoin="round" stroke-miterlimit="10" fill="none" fill-rule="evenodd"/><path d="M601.785 209.163 601.785 282.618" stroke="#000000" stroke-width="1.33333" stroke-linejoin="round" stroke-miterlimit="10" fill="none" fill-rule="evenodd"/><path d="M370.24 209.829 602.452 209.829" stroke="#000000" stroke-width="1.33333" stroke-linejoin="round" stroke-miterlimit="10" fill="none" fill-rule="evenodd"/><path d="M370.24 281.952 602.452 281.952" stroke="#000000" stroke-width="1.33333" stroke-linejoin="round" stroke-miterlimit="10" fill="none" fill-rule="evenodd"/><g clip-path="url(#clip2)"><text fill="#0D0D0D" font-family="Calibri,Calibri_MSFontService,sans-serif" font-weight="700" font-size="48" transform="matrix(1 0 0 0.999085 397.22 259)">2</text></g><path d="M370.907 282.691 447.866 282.691 447.866 354.899 370.907 354.899Z" fill="#FFE07D" fill-rule="evenodd"/><path d="M447.866 282.691 524.826 282.691 524.826 354.899 447.866 354.899Z" fill="#D9D9D9" fill-rule="evenodd"/><path d="M524.826 282.691 601.785 282.691 601.785 354.899 524.826 354.899Z" fill="#FF99FF" fill-rule="evenodd"/><path d="M447.866 282.025 447.866 355.565" stroke="#000000" stroke-width="1.33333" stroke-linejoin="round" stroke-miterlimit="10" fill="none" fill-rule="evenodd"/><path d="M524.826 282.025 524.826 355.565" stroke="#000000" stroke-width="1.33333" stroke-linejoin="round" stroke-miterlimit="10" fill="none" fill-rule="evenodd"/><path d="M370.907 282.025 370.907 355.565" stroke="#000000" stroke-width="1.33333" stroke-linejoin="round" stroke-miterlimit="10" fill="none" fill-rule="evenodd"/><path d="M601.785 282.025 601.785 355.565" stroke="#000000" stroke-width="1.33333" stroke-linejoin="round" stroke-miterlimit="10" fill="none" fill-rule="evenodd"/><path d="M370.24 282.691 602.452 282.691" stroke="#000000" stroke-width="1.33333" stroke-linejoin="round" stroke-miterlimit="10" fill="none" fill-rule="evenodd"/><path d="M370.24 354.899 602.452 354.899" stroke="#000000" stroke-width="1.33333" stroke-linejoin="round" stroke-miterlimit="10" fill="none" fill-rule="evenodd"/><g clip-path="url(#clip3)"><text fill="#0D0D0D" font-family="Calibri,Calibri_MSFontService,sans-serif" font-weight="700" font-size="48" transform="matrix(1 0 0 0.999085 397.22 332)">3</text></g></g></svg>