<svg width="761" height="512" xmlns="http://www.w3.org/2000/svg" xmlns:xlink="http://www.w3.org/1999/xlink" overflow="hidden"><defs><clipPath id="clip0"><rect x="0" y="0" width="761" height="512"/></clipPath></defs><g clip-path="url(#clip0)"><rect x="0" y="0" width="761" height="512.446" fill="#FFFFFF" fill-opacity="0"/><path d="M311.226 174.467 457.176 174.467 457.176 283.798 311.226 283.798Z" fill="#FF0000" fill-rule="evenodd"/><path d="M457.176 174.467 603.125 174.467 603.125 283.798 457.176 283.798Z" fill="#00B0F0" fill-rule="evenodd"/><path d="M603.125 174.467 749.075 174.467 749.075 283.798 603.125 283.798Z" fill="#FFFF66" fill-rule="evenodd"/><path d="M457.176 173.8 457.176 284.465" stroke="#000000" stroke-width="1.33304" stroke-linejoin="round" stroke-miterlimit="10" fill="none" fill-rule="evenodd"/><path d="M603.125 173.8 603.125 284.465" stroke="#000000" stroke-width="1.33304" stroke-linejoin="round" stroke-miterlimit="10" fill="none" fill-rule="evenodd"/><path d="M311.226 173.8 311.226 284.465" stroke="#000000" stroke-width="1.33304" stroke-linejoin="round" stroke-miterlimit="10" fill="none" fill-rule="evenodd"/><path d="M749.075 173.8 749.075 284.465" stroke="#000000" stroke-width="1.33304" stroke-linejoin="round" stroke-miterlimit="10" fill="none" fill-rule="evenodd"/><path d="M310.559 174.467 749.741 174.467" stroke="#000000" stroke-width="1.33304" stroke-linejoin="round" stroke-miterlimit="10" fill="none" fill-rule="evenodd"/><path d="M310.559 283.798 749.741 283.798" stroke="#000000" stroke-width="1.33304" stroke-linejoin="round" stroke-miterlimit="10" fill="none" fill-rule="evenodd"/><text fill="#0D0D0D" font-family="Calibri,Calibri_MSFontService,sans-serif" font-weight="700" font-size="48" transform="matrix(1 0 0 1.00087 372.037 246)">1</text><path d="M311.226 283.243 457.176 283.243 457.176 392.573 311.226 392.573Z" fill="#00FF00" fill-rule="evenodd"/><path d="M457.176 283.243 603.125 283.243 603.125 392.573 457.176 392.573Z" fill="#FF9933" fill-rule="evenodd"/><path d="M603.125 283.243 749.075 283.243 749.075 392.573 603.125 392.573Z" fill="#CC66FF" fill-rule="evenodd"/><path d="M457.176 282.575 457.176 393.24" stroke="#000000" stroke-width="1.33304" stroke-linejoin="round" stroke-miterlimit="10" fill="none" fill-rule="evenodd"/><path d="M603.125 282.575 603.125 393.24" stroke="#000000" stroke-width="1.33304" stroke-linejoin="round" stroke-miterlimit="10" fill="none" fill-rule="evenodd"/><path d="M311.226 282.575 311.226 393.24" stroke="#000000" stroke-width="1.33304" stroke-linejoin="round" stroke-miterlimit="10" fill="none" fill-rule="evenodd"/><path d="M749.075 282.575 749.075 393.24" stroke="#000000" stroke-width="1.33304" stroke-linejoin="round" stroke-miterlimit="10" fill="none" fill-rule="evenodd"/><path d="M310.559 283.243 749.741 283.243" stroke="#000000" stroke-width="1.33304" stroke-linejoin="round" stroke-miterlimit="10" fill="none" fill-rule="evenodd"/><path d="M310.559 392.573 749.741 392.573" stroke="#000000" stroke-width="1.33304" stroke-linejoin="round" stroke-miterlimit="10" fill="none" fill-rule="evenodd"/><text fill="#0D0D0D" font-family="Calibri,Calibri_MSFontService,sans-serif" font-weight="700" font-size="48" transform="matrix(1 0 0 1.00087 372.037 354)">2</text><path d="M311.226 391.622 457.176 391.622 457.176 500.952 311.226 500.952Z" fill="#FFE07D" fill-rule="evenodd"/><path d="M457.176 391.622 603.125 391.622 603.125 500.952 457.176 500.952Z" fill="#D9D9D9" fill-rule="evenodd"/><path d="M603.125 391.622 749.075 391.622 749.075 500.952 603.125 500.952Z" fill="#FF99FF" fill-rule="evenodd"/><path d="M457.176 390.955 457.176 501.619" stroke="#000000" stroke-width="1.33304" stroke-linejoin="round" stroke-miterlimit="10" fill="none" fill-rule="evenodd"/><path d="M603.125 390.955 603.125 501.619" stroke="#000000" stroke-width="1.33304" stroke-linejoin="round" stroke-miterlimit="10" fill="none" fill-rule="evenodd"/><path d="M311.226 390.955 311.226 501.619" stroke="#000000" stroke-width="1.33304" stroke-linejoin="round" stroke-miterlimit="10" fill="none" fill-rule="evenodd"/><path d="M749.075 390.955 749.075 501.619" stroke="#000000" stroke-width="1.33304" stroke-linejoin="round" stroke-miterlimit="10" fill="none" fill-rule="evenodd"/><path d="M310.559 391.622 749.742 391.622" stroke="#000000" stroke-width="1.33304" stroke-linejoin="round" stroke-miterlimit="10" fill="none" fill-rule="evenodd"/><path d="M310.559 500.952 749.742 500.952" stroke="#000000" stroke-width="1.33304" stroke-linejoin="round" stroke-miterlimit="10" fill="none" fill-rule="evenodd"/><text fill="#0D0D0D" font-family="Calibri,Calibri_MSFontService,sans-serif" font-weight="700" font-size="48" transform="matrix(1 0 0 1.00087 372.037 463)">3</text><rect x="3.50002" y="3.50307" width="755" height="506.44" stroke="#000000" stroke-width="3.3326" stroke-miterlimit="8" fill="none"/><text font-family="ABC Junior Typing,ABC Junior Typing_MSFontService,sans-serif" font-weight="700" font-size="53" transform="matrix(1 0 0 1.00087 217.852 65)">Colour Sets</text><rect x="9.00002" y="378.329" width="125" height="125.109"/><text fill="#FFFFFF" font-family="Century Gothic,Century Gothic_MSFontService,sans-serif" font-weight="700" font-size="73" transform="matrix(1 0 0 1.00087 37.8027 469)">2<tspan font-size="47" x="40.991" y="0">B</tspan></text></g></svg>