<svg width="610" height="364" xmlns="http://www.w3.org/2000/svg" xmlns:xlink="http://www.w3.org/1999/xlink" overflow="hidden"><defs><clipPath id="clip0"><rect x="0" y="0" width="610" height="364"/></clipPath></defs><g clip-path="url(#clip0)"><rect x="0" y="0" width="610" height="363.667" fill="#FFFFFF" fill-opacity="0"/><rect x="3.50005" y="3.49685" width="604" height="358.672" stroke="#000000" stroke-width="3.33333" stroke-miterlimit="8" fill="none"/><rect x="8" y="229.79" width="125" height="124.886"/><text fill="#FFFFFF" font-family="Century Gothic,Century Gothic_MSFontService,sans-serif" font-weight="700" font-size="100" transform="matrix(1 0 0 0.999085 13.9938 330)">2<tspan font-size="73" x="56" y="0">C</tspan><tspan fill="#000000" font-family="ABC Junior Typing,ABC Junior Typing_MSFontService,sans-serif" font-size="40" x="85.1096" y="-267.245">Basic Concept Colour</tspan><tspan fill="#000000" font-family="ABC Junior Typing,ABC Junior Typing_MSFontService,sans-serif" font-size="40" x="163.923" y="-207.19">Colour </tspan><tspan fill="#000000" font-family="ABC Junior Typing,ABC Junior Typing_MSFontService,sans-serif" font-size="40" x="304.256" y="-207.19">Blocks</tspan></text><path d="M181.521 170.648 313.863 170.648 313.863 232.279 181.521 232.279Z" fill="#FF0000" fill-rule="evenodd"/><path d="M181.521 232.279 313.863 232.279 313.863 293.909 181.521 293.909Z" fill="#00B0F0" fill-rule="evenodd"/><path d="M181.521 293.909 313.863 293.909 313.863 355.54 181.521 355.54Z" fill="#FFFF66" fill-rule="evenodd"/><path d="M179.521 232.279 315.863 232.279" stroke="#000000" stroke-width="4" stroke-linejoin="round" stroke-miterlimit="10" fill="none" fill-rule="evenodd"/><path d="M179.521 293.909 315.863 293.909" stroke="#000000" stroke-width="4" stroke-linejoin="round" stroke-miterlimit="10" fill="none" fill-rule="evenodd"/><path d="M181.521 168.65 181.521 357.538" stroke="#000000" stroke-width="4" stroke-linejoin="round" stroke-miterlimit="10" fill="none" fill-rule="evenodd"/><path d="M313.863 168.65 313.863 357.538" stroke="#000000" stroke-width="4" stroke-linejoin="round" stroke-miterlimit="10" fill="none" fill-rule="evenodd"/><path d="M179.521 170.648 315.863 170.648" stroke="#000000" stroke-width="4" stroke-linejoin="round" stroke-miterlimit="10" fill="none" fill-rule="evenodd"/><path d="M179.521 355.54 315.863 355.54" stroke="#000000" stroke-width="4" stroke-linejoin="round" stroke-miterlimit="10" fill="none" fill-rule="evenodd"/><text fill="#0D0D0D" font-family="Calibri,Calibri_MSFontService,sans-serif" font-weight="700" font-size="37" transform="matrix(1 0 0 0.999085 238.192 210)">1</text><path d="M324.692 170.648 457.035 170.648 457.035 232.279 324.692 232.279Z" fill="#00FF00" fill-rule="evenodd"/><path d="M324.692 232.279 457.035 232.279 457.035 293.909 324.692 293.909Z" fill="#FF9933" fill-rule="evenodd"/><path d="M324.692 293.909 457.035 293.909 457.035 355.54 324.692 355.54Z" fill="#CC66FF" fill-rule="evenodd"/><path d="M322.692 232.279 459.035 232.279" stroke="#000000" stroke-width="4" stroke-linejoin="round" stroke-miterlimit="10" fill="none" fill-rule="evenodd"/><path d="M322.692 293.909 459.035 293.909" stroke="#000000" stroke-width="4" stroke-linejoin="round" stroke-miterlimit="10" fill="none" fill-rule="evenodd"/><path d="M324.692 168.65 324.692 357.538" stroke="#000000" stroke-width="4" stroke-linejoin="round" stroke-miterlimit="10" fill="none" fill-rule="evenodd"/><path d="M457.035 168.65 457.035 357.538" stroke="#000000" stroke-width="4" stroke-linejoin="round" stroke-miterlimit="10" fill="none" fill-rule="evenodd"/><path d="M322.692 170.648 459.035 170.648" stroke="#000000" stroke-width="4" stroke-linejoin="round" stroke-miterlimit="10" fill="none" fill-rule="evenodd"/><path d="M322.692 355.54 459.035 355.54" stroke="#000000" stroke-width="4" stroke-linejoin="round" stroke-miterlimit="10" fill="none" fill-rule="evenodd"/><text fill="#0D0D0D" font-family="Calibri,Calibri_MSFontService,sans-serif" font-weight="700" font-size="37" transform="matrix(1 0 0 0.999085 381.363 210)">2</text><path d="M468.932 170.648 601.275 170.648 601.275 232.279 468.932 232.279Z" fill="#FFCC00" fill-rule="evenodd"/><path d="M468.932 232.279 601.275 232.279 601.275 293.909 468.932 293.909Z" fill="#A6A6A6" fill-rule="evenodd"/><path d="M468.932 293.909 601.275 293.909 601.275 355.54 468.932 355.54Z" fill="#FF99FF" fill-rule="evenodd"/><path d="M466.932 232.279 603.275 232.279" stroke="#000000" stroke-width="4" stroke-linejoin="round" stroke-miterlimit="10" fill="none" fill-rule="evenodd"/><path d="M466.932 293.909 603.275 293.909" stroke="#000000" stroke-width="4" stroke-linejoin="round" stroke-miterlimit="10" fill="none" fill-rule="evenodd"/><path d="M468.932 168.65 468.932 357.538" stroke="#000000" stroke-width="4" stroke-linejoin="round" stroke-miterlimit="10" fill="none" fill-rule="evenodd"/><path d="M601.275 168.65 601.275 357.538" stroke="#000000" stroke-width="4" stroke-linejoin="round" stroke-miterlimit="10" fill="none" fill-rule="evenodd"/><path d="M466.932 170.648 603.275 170.648" stroke="#000000" stroke-width="4" stroke-linejoin="round" stroke-miterlimit="10" fill="none" fill-rule="evenodd"/><path d="M466.932 355.54 603.275 355.54" stroke="#000000" stroke-width="4" stroke-linejoin="round" stroke-miterlimit="10" fill="none" fill-rule="evenodd"/><text fill="#0D0D0D" font-family="Calibri,Calibri_MSFontService,sans-serif" font-weight="700" font-size="37" transform="matrix(1 0 0 0.999085 525.604 210)">3</text></g></svg>