<svg width="761" height="512" xmlns="http://www.w3.org/2000/svg" xmlns:xlink="http://www.w3.org/1999/xlink" overflow="hidden"><defs><clipPath id="clip0"><rect x="0" y="0" width="761" height="512"/></clipPath></defs><g clip-path="url(#clip0)"><rect x="0" y="0" width="761" height="512.446" fill="#FFFFFF" fill-opacity="0"/><path d="M281.106 180.117 428.466 180.117 428.466 287.062 281.106 287.062Z" fill="#FF0000" fill-rule="evenodd"/><path d="M281.106 287.062 428.466 287.062 428.466 394.008 281.106 394.008Z" fill="#00B0F0" fill-rule="evenodd"/><path d="M281.106 394.008 428.466 394.008 428.466 500.953 281.106 500.953Z" fill="#FFFF66" fill-rule="evenodd"/><path d="M279.106 287.062 430.465 287.062" stroke="#000000" stroke-width="3.99912" stroke-linejoin="round" stroke-miterlimit="10" fill="none" fill-rule="evenodd"/><path d="M279.106 394.008 430.465 394.008" stroke="#000000" stroke-width="3.99912" stroke-linejoin="round" stroke-miterlimit="10" fill="none" fill-rule="evenodd"/><path d="M281.106 178.116 281.106 502.954" stroke="#000000" stroke-width="3.99912" stroke-linejoin="round" stroke-miterlimit="10" fill="none" fill-rule="evenodd"/><path d="M428.466 178.116 428.466 502.954" stroke="#000000" stroke-width="3.99912" stroke-linejoin="round" stroke-miterlimit="10" fill="none" fill-rule="evenodd"/><path d="M279.106 180.117 430.465 180.117" stroke="#000000" stroke-width="3.99912" stroke-linejoin="round" stroke-miterlimit="10" fill="none" fill-rule="evenodd"/><path d="M279.106 500.953 430.465 500.953" stroke="#000000" stroke-width="3.99912" stroke-linejoin="round" stroke-miterlimit="10" fill="none" fill-rule="evenodd"/><text fill="#0D0D0D" font-family="Calibri,Calibri_MSFontService,sans-serif" font-weight="700" font-size="48" transform="matrix(1 0 0 1.00087 342.622 250)">1</text><path d="M441.924 180.117 589.284 180.117 589.284 287.062 441.924 287.062Z" fill="#00FF00" fill-rule="evenodd"/><path d="M441.924 287.062 589.284 287.062 589.284 394.007 441.924 394.007Z" fill="#FF9933" fill-rule="evenodd"/><path d="M441.924 394.007 589.284 394.007 589.284 500.952 441.924 500.952Z" fill="#CC66FF" fill-rule="evenodd"/><path d="M439.924 287.062 591.284 287.062" stroke="#000000" stroke-width="3.99912" stroke-linejoin="round" stroke-miterlimit="10" fill="none" fill-rule="evenodd"/><path d="M439.924 394.007 591.284 394.007" stroke="#000000" stroke-width="3.99912" stroke-linejoin="round" stroke-miterlimit="10" fill="none" fill-rule="evenodd"/><path d="M441.924 178.116 441.924 502.954" stroke="#000000" stroke-width="3.99912" stroke-linejoin="round" stroke-miterlimit="10" fill="none" fill-rule="evenodd"/><path d="M589.284 178.116 589.284 502.954" stroke="#000000" stroke-width="3.99912" stroke-linejoin="round" stroke-miterlimit="10" fill="none" fill-rule="evenodd"/><path d="M439.924 180.117 591.284 180.117" stroke="#000000" stroke-width="3.99912" stroke-linejoin="round" stroke-miterlimit="10" fill="none" fill-rule="evenodd"/><path d="M439.924 500.952 591.284 500.952" stroke="#000000" stroke-width="3.99912" stroke-linejoin="round" stroke-miterlimit="10" fill="none" fill-rule="evenodd"/><text fill="#0D0D0D" font-family="Calibri,Calibri_MSFontService,sans-serif" font-weight="700" font-size="48" transform="matrix(1 0 0 1.00087 503.44 250)">2</text><path d="M601.986 180.117 749.346 180.117 749.346 287.062 601.986 287.062Z" fill="#FFCC00" fill-rule="evenodd"/><path d="M601.986 287.062 749.346 287.062 749.346 394.007 601.986 394.007Z" fill="#A6A6A6" fill-rule="evenodd"/><path d="M601.986 394.007 749.346 394.007 749.346 500.952 601.986 500.952Z" fill="#FF99FF" fill-rule="evenodd"/><path d="M599.987 287.062 751.346 287.062" stroke="#000000" stroke-width="3.99912" stroke-linejoin="round" stroke-miterlimit="10" fill="none" fill-rule="evenodd"/><path d="M599.987 394.007 751.346 394.007" stroke="#000000" stroke-width="3.99912" stroke-linejoin="round" stroke-miterlimit="10" fill="none" fill-rule="evenodd"/><path d="M601.986 178.116 601.986 502.954" stroke="#000000" stroke-width="3.99912" stroke-linejoin="round" stroke-miterlimit="10" fill="none" fill-rule="evenodd"/><path d="M749.346 178.116 749.346 502.954" stroke="#000000" stroke-width="3.99912" stroke-linejoin="round" stroke-miterlimit="10" fill="none" fill-rule="evenodd"/><path d="M599.987 180.117 751.346 180.117" stroke="#000000" stroke-width="3.99912" stroke-linejoin="round" stroke-miterlimit="10" fill="none" fill-rule="evenodd"/><path d="M599.987 500.952 751.346 500.952" stroke="#000000" stroke-width="3.99912" stroke-linejoin="round" stroke-miterlimit="10" fill="none" fill-rule="evenodd"/><text fill="#0D0D0D" font-family="Calibri,Calibri_MSFontService,sans-serif" font-weight="700" font-size="48" transform="matrix(1 0 0 1.00087 663.502 250)">3</text><rect x="3.50002" y="3.50307" width="755" height="506.44" stroke="#000000" stroke-width="3.3326" stroke-miterlimit="8" fill="none"/><text font-family="ABC Junior Typing,ABC Junior Typing_MSFontService,sans-serif" font-weight="700" font-size="53" transform="matrix(1 0 0 1.00087 202.272 65)">Colour Blocks</text><rect x="9.00002" y="378.329" width="125" height="125.109"/><text fill="#FFFFFF" font-family="Century Gothic,Century Gothic_MSFontService,sans-serif" font-weight="700" font-size="73" transform="matrix(1 0 0 1.00087 36.3864 469)">2<tspan font-size="47" x="40.991" y="0">c</tspan></text></g></svg>