<svg width="761" height="512" xmlns="http://www.w3.org/2000/svg" xmlns:xlink="http://www.w3.org/1999/xlink" overflow="hidden"><defs><clipPath id="clip0"><rect x="0" y="0" width="761" height="512"/></clipPath></defs><g clip-path="url(#clip0)"><rect x="0" y="0" width="761" height="512.446" fill="#FFFFFF" fill-opacity="0"/><rect x="156" y="263.229" width="593" height="237.206" stroke="#000000" stroke-width="1.99956" stroke-miterlimit="8" fill="#FFFFFF"/><rect x="169" y="283.246" width="143" height="195.17" stroke="#0D0D0D" stroke-width="1.99956" stroke-miterlimit="8" fill="#00B0F0"/><rect x="326.5" y="281.745" width="143" height="195.17" stroke="#2F528F" stroke-width="1.33304" stroke-miterlimit="8"/><rect x="645" y="283.246" width="71" height="68.0592" stroke="#000000" stroke-width="1.99956" stroke-miterlimit="8" fill="#00B0F0"/><rect x="645" y="405.353" width="71" height="69.0601" stroke="#000000" stroke-width="1.99956" stroke-miterlimit="8"/><rect x="645.5" y="429.874" width="71" height="22.0192" stroke="#2F528F" stroke-width="1.33304" stroke-miterlimit="8" fill="#FFFFFF"/><text font-family="Calibri,Calibri_MSFontService,sans-serif" font-weight="400" font-size="19" transform="matrix(1 0 0 1.00087 663.581 447)">blue</text><rect x="508" y="405.353" width="116" height="47.0409" stroke="#000000" stroke-width="1.99956" stroke-miterlimit="8" fill="#FFFFFF"/><text font-family="Calibri,Calibri_MSFontService,sans-serif" font-weight="700" font-size="21" transform="matrix(1 0 0 1.00087 545.26 437)">back</text><rect x="497" y="284.247" width="127" height="47.0409" stroke="#000000" stroke-width="1.99956" stroke-miterlimit="8" fill="#FFFFFF"/><text font-family="Calibri,Calibri_MSFontService,sans-serif" font-weight="700" font-size="21" transform="matrix(1 0 0 1.00087 538.308 315)">front</text><rect x="3.50002" y="3.50307" width="755" height="506.44" stroke="#000000" stroke-width="3.3326" stroke-miterlimit="8" fill="none"/><text font-family="ABC Junior Typing,ABC Junior Typing_MSFontService,sans-serif" font-weight="700" font-size="53" transform="matrix(1 0 0 1.00087 202.105 65)">Colour Cards</text><rect x="9.00002" y="378.329" width="125" height="125.109"/><text fill="#FFFFFF" font-family="Century Gothic,Century Gothic_MSFontService,sans-serif" font-weight="700" font-size="73" transform="matrix(1 0 0 1.00087 34.97 469)">2<tspan font-size="47" x="40.991" y="0">D</tspan></text></g></svg>