<svg width="610" height="364" xmlns="http://www.w3.org/2000/svg" xmlns:xlink="http://www.w3.org/1999/xlink" overflow="hidden"><defs><clipPath id="clip0"><rect x="0" y="0" width="610" height="364"/></clipPath></defs><g clip-path="url(#clip0)"><rect x="0" y="0" width="610" height="363.667" fill="#FFFFFF" fill-opacity="0"/><rect x="3.50005" y="3.49685" width="604" height="358.672" stroke="#000000" stroke-width="3.33333" stroke-miterlimit="8" fill="none"/><text font-family="ABC Junior Typing,ABC Junior Typing_MSFontService,sans-serif" font-weight="700" font-size="48" transform="matrix(1 0 0 0.999085 230.088 56)">Colour<tspan font-size="48" x="-78.2467" y="69.0632">Colour Cards</tspan></text><rect x="8" y="229.79" width="125" height="124.886"/><text fill="#FFFFFF" font-family="Century Gothic,Century Gothic_MSFontService,sans-serif" font-weight="700" font-size="100" transform="matrix(1 0 0 0.999085 16.9104 330)">2<tspan font-size="73" x="56" y="0">D</tspan></text><rect x="146" y="172.842" width="456" height="181.833" stroke="#000000" stroke-width="2" stroke-miterlimit="8" fill="#FFFFFF"/><rect x="156" y="187.828" width="110" height="149.863" stroke="#0D0D0D" stroke-width="2" stroke-miterlimit="8" fill="#00B0F0"/><path d="M211 187.828 211 335.936" stroke="#0D0D0D" stroke-width="2" stroke-miterlimit="8" fill="none" fill-rule="evenodd"/><path d="M264.606 241.926 155 241.779" stroke="#0D0D0D" stroke-width="2" stroke-miterlimit="8" fill="none" fill-rule="evenodd"/><path d="M264.606 290.881 155 290.734" stroke="#0D0D0D" stroke-width="2" stroke-miterlimit="8" fill="none" fill-rule="evenodd"/><rect x="277.5" y="187.329" width="110" height="149.863" stroke="#2F528F" stroke-width="1.33333" stroke-miterlimit="8"/><rect x="522" y="187.828" width="54" height="52.9515" stroke="#000000" stroke-width="2" stroke-miterlimit="8" fill="#00B0F0"/><rect x="522" y="281.742" width="54" height="52.9515" stroke="#000000" stroke-width="2" stroke-miterlimit="8"/><rect x="522.5" y="301.224" width="54" height="16.9844" stroke="#2F528F" stroke-width="1.33333" stroke-miterlimit="8" fill="#FFFFFF"/><text font-family="Calibri,Calibri_MSFontService,sans-serif" font-weight="400" font-size="19" transform="matrix(1 0 0 0.999085 532.2 315)">blue</text><rect x="416" y="281.742" width="90" height="36.9662" stroke="#000000" stroke-width="2" stroke-miterlimit="8" fill="#FFFFFF"/><text font-family="Calibri,Calibri_MSFontService,sans-serif" font-weight="700" font-size="21" transform="matrix(1 0 0 0.999085 440.393 307)">back</text><rect x="408" y="188.827" width="98" height="35.9671" stroke="#000000" stroke-width="2" stroke-miterlimit="8" fill="#FFFFFF"/><text font-family="Calibri,Calibri_MSFontService,sans-serif" font-weight="700" font-size="21" transform="matrix(1 0 0 0.999085 434.68 214)">front</text></g></svg>