<svg width="610" height="364" xmlns="http://www.w3.org/2000/svg" xmlns:xlink="http://www.w3.org/1999/xlink" overflow="hidden"><defs><clipPath id="clip0"><rect x="0" y="0" width="610" height="364"/></clipPath></defs><g clip-path="url(#clip0)"><rect x="0" y="0" width="610" height="363.667" fill="#FFFFFF" fill-opacity="0"/><rect x="3.50005" y="3.49685" width="604" height="358.672" stroke="#000000" stroke-width="3.33333" stroke-miterlimit="8" fill="none"/><rect x="8" y="229.79" width="125" height="124.886"/><text fill="#FFFFFF" font-family="Century Gothic,Century Gothic_MSFontService,sans-serif" font-weight="700" font-size="100" transform="matrix(1 0 0 0.999085 16.9104 330)">2<tspan font-size="73" x="56" y="0">D</tspan><tspan fill="#000000" font-family="ABC Junior Typing,ABC Junior Typing_MSFontService,sans-serif" font-size="40" x="159.84" y="-279.255">Colour Set 2</tspan><tspan fill="#000000" font-family="ABC Junior Typing,ABC Junior Typing_MSFontService,sans-serif" font-size="40" x="162.006" y="-231.212">Colour Mixing</tspan></text><rect x="148" y="248.772" width="454" height="105.903" stroke="#000000" stroke-width="2" stroke-linejoin="round" stroke-miterlimit="10" fill="none"/><rect x="150" y="251.769" width="109" height="100.908" stroke="#FF0000" stroke-width="2" stroke-miterlimit="8" fill="#FF0000"/><rect x="320" y="251.769" width="109" height="100.908" stroke="#00B0F0" stroke-width="2" stroke-miterlimit="8" fill="#00B0F0"/><rect x="491" y="251.769" width="109" height="100.908" stroke="#CC66FF" stroke-width="2" stroke-miterlimit="8" fill="#CC66FF"/><rect x="271" y="283.74" width="36" height="35.9671" stroke="#FFFFFF" stroke-width="2" stroke-miterlimit="8" fill="#FFFFFF"/><text font-family="Calibri,Calibri_MSFontService,sans-serif" font-weight="400" font-size="53" transform="matrix(1 0 0 0.999085 275.852 319)">+</text><path d="M448.977 294.674 471.023 294.674 471.023 300.314 448.977 300.314ZM448.977 303.134 471.023 303.134 471.023 308.773 448.977 308.773Z" stroke="#000000" stroke-width="2" stroke-miterlimit="8" fill-rule="evenodd"/></g></svg>