<svg width="610" height="364" xmlns="http://www.w3.org/2000/svg" xmlns:xlink="http://www.w3.org/1999/xlink" overflow="hidden"><defs><clipPath id="clip0"><rect x="0" y="0" width="610" height="364"/></clipPath></defs><g clip-path="url(#clip0)"><rect x="0" y="0" width="610" height="363.667" fill="#FFFFFF" fill-opacity="0"/><rect x="3.50005" y="3.49685" width="604" height="358.672" stroke="#000000" stroke-width="3.33333" stroke-miterlimit="8" fill="none"/><text font-family="ABC Junior Typing,ABC Junior Typing_MSFontService,sans-serif" font-weight="700" font-size="48" transform="matrix(1 0 0 0.999085 230.088 56)">Colour<tspan font-size="48" x="-146.58" y="69.0632">BTP Colour Flowers</tspan></text><rect x="8" y="229.79" width="125" height="124.886"/><text fill="#FFFFFF" font-family="Century Gothic,Century Gothic_MSFontService,sans-serif" font-weight="700" font-size="100" transform="matrix(1 0 0 0.999085 11.7437 330)">2<tspan font-size="73" x="56" y="0">G</tspan></text><rect x="380" y="133.877" width="221" height="220.798" stroke="#000000" stroke-width="2" stroke-miterlimit="8" fill="#FFFFCC"/><path d="M393 165.349C393 157.348 399.268 150.862 407 150.862 414.732 150.862 421 157.348 421 165.349 421 173.349 414.732 179.835 407 179.835 399.268 179.835 393 173.349 393 165.349Z" stroke="#000000" stroke-width="2" stroke-miterlimit="8" fill="#FF0000" fill-rule="evenodd"/><path d="M423 165.349C423 157.348 429.492 150.862 437.5 150.862 445.508 150.862 452 157.348 452 165.349 452 173.349 445.508 179.835 437.5 179.835 429.492 179.835 423 173.349 423 165.349Z" stroke="#000000" stroke-width="2" stroke-miterlimit="8" fill="#FF0000" fill-rule="evenodd"/><path d="M393 194.322C393 186.321 399.268 179.835 407 179.835 414.732 179.835 421 186.321 421 194.322 421 202.323 414.732 208.809 407 208.809 399.268 208.809 393 202.323 393 194.322Z" stroke="#000000" stroke-width="2" stroke-miterlimit="8" fill="#FF0000" fill-rule="evenodd"/><path d="M423 194.322C423 186.321 429.492 179.835 437.5 179.835 445.508 179.835 452 186.321 452 194.322 452 202.323 445.508 208.809 437.5 208.809 429.492 208.809 423 202.323 423 194.322Z" stroke="#000000" stroke-width="2" stroke-miterlimit="8" fill="#FF0000" fill-rule="evenodd"/><path d="M407 179.336C407 171.335 413.492 164.849 421.5 164.849 429.508 164.849 436 171.335 436 179.336 436 187.337 429.508 193.823 421.5 193.823 413.492 193.823 407 187.337 407 179.336Z" stroke="#000000" stroke-width="2" stroke-miterlimit="8" fill="#FF0000" fill-rule="evenodd"/><path d="M461 165.349C461 157.348 467.268 150.862 475 150.862 482.732 150.862 489 157.348 489 165.349 489 173.349 482.732 179.835 475 179.835 467.268 179.835 461 173.349 461 165.349Z" stroke="#000000" stroke-width="2" stroke-miterlimit="8" fill="#00B0F0" fill-rule="evenodd"/><path d="M491 165.349C491 157.348 497.268 150.862 505 150.862 512.732 150.862 519 157.348 519 165.349 519 173.349 512.732 179.835 505 179.835 497.268 179.835 491 173.349 491 165.349Z" stroke="#000000" stroke-width="2" stroke-miterlimit="8" fill="#00B0F0" fill-rule="evenodd"/><path d="M461 194.322C461 186.321 467.268 179.835 475 179.835 482.732 179.835 489 186.321 489 194.322 489 202.323 482.732 208.809 475 208.809 467.268 208.809 461 202.323 461 194.322Z" stroke="#000000" stroke-width="2" stroke-miterlimit="8" fill="#00B0F0" fill-rule="evenodd"/><path d="M491 194.322C491 186.321 497.268 179.835 505 179.835 512.732 179.835 519 186.321 519 194.322 519 202.323 512.732 208.809 505 208.809 497.268 208.809 491 202.323 491 194.322Z" stroke="#000000" stroke-width="2" stroke-miterlimit="8" fill="#00B0F0" fill-rule="evenodd"/><path d="M475 179.336C475 171.335 481.268 164.849 489 164.849 496.732 164.849 503 171.335 503 179.336 503 187.337 496.732 193.823 489 193.823 481.268 193.823 475 187.337 475 179.336Z" stroke="#000000" stroke-width="2" stroke-miterlimit="8" fill="#00B0F0" fill-rule="evenodd"/><path d="M532 165.349C532 157.348 538.492 150.862 546.5 150.862 554.508 150.862 561 157.348 561 165.349 561 173.349 554.508 179.835 546.5 179.835 538.492 179.835 532 173.349 532 165.349Z" stroke="#000000" stroke-width="2" stroke-miterlimit="8" fill="#FFFF66" fill-rule="evenodd"/><path d="M563 165.349C563 157.348 569.268 150.862 577 150.862 584.732 150.862 591 157.348 591 165.349 591 173.349 584.732 179.835 577 179.835 569.268 179.835 563 173.349 563 165.349Z" stroke="#000000" stroke-width="2" stroke-miterlimit="8" fill="#FFFF66" fill-rule="evenodd"/><path d="M532 194.322C532 186.321 538.492 179.835 546.5 179.835 554.508 179.835 561 186.321 561 194.322 561 202.323 554.508 208.809 546.5 208.809 538.492 208.809 532 202.323 532 194.322Z" stroke="#000000" stroke-width="2" stroke-miterlimit="8" fill="#FFFF66" fill-rule="evenodd"/><path d="M563 194.322C563 186.321 569.268 179.835 577 179.835 584.732 179.835 591 186.321 591 194.322 591 202.323 584.732 208.809 577 208.809 569.268 208.809 563 202.323 563 194.322Z" stroke="#000000" stroke-width="2" stroke-miterlimit="8" fill="#FFFF66" fill-rule="evenodd"/><path d="M547 179.336C547 171.335 553.268 164.849 561 164.849 568.732 164.849 575 171.335 575 179.336 575 187.337 568.732 193.823 561 193.823 553.268 193.823 547 187.337 547 179.336Z" stroke="#000000" stroke-width="2" stroke-miterlimit="8" fill="#FFFF66" fill-rule="evenodd"/><path d="M393 230.289C393 222.288 399.268 215.802 407 215.802 414.732 215.802 421 222.288 421 230.289 421 238.29 414.732 244.776 407 244.776 399.268 244.776 393 238.29 393 230.289Z" stroke="#000000" stroke-width="2" stroke-miterlimit="8" fill="#00FF00" fill-rule="evenodd"/><path d="M423 230.289C423 222.288 429.492 215.802 437.5 215.802 445.508 215.802 452 222.288 452 230.289 452 238.29 445.508 244.776 437.5 244.776 429.492 244.776 423 238.29 423 230.289Z" stroke="#000000" stroke-width="2" stroke-miterlimit="8" fill="#00FF00" fill-rule="evenodd"/><path d="M393 259.263C393 251.262 399.268 244.776 407 244.776 414.732 244.776 421 251.262 421 259.263 421 267.263 414.732 273.749 407 273.749 399.268 273.749 393 267.263 393 259.263Z" stroke="#000000" stroke-width="2" stroke-miterlimit="8" fill="#00FF00" fill-rule="evenodd"/><path d="M423 259.263C423 251.262 429.492 244.776 437.5 244.776 445.508 244.776 452 251.262 452 259.263 452 267.263 445.508 273.749 437.5 273.749 429.492 273.749 423 267.263 423 259.263Z" stroke="#000000" stroke-width="2" stroke-miterlimit="8" fill="#00FF00" fill-rule="evenodd"/><path d="M407 245.275C407 237.275 413.492 230.789 421.5 230.789 429.508 230.789 436 237.275 436 245.275 436 253.276 429.508 259.762 421.5 259.762 413.492 259.762 407 253.276 407 245.275Z" stroke="#000000" stroke-width="2" stroke-miterlimit="8" fill="#00FF00" fill-rule="evenodd"/><path d="M393 296.229C393 288.228 399.268 281.742 407 281.742 414.732 281.742 421 288.228 421 296.229 421 304.23 414.732 310.715 407 310.715 399.268 310.715 393 304.23 393 296.229Z" stroke="#000000" stroke-width="2" stroke-miterlimit="8" fill="#FFE699" fill-rule="evenodd"/><path d="M423 296.229C423 288.228 429.492 281.742 437.5 281.742 445.508 281.742 452 288.228 452 296.229 452 304.23 445.508 310.715 437.5 310.715 429.492 310.715 423 304.23 423 296.229Z" stroke="#000000" stroke-width="2" stroke-miterlimit="8" fill="#FFE699" fill-rule="evenodd"/><path d="M393 325.202C393 317.201 399.268 310.715 407 310.715 414.732 310.715 421 317.201 421 325.202 421 333.203 414.732 339.689 407 339.689 399.268 339.689 393 333.203 393 325.202Z" stroke="#000000" stroke-width="2" stroke-miterlimit="8" fill="#FFE699" fill-rule="evenodd"/><path d="M423 325.202C423 317.201 429.492 310.715 437.5 310.715 445.508 310.715 452 317.201 452 325.202 452 333.203 445.508 339.689 437.5 339.689 429.492 339.689 423 333.203 423 325.202Z" stroke="#000000" stroke-width="2" stroke-miterlimit="8" fill="#FFE699" fill-rule="evenodd"/><path d="M407 311.215C407 303.214 413.492 296.728 421.5 296.728 429.508 296.728 436 303.214 436 311.215 436 319.216 429.508 325.702 421.5 325.702 413.492 325.702 407 319.216 407 311.215Z" stroke="#000000" stroke-width="2" stroke-miterlimit="8" fill="#FFE699" fill-rule="evenodd"/><path d="M461 230.289C461 222.288 467.268 215.802 475 215.802 482.732 215.802 489 222.288 489 230.289 489 238.29 482.732 244.776 475 244.776 467.268 244.776 461 238.29 461 230.289Z" stroke="#000000" stroke-width="2" stroke-miterlimit="8" fill="#FF9933" fill-rule="evenodd"/><path d="M491 230.289C491 222.288 497.268 215.802 505 215.802 512.732 215.802 519 222.288 519 230.289 519 238.29 512.732 244.776 505 244.776 497.268 244.776 491 238.29 491 230.289Z" stroke="#000000" stroke-width="2" stroke-miterlimit="8" fill="#FF9933" fill-rule="evenodd"/><path d="M461 259.263C461 251.262 467.268 244.776 475 244.776 482.732 244.776 489 251.262 489 259.263 489 267.263 482.732 273.749 475 273.749 467.268 273.749 461 267.263 461 259.263Z" stroke="#000000" stroke-width="2" stroke-miterlimit="8" fill="#FF9933" fill-rule="evenodd"/><path d="M491 259.263C491 251.262 497.268 244.776 505 244.776 512.732 244.776 519 251.262 519 259.263 519 267.263 512.732 273.749 505 273.749 497.268 273.749 491 267.263 491 259.263Z" stroke="#000000" stroke-width="2" stroke-miterlimit="8" fill="#FF9933" fill-rule="evenodd"/><path d="M475 245.275C475 237.275 481.268 230.789 489 230.789 496.732 230.789 503 237.275 503 245.275 503 253.276 496.732 259.762 489 259.762 481.268 259.762 475 253.276 475 245.275Z" stroke="#000000" stroke-width="2" stroke-miterlimit="8" fill="#FF9933" fill-rule="evenodd"/><path d="M463 297.228C463 289.227 469.268 282.741 477 282.741 484.732 282.741 491 289.227 491 297.228 491 305.229 484.732 311.715 477 311.715 469.268 311.715 463 305.229 463 297.228Z" stroke="#000000" stroke-width="2" stroke-miterlimit="8" fill="#FF99FF" fill-rule="evenodd"/><path d="M493 297.228C493 289.227 499.492 282.741 507.5 282.741 515.508 282.741 522 289.227 522 297.228 522 305.229 515.508 311.715 507.5 311.715 499.492 311.715 493 305.229 493 297.228Z" stroke="#000000" stroke-width="2" stroke-miterlimit="8" fill="#FF99FF" fill-rule="evenodd"/><path d="M463 326.201C463 318.2 469.268 311.715 477 311.715 484.732 311.715 491 318.2 491 326.201 491 334.202 484.732 340.688 477 340.688 469.268 340.688 463 334.202 463 326.201Z" stroke="#000000" stroke-width="2" stroke-miterlimit="8" fill="#FF99FF" fill-rule="evenodd"/><path d="M493 326.201C493 318.2 499.492 311.715 507.5 311.715 515.508 311.715 522 318.2 522 326.201 522 334.202 515.508 340.688 507.5 340.688 499.492 340.688 493 334.202 493 326.201Z" stroke="#000000" stroke-width="2" stroke-miterlimit="8" fill="#FF99FF" fill-rule="evenodd"/><path d="M477 311.215C477 303.214 483.268 296.728 491 296.728 498.732 296.728 505 303.214 505 311.215 505 319.216 498.732 325.702 491 325.702 483.268 325.702 477 319.216 477 311.215Z" stroke="#000000" stroke-width="2" stroke-miterlimit="8" fill="#FF99FF" fill-rule="evenodd"/><path d="M532 230.289C532 222.288 538.492 215.802 546.5 215.802 554.508 215.802 561 222.288 561 230.289 561 238.29 554.508 244.776 546.5 244.776 538.492 244.776 532 238.29 532 230.289Z" stroke="#000000" stroke-width="2" stroke-miterlimit="8" fill="#CC66FF" fill-rule="evenodd"/><path d="M562 230.289C562 222.288 568.492 215.802 576.5 215.802 584.508 215.802 591 222.288 591 230.289 591 238.29 584.508 244.776 576.5 244.776 568.492 244.776 562 238.29 562 230.289Z" stroke="#000000" stroke-width="2" stroke-miterlimit="8" fill="#CC66FF" fill-rule="evenodd"/><path d="M532 259.263C532 251.262 538.492 244.776 546.5 244.776 554.508 244.776 561 251.262 561 259.263 561 267.263 554.508 273.749 546.5 273.749 538.492 273.749 532 267.263 532 259.263Z" stroke="#000000" stroke-width="2" stroke-miterlimit="8" fill="#CC66FF" fill-rule="evenodd"/><path d="M562 259.263C562 251.262 568.492 244.776 576.5 244.776 584.508 244.776 591 251.262 591 259.263 591 267.263 584.508 273.749 576.5 273.749 568.492 273.749 562 267.263 562 259.263Z" stroke="#000000" stroke-width="2" stroke-miterlimit="8" fill="#CC66FF" fill-rule="evenodd"/><path d="M546 245.275C546 237.275 552.492 230.789 560.5 230.789 568.508 230.789 575 237.275 575 245.275 575 253.276 568.508 259.762 560.5 259.762 552.492 259.762 546 253.276 546 245.275Z" stroke="#000000" stroke-width="2" stroke-miterlimit="8" fill="#CC66FF" fill-rule="evenodd"/><path d="M533 296.229C533 288.228 539.492 281.742 547.5 281.742 555.508 281.742 562 288.228 562 296.229 562 304.23 555.508 310.715 547.5 310.715 539.492 310.715 533 304.23 533 296.229Z" stroke="#000000" stroke-width="2" stroke-miterlimit="8" fill="#D9D9D9" fill-rule="evenodd"/><path d="M564 296.229C564 288.228 570.268 281.742 578 281.742 585.732 281.742 592 288.228 592 296.229 592 304.23 585.732 310.715 578 310.715 570.268 310.715 564 304.23 564 296.229Z" stroke="#000000" stroke-width="2" stroke-miterlimit="8" fill="#D9D9D9" fill-rule="evenodd"/><path d="M533 325.202C533 317.201 539.492 310.715 547.5 310.715 555.508 310.715 562 317.201 562 325.202 562 333.203 555.508 339.689 547.5 339.689 539.492 339.689 533 333.203 533 325.202Z" stroke="#000000" stroke-width="2" stroke-miterlimit="8" fill="#D9D9D9" fill-rule="evenodd"/><path d="M564 325.202C564 317.201 570.268 310.715 578 310.715 585.732 310.715 592 317.201 592 325.202 592 333.203 585.732 339.689 578 339.689 570.268 339.689 564 333.203 564 325.202Z" stroke="#000000" stroke-width="2" stroke-miterlimit="8" fill="#D9D9D9" fill-rule="evenodd"/><path d="M548 311.215C548 303.214 554.268 296.728 562 296.728 569.732 296.728 576 303.214 576 311.215 576 319.216 569.732 325.702 562 325.702 554.268 325.702 548 319.216 548 311.215Z" stroke="#000000" stroke-width="2" stroke-miterlimit="8" fill="#D9D9D9" fill-rule="evenodd"/></g></svg>