<svg width="761" height="512" xmlns="http://www.w3.org/2000/svg" xmlns:xlink="http://www.w3.org/1999/xlink" overflow="hidden"><defs><clipPath id="clip0"><rect x="0" y="0" width="761" height="512"/></clipPath></defs><g clip-path="url(#clip0)"><rect x="0" y="0" width="761" height="512.446" fill="#FFFFFF" fill-opacity="0"/><rect x="428" y="179.156" width="321" height="321.28" stroke="#000000" stroke-width="1.99956" stroke-miterlimit="8" fill="#FFFFCC"/><path d="M447 225.196C447 213.588 456.178 204.178 467.5 204.178 478.822 204.178 488 213.588 488 225.196 488 236.804 478.822 246.214 467.5 246.214 456.178 246.214 447 236.804 447 225.196Z" stroke="#000000" stroke-width="1.99956" stroke-miterlimit="8" fill="#FF0000" fill-rule="evenodd"/><path d="M491 225.196C491 213.588 500.178 204.178 511.5 204.178 522.822 204.178 532 213.588 532 225.196 532 236.804 522.822 246.214 511.5 246.214 500.178 246.214 491 236.804 491 225.196Z" stroke="#000000" stroke-width="1.99956" stroke-miterlimit="8" fill="#FF0000" fill-rule="evenodd"/><path d="M447 266.732C447 255.4 456.178 246.214 467.5 246.214 478.822 246.214 488 255.4 488 266.732 488 278.064 478.822 287.25 467.5 287.25 456.178 287.25 447 278.064 447 266.732Z" stroke="#000000" stroke-width="1.99956" stroke-miterlimit="8" fill="#FF0000" fill-rule="evenodd"/><path d="M491 266.732C491 255.4 500.178 246.214 511.5 246.214 522.822 246.214 532 255.4 532 266.732 532 278.064 522.822 287.25 511.5 287.25 500.178 287.25 491 278.064 491 266.732Z" stroke="#000000" stroke-width="1.99956" stroke-miterlimit="8" fill="#FF0000" fill-rule="evenodd"/><path d="M467 245.714C467 234.382 476.178 225.196 487.5 225.196 498.822 225.196 508 234.382 508 245.714 508 257.045 498.822 266.232 487.5 266.232 476.178 266.232 467 257.045 467 245.714Z" stroke="#000000" stroke-width="1.99956" stroke-miterlimit="8" fill="#FF0000" fill-rule="evenodd"/><path d="M545 225.196C545 213.588 554.178 204.178 565.5 204.178 576.822 204.178 586 213.588 586 225.196 586 236.804 576.822 246.214 565.5 246.214 554.178 246.214 545 236.804 545 225.196Z" stroke="#000000" stroke-width="1.99956" stroke-miterlimit="8" fill="#00B0F0" fill-rule="evenodd"/><path d="M589 225.196C589 213.588 598.178 204.178 609.5 204.178 620.822 204.178 630 213.588 630 225.196 630 236.804 620.822 246.214 609.5 246.214 598.178 246.214 589 236.804 589 225.196Z" stroke="#000000" stroke-width="1.99956" stroke-miterlimit="8" fill="#00B0F0" fill-rule="evenodd"/><path d="M545 266.732C545 255.4 554.178 246.214 565.5 246.214 576.822 246.214 586 255.4 586 266.732 586 278.064 576.822 287.25 565.5 287.25 554.178 287.25 545 278.064 545 266.732Z" stroke="#000000" stroke-width="1.99956" stroke-miterlimit="8" fill="#00B0F0" fill-rule="evenodd"/><path d="M589 266.732C589 255.4 598.178 246.214 609.5 246.214 620.822 246.214 630 255.4 630 266.732 630 278.064 620.822 287.25 609.5 287.25 598.178 287.25 589 278.064 589 266.732Z" stroke="#000000" stroke-width="1.99956" stroke-miterlimit="8" fill="#00B0F0" fill-rule="evenodd"/><path d="M566 245.714C566 234.382 575.178 225.196 586.5 225.196 597.822 225.196 607 234.382 607 245.714 607 257.045 597.822 266.232 586.5 266.232 575.178 266.232 566 257.045 566 245.714Z" stroke="#000000" stroke-width="1.99956" stroke-miterlimit="8" fill="#00B0F0" fill-rule="evenodd"/><path d="M649 225.196C649 213.588 658.178 204.178 669.5 204.178 680.822 204.178 690 213.588 690 225.196 690 236.804 680.822 246.214 669.5 246.214 658.178 246.214 649 236.804 649 225.196Z" stroke="#000000" stroke-width="1.99956" stroke-miterlimit="8" fill="#FFFF66" fill-rule="evenodd"/><path d="M693 225.196C693 213.588 702.178 204.178 713.5 204.178 724.822 204.178 734 213.588 734 225.196 734 236.804 724.822 246.214 713.5 246.214 702.178 246.214 693 236.804 693 225.196Z" stroke="#000000" stroke-width="1.99956" stroke-miterlimit="8" fill="#FFFF66" fill-rule="evenodd"/><path d="M649 266.732C649 255.4 658.178 246.214 669.5 246.214 680.822 246.214 690 255.4 690 266.732 690 278.064 680.822 287.25 669.5 287.25 658.178 287.25 649 278.064 649 266.732Z" stroke="#000000" stroke-width="1.99956" stroke-miterlimit="8" fill="#FFFF66" fill-rule="evenodd"/><path d="M693 266.732C693 255.4 702.178 246.214 713.5 246.214 724.822 246.214 734 255.4 734 266.732 734 278.064 724.822 287.25 713.5 287.25 702.178 287.25 693 278.064 693 266.732Z" stroke="#000000" stroke-width="1.99956" stroke-miterlimit="8" fill="#FFFF66" fill-rule="evenodd"/><path d="M669 245.714C669 234.382 678.402 225.196 690 225.196 701.598 225.196 711 234.382 711 245.714 711 257.045 701.598 266.232 690 266.232 678.402 266.232 669 257.045 669 245.714Z" stroke="#000000" stroke-width="1.99956" stroke-miterlimit="8" fill="#FFFF66" fill-rule="evenodd"/><path d="M447 319.278C447 307.67 456.178 298.259 467.5 298.259 478.822 298.259 488 307.67 488 319.278 488 330.886 478.822 340.296 467.5 340.296 456.178 340.296 447 330.886 447 319.278Z" stroke="#000000" stroke-width="1.99956" stroke-miterlimit="8" fill="#00FF00" fill-rule="evenodd"/><path d="M491 319.278C491 307.67 500.178 298.259 511.5 298.259 522.822 298.259 532 307.67 532 319.278 532 330.886 522.822 340.296 511.5 340.296 500.178 340.296 491 330.886 491 319.278Z" stroke="#000000" stroke-width="1.99956" stroke-miterlimit="8" fill="#00FF00" fill-rule="evenodd"/><path d="M447 361.314C447 349.706 456.178 340.296 467.5 340.296 478.822 340.296 488 349.706 488 361.314 488 372.922 478.822 382.333 467.5 382.333 456.178 382.333 447 372.922 447 361.314Z" stroke="#000000" stroke-width="1.99956" stroke-miterlimit="8" fill="#00FF00" fill-rule="evenodd"/><path d="M491 361.314C491 349.706 500.178 340.296 511.5 340.296 522.822 340.296 532 349.706 532 361.314 532 372.922 522.822 382.333 511.5 382.333 500.178 382.333 491 372.922 491 361.314Z" stroke="#000000" stroke-width="1.99956" stroke-miterlimit="8" fill="#00FF00" fill-rule="evenodd"/><path d="M467 340.296C467 328.688 476.178 319.278 487.5 319.278 498.822 319.278 508 328.688 508 340.296 508 351.904 498.822 361.314 487.5 361.314 476.178 361.314 467 351.904 467 340.296Z" stroke="#000000" stroke-width="1.99956" stroke-miterlimit="8" fill="#00FF00" fill-rule="evenodd"/><path d="M447 415.361C447 403.753 456.178 394.343 467.5 394.343 478.822 394.343 488 403.753 488 415.361 488 426.969 478.822 436.38 467.5 436.38 456.178 436.38 447 426.969 447 415.361Z" stroke="#000000" stroke-width="1.99956" stroke-miterlimit="8" fill="#FFE699" fill-rule="evenodd"/><path d="M491 415.361C491 403.753 500.178 394.343 511.5 394.343 522.822 394.343 532 403.753 532 415.361 532 426.969 522.822 436.38 511.5 436.38 500.178 436.38 491 426.969 491 415.361Z" stroke="#000000" stroke-width="1.99956" stroke-miterlimit="8" fill="#FFE699" fill-rule="evenodd"/><path d="M447 457.398C447 445.79 456.178 436.38 467.5 436.38 478.822 436.38 488 445.79 488 457.398 488 469.006 478.822 478.416 467.5 478.416 456.178 478.416 447 469.006 447 457.398Z" stroke="#000000" stroke-width="1.99956" stroke-miterlimit="8" fill="#FFE699" fill-rule="evenodd"/><path d="M491 457.398C491 445.79 500.178 436.38 511.5 436.38 522.822 436.38 532 445.79 532 457.398 532 469.006 522.822 478.416 511.5 478.416 500.178 478.416 491 469.006 491 457.398Z" stroke="#000000" stroke-width="1.99956" stroke-miterlimit="8" fill="#FFE699" fill-rule="evenodd"/><path d="M467 436.38C467 424.772 476.178 415.361 487.5 415.361 498.822 415.361 508 424.772 508 436.38 508 447.988 498.822 457.398 487.5 457.398 476.178 457.398 467 447.988 467 436.38Z" stroke="#000000" stroke-width="1.99956" stroke-miterlimit="8" fill="#FFE699" fill-rule="evenodd"/><path d="M545 319.278C545 307.67 554.178 298.259 565.5 298.259 576.822 298.259 586 307.67 586 319.278 586 330.886 576.822 340.296 565.5 340.296 554.178 340.296 545 330.886 545 319.278Z" stroke="#000000" stroke-width="1.99956" stroke-miterlimit="8" fill="#FF9933" fill-rule="evenodd"/><path d="M589 319.278C589 307.67 598.178 298.259 609.5 298.259 620.822 298.259 630 307.67 630 319.278 630 330.886 620.822 340.296 609.5 340.296 598.178 340.296 589 330.886 589 319.278Z" stroke="#000000" stroke-width="1.99956" stroke-miterlimit="8" fill="#FF9933" fill-rule="evenodd"/><path d="M545 361.314C545 349.706 554.178 340.296 565.5 340.296 576.822 340.296 586 349.706 586 361.314 586 372.922 576.822 382.333 565.5 382.333 554.178 382.333 545 372.922 545 361.314Z" stroke="#000000" stroke-width="1.99956" stroke-miterlimit="8" fill="#FF9933" fill-rule="evenodd"/><path d="M589 361.314C589 349.706 598.178 340.296 609.5 340.296 620.822 340.296 630 349.706 630 361.314 630 372.922 620.822 382.333 609.5 382.333 598.178 382.333 589 372.922 589 361.314Z" stroke="#000000" stroke-width="1.99956" stroke-miterlimit="8" fill="#FF9933" fill-rule="evenodd"/><path d="M566 340.296C566 328.688 575.178 319.278 586.5 319.278 597.822 319.278 607 328.688 607 340.296 607 351.904 597.822 361.314 586.5 361.314 575.178 361.314 566 351.904 566 340.296Z" stroke="#000000" stroke-width="1.99956" stroke-miterlimit="8" fill="#FF9933" fill-rule="evenodd"/><path d="M548 416.362C548 404.754 557.178 395.344 568.5 395.344 579.822 395.344 589 404.754 589 416.362 589 427.97 579.822 437.38 568.5 437.38 557.178 437.38 548 427.97 548 416.362Z" stroke="#000000" stroke-width="1.99956" stroke-miterlimit="8" fill="#FF99FF" fill-rule="evenodd"/><path d="M592 416.362C592 404.754 601.178 395.344 612.5 395.344 623.822 395.344 633 404.754 633 416.362 633 427.97 623.822 437.38 612.5 437.38 601.178 437.38 592 427.97 592 416.362Z" stroke="#000000" stroke-width="1.99956" stroke-miterlimit="8" fill="#FF99FF" fill-rule="evenodd"/><path d="M548 458.399C548 446.791 557.178 437.38 568.5 437.38 579.822 437.38 589 446.791 589 458.399 589 470.007 579.822 479.417 568.5 479.417 557.178 479.417 548 470.007 548 458.399Z" stroke="#000000" stroke-width="1.99956" stroke-miterlimit="8" fill="#FF99FF" fill-rule="evenodd"/><path d="M592 458.399C592 446.791 601.178 437.38 612.5 437.38 623.822 437.38 633 446.791 633 458.399 633 470.007 623.822 479.417 612.5 479.417 601.178 479.417 592 470.007 592 458.399Z" stroke="#000000" stroke-width="1.99956" stroke-miterlimit="8" fill="#FF99FF" fill-rule="evenodd"/><path d="M569 437.38C569 425.772 578.178 416.362 589.5 416.362 600.822 416.362 610 425.772 610 437.38 610 448.988 600.822 458.399 589.5 458.399 578.178 458.399 569 448.988 569 437.38Z" stroke="#000000" stroke-width="1.99956" stroke-miterlimit="8" fill="#FF99FF" fill-rule="evenodd"/><path d="M649 319.278C649 307.67 658.178 298.259 669.5 298.259 680.822 298.259 690 307.67 690 319.278 690 330.886 680.822 340.296 669.5 340.296 658.178 340.296 649 330.886 649 319.278Z" stroke="#000000" stroke-width="1.99956" stroke-miterlimit="8" fill="#CC66FF" fill-rule="evenodd"/><path d="M693 319.278C693 307.67 702.178 298.259 713.5 298.259 724.822 298.259 734 307.67 734 319.278 734 330.886 724.822 340.296 713.5 340.296 702.178 340.296 693 330.886 693 319.278Z" stroke="#000000" stroke-width="1.99956" stroke-miterlimit="8" fill="#CC66FF" fill-rule="evenodd"/><path d="M649 361.314C649 349.706 658.178 340.296 669.5 340.296 680.822 340.296 690 349.706 690 361.314 690 372.922 680.822 382.333 669.5 382.333 658.178 382.333 649 372.922 649 361.314Z" stroke="#000000" stroke-width="1.99956" stroke-miterlimit="8" fill="#CC66FF" fill-rule="evenodd"/><path d="M693 361.314C693 349.706 702.178 340.296 713.5 340.296 724.822 340.296 734 349.706 734 361.314 734 372.922 724.822 382.333 713.5 382.333 702.178 382.333 693 372.922 693 361.314Z" stroke="#000000" stroke-width="1.99956" stroke-miterlimit="8" fill="#CC66FF" fill-rule="evenodd"/><path d="M669 340.296C669 328.688 678.178 319.278 689.5 319.278 700.822 319.278 710 328.688 710 340.296 710 351.904 700.822 361.314 689.5 361.314 678.178 361.314 669 351.904 669 340.296Z" stroke="#000000" stroke-width="1.99956" stroke-miterlimit="8" fill="#CC66FF" fill-rule="evenodd"/><path d="M650 415.361C650 403.753 659.402 394.343 671 394.343 682.598 394.343 692 403.753 692 415.361 692 426.969 682.598 436.38 671 436.38 659.402 436.38 650 426.969 650 415.361Z" stroke="#000000" stroke-width="1.99956" stroke-miterlimit="8" fill="#D9D9D9" fill-rule="evenodd"/><path d="M694 415.361C694 403.753 703.402 394.343 715 394.343 726.598 394.343 736 403.753 736 415.361 736 426.969 726.598 436.38 715 436.38 703.402 436.38 694 426.969 694 415.361Z" stroke="#000000" stroke-width="1.99956" stroke-miterlimit="8" fill="#D9D9D9" fill-rule="evenodd"/><path d="M650 457.398C650 445.79 659.402 436.38 671 436.38 682.598 436.38 692 445.79 692 457.398 692 469.006 682.598 478.416 671 478.416 659.402 478.416 650 469.006 650 457.398Z" stroke="#000000" stroke-width="1.99956" stroke-miterlimit="8" fill="#D9D9D9" fill-rule="evenodd"/><path d="M694 457.398C694 445.79 703.402 436.38 715 436.38 726.598 436.38 736 445.79 736 457.398 736 469.006 726.598 478.416 715 478.416 703.402 478.416 694 469.006 694 457.398Z" stroke="#000000" stroke-width="1.99956" stroke-miterlimit="8" fill="#D9D9D9" fill-rule="evenodd"/><path d="M671 436.38C671 424.772 680.178 415.361 691.5 415.361 702.822 415.361 712 424.772 712 436.38 712 447.988 702.822 457.398 691.5 457.398 680.178 457.398 671 447.988 671 436.38Z" stroke="#000000" stroke-width="1.99956" stroke-miterlimit="8" fill="#D9D9D9" fill-rule="evenodd"/><rect x="3.50002" y="3.50307" width="755" height="506.44" stroke="#000000" stroke-width="3.3326" stroke-miterlimit="8" fill="none"/><text font-family="ABC Junior Typing,ABC Junior Typing_MSFontService,sans-serif" font-weight="700" font-size="53" transform="matrix(1 0 0 1.00087 220.602 65)">BTP Flowers</text><rect x="9.00002" y="378.329" width="125" height="125.109"/><text fill="#FFFFFF" font-family="Century Gothic,Century Gothic_MSFontService,sans-serif" font-weight="700" font-size="73" transform="matrix(1 0 0 1.00087 31.7207 469)">2<tspan font-size="47" x="40.991" y="0">G</tspan></text></g></svg>