<svg width="761" height="512" xmlns="http://www.w3.org/2000/svg" xmlns:xlink="http://www.w3.org/1999/xlink" overflow="hidden"><defs><clipPath id="clip0"><rect x="0" y="0" width="761" height="512"/></clipPath></defs><g clip-path="url(#clip0)"><rect x="0" y="0" width="761" height="512.446" fill="#FFFFFF" fill-opacity="0"/><path d="M527.38 243.896 527.38 501.556" stroke="#000000" stroke-width="1.33304" stroke-linejoin="round" stroke-miterlimit="10" fill="none" fill-rule="evenodd"/><path d="M304.721 244.563 750.039 244.563" stroke="#000000" stroke-width="1.33304" stroke-linejoin="round" stroke-miterlimit="10" fill="none" fill-rule="evenodd"/><path d="M304.721 308.644 750.039 308.644" stroke="#000000" stroke-width="1.33304" stroke-linejoin="round" stroke-miterlimit="10" fill="none" fill-rule="evenodd"/><path d="M304.721 372.726 750.039 372.726" stroke="#000000" stroke-width="1.33304" stroke-linejoin="round" stroke-miterlimit="10" fill="none" fill-rule="evenodd"/><path d="M304.721 436.807 750.039 436.807" stroke="#000000" stroke-width="1.33304" stroke-linejoin="round" stroke-miterlimit="10" fill="none" fill-rule="evenodd"/><path d="M305.388 179.814 305.388 501.556" stroke="#000000" stroke-width="1.33304" stroke-linejoin="round" stroke-miterlimit="10" fill="none" fill-rule="evenodd"/><path d="M749.372 179.814 749.372 501.556" stroke="#000000" stroke-width="1.33304" stroke-linejoin="round" stroke-miterlimit="10" fill="none" fill-rule="evenodd"/><path d="M304.721 180.481 750.039 180.481" stroke="#000000" stroke-width="1.33304" stroke-linejoin="round" stroke-miterlimit="10" fill="none" fill-rule="evenodd"/><path d="M304.721 500.889 750.039 500.889" stroke="#000000" stroke-width="1.33304" stroke-linejoin="round" stroke-miterlimit="10" fill="none" fill-rule="evenodd"/><text font-family="Calibri,Calibri_MSFontService,sans-serif" font-weight="700" font-size="33" transform="matrix(1 0 0 1.00087 402.397 224)">Match the colours</text><rect x="312.5" y="250.718" width="207" height="52.0453" stroke="#2F528F" stroke-width="1.33304" stroke-miterlimit="8" fill="#0FE3F9"/><rect x="312.5" y="314.774" width="207" height="53.0461" stroke="#2F528F" stroke-width="1.33304" stroke-miterlimit="8" fill="#00FF00"/><rect x="312.5" y="378.83" width="207" height="53.0462" stroke="#2F528F" stroke-width="1.33304" stroke-miterlimit="8" fill="#FF0000"/><rect x="312.5" y="443.886" width="207" height="53.0461" stroke="#2F528F" stroke-width="1.33304" stroke-miterlimit="8" fill="#FFFF00"/><rect x="535.5" y="250.718" width="208" height="52.0453" stroke="#2F528F" stroke-width="1.33304" stroke-miterlimit="8" fill="#FF0000"/><rect x="535.5" y="314.774" width="208" height="53.0461" stroke="#2F528F" stroke-width="1.33304" stroke-miterlimit="8" fill="#FFFF00"/><rect x="535.5" y="378.83" width="208" height="53.0462" stroke="#2F528F" stroke-width="1.33304" stroke-miterlimit="8" fill="#00FF00"/><rect x="535.5" y="442.885" width="208" height="53.0461" stroke="#2F528F" stroke-width="1.33304" stroke-miterlimit="8" fill="#0FE3F9"/><rect x="3.50002" y="3.50307" width="755" height="506.44" stroke="#000000" stroke-width="3.3326" stroke-miterlimit="8" fill="none"/><text font-family="ABC Junior Typing,ABC Junior Typing_MSFontService,sans-serif" font-weight="700" font-size="53" transform="matrix(1 0 0 1.00087 251.011 65)">Screening</text><rect x="9.00002" y="378.329" width="125" height="125.109"/><text fill="#FFFFFF" font-family="Century Gothic,Century Gothic_MSFontService,sans-serif" font-weight="700" font-size="73" transform="matrix(1 0 0 1.00087 41.052 469)">2<tspan font-size="47" x="40.991" y="0">L</tspan></text></g></svg>