<svg width="610" height="364" xmlns="http://www.w3.org/2000/svg" xmlns:xlink="http://www.w3.org/1999/xlink" overflow="hidden"><defs><clipPath id="clip0"><rect x="0" y="0" width="610" height="364"/></clipPath></defs><g clip-path="url(#clip0)"><rect x="0" y="0" width="610" height="363.667" fill="#FFFFFF" fill-opacity="0"/><path d="M492.05 190.984 492.05 353.832" stroke="#000000" stroke-width="1.33333" stroke-linejoin="round" stroke-miterlimit="10" fill="none" fill-rule="evenodd"/><path d="M385.266 191.65 598.834 191.65" stroke="#000000" stroke-width="1.33333" stroke-linejoin="round" stroke-miterlimit="10" fill="none" fill-rule="evenodd"/><path d="M385.266 232.029 598.834 232.029" stroke="#000000" stroke-width="1.33333" stroke-linejoin="round" stroke-miterlimit="10" fill="none" fill-rule="evenodd"/><path d="M385.266 272.408 598.834 272.408" stroke="#000000" stroke-width="1.33333" stroke-linejoin="round" stroke-miterlimit="10" fill="none" fill-rule="evenodd"/><path d="M385.266 312.787 598.834 312.787" stroke="#000000" stroke-width="1.33333" stroke-linejoin="round" stroke-miterlimit="10" fill="none" fill-rule="evenodd"/><path d="M385.933 150.605 385.933 353.832" stroke="#000000" stroke-width="1.33333" stroke-linejoin="round" stroke-miterlimit="10" fill="none" fill-rule="evenodd"/><path d="M598.168 150.605 598.168 353.832" stroke="#000000" stroke-width="1.33333" stroke-linejoin="round" stroke-miterlimit="10" fill="none" fill-rule="evenodd"/><path d="M385.266 151.271 598.834 151.271" stroke="#000000" stroke-width="1.33333" stroke-linejoin="round" stroke-miterlimit="10" fill="none" fill-rule="evenodd"/><path d="M385.266 353.166 598.834 353.166" stroke="#000000" stroke-width="1.33333" stroke-linejoin="round" stroke-miterlimit="10" fill="none" fill-rule="evenodd"/><text font-family="Calibri,Calibri_MSFontService,sans-serif" font-weight="700" font-size="24" transform="matrix(1 0 0 0.999085 402.274 178)">Match the colours</text><rect x="3.50005" y="3.49685" width="604" height="358.672" stroke="#000000" stroke-width="3.33333" stroke-miterlimit="8" fill="none"/><text font-family="ABC Junior Typing,ABC Junior Typing_MSFontService,sans-serif" font-weight="700" font-size="48" transform="matrix(1 0 0 0.999085 230.091 56)">Colour<tspan font-size="48" x="-36" y="69.0632">Screening</tspan></text><rect x="8" y="229.79" width="125" height="124.886"/><text fill="#FFFFFF" font-family="Century Gothic,Century Gothic_MSFontService,sans-serif" font-weight="700" font-size="100" transform="matrix(1 0 0 0.999085 26.4104 330)">2<tspan font-size="73" x="56" y="0">L</tspan></text><rect x="392.5" y="197.319" width="94" height="29.9725" stroke="#2F528F" stroke-width="1.33333" stroke-miterlimit="8" fill="#0FE3F9"/><rect x="392.5" y="237.283" width="94" height="29.9725" stroke="#2F528F" stroke-width="1.33333" stroke-miterlimit="8" fill="#00FF00"/><rect x="392.5" y="278.245" width="94" height="29.9726" stroke="#2F528F" stroke-width="1.33333" stroke-miterlimit="8" fill="#FF0000"/><rect x="392.5" y="318.209" width="94" height="29.9726" stroke="#2F528F" stroke-width="1.33333" stroke-miterlimit="8" fill="#FFFF00"/><rect x="499.5" y="197.319" width="94" height="30.9716" stroke="#2F528F" stroke-width="1.33333" stroke-miterlimit="8" fill="#FF0000"/><rect x="499.5" y="237.283" width="94" height="29.9725" stroke="#2F528F" stroke-width="1.33333" stroke-miterlimit="8" fill="#FFFF00"/><rect x="499.5" y="278.245" width="94" height="29.9726" stroke="#2F528F" stroke-width="1.33333" stroke-miterlimit="8" fill="#00FF00"/><rect x="499.5" y="318.209" width="94" height="29.9726" stroke="#2F528F" stroke-width="1.33333" stroke-miterlimit="8" fill="#0FE3F9"/></g></svg>