<svg width="761" height="512" xmlns="http://www.w3.org/2000/svg" xmlns:xlink="http://www.w3.org/1999/xlink" overflow="hidden"><defs><clipPath id="clip0"><rect x="0" y="0" width="761" height="512"/></clipPath><clipPath id="clip1"><rect x="469" y="97" width="281" height="226"/></clipPath><clipPath id="clip2"><rect x="469" y="160" width="281" height="226"/></clipPath><clipPath id="clip3"><rect x="469" y="226" width="281" height="225"/></clipPath><clipPath id="clip4"><rect x="469" y="291" width="281" height="225"/></clipPath><clipPath id="clip5"><rect x="469" y="356" width="281" height="225"/></clipPath><clipPath id="clip6"><rect x="173" y="88" width="281" height="248"/></clipPath><clipPath id="clip7"><rect x="173" y="152" width="281" height="248"/></clipPath><clipPath id="clip8"><rect x="173" y="152" width="281" height="248"/></clipPath><clipPath id="clip9"><rect x="173" y="217" width="281" height="247"/></clipPath><clipPath id="clip10"><rect x="173" y="281" width="281" height="248"/></clipPath><clipPath id="clip11"><rect x="173" y="345" width="281" height="248"/></clipPath></defs><g clip-path="url(#clip0)"><rect x="0" y="0" width="761" height="512.446" fill="#FFFFFF" fill-opacity="0"/><rect x="3.50002" y="3.50307" width="755" height="506.44" stroke="#000000" stroke-width="3.3326" stroke-miterlimit="8" fill="none"/><text font-family="ABC Junior Typing,ABC Junior Typing_MSFontService,sans-serif" font-weight="700" font-size="53" transform="matrix(1 0 0 1.00087 189.152 65)">Foundation for<tspan font-size="53" x="16.5364" y="79.9304">Mathematics</tspan></text><rect x="9.00002" y="378.329" width="125" height="125.109"/><text fill="#FFFFFF" font-family="Century Gothic,Century Gothic_MSFontService,sans-serif" font-weight="700" font-size="73" transform="matrix(1 0 0 1.00087 34.0535 469)">3<tspan font-size="47" x="40.991" y="0">A</tspan></text><path d="M469.61 179.597 749.372 179.597 749.372 240.277 469.61 240.277Z" fill-rule="evenodd"/><path d="M469.61 240.277 749.372 240.277 749.372 305.43 469.61 305.43Z" fill="#00FF00" fill-rule="evenodd"/><path d="M469.61 305.43 749.372 305.43 749.372 370.583 469.61 370.583Z" fill="#FFC000" fill-rule="evenodd"/><path d="M469.61 370.583 749.372 370.583 749.372 435.736 469.61 435.736Z" fill="#CC66FF" fill-rule="evenodd"/><path d="M469.61 435.736 749.372 435.736 749.372 500.889 469.61 500.889Z" fill="#FFFFCC" fill-rule="evenodd"/><path d="M468.944 240.277 750.039 240.277" stroke="#000000" stroke-width="1.33304" stroke-linejoin="round" stroke-miterlimit="10" fill="none" fill-rule="evenodd"/><path d="M468.944 305.43 750.039 305.43" stroke="#000000" stroke-width="1.33304" stroke-linejoin="round" stroke-miterlimit="10" fill="none" fill-rule="evenodd"/><path d="M468.944 370.583 750.039 370.583" stroke="#000000" stroke-width="1.33304" stroke-linejoin="round" stroke-miterlimit="10" fill="none" fill-rule="evenodd"/><path d="M468.944 435.736 750.039 435.736" stroke="#000000" stroke-width="1.33304" stroke-linejoin="round" stroke-miterlimit="10" fill="none" fill-rule="evenodd"/><path d="M469.61 178.93 469.61 501.556" stroke="#000000" stroke-width="1.33304" stroke-linejoin="round" stroke-miterlimit="10" fill="none" fill-rule="evenodd"/><path d="M749.372 178.93 749.372 501.556" stroke="#000000" stroke-width="1.33304" stroke-linejoin="round" stroke-miterlimit="10" fill="none" fill-rule="evenodd"/><path d="M468.944 179.597 750.039 179.597" stroke="#000000" stroke-width="1.33304" stroke-linejoin="round" stroke-miterlimit="10" fill="none" fill-rule="evenodd"/><path d="M468.944 500.889 750.039 500.889" stroke="#000000" stroke-width="1.33304" stroke-linejoin="round" stroke-miterlimit="10" fill="none" fill-rule="evenodd"/><g clip-path="url(#clip1)"><text fill="#FFFFFF" font-family="Calibri,Calibri_MSFontService,sans-serif" font-weight="700" font-size="27" transform="matrix(1 0 0 1.00087 479.208 219)">Programme Activities</text></g><path d="M0-26 250.56-26 250.56 7-2.44141e-06 7Z" fill="#00FF00" fill-rule="evenodd" transform="matrix(1 0 0 1.00087 479.208 282.104)"/><g clip-path="url(#clip2)"><text font-family="Calibri,Calibri_MSFontService,sans-serif" font-weight="700" font-size="27" transform="matrix(1 0 0 1.00087 479.208 282)">5. Fine Motor. Building</text></g><g clip-path="url(#clip3)"><text font-family="Calibri,Calibri_MSFontService,sans-serif" font-weight="700" font-size="27" transform="matrix(1 0 0 1.00087 479.208 347)">6. Drawing. Art</text></g><path d="M0-26 242.12-26 242.12 7-4.88281e-06 7Z" fill="#CC66FF" fill-rule="evenodd" transform="matrix(1 0 0 1.00087 479.208 412.524)"/><g clip-path="url(#clip4)"><text font-family="Calibri,Calibri_MSFontService,sans-serif" font-weight="700" font-size="27" transform="matrix(1 0 0 1.00087 479.208 413)">7. Sensory Experience</text></g><g clip-path="url(#clip5)"><text font-family="Calibri,Calibri_MSFontService,sans-serif" font-weight="700" font-size="27" transform="matrix(1 0 0 1.00087 479.208 478)">8. Gross Motor</text></g><path d="M173.78 179.645 453.542 179.645 453.542 243.903 173.78 243.903Z" fill-rule="evenodd"/><path d="M173.78 243.903 453.542 243.903 453.542 308.161 173.78 308.161Z" fill="#FF0000" fill-rule="evenodd"/><path d="M173.78 308.161 453.542 308.161 453.542 372.419 173.78 372.419Z" fill="#00FFFF" fill-rule="evenodd"/><path d="M173.78 372.419 453.542 372.419 453.542 436.678 173.78 436.678Z" fill="#FFFF66" fill-rule="evenodd"/><path d="M173.78 436.678 453.542 436.678 453.542 500.936 173.78 500.936Z" fill="#FFFFFF" fill-rule="evenodd"/><path d="M173.114 243.903 454.209 243.903" stroke="#000000" stroke-width="1.33304" stroke-linejoin="round" stroke-miterlimit="10" fill="none" fill-rule="evenodd"/><path d="M173.114 308.161 454.209 308.161" stroke="#000000" stroke-width="1.33304" stroke-linejoin="round" stroke-miterlimit="10" fill="none" fill-rule="evenodd"/><path d="M173.114 372.419 454.209 372.419" stroke="#000000" stroke-width="1.33304" stroke-linejoin="round" stroke-miterlimit="10" fill="none" fill-rule="evenodd"/><path d="M173.114 436.678 454.209 436.678" stroke="#000000" stroke-width="1.33304" stroke-linejoin="round" stroke-miterlimit="10" fill="none" fill-rule="evenodd"/><path d="M173.78 178.977 173.78 501.603" stroke="#000000" stroke-width="1.33304" stroke-linejoin="round" stroke-miterlimit="10" fill="none" fill-rule="evenodd"/><path d="M453.542 178.977 453.542 501.603" stroke="#000000" stroke-width="1.33304" stroke-linejoin="round" stroke-miterlimit="10" fill="none" fill-rule="evenodd"/><path d="M173.114 179.645 454.209 179.645" stroke="#000000" stroke-width="1.33304" stroke-linejoin="round" stroke-miterlimit="10" fill="none" fill-rule="evenodd"/><path d="M173.114 500.936 454.209 500.936" stroke="#000000" stroke-width="1.33304" stroke-linejoin="round" stroke-miterlimit="10" fill="none" fill-rule="evenodd"/><g clip-path="url(#clip6)"><text fill="#FFFFFF" font-family="Calibri,Calibri_MSFontService,sans-serif" font-weight="700" font-size="29" transform="matrix(1 0 0 1.00087 183.378 221)">Basic Concept Focus</text></g><path d="M0-28 6.66667-28 6.66667 8-1.58946e-07 8Z" fill="#FF0000" fill-rule="evenodd" transform="matrix(1 0 0 1.00087 183.378 285.687)"/><path d="M0-28 140.473-28 140.473 8-5.69661e-06 8Z" fill="#FF0000" fill-rule="evenodd" transform="matrix(1 0 0 1.00087 190.043 285.687)"/><g clip-path="url(#clip7)"><text fill="#F2F2F2" font-family="Calibri,Calibri_MSFontService,sans-serif" font-weight="700" font-size="29" transform="matrix(1 0 0 1.00087 183.378 286)"> </text></g><g clip-path="url(#clip8)"><text fill="#F2F2F2" font-family="Calibri,Calibri_MSFontService,sans-serif" font-weight="700" font-size="29" transform="matrix(1 0 0 1.00087 190.043 286)">1. Numbers</text></g><path d="M0-28 144.187-28 144.187 8-5.90006e-06 8Z" fill="#00FFFF" fill-rule="evenodd" transform="matrix(1 0 0 1.00087 183.378 350.001)"/><g clip-path="url(#clip9)"><text font-family="Calibri,Calibri_MSFontService,sans-serif" font-weight="700" font-size="29" transform="matrix(1 0 0 1.00087 183.378 350)">2. Language</text></g><g clip-path="url(#clip10)"><text font-family="Calibri,Calibri_MSFontService,sans-serif" font-weight="700" font-size="29" transform="matrix(1 0 0 1.00087 183.378 414)">3. Colour</text></g><g clip-path="url(#clip11)"><text font-family="Calibri,Calibri_MSFontService,sans-serif" font-weight="700" font-size="29" transform="matrix(1 0 0 1.00087 183.378 479)">4. Shape</text></g></g></svg>