<svg width="610" height="364" xmlns="http://www.w3.org/2000/svg" xmlns:xlink="http://www.w3.org/1999/xlink" overflow="hidden"><defs><clipPath id="clip0"><rect x="0" y="0" width="610" height="364"/></clipPath><clipPath id="clip1"><rect x="152" y="120" width="223" height="202"/></clipPath><clipPath id="clip2"><rect x="374" y="120" width="228" height="202"/></clipPath><clipPath id="clip3"><rect x="152" y="158" width="223" height="202"/></clipPath><clipPath id="clip4"><rect x="374" y="158" width="228" height="202"/></clipPath><clipPath id="clip5"><rect x="152" y="196" width="223" height="202"/></clipPath><clipPath id="clip6"><rect x="374" y="196" width="228" height="202"/></clipPath><clipPath id="clip7"><rect x="152" y="235" width="223" height="201"/></clipPath><clipPath id="clip8"><rect x="374" y="235" width="228" height="201"/></clipPath></defs><g clip-path="url(#clip0)"><rect x="0" y="0" width="610" height="363.667" fill="#FFFFFF" fill-opacity="0"/><rect x="3.50005" y="3.49685" width="604" height="358.672" stroke="#000000" stroke-width="3.33333" stroke-miterlimit="8" fill="none"/><text font-family="ABC Junior Typing,ABC Junior Typing_MSFontService,sans-serif" font-weight="700" font-size="48" transform="matrix(1 0 0 0.999085 85.1078 56)">Foundation -<tspan font-size="48" x="295.967" y="0">Study</tspan></text><rect x="8" y="229.79" width="125" height="124.886"/><text fill="#FFFFFF" font-family="Century Gothic,Century Gothic_MSFontService,sans-serif" font-weight="700" font-size="100" transform="matrix(1 0 0 0.999085 15.4938 330)">3<tspan font-size="73" x="56" y="0">A</tspan></text><path d="M152.504 201.759 374.935 201.759 374.935 240.044 152.504 240.044Z" fill="#FF0000" fill-rule="evenodd"/><path d="M374.935 201.759 601.785 201.759 601.785 240.044 374.935 240.044Z" fill="#00FFFF" fill-rule="evenodd"/><path d="M152.504 240.044 374.935 240.044 374.935 278.329 152.504 278.329Z" fill="#FFFF66" fill-rule="evenodd"/><path d="M374.935 240.044 601.785 240.044 601.785 278.329 374.935 278.329Z" fill-rule="evenodd"/><path d="M152.504 278.329 374.935 278.329 374.935 316.614 152.504 316.614Z" fill="#00FF00" fill-rule="evenodd"/><path d="M374.935 278.329 601.785 278.329 601.785 316.614 374.935 316.614Z" fill="#CC66FF" fill-rule="evenodd"/><path d="M152.504 316.614 374.935 316.614 374.935 354.899 152.504 354.899Z" fill="#FF9933" fill-rule="evenodd"/><path d="M374.935 316.614 601.785 316.614 601.785 354.899 374.935 354.899Z" fill="#FFFFCC" fill-rule="evenodd"/><path d="M374.935 200.261 374.935 356.398" stroke="#000000" stroke-width="3" stroke-linejoin="round" stroke-miterlimit="10" fill="none" fill-rule="evenodd"/><path d="M151.005 240.044 603.285 240.044" stroke="#000000" stroke-width="3" stroke-linejoin="round" stroke-miterlimit="10" fill="none" fill-rule="evenodd"/><path d="M151.005 278.329 603.285 278.329" stroke="#000000" stroke-width="3" stroke-linejoin="round" stroke-miterlimit="10" fill="none" fill-rule="evenodd"/><path d="M151.005 316.614 603.285 316.614" stroke="#000000" stroke-width="3" stroke-linejoin="round" stroke-miterlimit="10" fill="none" fill-rule="evenodd"/><path d="M152.504 200.261 152.504 356.398" stroke="#000000" stroke-width="3" stroke-linejoin="round" stroke-miterlimit="10" fill="none" fill-rule="evenodd"/><path d="M601.785 200.261 601.785 356.398" stroke="#000000" stroke-width="3" stroke-linejoin="round" stroke-miterlimit="10" fill="none" fill-rule="evenodd"/><path d="M151.005 201.759 603.285 201.759" stroke="#000000" stroke-width="3" stroke-linejoin="round" stroke-miterlimit="10" fill="none" fill-rule="evenodd"/><path d="M151.005 354.899 603.285 354.899" stroke="#000000" stroke-width="3" stroke-linejoin="round" stroke-miterlimit="10" fill="none" fill-rule="evenodd"/><path d="M0-22.979 90.6237-22.979 90.6237 5.99451-1.62612e-06 5.99451Z" fill="#FF0000" fill-rule="evenodd" transform="matrix(1.00092 0 0 1 162.104 228.326)"/><g clip-path="url(#clip1)"><text fill="#F2F2F2" font-family="Calibri,Calibri_MSFontService,sans-serif" font-weight="700" font-size="24" transform="matrix(1 0 0 0.999085 162.104 228)">Numbers</text></g><path d="M0-22.979 93.8208-22.979 93.8208 5.99451 2.94733e-06 5.99451Z" fill="#00FFFF" fill-rule="evenodd" transform="matrix(1.00092 0 0 1 384.535 228.326)"/><g clip-path="url(#clip2)"><text font-family="Calibri,Calibri_MSFontService,sans-serif" font-weight="700" font-size="24" transform="matrix(1 0 0 0.999085 384.535 228)">Language</text></g><g clip-path="url(#clip3)"><text font-family="Calibri,Calibri_MSFontService,sans-serif" font-weight="700" font-size="24" transform="matrix(1 0 0 0.999085 162.104 267)">Shape</text></g><g clip-path="url(#clip4)"><text fill="#FFFFFF" font-family="Calibri,Calibri_MSFontService,sans-serif" font-weight="700" font-size="24" transform="matrix(1 0 0 0.999085 384.535 267)">Colour</text></g><g clip-path="url(#clip5)"><text font-family="Calibri,Calibri_MSFontService,sans-serif" font-weight="700" font-size="24" transform="matrix(1 0 0 0.999085 162.104 305)">Fine Motor</text></g><path d="M0-22.979 192.224-22.979 192.224 5.99451-6.09793e-06 5.99451Z" fill="#CC66FF" fill-rule="evenodd" transform="matrix(1.00092 0 0 1 384.535 304.826)"/><g clip-path="url(#clip6)"><text font-family="Calibri,Calibri_MSFontService,sans-serif" font-weight="700" font-size="24" transform="matrix(1 0 0 0.999085 384.535 305)">Sensory experience</text></g><path d="M0-22.979 160.1-22.979 160.1 5.99451 6.91099e-06 5.99451Z" fill="#FF9933" fill-rule="evenodd" transform="matrix(1.00092 0 0 1 162.104 343.075)"/><g clip-path="url(#clip7)"><text font-family="Calibri,Calibri_MSFontService,sans-serif" font-weight="700" font-size="24" transform="matrix(1 0 0 0.999085 162.104 343)">Learner Training</text></g><g clip-path="url(#clip8)"><text font-family="Calibri,Calibri_MSFontService,sans-serif" font-weight="700" font-size="24" transform="matrix(1 0 0 0.999085 384.535 343)">Learning foundation</text></g></g></svg>