<svg width="761" height="512" xmlns="http://www.w3.org/2000/svg" xmlns:xlink="http://www.w3.org/1999/xlink" overflow="hidden"><defs><clipPath id="clip0"><rect x="0" y="0" width="761" height="512"/></clipPath></defs><g clip-path="url(#clip0)"><rect x="0" y="0" width="761" height="512.446" fill="#FFFFFF" fill-opacity="0"/><rect x="3.50002" y="3.50307" width="755" height="506.44" stroke="#000000" stroke-width="3.3326" stroke-miterlimit="8" fill="none"/><text font-family="ABC Junior Typing,ABC Junior Typing_MSFontService,sans-serif" font-weight="700" font-size="53" transform="matrix(1 0 0 1.00087 179.444 65)">Numbers 1 -<tspan font-size="53" x="333.76" y="0">50</tspan></text><rect x="9.00002" y="378.329" width="125" height="125.109"/><text fill="#FFFFFF" font-family="Century Gothic,Century Gothic_MSFontService,sans-serif" font-weight="700" font-size="100" transform="matrix(1 0 0 1.00087 22.5561 479)">3<tspan font-size="73" x="55.9877" y="0">B</tspan></text><path d="M566.376 240.303 750.872 240.303" stroke="#000000" stroke-width="2.99934" stroke-linejoin="round" stroke-miterlimit="10" fill="none" fill-rule="evenodd"/><path d="M566.376 305.427 750.872 305.427" stroke="#000000" stroke-width="2.99934" stroke-linejoin="round" stroke-miterlimit="10" fill="none" fill-rule="evenodd"/><path d="M566.376 370.551 750.872 370.551" stroke="#000000" stroke-width="2.99934" stroke-linejoin="round" stroke-miterlimit="10" fill="none" fill-rule="evenodd"/><path d="M566.376 435.675 750.872 435.675" stroke="#000000" stroke-width="2.99934" stroke-linejoin="round" stroke-miterlimit="10" fill="none" fill-rule="evenodd"/><path d="M567.876 177.525 567.876 502.39" stroke="#000000" stroke-width="2.99934" stroke-linejoin="round" stroke-miterlimit="10" fill="none" fill-rule="evenodd"/><path d="M749.372 177.525 749.372 502.39" stroke="#000000" stroke-width="2.99934" stroke-linejoin="round" stroke-miterlimit="10" fill="none" fill-rule="evenodd"/><path d="M566.376 179.026 750.872 179.026" stroke="#000000" stroke-width="2.99934" stroke-linejoin="round" stroke-miterlimit="10" fill="none" fill-rule="evenodd"/><path d="M566.376 500.889 750.872 500.889" stroke="#000000" stroke-width="2.99934" stroke-linejoin="round" stroke-miterlimit="10" fill="none" fill-rule="evenodd"/><text font-family="Calibri,Calibri_MSFontService,sans-serif" font-weight="400" font-size="43" transform="matrix(1 0 0 1.00087 627.881 225)">one<tspan font-size="43" x="-0.28656" y="63.9443">two</tspan><tspan font-size="43" x="-13.567" y="129.887">three</tspan><tspan font-size="43" x="-2.71936" y="194.83">four</tspan><tspan font-size="43" x="1.65967" y="259.774">five</tspan></text><rect x="188" y="407.354" width="57" height="91.0793" stroke="#0D0D0D" stroke-width="7.99825" stroke-miterlimit="8" fill="#FFFFFF"/><text font-family="Calibri,Calibri_MSFontService,sans-serif" font-weight="700" font-size="80" transform="matrix(1 0 0 1.00087 196.009 480)">1</text><rect x="262" y="407.354" width="55.9999" height="91.0793" stroke="#0D0D0D" stroke-width="7.99825" stroke-miterlimit="8" fill="#FFFFFF"/><text font-family="Calibri,Calibri_MSFontService,sans-serif" font-weight="700" font-size="80" transform="matrix(1 0 0 1.00087 269.843 480)">2</text><rect x="336" y="407.354" width="57" height="91.0793" stroke="#0D0D0D" stroke-width="7.99825" stroke-miterlimit="8" fill="#FFFFFF"/><text font-family="Calibri,Calibri_MSFontService,sans-serif" font-weight="700" font-size="80" transform="matrix(1 0 0 1.00087 344.288 480)">3</text><rect x="410" y="407.354" width="57" height="91.0793" stroke="#0D0D0D" stroke-width="7.99825" stroke-miterlimit="8" fill="#FFFFFF"/><text font-family="Calibri,Calibri_MSFontService,sans-serif" font-weight="700" font-size="80" transform="matrix(1 0 0 1.00087 418.186 480)">4</text><rect x="483" y="407.354" width="55.9999" height="91.0793" stroke="#0D0D0D" stroke-width="7.99825" stroke-miterlimit="8" fill="#FFFFFF"/><text font-family="Calibri,Calibri_MSFontService,sans-serif" font-weight="700" font-size="80" transform="matrix(1 0 0 1.00087 490.898 480)">5</text></g></svg>