<svg width="610" height="364" xmlns="http://www.w3.org/2000/svg" xmlns:xlink="http://www.w3.org/1999/xlink" overflow="hidden"><defs><clipPath id="clip0"><rect x="0" y="0" width="610" height="364"/></clipPath><clipPath id="clip1"><rect x="386" y="-252" width="215" height="985"/></clipPath></defs><g clip-path="url(#clip0)"><rect x="0" y="0" width="610" height="363.667" fill="#FFFFFF" fill-opacity="0"/><rect x="3.50005" y="3.49685" width="604" height="358.672" stroke="#000000" stroke-width="3.33333" stroke-miterlimit="8" fill="none"/><text font-family="ABC Junior Typing,ABC Junior Typing_MSFontService,sans-serif" font-weight="700" font-size="48" transform="matrix(1 0 0 0.999085 132.425 56)">Numbers 1 -<tspan font-size="48" x="286.5" y="0">50</tspan></text><rect x="8" y="229.79" width="125" height="124.886"/><text fill="#FFFFFF" font-family="Century Gothic,Century Gothic_MSFontService,sans-serif" font-weight="700" font-size="100" transform="matrix(1 0 0 0.999085 21.3271 330)">3<tspan font-size="73" x="56" y="0">B</tspan></text><path d="M172.698 165.436 386.48 165.436 386.48 353.933 172.698 353.933Z" fill="#CC66FF" fill-rule="evenodd"/><path d="M386.48 165.436 600.261 165.436 600.261 353.933 386.48 353.933Z" fill="#00FFFF" fill-rule="evenodd"/><path d="M386.48 163.937 386.48 355.432" stroke="#000000" stroke-width="3" stroke-linejoin="round" stroke-miterlimit="10" fill="none" fill-rule="evenodd"/><path d="M172.698 163.937 172.698 355.432" stroke="#000000" stroke-width="3" stroke-linejoin="round" stroke-miterlimit="10" fill="none" fill-rule="evenodd"/><path d="M600.261 163.937 600.261 355.432" stroke="#000000" stroke-width="3" stroke-linejoin="round" stroke-miterlimit="10" fill="none" fill-rule="evenodd"/><path d="M171.198 165.436 601.761 165.436" stroke="#000000" stroke-width="3" stroke-linejoin="round" stroke-miterlimit="10" fill="none" fill-rule="evenodd"/><path d="M171.198 353.933 601.761 353.933" stroke="#000000" stroke-width="3" stroke-linejoin="round" stroke-miterlimit="10" fill="none" fill-rule="evenodd"/><text font-family="Calibri,Calibri_MSFontService,sans-serif" font-weight="700" font-size="107" transform="matrix(1 0 0 0.999085 252.589 289)">5</text><g clip-path="url(#clip1)"><text font-family="Calibri,Calibri_MSFontService,sans-serif" font-weight="700" font-size="80" transform="matrix(1 0 0 0.999085 432.157 290)">five</text></g></g></svg>