<svg width="761" height="512" xmlns="http://www.w3.org/2000/svg" xmlns:xlink="http://www.w3.org/1999/xlink" overflow="hidden"><defs><clipPath id="clip0"><rect x="0" y="0" width="761" height="512"/></clipPath></defs><g clip-path="url(#clip0)"><rect x="0" y="0" width="761" height="512" fill="#FFFFFF" transform="scale(1 1.00087)"/><rect x="0" y="0" width="755" height="506" stroke="#31538F" stroke-width="2.99934" stroke-miterlimit="8" fill="#09F71A" transform="matrix(1 0 -0 1.00087 3.50002 3.50307)"/><rect x="0" y="0" width="683" height="434" stroke="#31538F" stroke-width="2.99934" stroke-miterlimit="8" fill="#FFFF00" transform="matrix(1 0 -0 1.00087 46.5001 40.5353)"/><rect x="0" y="0" width="611" height="362" stroke="#31538F" stroke-width="2.99934" stroke-miterlimit="8" fill="#00B0F0" transform="matrix(1 0 -0 1.00087 82.5 76.5666)"/><rect x="0" y="0" width="538" height="289" stroke="#000000" stroke-width="2.99934" stroke-miterlimit="8" fill="#FF0000" transform="matrix(1 0 -0 1.00087 117.5 113.599)"/><rect x="0" y="0" width="460" height="221" stroke="#000000" stroke-width="8.99803" stroke-miterlimit="8" fill="#FFFFFF" transform="matrix(1 0 -0 1.00087 156.5 147.628)"/><rect x="0" y="0" width="102" height="101" stroke="#31538F" stroke-width="1.33304" stroke-miterlimit="8" transform="matrix(1 0 -0 1.00087 163.5 258.725)"/><text fill="#FFFFFF" font-family="Century Gothic,Century Gothic_MSFontService,sans-serif" font-weight="700" font-size="107" transform="matrix(1 0 0 1.00087 184.408 349)">8<tspan fill="#000000" font-size="47" x="24.8562" y="-145.873">Building Shapes</tspan></text><path d="M-0.000282152 82.9608 35.6193 61.0991 12.775 25.5502 51.647 40.4843 64.5 0 77.353 40.4843 116.225 25.5502 93.3807 61.0991 129 82.9608 87.6605 86.8053 93.205 129.001 64.5 98.2457 35.795 129.001 41.3395 86.8053Z" stroke="#31538F" stroke-width="1.33304" stroke-miterlimit="8" fill-rule="evenodd" transform="matrix(1 0 -0 1.00087 372.5 219.691)"/></g></svg>