<svg width="761" height="512" xmlns="http://www.w3.org/2000/svg" xmlns:xlink="http://www.w3.org/1999/xlink" overflow="hidden"><defs><clipPath id="clip0"><rect x="0" y="0" width="761" height="512"/></clipPath></defs><g clip-path="url(#clip0)"><rect x="0" y="0" width="761" height="512.446" fill="#FFFFFF"/><rect x="3.50002" y="3.50307" width="755" height="506.44" stroke="#31538F" stroke-width="2.99934" stroke-miterlimit="8" fill="#09F71A"/><rect x="46.5001" y="40.5353" width="683" height="434.378" stroke="#31538F" stroke-width="2.99934" stroke-miterlimit="8" fill="#FFFF00"/><rect x="82.5" y="76.5666" width="611" height="362.315" stroke="#31538F" stroke-width="2.99934" stroke-miterlimit="8" fill="#00B0F0"/><rect x="117.5" y="113.599" width="538" height="289.252" stroke="#000000" stroke-width="2.99934" stroke-miterlimit="8" fill="#FF0000"/><rect x="156.5" y="147.628" width="460" height="221.192" stroke="#000000" stroke-width="8.99803" stroke-miterlimit="8" fill="#FFFFFF"/><rect x="163.5" y="258.725" width="102" height="101.088" stroke="#31538F" stroke-width="1.33304" stroke-miterlimit="8"/><text fill="#FFFFFF" font-family="Century Gothic,Century Gothic_MSFontService,sans-serif" font-weight="700" font-size="100" transform="matrix(1 0 0 1.00087 186.241 347)">8<tspan fill="#000000" font-family="ABC Junior Typing,ABC Junior Typing_MSFontService,sans-serif" font-size="47" x="35.9371" y="-144.874">Building Shapes</tspan></text><path d="M372.5 302.724 408.119 280.843 385.275 245.263 424.147 260.211 437 219.691 449.853 260.211 488.725 245.263 465.881 280.843 501.5 302.724 460.161 306.572 465.705 348.804 437 318.022 408.295 348.804 413.84 306.572Z" stroke="#31538F" stroke-width="1.33304" stroke-miterlimit="8" fill-rule="evenodd"/></g></svg>