<svg width="761" height="432" xmlns="http://www.w3.org/2000/svg" xmlns:xlink="http://www.w3.org/1999/xlink" overflow="hidden"><defs><clipPath id="clip0"><rect x="0" y="0" width="761" height="432"/></clipPath></defs><g clip-path="url(#clip0)"><rect x="0" y="0" width="760.58" height="431.761" fill="#FFFFFF" transform="scale(1.00055 1)"/><rect x="0" y="0" width="754.583" height="426.764" stroke="#000000" stroke-width="3.99692" stroke-miterlimit="8" fill="none" transform="matrix(1.00055 0 -0 1 2.99997 2.99832)"/><rect x="0" y="0" width="150.917" height="151.916" stroke="#000000" stroke-width="1.33231" stroke-miterlimit="8" transform="matrix(1.00055 0 -0 1 20.5 261.356)"/><text fill="#FFFFFF" font-family="Century Gothic,Century Gothic_MSFontService,sans-serif" font-weight="700" font-size="133" transform="matrix(1 0 0 0.999448 58.5825 388)">8</text><path d="M0 151.416 94.3299 127.771 44.3489 44.3489 127.771 94.3299 151.416 0 175.062 94.3299 258.484 44.3489 208.503 127.771 302.833 151.416 208.503 175.062 258.484 258.484 175.062 208.503 151.416 302.833 127.771 208.503 44.3489 258.484 94.3299 175.062Z" fill-rule="evenodd" transform="matrix(1.00055 0 -0 1 438 109.939)"/><rect x="0" y="0" width="751.585" height="75.9581" fill="#FF0000" transform="matrix(1.00055 0 -0 1 4.99995 3.99776)"/><text font-family="Century Gothic,Century Gothic_MSFontService,sans-serif" font-weight="700" font-size="53" transform="matrix(1 0 0 0.999448 182.752 56)">The BC Journey</text></g></svg>