<svg width="761" height="432" xmlns="http://www.w3.org/2000/svg" xmlns:xlink="http://www.w3.org/1999/xlink" overflow="hidden"><defs><clipPath id="clip0"><rect x="0" y="0" width="761" height="432"/></clipPath></defs><g clip-path="url(#clip0)"><rect x="0" y="0" width="761" height="431.761" fill="#FFFFFF"/><rect x="2.99997" y="2.99832" width="755" height="426.764" stroke="#000000" stroke-width="3.99912" stroke-miterlimit="8" fill="none"/><rect x="12.5" y="297.336" width="124" height="123.932" stroke="#000000" stroke-width="1.33304" stroke-miterlimit="8"/><text fill="#FFFFFF" font-family="Century Gothic,Century Gothic_MSFontService,sans-serif" font-weight="700" font-size="100" transform="matrix(1 0 0 0.999448 45.9163 397)">8</text><path d="M438 261.356 532.382 237.71 482.373 154.288 565.841 204.269 589.5 109.939 613.159 204.269 696.627 154.288 646.618 237.71 741 261.356 646.618 285.001 696.627 368.423 613.159 318.442 589.5 412.772 565.841 318.442 482.373 368.423 532.382 285.001Z" fill-rule="evenodd"/><rect x="4.99995" y="3.99776" width="752" height="81.9547" fill="#FF0000"/><text font-family="ABC Junior Typing,ABC Junior Typing_MSFontService,sans-serif" font-weight="700" font-size="48" transform="matrix(1 0 0 0.999448 196.242 57)">The BC Journey</text></g></svg>