<svg width="761" height="512" xmlns="http://www.w3.org/2000/svg" xmlns:xlink="http://www.w3.org/1999/xlink" overflow="hidden"><defs><clipPath id="clip0"><rect x="0" y="0" width="761" height="512"/></clipPath></defs><g clip-path="url(#clip0)"><rect x="0" y="0" width="761" height="512.446" fill="#FFFFFF" fill-opacity="0"/><rect x="3.50002" y="3.50307" width="755" height="506.44" stroke="#000000" stroke-width="3.3326" stroke-miterlimit="8" fill="none"/><text font-family="ABC Junior Typing,ABC Junior Typing_MSFontService,sans-serif" font-weight="700" font-size="53" transform="matrix(1 0 0 1.00087 99.358 65)">BCMLP Introduction</text><rect x="9.00002" y="378.329" width="125" height="125.109"/><text fill="#FFFFFF" font-family="Century Gothic,Century Gothic_MSFontService,sans-serif" font-weight="700" font-size="73" transform="matrix(1 0 0 1.00087 34.0535 469)">8<tspan font-size="47" x="40.991" y="0">A</tspan></text><rect x="155" y="100.087" width="594" height="400.348" stroke="#0D0D0D" stroke-width="1.99956" stroke-miterlimit="8" fill="#96EEEE"/><text fill="#0D0D0D" font-family="Calibri,Calibri_MSFontService,sans-serif" font-weight="400" font-size="48" transform="matrix(1 0 0 1.00087 274.746 140)">The Basic Concept <tspan font-size="48" x="-48.536" y="57.9496">Mathematics Language </tspan><tspan font-size="48" x="63.3394" y="114.9">Programme</tspan><tspan font-size="48" x="108.37" y="173.849">BCMLP</tspan></text><path d="M218 50 356 50 356 53 218 53Z" fill="#0D0D0D" fill-rule="evenodd" transform="matrix(1 0 0 1.00087 164.997 268.447)"/><text fill="#0D0D0D" font-family="Calibri,Calibri_MSFontService,sans-serif" font-weight="400" font-size="37" transform="matrix(1 0 0 1.00087 235.754 361)">To teach Basic Concepts (BC) <tspan font-size="37" x="-20.8354" y="44.9609">to learners who have severe BC </tspan><tspan font-size="37" x="-52.1886" y="89.9217">barriers to learning in language and </tspan><tspan font-size="37" x="117.881" y="134.883">mathematics </tspan></text></g></svg>