<svg width="761" height="512" xmlns="http://www.w3.org/2000/svg" xmlns:xlink="http://www.w3.org/1999/xlink" overflow="hidden"><defs><clipPath id="clip0"><rect x="0" y="0" width="761" height="512"/></clipPath></defs><g clip-path="url(#clip0)"><rect x="0" y="0" width="761" height="512" fill="#FFFFFF" transform="scale(1 1.00087)"/><rect x="0" y="0" width="755" height="506" stroke="#000000" stroke-width="3.99912" stroke-miterlimit="8" transform="matrix(1 0 -0 1.00087 2.99997 3.00258)"/><rect x="0" y="0" width="723" height="474" stroke="#000000" stroke-width="3.99912" stroke-miterlimit="8" fill="#FFFFFF" transform="matrix(1 0 -0 1.00087 19 19.0166)"/><text font-family="Century Gothic,Century Gothic_MSFontService,sans-serif" font-weight="700" font-size="80" transform="matrix(1 0 0 1.00087 111.086 98)">LNTB Mr Good</text><rect x="0" y="0" width="143" height="142" stroke="#000000" stroke-width="3.99912" stroke-miterlimit="8" transform="matrix(1 0 -0 1.00087 28.9999 341.297)"/><text fill="#FFFFFF" font-family="Century Gothic,Century Gothic_MSFontService,sans-serif" font-weight="700" font-size="107" transform="matrix(1 0 0 1.00087 34.6405 454)">8<tspan font-size="80" x="59.6536" y="0">M</tspan></text><rect x="0" y="0" width="332" height="332" stroke="#000000" stroke-width="2.99934" stroke-miterlimit="8" fill="#00B0F0" transform="matrix(1 0 -0 1.00087 400.5 151.632)"/><path d="M0 163.5C-2.08794e-14 73.2014 73.4253-2.08157e-14 164-4.16315e-14 254.575-8.32629e-14 328 73.2014 328 163.5 328 253.799 254.575 327 164 327 73.4253 327-1.04397e-13 253.799 0 163.5Z" fill="#00B0F0" fill-rule="evenodd" transform="matrix(1 0 -0 1.00087 402 154.134)"/><path d="M94.376 114.601C94.376 105.195 102.024 97.57 111.459 97.57 120.894 97.57 128.543 105.195 128.543 114.601 128.543 124.007 120.894 131.633 111.459 131.633 102.024 131.633 94.376 124.007 94.376 114.601M199.457 114.601C199.457 105.195 207.106 97.57 216.541 97.57 225.975 97.57 233.624 105.195 233.624 114.601 233.624 124.007 225.975 131.633 216.541 131.633 207.106 131.633 199.457 124.007 199.457 114.601" stroke="#000000" stroke-width="3.99912" stroke-miterlimit="8" fill="#008DC1" fill-rule="evenodd" transform="matrix(1 0 -0 1.00087 402 154.134)"/><path d="M75.1111 234.803C134.37 275.378 193.561 275.378 252.682 234.803" stroke="#000000" stroke-width="3.99912" stroke-miterlimit="8" fill="none" fill-rule="evenodd" transform="matrix(1 0 -0 1.00087 402 154.134)"/><path d="M0 163.5C-2.08794e-14 73.2014 73.4253-2.08157e-14 164-4.16315e-14 254.575-8.32629e-14 328 73.2014 328 163.5 328 253.799 254.575 327 164 327 73.4253 327-1.04397e-13 253.799 0 163.5Z" stroke="#000000" stroke-width="3.99912" stroke-miterlimit="8" fill="none" fill-rule="evenodd" transform="matrix(1 0 -0 1.00087 402 154.134)"/></g></svg>