<svg width="761" height="439" xmlns="http://www.w3.org/2000/svg" xmlns:xlink="http://www.w3.org/1999/xlink" overflow="hidden"><defs><clipPath id="clip0"><rect x="0" y="0" width="761" height="439"/></clipPath></defs><g clip-path="url(#clip0)"><rect x="0" y="0" width="761" height="438.595" fill="#FFFFFF" fill-opacity="0"/><rect x="3.50002" y="3.50478" width="755" height="433.589" stroke="#000000" stroke-width="3.3326" stroke-miterlimit="8" fill="none"/><text font-family="ABC Junior Typing,ABC Junior Typing_MSFontService,sans-serif" font-weight="700" font-size="48" transform="matrix(1 0 0 1.00136 216.968 57)">Building shapes</text><rect x="13.5" y="299.907" width="124" height="125.17" stroke="#000000" stroke-width="1.33304" stroke-miterlimit="8"/><text fill="#FFFFFF" font-family="Century Gothic,Century Gothic_MSFontService,sans-serif" font-weight="700" font-size="100" transform="matrix(1 0 0 1.00136 47.0449 401)">9</text><path d="M438 264.86 531.759 241.325 482.081 158.295 564.997 208.041 588.5 114.155 612.003 208.041 694.92 158.295 645.241 241.325 739 264.86 645.241 288.394 694.92 371.424 612.003 321.678 588.5 415.564 564.997 321.678 482.081 371.424 531.759 288.394Z" fill-rule="evenodd"/></g></svg>