<svg width="550" height="440" xmlns="http://www.w3.org/2000/svg" xmlns:xlink="http://www.w3.org/1999/xlink" overflow="hidden"><defs><clipPath id="clip0"><rect x="0" y="0" width="550" height="440"/></clipPath></defs><g clip-path="url(#clip0)"><rect x="0" y="0" width="550" height="439.6" fill="#FFFFFF" fill-opacity="0"/><rect x="2.50002" y="3.4968" width="545" height="434.604" stroke="#000000" stroke-width="3.33637" stroke-linejoin="round" stroke-miterlimit="10" fill="none"/><path d="M0 0 544.245 2.63675" stroke="#000000" stroke-width="3" stroke-miterlimit="8" fill="none" fill-rule="evenodd" transform="matrix(1.00091 0 0 -1 2.50002 222.936)"/><path d="M181.5 4.49596 186.574 436.239" stroke="#000000" stroke-width="3.00273" stroke-miterlimit="8" fill="none" fill-rule="evenodd"/><path d="M363.5 3.4968 368.574 435.24" stroke="#000000" stroke-width="3.00273" stroke-miterlimit="8" fill="none" fill-rule="evenodd"/><path d="M5.50001 96.4123C5.50001 47.8554 44.899 8.49228 93.5 8.49228 142.101 8.49228 181.5 47.8554 181.5 96.4123 181.5 144.969 142.101 184.332 93.5 184.332 44.899 184.332 5.50001 144.969 5.50001 96.4123Z" stroke="#2F528F" stroke-width="1.33455" stroke-miterlimit="8" fill-rule="evenodd"/><path d="M181.5 182.334 270 5.49501 358.5 182.334Z" stroke="#2F528F" stroke-width="1.33455" stroke-miterlimit="8" fill-rule="evenodd"/><rect x="362.5" y="3.4968" width="179" height="178.837" stroke="#2F528F" stroke-width="1.33455" stroke-miterlimit="8"/><rect x="2.50002" y="272.252" width="182" height="106.903" stroke="#2F528F" stroke-width="1.33455" stroke-miterlimit="8"/><rect x="218.5" y="223.297" width="107" height="181.835" stroke="#2F528F" stroke-width="1.33333" stroke-miterlimit="8"/><path d="M366.5 331.199 411.049 223.297 499.951 223.297 544.5 331.199Z" stroke="#2F528F" stroke-width="1.33455" stroke-miterlimit="8" fill-rule="evenodd"/></g></svg>