<svg width="761" height="606" xmlns="http://www.w3.org/2000/svg" xmlns:xlink="http://www.w3.org/1999/xlink" overflow="hidden"><defs><clipPath id="clip0"><rect x="0" y="0" width="761" height="606"/></clipPath></defs><g clip-path="url(#clip0)"><rect x="0" y="0" width="761" height="605.966" fill="#FFFFFF" fill-opacity="0"/><path d="M254.432 1.17605 254.432 604.702" stroke="#000000" stroke-width="2.99934" stroke-linejoin="round" stroke-miterlimit="10" fill="none" fill-rule="evenodd"/><path d="M506.22 1.17605 506.22 604.702" stroke="#000000" stroke-width="2.99934" stroke-linejoin="round" stroke-miterlimit="10" fill="none" fill-rule="evenodd"/><path d="M1.14547 302.939 759.507 302.939" stroke="#000000" stroke-width="2.99934" stroke-linejoin="round" stroke-miterlimit="10" fill="none" fill-rule="evenodd"/><path d="M2.64509 1.17605 2.64509 604.702" stroke="#000000" stroke-width="2.99934" stroke-linejoin="round" stroke-miterlimit="10" fill="none" fill-rule="evenodd"/><path d="M758.007 1.17605 758.007 604.702" stroke="#000000" stroke-width="2.99934" stroke-linejoin="round" stroke-miterlimit="10" fill="none" fill-rule="evenodd"/><path d="M1.14547 2.67559 759.507 2.67559" stroke="#000000" stroke-width="2.99934" stroke-linejoin="round" stroke-miterlimit="10" fill="none" fill-rule="evenodd"/><path d="M1.14547 603.202 759.507 603.202" stroke="#000000" stroke-width="2.99934" stroke-linejoin="round" stroke-miterlimit="10" fill="none" fill-rule="evenodd"/><path d="M4.99995 151.492C4.99995 83.8404 60.0689 28.9983 128 28.9983 195.931 28.9983 251 83.8404 251 151.492 251 219.143 195.931 273.985 128 273.985 60.0689 273.985 4.99995 219.143 4.99995 151.492Z" fill-rule="evenodd"/><path d="M254 260.985 380 43.9976 506 260.985Z" fill-rule="evenodd"/><rect x="507" y="23.9986" width="251" height="253.986"/><rect x="2.99997" y="390.978" width="251" height="128.993"/><rect x="324" y="350.98" width="129" height="207.988"/><path d="M507 555.969 557.5 353.98 707.5 353.98 758 555.969Z" fill-rule="evenodd"/></g></svg>