<svg width="761" height="606" xmlns="http://www.w3.org/2000/svg" xmlns:xlink="http://www.w3.org/1999/xlink" overflow="hidden"><defs><clipPath id="clip0"><rect x="0" y="0" width="761" height="606"/></clipPath><clipPath id="clip1"><rect x="3" y="326" width="253" height="252"/></clipPath><clipPath id="clip2"><rect x="3" y="326" width="253" height="252"/></clipPath><clipPath id="clip3"><rect x="3" y="326" width="253" height="252"/></clipPath><clipPath id="clip4"><rect x="514" y="16" width="235" height="272"/></clipPath><clipPath id="clip5"><rect x="514" y="16" width="235" height="272"/></clipPath><clipPath id="clip6"><rect x="514" y="16" width="235" height="272"/></clipPath></defs><g clip-path="url(#clip0)"><rect x="0" y="0" width="761" height="605.966" fill="#FFFFFF" fill-opacity="0"/><path d="M254.432 1.17605 254.432 604.702" stroke="#000000" stroke-width="2.99934" stroke-linejoin="round" stroke-miterlimit="10" fill="none" fill-rule="evenodd"/><path d="M506.22 1.17605 506.22 604.702" stroke="#000000" stroke-width="2.99934" stroke-linejoin="round" stroke-miterlimit="10" fill="none" fill-rule="evenodd"/><path d="M1.14547 302.939 759.507 302.939" stroke="#000000" stroke-width="2.99934" stroke-linejoin="round" stroke-miterlimit="10" fill="none" fill-rule="evenodd"/><path d="M2.64509 1.17605 2.64509 604.702" stroke="#000000" stroke-width="2.99934" stroke-linejoin="round" stroke-miterlimit="10" fill="none" fill-rule="evenodd"/><path d="M758.007 1.17605 758.007 604.702" stroke="#000000" stroke-width="2.99934" stroke-linejoin="round" stroke-miterlimit="10" fill="none" fill-rule="evenodd"/><path d="M1.14547 2.67559 759.507 2.67559" stroke="#000000" stroke-width="2.99934" stroke-linejoin="round" stroke-miterlimit="10" fill="none" fill-rule="evenodd"/><path d="M1.14547 603.202 759.507 603.202" stroke="#000000" stroke-width="2.99934" stroke-linejoin="round" stroke-miterlimit="10" fill="none" fill-rule="evenodd"/><path d="M43 152.991 128 25.9985 213 152.991 128 279.984Z" fill-rule="evenodd"/><path d="M255 120.867 350.874 120.867 380.5 24.9986 410.126 120.867 506 120.867 428.436 180.116 458.063 275.984 380.5 216.734 302.937 275.984 332.564 180.116Z" fill-rule="evenodd"/><g clip-path="url(#clip1)"><g clip-path="url(#clip2)"><g clip-path="url(#clip3)"><path d="M-18.7376-45.2365 0-121.17 18.7376-45.2365 85.6797-85.6797 45.2365-18.7376 121.17 0 45.2365 18.7376 85.6797 85.6797 18.7376 45.2365 0 121.17-18.7376 45.2365-85.6797 85.6797-45.2365 18.7376-121.17 0-45.2365-18.7376-85.6797-85.6797-18.7376-45.2365Z" transform="matrix(1.00006 0 0 1 129.5 452.475)"/></g></g></g><path d="M381.5 394.978C431.917 253.819 628.542 394.978 381.5 576.468 134.458 394.978 331.083 253.819 381.5 394.978Z" stroke="#2F528F" stroke-width="1.33304" stroke-miterlimit="8" fill-rule="evenodd"/><path d="M699.5 586.467C625.494 586.467 565.5 526.477 565.5 452.475 565.5 378.473 625.494 318.482 699.5 318.482 625.494 373.984 610.495 478.967 666 552.969 675.523 565.666 686.803 576.945 699.5 586.467Z" stroke="#2F528F" stroke-width="1.33304" stroke-miterlimit="8" fill-rule="evenodd"/><g clip-path="url(#clip4)"><g clip-path="url(#clip5)"><g clip-path="url(#clip6)"><path d="M18.5762 191.925 215.424 191.925 117 21.45ZM117 248.75 215.424 78.2749 18.5762 78.2749Z" stroke="#000000" stroke-width="21.45" fill="none" transform="matrix(1 0 0 1.00265 515 16.999)"/></g></g></g></g></svg>