<svg width="761" height="512" xmlns="http://www.w3.org/2000/svg" xmlns:xlink="http://www.w3.org/1999/xlink" overflow="hidden"><defs><clipPath id="clip0"><rect x="0" y="0" width="761" height="512"/></clipPath></defs><g clip-path="url(#clip0)"><rect x="0" y="0" width="761" height="512.446" fill="#FFFFFF" fill-opacity="0"/><rect x="3.50002" y="3.50307" width="755" height="506.44" stroke="#000000" stroke-width="3.3326" stroke-miterlimit="8"/><rect x="19.5" y="20.5178" width="723" height="472.411" stroke="#000000" stroke-width="3.3326" stroke-linejoin="round" stroke-miterlimit="10" fill="#FFFFFF"/><text font-family="ABC Junior Typing,ABC Junior Typing_MSFontService,sans-serif" font-weight="700" font-size="53" transform="matrix(1 0 0 1.00087 192.602 82)">LNTB Mr Good</text><rect x="427" y="177.154" width="306" height="306.266" stroke="#000000" stroke-width="1.99956" stroke-miterlimit="8" fill="#00B0F0"/><path d="M427 331.288C427 246.715 495.5 178.155 580 178.155 664.5 178.155 733 246.715 733 331.288 733 415.861 664.5 484.421 580 484.421 495.5 484.421 427 415.861 427 331.288Z" fill="#00B0F0" fill-rule="evenodd"/><path d="M515.046 285.49C515.046 276.68 522.181 269.539 530.983 269.539 539.786 269.539 546.921 276.68 546.921 285.49 546.921 294.3 539.786 301.441 530.983 301.441 522.181 301.441 515.046 294.3 515.046 285.49M613.079 285.49C613.079 276.68 620.215 269.539 629.017 269.539 637.819 269.539 644.954 276.68 644.954 285.49 644.954 294.3 637.819 301.441 629.017 301.441 620.215 301.441 613.079 294.3 613.079 285.49" stroke="#000000" stroke-width="1.99956" stroke-miterlimit="8" fill="#008DC1" fill-rule="evenodd"/><path d="M497.073 398.071C552.358 436.072 607.578 436.072 662.733 398.071" stroke="#000000" stroke-width="1.99956" stroke-miterlimit="8" fill="none" fill-rule="evenodd"/><path d="M427 331.288C427 246.715 495.5 178.155 580 178.155 664.5 178.155 733 246.715 733 331.288 733 415.861 664.5 484.421 580 484.421 495.5 484.421 427 415.861 427 331.288Z" stroke="#000000" stroke-width="1.99956" stroke-miterlimit="8" fill="none" fill-rule="evenodd"/><rect x="25" y="362.315" width="125" height="124.108"/><text fill="#FFFFFF" font-family="Century Gothic,Century Gothic_MSFontService,sans-serif" font-weight="700" font-size="73" transform="matrix(1 0 0 1.00087 52.7996 453)">9<tspan font-size="47" x="40.991" y="0">K</tspan></text></g></svg>