<svg width="761" height="512" xmlns="http://www.w3.org/2000/svg" xmlns:xlink="http://www.w3.org/1999/xlink" overflow="hidden"><defs><clipPath id="clip0"><rect x="0" y="0" width="761" height="512"/></clipPath></defs><g clip-path="url(#clip0)"><rect x="0" y="0" width="761" height="512.446" fill="#FFFFFF" fill-opacity="0"/><rect x="2.50003" y="3.50307" width="756" height="506.44" stroke="#000000" stroke-width="3.3326" stroke-miterlimit="8"/><rect x="19.5" y="19.517" width="723" height="474.413" stroke="#000000" stroke-width="3.3326" stroke-miterlimit="8" fill="#FFFFFF"/><text font-family="ABC Junior Typing,ABC Junior Typing_MSFontService,sans-serif" font-weight="700" font-size="48" transform="matrix(1 0 0 1.00087 211.314 73)">LNTB Mr Good</text><rect x="28.9999" y="341.297" width="143" height="142.124" stroke="#000000" stroke-width="3.99912" stroke-miterlimit="8"/><text fill="#FFFFFF" font-family="Century Gothic,Century Gothic_MSFontService,sans-serif" font-weight="700" font-size="100" transform="matrix(1 0 0 1.00087 49.7206 451)">9<tspan font-size="73" x="55.9877" y="0">K</tspan></text><rect x="400" y="151.131" width="332" height="332.289" stroke="#000000" stroke-width="1.99956" stroke-miterlimit="8" fill="#00B0F0"/><path d="M402 317.776C402 227.399 475.425 154.134 566 154.134 656.575 154.134 730 227.399 730 317.776 730 408.154 656.575 481.419 566 481.419 475.425 481.419 402 408.154 402 317.776Z" fill="#00B0F0" fill-rule="evenodd"/><path d="M496.376 268.835C496.376 259.421 504.025 251.789 513.459 251.789 522.894 251.789 530.543 259.421 530.543 268.835 530.543 278.249 522.894 285.881 513.459 285.881 504.025 285.881 496.376 278.249 496.376 268.835M601.457 268.835C601.457 259.421 609.106 251.789 618.541 251.789 627.975 251.789 635.624 259.421 635.624 268.835 635.624 278.249 627.975 285.881 618.541 285.881 609.106 285.881 601.457 278.249 601.457 268.835" stroke="#000000" stroke-width="1.99956" stroke-miterlimit="8" fill="#008DC1" fill-rule="evenodd"/><path d="M477.111 389.142C536.37 429.751 595.561 429.751 654.682 389.142" stroke="#000000" stroke-width="1.99956" stroke-miterlimit="8" fill="none" fill-rule="evenodd"/><path d="M402 317.776C402 227.399 475.425 154.134 566 154.134 656.575 154.134 730 227.399 730 317.776 730 408.154 656.575 481.419 566 481.419 475.425 481.419 402 408.154 402 317.776Z" stroke="#000000" stroke-width="1.99956" stroke-miterlimit="8" fill="none" fill-rule="evenodd"/></g></svg>