<svg width="1328" height="671" xmlns="http://www.w3.org/2000/svg" xmlns:xlink="http://www.w3.org/1999/xlink" overflow="hidden"><defs><clipPath id="clip0"><rect x="0" y="0" width="1328" height="671"/></clipPath></defs><g clip-path="url(#clip0)"><rect x="0" y="0" width="1328" height="670" fill="#FFFFFF" transform="scale(1 1.00087)"/><rect x="0" y="0" width="1323" height="408" stroke="#000000" stroke-width="3.9995" stroke-linejoin="round" stroke-miterlimit="10" fill="none" transform="matrix(1 0 -0 1.00087 1.99996 2.0017)"/><rect x="0" y="0" width="525" height="91" stroke="#4472C4" stroke-width="3.33291" stroke-miterlimit="8" fill="#D9D9D9" transform="matrix(1 0 -0 1.00087 401.5 12.5108)"/><text font-family="Century Gothic,Century Gothic_MSFontService,sans-serif" font-weight="700" font-size="42" transform="matrix(1 0 0 1.00087 415.261 74)">APPLIED RESEARCH <tspan x="388.951" y="0">-</tspan><tspan x="418.281" y="0">APR</tspan><tspan x="-91.9384" y="297.741">The aim of the Applied Research</tspan><tspan x="-243.719" y="78.9312">IT USES  BASIC RESEARCH THEORIES TO PROVIDE A </tspan><tspan x="-148.731" y="128.888">POSSIBLE SOLUTION FOR THE APR CLIENT</tspan></text><rect x="0" y="0" width="1323" height="74" stroke="#0D0D0D" stroke-width="3.9995" stroke-miterlimit="8" fill="#D9D9D9" transform="matrix(1 0 -0 1.00087 1.99996 230.2)"/><text font-family="Century Gothic,Century Gothic_MSFontService,sans-serif" font-weight="700" font-size="42" transform="matrix(1 0 0 1.00087 178.207 283)">MILLIONS OF LEARNERS IN AFRICA ARE ILLITERATE</text><rect x="0" y="0" width="1323" height="263" stroke="#0D0D0D" stroke-width="3.9995" stroke-miterlimit="8" fill="#D9D9D9" transform="matrix(1 0 -0 1.00087 1.99996 405.353)"/><text font-family="Century Gothic,Century Gothic_MSFontService,sans-serif" font-weight="700" font-size="42" transform="matrix(1 0 0 1.00087 138.959 477)">To develop a Basic Concept Mathematic Language <tspan x="-100.067" y="49.9565">Programme (BCMLP) to teach basic concepts (BC) to learners </tspan><tspan x="-103.234" y="100.912">in the FP who have severe BC mathematics, language barriers </tspan><tspan x="410.615" y="150.869">to learning. </tspan></text><rect x="0" y="0" width="53" height="53.9999" stroke="#000000" stroke-width="1.33317" stroke-miterlimit="8" fill="none" transform="matrix(1 0 -0 1.00087 14.5 315.775)"/><text font-family="Century Gothic,Century Gothic_MSFontService,sans-serif" font-weight="700" font-size="42" transform="matrix(1 0 0 1.00087 28.6292 359)">5</text><rect x="0" y="0" width="53" height="53.9999" stroke="#000000" stroke-width="2.66633" stroke-miterlimit="8" transform="matrix(1 0 -0 1.00087 14.5 14.5127)"/><text fill="#FFFFFF" font-family="Century Gothic,Century Gothic_MSFontService,sans-serif" font-weight="700" font-size="42" transform="matrix(1 0 0 1.00087 24.8797 57)">A</text></g></svg>