<svg width="1328" height="894" xmlns="http://www.w3.org/2000/svg" xmlns:xlink="http://www.w3.org/1999/xlink" overflow="hidden"><defs><clipPath id="clip0"><rect x="0" y="0" width="1328" height="894"/></clipPath></defs><g clip-path="url(#clip0)"><rect x="0" y="0" width="1328" height="893.612" fill="#FFFFFF"/><path d="M1245.94 85.0583 114 85.0583 114 648.403 1245.94 648.403 1245.94 85.0583Z" stroke="#0D0D0D" stroke-width="1.99975" stroke-linejoin="round" stroke-miterlimit="10" fill="#FF66FF" fill-rule="evenodd"/><text font-family="Century Gothic,Century Gothic_MSFontService,sans-serif" font-weight="700" font-size="40" transform="matrix(1 0 0 1.00069 312.645 62)">DISTRIBUTION <tspan font-size="40" x="260.734" y="0">-</tspan>TECHNOLOGY<tspan font-size="40" x="555.197" y="0">(WEBSITE)</tspan></text><rect x="3.00004" y="731.501" width="1322" height="160.11" stroke="#0D0D0D" stroke-width="3.9995" stroke-miterlimit="8" fill="#D9D9D9"/><text font-family="Century Gothic,Century Gothic_MSFontService,sans-serif" font-weight="700" font-size="40" transform="matrix(1 0 0 1.00069 142.732 803)">ENGLISH  ***** Global language +  Language of Africa <tspan font-size="40" x="-90.4886" y="47.9671">+ COVID 19  highlights the  importance of English in Technology</tspan><tspan font-size="40" x="202.75" y="-97.9329">DISTRIBUTION </tspan>–<tspan font-size="40" x="493.98" y="-97.9329">WORLD WIDE (org)</tspan></text><rect x="3.00004" y="3.0021" width="1322" height="728.499" stroke="#0D0D0D" stroke-width="3.9995" stroke-miterlimit="8" fill="none"/><path d="M1172.5 119.582 188.5 119.582 188.5 314.715 1172.5 314.715 1172.5 119.582Z" stroke="#000000" stroke-width="2.66633" stroke-linejoin="round" stroke-miterlimit="10" fill="#FFFFFF" fill-rule="evenodd"/><rect x="687.5" y="138.595" width="225" height="158.108" stroke="#000000" stroke-width="2.66633" stroke-linejoin="round" stroke-miterlimit="10" fill="#00AFEF"/><text font-family="ABC Junior Typing,ABC Junior Typing_MSFontService,sans-serif" font-weight="400" font-size="40" transform="matrix(1 0 0 1.00069 753.88 181)">place<tspan font-size="40" x="-37.8885" y="47.9671">di</tspan><tspan font-size="40" x="-9.05884" y="47.9671">r</tspan><tspan font-size="40" x="11.8519" y="47.9671">e</tspan><tspan font-size="40" x="32.9625" y="47.9671">c</tspan><tspan font-size="40" x="53.1267" y="47.9671">t</tspan><tspan font-size="40" x="79.5034" y="47.9671">i</tspan><tspan font-size="40" x="86.3359" y="47.9671">o</tspan><tspan font-size="40" x="107.28" y="47.9671">n</tspan><tspan font-size="40" x="-25.4168" y="95.9343">position</tspan></text><rect x="929.5" y="138.595" width="225" height="158.108" stroke="#000000" stroke-width="2.66633" stroke-linejoin="round" stroke-miterlimit="10" fill="#17EF1D"/><text font-family="ABC Junior Typing,ABC Junior Typing_MSFontService,sans-serif" font-weight="400" font-size="40" transform="matrix(1 0 0 1.00069 961.938 225)">numbers</text><rect x="445.5" y="138.595" width="225" height="158.108" stroke="#000000" stroke-width="2.66633" stroke-linejoin="round" stroke-miterlimit="10" fill="#FFFF00"/><text font-family="ABC Junior Typing,ABC Junior Typing_MSFontService,sans-serif" font-weight="400" font-size="40" transform="matrix(1 0 0 1.00069 497.641 225)">shapes</text><rect x="203.5" y="138.595" width="225" height="158.108" stroke="#000000" stroke-width="2.66633" stroke-linejoin="round" stroke-miterlimit="10" fill="#FF0000"/><text font-family="ABC Junior Typing,ABC Junior Typing_MSFontService,sans-serif" font-weight="400" font-size="40" transform="matrix(1 0 0 1.00069 251.571 225)">colours<tspan font-family="Century Gothic,Century Gothic_MSFontService,sans-serif" font-weight="700" font-size="40" x="-115.154" y="383.737">GLOBAL LANGUAGE AFRICA + TECHNOLOGY (COVID 19)</tspan></text><path d="M1172.5 344.736 188.5 344.736 188.5 539.87 1172.5 539.87 1172.5 344.736Z" stroke="#000000" stroke-width="2.66633" stroke-linejoin="round" stroke-miterlimit="10" fill="#FFFFFF" fill-rule="evenodd"/><rect x="203.5" y="363.749" width="225" height="158.108" stroke="#000000" stroke-width="2.66633" stroke-linejoin="round" stroke-miterlimit="10" fill="#FFC000"/><text font-family="ABC Junior Typing,ABC Junior Typing_MSFontService,sans-serif" font-weight="400" font-size="40" transform="matrix(1 0 0 1.00069 248.712 451)">letters</text><rect x="445.5" y="363.749" width="225" height="158.108" stroke="#000000" stroke-width="2.66633" stroke-linejoin="round" stroke-miterlimit="10" fill="#CC66FF"/><text font-family="ABC Junior Typing,ABC Junior Typing_MSFontService,sans-serif" font-weight="400" font-size="40" transform="matrix(1 0 0 1.00069 500.548 451)">words</text><rect x="928.5" y="363.749" width="226" height="158.108" stroke="#000000" stroke-width="2.66633" stroke-linejoin="round" stroke-miterlimit="10" fill="#FFFFCC"/><text font-family="ABC Junior Typing,ABC Junior Typing_MSFontService,sans-serif" font-weight="400" font-size="40" transform="matrix(1 0 0 1.00069 969.895 427)">themes<tspan font-size="40" x="21.444" y="47.9671">LNTB</tspan></text><rect x="686" y="363.249" width="226" height="158.108"/><text fill="#FFFFFF" font-family="ABC Junior Typing,ABC Junior Typing_MSFontService,sans-serif" font-weight="400" font-size="40" transform="matrix(1 0 0 1.00069 709.636 406)">materials<tspan font-size="40" x="-2.83301" y="47.9671">name, use</tspan><tspan font-size="40" x="-9.09222" y="95.9343">properties</tspan></text><rect x="14.5" y="14.51" width="53" height="53.0363" stroke="#000000" stroke-width="2.66633" stroke-miterlimit="8"/><text fill="#FFFFFF" font-family="Century Gothic,Century Gothic_MSFontService,sans-serif" font-weight="700" font-size="40" transform="matrix(1 0 0 1.00069 24.9833 56)">C</text></g></svg>