<svg width="1328" height="894" xmlns="http://www.w3.org/2000/svg" xmlns:xlink="http://www.w3.org/1999/xlink" overflow="hidden"><defs><clipPath id="clip0"><rect x="0" y="0" width="1328" height="894"/></clipPath></defs><g clip-path="url(#clip0)"><rect x="0" y="0" width="1328" height="893" fill="#FFFFFF" transform="scale(1 1.00069)"/><rect x="0" y="0" width="479" height="66" stroke="#000000" stroke-width="2.66633" stroke-linejoin="round" stroke-miterlimit="10" fill="none" transform="matrix(1 0 -0 1.00069 426.5 31.5216)"/><text font-family="Century Gothic,Century Gothic_MSFontService,sans-serif" font-weight="700" font-size="42" transform="matrix(1 0 0 1.00069 435.534 80)">BASIC <tspan x="132.43" y="0">CONCEPT</tspan><tspan x="336.838" y="0">TERMS</tspan></text><rect x="0" y="0" width="53.0001" height="46" stroke="#000000" stroke-width="2.66633" stroke-linejoin="round" stroke-miterlimit="10" fill="none" transform="matrix(1 0 -0 1.00069 277.5 119.582)"/><text font-family="Century Gothic,Century Gothic_MSFontService,sans-serif" font-weight="400" font-size="42" transform="matrix(1 0 0 1.00069 292.14 158)">1</text><rect x="0" y="0" width="1323" height="740" stroke="#000000" stroke-width="3.9995" stroke-miterlimit="8" fill="none" transform="matrix(1 0 -0 1.00069 1.99996 2.00133)"/><rect x="0" y="0" width="1323" height="149" stroke="#0D0D0D" stroke-width="3.9995" stroke-miterlimit="8" fill="#D9D9D9" transform="matrix(1 0 -0 1.00069 1.99996 742.508)"/><text font-family="Century Gothic,Century Gothic_MSFontService,sans-serif" font-weight="700" font-size="42" transform="matrix(1 0 0 1.00069 199.121 808)">Twelve BC terms make up the BC Programme.  <tspan x="11.4119" y="49.9658">Each term plays an important integrated role</tspan></text><path d="M984 0 0 0 0 201 984 201 984 0Z" stroke="#000000" stroke-width="2.66633" stroke-linejoin="round" stroke-miterlimit="10" fill="#FFFFFF" fill-rule="evenodd" transform="matrix(1 0 -0 1.00069 173.5 196.635)"/><rect x="0" y="0" width="225" height="161" stroke="#000000" stroke-width="2.66633" stroke-linejoin="round" stroke-miterlimit="10" fill="#00AFEF" transform="matrix(1 0 -0 1.00069 674.5 216.648)"/><text font-family="Century Gothic,Century Gothic_MSFontService,sans-serif" font-weight="400" font-size="42" transform="matrix(1 0 0 1.00069 726.336 262)">place<tspan x="-29.463" y="49.9658">di</tspan><tspan x="7.53241" y="49.9658">r</tspan>e<tspan x="46.6942" y="49.9658">c</tspan><tspan x="73.8574" y="49.9658">t</tspan><tspan x="87.9023" y="49.9658">i</tspan><tspan x="96.2346" y="49.9658">o</tspan><tspan x="123.678" y="49.9658">n</tspan><tspan x="-18.0844" y="100.931">position</tspan></text><rect x="0" y="0" width="225" height="161" stroke="#000000" stroke-width="2.66633" stroke-linejoin="round" stroke-miterlimit="10" fill="#17EF1D" transform="matrix(1 0 -0 1.00069 914.5 216.648)"/><text font-family="Century Gothic,Century Gothic_MSFontService,sans-serif" font-weight="400" font-size="42" transform="matrix(1 0 0 1.00069 939.293 313)">numbers</text><rect x="0" y="0" width="225" height="161" stroke="#000000" stroke-width="2.66633" stroke-linejoin="round" stroke-miterlimit="10" fill="#FFFF00" transform="matrix(1 0 -0 1.00069 431.5 216.648)"/><text font-family="Century Gothic,Century Gothic_MSFontService,sans-serif" font-weight="400" font-size="42" transform="matrix(1 0 0 1.00069 472.56 313)">shapes</text><rect x="0" y="0" width="226" height="161" stroke="#000000" stroke-width="2.66633" stroke-linejoin="round" stroke-miterlimit="10" fill="#FF0000" transform="matrix(1 0 -0 1.00069 188.5 216.648)"/><text font-family="Century Gothic,Century Gothic_MSFontService,sans-serif" font-weight="400" font-size="42" transform="matrix(1 0 0 1.00069 229.305 313)">colours</text><path d="M984 0 0 0 0 199.974 984 199.974 984 0Z" stroke="#000000" stroke-width="2.66633" stroke-linejoin="round" stroke-miterlimit="10" fill="#FFFFFF" fill-rule="evenodd" transform="matrix(1 0 -0 1.00069 173.5 485.833)"/><rect x="0" y="0" width="53" height="46" stroke="#000000" stroke-width="2.66633" stroke-linejoin="round" stroke-miterlimit="10" fill="none" transform="matrix(1 0 -0 1.00069 517.5 119.582)"/><text font-family="Century Gothic,Century Gothic_MSFontService,sans-serif" font-weight="400" font-size="42" transform="matrix(1 0 0 1.00069 531.732 158)">2</text><rect x="0" y="0" width="52" height="46" stroke="#000000" stroke-width="2.66633" stroke-linejoin="round" stroke-miterlimit="10" fill="none" transform="matrix(1 0 -0 1.00069 704.5 119.582)"/><text font-family="Century Gothic,Century Gothic_MSFontService,sans-serif" font-weight="400" font-size="42" transform="matrix(1 0 0 1.00069 718.331 158)">3</text><rect x="0" y="0" width="52" height="46" stroke="#000000" stroke-width="2.66633" stroke-linejoin="round" stroke-miterlimit="10" fill="none" transform="matrix(1 0 -0 1.00069 757.5 119.582)"/><text font-family="Century Gothic,Century Gothic_MSFontService,sans-serif" font-weight="400" font-size="42" transform="matrix(1 0 0 1.00069 771.324 158)">4</text><rect x="0" y="0" width="53" height="46" stroke="#000000" stroke-width="2.66633" stroke-linejoin="round" stroke-miterlimit="10" fill="none" transform="matrix(1 0 -0 1.00069 996.5 119.582)"/><text font-family="Century Gothic,Century Gothic_MSFontService,sans-serif" font-weight="400" font-size="42" transform="matrix(1 0 0 1.00069 1011.13 158)">6</text><rect x="0" y="0" width="53.0001" height="47.0001" stroke="#000000" stroke-width="2.66633" stroke-linejoin="round" stroke-miterlimit="10" fill="none" transform="matrix(1 0 -0 1.00069 277.5 421.789)"/><text font-family="Century Gothic,Century Gothic_MSFontService,sans-serif" font-weight="400" font-size="42" transform="matrix(1 0 0 1.00069 292.14 461)">7</text><rect x="0" y="0" width="53" height="47.0001" stroke="#000000" stroke-width="2.66633" stroke-linejoin="round" stroke-miterlimit="10" fill="none" transform="matrix(1 0 -0 1.00069 517.5 421.789)"/><text font-family="Century Gothic,Century Gothic_MSFontService,sans-serif" font-weight="400" font-size="42" transform="matrix(1 0 0 1.00069 531.732 461)">8</text><rect x="0" y="0" width="53" height="47.0001" stroke="#000000" stroke-width="2.66633" stroke-linejoin="round" stroke-miterlimit="10" fill="none" transform="matrix(1 0 -0 1.00069 701.5 421.789)"/><text font-family="Century Gothic,Century Gothic_MSFontService,sans-serif" font-weight="400" font-size="42" transform="matrix(1 0 0 1.00069 715.866 461)">9</text><rect x="0" y="0" width="52.0001" height="47.0001" stroke="#000000" stroke-width="2.66633" stroke-linejoin="round" stroke-miterlimit="10" fill="none" transform="matrix(1 0 -0 1.00069 754.5 421.789)"/><text font-family="Century Gothic,Century Gothic_MSFontService,sans-serif" font-weight="400" font-size="42" transform="matrix(1 0 0 1.00069 756.89 461)">10</text><rect x="0" y="0" width="53" height="47.0001" stroke="#000000" stroke-width="2.66633" stroke-linejoin="round" stroke-miterlimit="10" fill="none" transform="matrix(1 0 -0 1.00069 806.5 421.789)"/><text font-family="Century Gothic,Century Gothic_MSFontService,sans-serif" font-weight="400" font-size="42" transform="matrix(1 0 0 1.00069 809.497 461)">11</text><rect x="0" y="0" width="52" height="47.0001" stroke="#000000" stroke-width="2.66633" stroke-linejoin="round" stroke-miterlimit="10" fill="none" transform="matrix(1 0 -0 1.00069 997.5 421.789)"/><text font-family="Century Gothic,Century Gothic_MSFontService,sans-serif" font-weight="400" font-size="42" transform="matrix(1 0 0 1.00069 999.721 461)">12</text><rect x="0" y="0" width="223" height="163" stroke="#000000" stroke-width="2.66633" stroke-linejoin="round" stroke-miterlimit="10" fill="#FFC000" transform="matrix(1 0 -0 1.00069 188.5 502.844)"/><text font-family="Century Gothic,Century Gothic_MSFontService,sans-serif" font-weight="400" font-size="42" transform="matrix(1 0 0 1.00069 241.133 600)">letters</text><rect x="0" y="0" width="223" height="163" stroke="#000000" stroke-width="2.66633" stroke-linejoin="round" stroke-miterlimit="10" fill="#CC66FF" transform="matrix(1 0 -0 1.00069 432.5 502.844)"/><text font-family="Century Gothic,Century Gothic_MSFontService,sans-serif" font-weight="400" font-size="42" transform="matrix(1 0 0 1.00069 484.032 600)">words</text><rect x="0" y="0" width="223" height="163" stroke="#000000" stroke-width="2.66633" stroke-linejoin="round" stroke-miterlimit="10" fill="#FFFFCC" transform="matrix(1 0 -0 1.00069 914.5 502.844)"/><text font-family="Century Gothic,Century Gothic_MSFontService,sans-serif" font-weight="400" font-size="42" transform="matrix(1 0 0 1.00069 950.57 575)">themes<tspan x="28.6898" y="49.9658">LNTB</tspan></text><rect x="0" y="0" width="215" height="153" transform="matrix(1 0 -0 1.00069 679 507.347)"/><text fill="#FFFFFF" font-family="Century Gothic,Century Gothic_MSFontService,sans-serif" font-weight="400" font-size="42" transform="matrix(1 0 0 1.00069 694.359 550)">materials<tspan x="-14.6648" y="49.9658">name, use</tspan><tspan x="-9.83209" y="100.931">properties</tspan></text><rect x="0" y="0" width="53" height="53" stroke="#000000" stroke-width="2.66633" stroke-miterlimit="8" transform="matrix(1 0 -0 1.00069 14.5 14.51)"/><text fill="#FFFFFF" font-family="Century Gothic,Century Gothic_MSFontService,sans-serif" font-weight="700" font-size="42" transform="matrix(1 0 0 1.00069 28.2125 56)">B</text><rect x="0" y="0" width="52.0001" height="46" stroke="#000000" stroke-width="2.66633" stroke-linejoin="round" stroke-miterlimit="10" fill="none" transform="matrix(1 0 -0 1.00069 810.5 119.582)"/><text font-family="Century Gothic,Century Gothic_MSFontService,sans-serif" font-weight="400" font-size="42" transform="matrix(1 0 0 1.00069 824.321 158)">5</text></g></svg>