<svg width="1328" height="894" xmlns="http://www.w3.org/2000/svg" xmlns:xlink="http://www.w3.org/1999/xlink" overflow="hidden"><defs><clipPath id="clip0"><rect x="0" y="0" width="1328" height="894"/></clipPath></defs><g clip-path="url(#clip0)"><rect x="0" y="0" width="1328" height="893" fill="#FFFFFF" transform="scale(1 1.00069)"/><path d="M1132.94 0 0 0 0 561.959 1132.94 561.959 1132.94 0Z" stroke="#0D0D0D" stroke-width="1.99975" stroke-linejoin="round" stroke-miterlimit="10" fill="#FF66FF" fill-rule="evenodd" transform="matrix(1 0 -0 1.00069 113 85.0583)"/><text font-family="Century Gothic,Century Gothic_MSFontService,sans-serif" font-weight="700" font-size="40" transform="matrix(1 0 0 1.00069 312.458 62)">DISTRIBUTION <tspan x="260.734" y="0">-</tspan>TECHNOLOGY<tspan x="555.197" y="0">(WEBSITE)</tspan></text><rect x="0" y="0" width="1323" height="160" stroke="#0D0D0D" stroke-width="3.9995" stroke-miterlimit="8" fill="#D9D9D9" transform="matrix(1 0 -0 1.00069 1.99996 731.501)"/><text font-family="Century Gothic,Century Gothic_MSFontService,sans-serif" font-weight="700" font-size="40" transform="matrix(1 0 0 1.00069 142.545 803)">ENGLISH  ***** Global language +  Language of Africa <tspan x="-90.4886" y="47.9671">+ COVID 19  highlights the  importance of English in Technology</tspan><tspan x="202.75" y="-97.9329">DISTRIBUTION </tspan><tspan x="463.484" y="-97.9329">–</tspan><tspan x="493.98" y="-97.9329">WORLD WIDE (org)</tspan></text><rect x="0" y="0" width="1323" height="729" stroke="#0D0D0D" stroke-width="3.9995" stroke-miterlimit="8" fill="none" transform="matrix(1 0 -0 1.00069 1.99996 2.00133)"/><path d="M984 0 0 0 0 196 984 196 984 0Z" stroke="#000000" stroke-width="2.66633" stroke-linejoin="round" stroke-miterlimit="10" fill="#FFFFFF" fill-rule="evenodd" transform="matrix(1 0 -0 1.00069 188.5 118.581)"/><rect x="0" y="0" width="225" height="158" stroke="#000000" stroke-width="2.66633" stroke-linejoin="round" stroke-miterlimit="10" fill="#00AFEF" transform="matrix(1 0 -0 1.00069 687.5 138.595)"/><text font-family="Century Gothic,Century Gothic_MSFontService,sans-serif" font-weight="400" font-size="40" transform="matrix(1 0 0 1.00069 742.278 184)">place<tspan x="-28.0565" y="47.9671">di</tspan><tspan x="7.27246" y="47.9671">r</tspan><tspan x="18.6843" y="47.9671">e</tspan><tspan x="44.6277" y="47.9671">c</tspan><tspan x="70.4578" y="47.9671">t</tspan><tspan x="83.8362" y="47.9671">i</tspan><tspan x="91.8351" y="47.9671">o</tspan><tspan x="117.945" y="47.9671">n</tspan><tspan x="-17.1645" y="95.9343">position</tspan></text><rect x="0" y="0" width="225" height="158" stroke="#000000" stroke-width="2.66633" stroke-linejoin="round" stroke-miterlimit="10" fill="#17EF1D" transform="matrix(1 0 -0 1.00069 929.5 138.595)"/><text font-family="Century Gothic,Century Gothic_MSFontService,sans-serif" font-weight="400" font-size="40" transform="matrix(1 0 0 1.00069 958.252 232)">numbers</text><rect x="0" y="0" width="225" height="158" stroke="#000000" stroke-width="2.66633" stroke-linejoin="round" stroke-miterlimit="10" fill="#FFFF00" transform="matrix(1 0 -0 1.00069 445.5 138.595)"/><text font-family="Century Gothic,Century Gothic_MSFontService,sans-serif" font-weight="400" font-size="40" transform="matrix(1 0 0 1.00069 489.622 232)">shapes</text><rect x="0" y="0" width="225" height="158" stroke="#000000" stroke-width="2.66633" stroke-linejoin="round" stroke-miterlimit="10" fill="#FF0000" transform="matrix(1 0 -0 1.00069 203.5 138.595)"/><text font-family="Century Gothic,Century Gothic_MSFontService,sans-serif" font-weight="400" font-size="40" transform="matrix(1 0 0 1.00069 247.134 232)">colours<tspan font-weight="700" x="-110.904" y="376.742">GLOBAL LANGUAGE AFRICA + TECHNOLOGY (COVID 19)</tspan></text><path d="M984 0 0 0 0 195 984 195 984 0Z" stroke="#000000" stroke-width="2.66633" stroke-linejoin="round" stroke-miterlimit="10" fill="#FFFFFF" fill-rule="evenodd" transform="matrix(1 0 -0 1.00069 188.5 344.736)"/><rect x="0" y="0" width="226" height="158" stroke="#000000" stroke-width="2.66633" stroke-linejoin="round" stroke-miterlimit="10" fill="#FFC000" transform="matrix(1 0 -0 1.00069 202.5 363.749)"/><text font-family="Century Gothic,Century Gothic_MSFontService,sans-serif" font-weight="400" font-size="40" transform="matrix(1 0 0 1.00069 259.124 457)">letters</text><rect x="0" y="0" width="226" height="158" stroke="#000000" stroke-width="2.66633" stroke-linejoin="round" stroke-miterlimit="10" fill="#CC66FF" transform="matrix(1 0 -0 1.00069 444.5 363.749)"/><text font-family="Century Gothic,Century Gothic_MSFontService,sans-serif" font-weight="400" font-size="40" transform="matrix(1 0 0 1.00069 500.611 457)">words</text><rect x="0" y="0" width="226" height="158" stroke="#000000" stroke-width="2.66633" stroke-linejoin="round" stroke-miterlimit="10" fill="#FFFFCC" transform="matrix(1 0 -0 1.00069 928.5 363.749)"/><text font-family="Century Gothic,Century Gothic_MSFontService,sans-serif" font-weight="400" font-size="40" transform="matrix(1 0 0 1.00069 969.708 433)">themes<tspan x="27.2766" y="47.9671">LNTB</tspan></text><rect x="0" y="0" width="226" height="158" transform="matrix(1 0 -0 1.00069 686 363.249)"/><text fill="#FFFFFF" font-family="Century Gothic,Century Gothic_MSFontService,sans-serif" font-weight="400" font-size="40" transform="matrix(1 0 0 1.00069 711.446 409)">materials<tspan x="-13.9116" y="47.9671">name, use</tspan><tspan x="-9.33215" y="95.9343">properties</tspan></text><rect x="0" y="0" width="53" height="53" stroke="#000000" stroke-width="2.66633" stroke-miterlimit="8" transform="matrix(1 0 -0 1.00069 14.5 14.51)"/><text fill="#FFFFFF" font-family="Century Gothic,Century Gothic_MSFontService,sans-serif" font-weight="700" font-size="40" transform="matrix(1 0 0 1.00069 24.7963 55)">C</text></g></svg>