<svg width="980" height="395" xmlns="http://www.w3.org/2000/svg" xmlns:xlink="http://www.w3.org/1999/xlink" overflow="hidden"><defs><clipPath id="clip0"><rect x="0" y="0" width="980" height="395"/></clipPath></defs><g clip-path="url(#clip0)"><rect x="0" y="0" width="980" height="394.634" fill="#FFFFFF" fill-opacity="0"/><path d="M977.5 3.50564 3.50002 3.50564 3.50002 197.818 977.5 197.818 977.5 3.50564Z" stroke="#000000" stroke-width="2.66576" stroke-linejoin="round" stroke-miterlimit="10" fill="#FFFFFF" fill-rule="evenodd"/><rect x="497.5" y="22.5361" width="223" height="157.253" stroke="#000000" stroke-width="2.66576" stroke-linejoin="round" stroke-miterlimit="10" fill="#00AFEF"/><text font-family="ABC Junior Typing,ABC Junior Typing_MSFontService,sans-serif" font-weight="400" font-size="40" transform="matrix(1 0 0 1.00161 562.824 65)">place<tspan font-size="40" x="-37.8804" y="47.9229">di</tspan><tspan font-size="40" x="-9.05688" y="47.9229">r</tspan><tspan font-size="40" x="11.8493" y="47.9229">e</tspan><tspan font-size="40" x="32.9555" y="47.9229">c</tspan><tspan font-size="40" x="53.1153" y="47.9229">t</tspan>i<tspan font-size="40" x="86.3173" y="47.9229">o</tspan><tspan font-size="40" x="107.257" y="47.9229">n</tspan><tspan font-size="40" x="-25.4113" y="95.8459">position</tspan></text><rect x="737.5" y="22.5361" width="223" height="157.253" stroke="#000000" stroke-width="2.66576" stroke-linejoin="round" stroke-miterlimit="10" fill="#17EF1D"/><text font-family="ABC Junior Typing,ABC Junior Typing_MSFontService,sans-serif" font-weight="400" font-size="40" transform="matrix(1 0 0 1.00161 768.645 109)">numbers</text><rect x="257.5" y="22.5361" width="223" height="157.253" stroke="#000000" stroke-width="2.66576" stroke-linejoin="round" stroke-miterlimit="10" fill="#FFFF00"/><text font-family="ABC Junior Typing,ABC Junior Typing_MSFontService,sans-serif" font-weight="400" font-size="40" transform="matrix(1 0 0 1.00161 308.832 109)">shapes</text><rect x="17.5" y="22.5361" width="224" height="157.253" stroke="#000000" stroke-width="2.66576" stroke-linejoin="round" stroke-miterlimit="10" fill="#FF0000"/><text font-family="ABC Junior Typing,ABC Junior Typing_MSFontService,sans-serif" font-weight="400" font-size="40" transform="matrix(1 0 0 1.00161 65.0062 109)">colours</text><path d="M977.5 197.818 3.50002 197.818 3.50002 393.131 977.5 393.131 977.5 197.818Z" stroke="#000000" stroke-width="2.66576" stroke-linejoin="round" stroke-miterlimit="10" fill="#FFFFFF" fill-rule="evenodd"/><rect x="17.5" y="216.848" width="223" height="158.254" stroke="#000000" stroke-width="2.66576" stroke-linejoin="round" stroke-miterlimit="10" fill="#FFC000"/><text font-family="ABC Junior Typing,ABC Junior Typing_MSFontService,sans-serif" font-weight="400" font-size="40" transform="matrix(1 0 0 1.00161 62.1511 304)">letters</text><rect x="257.5" y="216.848" width="223" height="158.254" stroke="#000000" stroke-width="2.66576" stroke-linejoin="round" stroke-miterlimit="10" fill="#CC66FF"/><text font-family="ABC Junior Typing,ABC Junior Typing_MSFontService,sans-serif" font-weight="400" font-size="40" transform="matrix(1 0 0 1.00161 311.741 304)">words</text><rect x="736.5" y="216.848" width="224" height="158.254" stroke="#000000" stroke-width="2.66576" stroke-linejoin="round" stroke-miterlimit="10" fill="#FFFFCC"/><text font-family="ABC Junior Typing,ABC Junior Typing_MSFontService,sans-serif" font-weight="400" font-size="40" transform="matrix(1 0 0 1.00161 776.603 280)">themes<tspan font-size="40" x="21.4394" y="47.9229">LNTB</tspan></text><rect x="496.5" y="216.848" width="224" height="158.254" stroke="#000000" stroke-width="2.66576" stroke-linejoin="round" stroke-miterlimit="10"/><text fill="#FFFFFF" font-family="ABC Junior Typing,ABC Junior Typing_MSFontService,sans-serif" font-weight="400" font-size="40" transform="matrix(1 0 0 1.00161 518.593 260)">materials<tspan font-size="40" x="-2.8324" y="47.9229">name, use</tspan><tspan font-size="40" x="-9.09027" y="95.8459">properties</tspan></text></g></svg>