<svg width="761" height="512" xmlns="http://www.w3.org/2000/svg" xmlns:xlink="http://www.w3.org/1999/xlink" overflow="hidden"><defs><clipPath id="clip0"><rect x="0" y="0" width="761" height="512"/></clipPath></defs><g clip-path="url(#clip0)"><rect x="0" y="0" width="761" height="512.446" fill="#FFFFFF" fill-opacity="0"/><rect x="3.50002" y="3.50307" width="755" height="506.44" stroke="#000000" stroke-width="3.3326" stroke-miterlimit="8" fill="none"/><text font-family="ABC Junior Typing,ABC Junior Typing_MSFontService,sans-serif" font-weight="700" font-size="53" transform="matrix(1 0 0 1.00087 190.385 65)">Basic Concept<tspan font-size="53" x="-1.8596" y="79.9304">Building shapes</tspan></text><path d="M428 339.796 527.989 314.709 475.009 226.206 563.436 279.232 588.5 179.156 613.564 279.232 701.991 226.206 649.011 314.709 749 339.796 649.011 364.882 701.991 453.385 613.564 400.359 588.5 500.435 563.436 400.359 475.009 453.385 527.989 364.882Z" fill-rule="evenodd"/><rect x="9.00002" y="378.329" width="125" height="125.109"/><text fill="#FFFFFF" font-family="Century Gothic,Century Gothic_MSFontService,sans-serif" font-weight="700" font-size="73" transform="matrix(1 0 0 1.00087 51.2997 469)">9</text></g></svg>