<svg width="980" height="395" xmlns="http://www.w3.org/2000/svg" xmlns:xlink="http://www.w3.org/1999/xlink" overflow="hidden"><defs><clipPath id="clip0"><rect x="0" y="0" width="980" height="395"/></clipPath></defs><g clip-path="url(#clip0)"><rect x="0" y="0" width="980" height="394.634" fill="#FFFFFF" fill-opacity="0"/><path d="M977.5 3.50564 3.50002 3.50564 3.50002 197.818 977.5 197.818 977.5 3.50564Z" stroke="#000000" stroke-width="2.66576" stroke-linejoin="round" stroke-miterlimit="10" fill="#FFFFFF" fill-rule="evenodd"/><rect x="497" y="22.0353" width="223" height="157.253" stroke="#000000" stroke-width="1.99932" stroke-linejoin="round" stroke-miterlimit="10" fill="#00AFEF"/><text font-family="ABC Junior Typing,ABC Junior Typing_MSFontService,sans-serif" font-weight="400" font-size="40" transform="matrix(1 0 0 1.00161 562.824 65)">place<tspan font-size="40" x="-37.8804" y="47.9229">di</tspan><tspan font-size="40" x="-9.05688" y="47.9229">r</tspan><tspan font-size="40" x="11.8493" y="47.9229">e</tspan><tspan font-size="40" x="32.9555" y="47.9229">c</tspan><tspan font-size="40" x="53.1153" y="47.9229">t</tspan>i<tspan font-size="40" x="86.3173" y="47.9229">o</tspan><tspan font-size="40" x="107.257" y="47.9229">n</tspan><tspan font-size="40" x="-25.4113" y="95.8459">position</tspan></text><rect x="737" y="22.0353" width="223" height="157.253" stroke="#000000" stroke-width="1.99932" stroke-linejoin="round" stroke-miterlimit="10"/><text fill="#FFFFFF" font-family="ABC Junior Typing,ABC Junior Typing_MSFontService,sans-serif" font-weight="400" font-size="40" transform="matrix(1 0 0 1.00161 767.229 63)">material<tspan font-size="40" x="-16.0812" y="47.9229">name, use,</tspan><tspan font-size="40" x="-17.674" y="95.8459">properties</tspan></text><rect x="257" y="22.0353" width="223" height="157.253" stroke="#000000" stroke-width="1.99932" stroke-linejoin="round" stroke-miterlimit="10" fill="#FFFF00"/><text font-family="ABC Junior Typing,ABC Junior Typing_MSFontService,sans-serif" font-weight="400" font-size="40" transform="matrix(1 0 0 1.00161 317.385 85)">shape<tspan font-size="40" x="18.0272" y="47.9229">size</tspan></text><rect x="17" y="22.0353" width="224" height="157.253" stroke="#000000" stroke-width="1.99932" stroke-linejoin="round" stroke-miterlimit="10" fill="#FF0000"/><text font-family="ABC Junior Typing,ABC Junior Typing_MSFontService,sans-serif" font-weight="400" font-size="40" transform="matrix(1 0 0 1.00161 73.4999 109)">colour</text><path d="M977.5 197.818 3.50002 197.818 3.50002 393.131 977.5 393.131 977.5 197.818Z" stroke="#000000" stroke-width="2.66576" stroke-linejoin="round" stroke-miterlimit="10" fill="#FFFFFF" fill-rule="evenodd"/><rect x="17" y="216.347" width="223" height="158.254" stroke="#000000" stroke-width="1.99932" stroke-linejoin="round" stroke-miterlimit="10" fill="#17EF1D"/><text font-family="ABC Junior Typing,ABC Junior Typing_MSFontService,sans-serif" font-weight="400" font-size="40" transform="matrix(1 0 0 1.00161 57.7326 304)">number</text><rect x="257" y="216.347" width="223" height="158.254" stroke="#000000" stroke-width="1.99932" stroke-linejoin="round" stroke-miterlimit="10" fill="#FFC000"/><text font-family="ABC Junior Typing,ABC Junior Typing_MSFontService,sans-serif" font-weight="400" font-size="40" transform="matrix(1 0 0 1.00161 310.248 304)">letter</text><rect x="736" y="216.347" width="224" height="158.254" stroke="#000000" stroke-width="1.99932" stroke-linejoin="round" stroke-miterlimit="10" fill="#FFFFCC"/><text font-family="ABC Junior Typing,ABC Junior Typing_MSFontService,sans-serif" font-weight="400" font-size="40" transform="matrix(1 0 0 1.00161 774.381 263)">website<tspan font-size="40" x="10.7763" y="47.9229">theme</tspan><tspan font-size="40" x="23.6586" y="96.8443">LNTB</tspan></text><rect x="496" y="216.347" width="224" height="158.254" stroke="#000000" stroke-width="1.99932" stroke-linejoin="round" stroke-miterlimit="10" fill="#CC99FF"/><text font-family="ABC Junior Typing,ABC Junior Typing_MSFontService,sans-serif" font-weight="400" font-size="40" transform="matrix(1 0 0 1.00161 559.889 284)">word<tspan font-size="40" x="-14.5551" y="47.9229">theme</tspan></text></g></svg>