<svg width="1328" height="671" xmlns="http://www.w3.org/2000/svg" xmlns:xlink="http://www.w3.org/1999/xlink" overflow="hidden"><defs><clipPath id="clip0"><rect x="0" y="0" width="1328" height="671"/></clipPath></defs><g clip-path="url(#clip0)"><rect x="0" y="0" width="1328" height="670.584" fill="#FFFFFF" fill-opacity="0"/><rect x="717" y="3.00266" width="608" height="405.353" stroke="#000000" stroke-width="3.9995" stroke-miterlimit="8" fill="#FDF5E6"/><text font-family="Century Gothic,Century Gothic_MSFontService,sans-serif" font-weight="700" font-size="40" transform="matrix(1 0 0 1.00087 879.976 117)">THE APR CLIENTS<tspan font-size="40" x="74.9906" y="79.9304">UNESCO</tspan><tspan font-size="40" x="-93.9882" y="160.86">SA DEPARTMENT OF BASIC </tspan><tspan font-size="40" x="42.328" y="208.818">EDUCATION</tspan></text><rect x="1.99996" y="3.00266" width="707" height="405.353" stroke="#000000" stroke-width="3.9995" stroke-miterlimit="8" fill="#FDF5E6"/><text font-family="Century Gothic,Century Gothic_MSFontService,sans-serif" font-weight="700" font-size="40" transform="matrix(1 0 0 1.00087 102.95 92)">THE BCMLP JOURNEY TO HALT <tspan font-size="40" x="178.558" y="47.9582">ILLITERACY</tspan><tspan font-size="40" x="255.968" y="128.888">TO</tspan><tspan font-size="40" x="-18.251" y="209.817">OVERCOME A SERIOUS HUMAN </tspan><tspan font-size="40" x="192.309" y="257.775">TRAGEDY</tspan></text><rect x="717" y="417.363" width="608" height="250.218" stroke="#0D0D0D" stroke-width="3.9995" stroke-miterlimit="8" fill="#D9D9D9"/><text font-family="Century Gothic,Century Gothic_MSFontService,sans-serif" font-weight="700" font-size="40" transform="matrix(1 0 0 1.00087 856.609 510)">The COMPUTERISED <tspan font-size="40" x="-60.4124" y="47.9582">documents are available </tspan><tspan font-size="40" x="-19.9975" y="95.9164">for the reader to print</tspan></text><rect x="1.99996" y="417.363" width="707" height="250.218" stroke="#000000" stroke-width="3.9995" stroke-miterlimit="8" fill="#D9D9D9"/><text font-family="Century Gothic,Century Gothic_MSFontService,sans-serif" font-weight="700" font-size="40" transform="matrix(1 0 0 1.00087 98.5835 534)">The KEY to this programme is <tspan font-size="40" x="167.312" y="47.9582">LANGUAGE</tspan></text><rect x="14.5" y="31.5274" width="53" height="53.0462" stroke="#000000" stroke-width="1.33317" stroke-miterlimit="8" fill="none"/><text font-family="Century Gothic,Century Gothic_MSFontService,sans-serif" font-weight="700" font-size="40" transform="matrix(1 0 0 1.00087 29.1109 74)">1</text><rect x="729.5" y="31.5274" width="52.9999" height="53.0462" stroke="#000000" stroke-width="1.33317" stroke-miterlimit="8" fill="none"/><text font-family="Century Gothic,Century Gothic_MSFontService,sans-serif" font-weight="700" font-size="40" transform="matrix(1 0 0 1.00087 743.93 74)">2</text><rect x="14.5" y="445.888" width="53" height="54.0471" stroke="#000000" stroke-width="1.33317" stroke-miterlimit="8" fill="none"/><text font-family="Century Gothic,Century Gothic_MSFontService,sans-serif" font-weight="700" font-size="40" transform="matrix(1 0 0 1.00087 29.1109 489)">3</text><rect x="729.5" y="445.888" width="52.9999" height="54.0471" stroke="#000000" stroke-width="1.33317" stroke-miterlimit="8" fill="none"/><text font-family="Century Gothic,Century Gothic_MSFontService,sans-serif" font-weight="700" font-size="40" transform="matrix(1 0 0 1.00087 743.888 489)">4</text></g></svg>