<svg width="1328" height="637" xmlns="http://www.w3.org/2000/svg" xmlns:xlink="http://www.w3.org/1999/xlink" overflow="hidden"><defs><clipPath id="clip0"><rect x="0" y="0" width="1328" height="637"/></clipPath></defs><g clip-path="url(#clip0)"><rect x="0" y="0" width="1328" height="636.579" fill="#FFFFFF" fill-opacity="0"/><rect x="717" y="2.00178" width="608" height="406.37" stroke="#000000" stroke-width="3.9995" stroke-miterlimit="8" fill="#FDF5E6"/><text font-family="Century Gothic,Century Gothic_MSFontService,sans-serif" font-weight="700" font-size="40" transform="matrix(1 0 0 1.00091 879.976 116)">THE APR CLIENTS<tspan font-size="40" x="74.9906" y="79.9272">UNESCO</tspan><tspan font-size="40" x="-93.9882" y="161.853">SA DEPARTMENT OF BASIC </tspan><tspan font-size="40" x="42.328" y="209.809">EDUCATION</tspan></text><rect x="1.99996" y="2.00178" width="707" height="406.37" stroke="#000000" stroke-width="3.9995" stroke-miterlimit="8" fill="#FDF5E6"/><text font-family="Century Gothic,Century Gothic_MSFontService,sans-serif" font-weight="700" font-size="40" transform="matrix(1 0 0 1.00091 102.95 92)">THE BCMLP JOURNEY TO HALT <tspan font-size="40" x="178.558" y="47.9563">ILLITERACY</tspan><tspan font-size="40" x="255.968" y="128.883">TO</tspan><tspan font-size="40" x="-18.251" y="208.81">OVERCOME A SERIOUS HUMAN </tspan><tspan font-size="40" x="192.309" y="256.766">TRAGEDY</tspan></text><rect x="717" y="417.38" width="608" height="217.198" stroke="#0D0D0D" stroke-width="3.9995" stroke-miterlimit="8" fill="#D9D9D9"/><text font-family="Century Gothic,Century Gothic_MSFontService,sans-serif" font-weight="700" font-size="40" transform="matrix(1 0 0 1.00091 856.609 494)">The COMPUTERISED <tspan font-size="40" x="-60.4124" y="47.9563">documents are available </tspan><tspan font-size="40" x="-19.9975" y="95.9126">for the reader to print</tspan></text><rect x="1.99996" y="417.38" width="707" height="217.198" stroke="#000000" stroke-width="3.9995" stroke-miterlimit="8" fill="#D9D9D9"/><text font-family="Century Gothic,Century Gothic_MSFontService,sans-serif" font-weight="700" font-size="40" transform="matrix(1 0 0 1.00091 98.5836 518)">The KEY to this programme is <tspan font-size="40" x="167.312" y="47.9563">LANGUAGE</tspan></text><rect x="14.5" y="14.5132" width="53" height="53.0482" stroke="#000000" stroke-width="1.33317" stroke-miterlimit="8" fill="none"/><text font-family="Century Gothic,Century Gothic_MSFontService,sans-serif" font-weight="700" font-size="40" transform="matrix(1 0 0 1.00091 29.1109 56)">1</text><rect x="729.5" y="14.5132" width="52.9999" height="53.0482" stroke="#000000" stroke-width="1.33317" stroke-miterlimit="8" fill="none"/><text font-family="Century Gothic,Century Gothic_MSFontService,sans-serif" font-weight="700" font-size="40" transform="matrix(1 0 0 1.00091 743.93 56)">2</text><rect x="14.5" y="428.89" width="53" height="54.0491" stroke="#000000" stroke-width="1.33317" stroke-miterlimit="8" fill="none"/><text font-family="Century Gothic,Century Gothic_MSFontService,sans-serif" font-weight="700" font-size="40" transform="matrix(1 0 0 1.00091 29.1109 472)">3</text><rect x="729.5" y="428.89" width="52.9999" height="54.0491" stroke="#000000" stroke-width="1.33317" stroke-miterlimit="8" fill="none"/><text font-family="Century Gothic,Century Gothic_MSFontService,sans-serif" font-weight="700" font-size="40" transform="matrix(1 0 0 1.00091 743.888 472)">4</text></g></svg>