<svg width="1328" height="894" xmlns="http://www.w3.org/2000/svg" xmlns:xlink="http://www.w3.org/1999/xlink" overflow="hidden"><defs><clipPath id="clip0"><rect x="0" y="0" width="1328" height="894"/></clipPath></defs><g clip-path="url(#clip0)"><rect x="0" y="0" width="1328" height="893.612" fill="#FFFFFF" fill-opacity="0"/><rect x="426.5" y="31.5216" width="479" height="66.0452" stroke="#000000" stroke-width="2.66633" stroke-linejoin="round" stroke-miterlimit="10" fill="none"/><text font-family="Century Gothic,Century Gothic_MSFontService,sans-serif" font-weight="700" font-size="42" transform="matrix(1 0 0 1.00069 435.534 80)">BASIC <tspan font-size="42" x="132.43" y="0">CONCEPT</tspan><tspan font-size="42" x="336.838" y="0">TERMS</tspan></text><rect x="275.5" y="121.583" width="53" height="47.0322" stroke="#000000" stroke-width="2.66633" stroke-linejoin="round" stroke-miterlimit="10" fill="none"/><text font-family="Century Gothic,Century Gothic_MSFontService,sans-serif" font-weight="400" font-size="42" transform="matrix(1 0 0 1.00069 290.139 161)">1</text><rect x="1.99996" y="2.00133" width="1323" height="740.507" stroke="#000000" stroke-width="3.9995" stroke-miterlimit="8" fill="none"/><rect x="1.99996" y="732.502" width="1323" height="159.109" stroke="#0D0D0D" stroke-width="3.9995" stroke-miterlimit="8" fill="#D9D9D9"/><text font-family="Century Gothic,Century Gothic_MSFontService,sans-serif" font-weight="700" font-size="42" transform="matrix(1 0 0 1.00069 199.121 803)">Twelve BC terms make up the BC Programme.  <tspan font-size="42" x="11.4119" y="49.9658">Each term plays an important integrated role</tspan></text><path d="M1157.5 196.635 173.5 196.635 173.5 397.772 1157.5 397.772 1157.5 196.635Z" stroke="#000000" stroke-width="2.66633" stroke-linejoin="round" stroke-miterlimit="10" fill="#FFFFFF" fill-rule="evenodd"/><rect x="674.5" y="216.648" width="226" height="162.111" stroke="#000000" stroke-width="2.66633" stroke-linejoin="round" stroke-miterlimit="10" fill="#00AFEF"/><text font-family="ABC Junior Typing,ABC Junior Typing_MSFontService,sans-serif" font-weight="400" font-size="40" transform="matrix(1 0 0 1.00069 741.208 257)">place<tspan font-size="40" x="-37.8752" y="47.9671">di</tspan><tspan font-size="40" x="-9.04553" y="47.9671">r</tspan><tspan font-size="40" x="11.8386" y="47.9671">e</tspan><tspan font-size="40" x="32.9492" y="47.9671">c</tspan><tspan font-size="40" x="53.1133" y="47.9671">t</tspan><tspan font-size="40" x="79.4901" y="47.9671">i</tspan><tspan font-size="40" x="86.3225" y="47.9671">o</tspan><tspan font-size="40" x="107.267" y="47.9671">n</tspan><tspan font-size="40" x="-25.4168" y="95.9343">position</tspan></text><rect x="914.5" y="216.648" width="227" height="162.111" stroke="#000000" stroke-width="2.66633" stroke-linejoin="round" stroke-miterlimit="10"/><text fill="#FFFFFF" font-family="ABC Junior Typing,ABC Junior Typing_MSFontService,sans-serif" font-weight="400" font-size="40" transform="matrix(1 0 0 1.00069 946.648 257)">material<tspan font-size="40" x="-15.9647" y="47.9671">name, use,</tspan><tspan font-size="40" x="-17.5578" y="95.9343">properties</tspan></text><rect x="431.5" y="216.648" width="227" height="162.111" stroke="#000000" stroke-width="2.66633" stroke-linejoin="round" stroke-miterlimit="10" fill="#FFFF00"/><text font-family="ABC Junior Typing,ABC Junior Typing_MSFontService,sans-serif" font-weight="400" font-size="40" transform="matrix(1 0 0 1.00069 492.991 281)">shape<tspan font-size="40" x="18.1377" y="47.9671">size</tspan></text><rect x="188.5" y="216.648" width="227" height="162.111" stroke="#000000" stroke-width="2.66633" stroke-linejoin="round" stroke-miterlimit="10" fill="#FF0000"/><text font-family="ABC Junior Typing,ABC Junior Typing_MSFontService,sans-serif" font-weight="400" font-size="40" transform="matrix(1 0 0 1.00069 246.252 305)">colour</text><path d="M1157.5 485.833 173.5 485.833 173.5 685.944 1157.5 685.944 1157.5 485.833Z" stroke="#000000" stroke-width="2.66633" stroke-linejoin="round" stroke-miterlimit="10" fill="#FFFFFF" fill-rule="evenodd"/><rect x="497.5" y="121.583" width="53.0001" height="47.0322" stroke="#000000" stroke-width="2.66633" stroke-linejoin="round" stroke-miterlimit="10" fill="none"/><text font-family="Century Gothic,Century Gothic_MSFontService,sans-serif" font-weight="400" font-size="42" transform="matrix(1 0 0 1.00069 511.696 161)">2</text><rect x="701.5" y="121.583" width="52.9999" height="47.0322" stroke="#000000" stroke-width="2.66633" stroke-linejoin="round" stroke-miterlimit="10" fill="none"/><text font-family="Century Gothic,Century Gothic_MSFontService,sans-serif" font-weight="400" font-size="42" transform="matrix(1 0 0 1.00069 715.711 161)">4</text><rect x="754.5" y="121.583" width="53.0001" height="47.0322" stroke="#000000" stroke-width="2.66633" stroke-linejoin="round" stroke-miterlimit="10" fill="none"/><text font-family="Century Gothic,Century Gothic_MSFontService,sans-serif" font-weight="400" font-size="42" transform="matrix(1 0 0 1.00069 768.704 161)">5</text><rect x="974.5" y="121.583" width="52.0001" height="47.0322" stroke="#000000" stroke-width="2.66633" stroke-linejoin="round" stroke-miterlimit="10" fill="none"/><text font-family="Century Gothic,Century Gothic_MSFontService,sans-serif" font-weight="400" font-size="42" transform="matrix(1 0 0 1.00069 988.394 161)">7</text><rect x="275.5" y="424.791" width="53" height="46.0315" stroke="#000000" stroke-width="2.66633" stroke-linejoin="round" stroke-miterlimit="10" fill="none"/><text font-family="Century Gothic,Century Gothic_MSFontService,sans-serif" font-weight="400" font-size="42" transform="matrix(1 0 0 1.00069 290.139 463)">9</text><rect x="515.5" y="424.791" width="52" height="46.0315" stroke="#000000" stroke-width="2.66633" stroke-linejoin="round" stroke-miterlimit="10" fill="none"/><text font-family="Century Gothic,Century Gothic_MSFontService,sans-serif" font-weight="400" font-size="42" transform="matrix(1 0 0 1.00069 517.724 463)">10</text><rect x="754.5" y="424.791" width="52.0001" height="46.0315" stroke="#000000" stroke-width="2.66633" stroke-linejoin="round" stroke-miterlimit="10" fill="none"/><text font-family="Century Gothic,Century Gothic_MSFontService,sans-serif" font-weight="400" font-size="42" transform="matrix(1 0 0 1.00069 756.735 463)">11</text><rect x="1001.5" y="424.791" width="51.9999" height="46.0315" stroke="#000000" stroke-width="2.66633" stroke-linejoin="round" stroke-miterlimit="10" fill="none"/><text font-family="Century Gothic,Century Gothic_MSFontService,sans-serif" font-weight="400" font-size="42" transform="matrix(1 0 0 1.00069 1003.93 463)">12</text><rect x="188.5" y="502.844" width="227" height="163.112" stroke="#000000" stroke-width="2.66633" stroke-linejoin="round" stroke-miterlimit="10" fill="#17EF1D"/><text font-family="ABC Junior Typing,ABC Junior Typing_MSFontService,sans-serif" font-weight="400" font-size="40" transform="matrix(1 0 0 1.00069 231.393 592)">number</text><rect x="432.5" y="502.844" width="227" height="163.112" stroke="#000000" stroke-width="2.66633" stroke-linejoin="round" stroke-miterlimit="10" fill="#FFC000"/><text font-family="ABC Junior Typing,ABC Junior Typing_MSFontService,sans-serif" font-weight="400" font-size="40" transform="matrix(1 0 0 1.00069 486.747 592)">letter</text><rect x="914.5" y="502.844" width="226" height="163.112" stroke="#000000" stroke-width="2.66633" stroke-linejoin="round" stroke-miterlimit="10" fill="#FFFFCC"/><text font-family="ABC Junior Typing,ABC Junior Typing_MSFontService,sans-serif" font-weight="400" font-size="40" transform="matrix(1 0 0 1.00069 953.618 550)">website<tspan font-size="40" x="10.7787" y="47.9671">theme</tspan><tspan font-size="40" x="23.6637" y="95.9343">LNTB</tspan></text><rect x="14.5" y="14.51" width="53" height="53.0363" stroke="#000000" stroke-width="2.66633" stroke-miterlimit="8"/><text fill="#FFFFFF" font-family="Century Gothic,Century Gothic_MSFontService,sans-serif" font-weight="700" font-size="42" transform="matrix(1 0 0 1.00069 28.2125 56)">B</text><rect x="807.5" y="121.583" width="52.9999" height="47.0322" stroke="#000000" stroke-width="2.66633" stroke-linejoin="round" stroke-miterlimit="10" fill="none"/><text font-family="Century Gothic,Century Gothic_MSFontService,sans-serif" font-weight="400" font-size="42" transform="matrix(1 0 0 1.00069 821.7 161)">6</text><rect x="674.5" y="502.844" width="226" height="163.112" stroke="#000000" stroke-width="2.66633" stroke-linejoin="round" stroke-miterlimit="10" fill="#CC99FF"/><text font-family="ABC Junior Typing,ABC Junior Typing_MSFontService,sans-serif" font-weight="400" font-size="40" transform="matrix(1 0 0 1.00069 738.661 568)">word<tspan font-size="40" x="-13.9516" y="47.9671">theme</tspan></text><rect x="552.5" y="121.583" width="52" height="47.0322" stroke="#000000" stroke-width="2.66633" stroke-linejoin="round" stroke-miterlimit="10" fill="none"/><text font-family="Century Gothic,Century Gothic_MSFontService,sans-serif" font-weight="400" font-size="42" transform="matrix(1 0 0 1.00069 566.469 161)">3</text><rect x="1026.5" y="121.583" width="53" height="47.0322" stroke="#000000" stroke-width="2.66633" stroke-linejoin="round" stroke-miterlimit="10" fill="none"/><text font-family="Century Gothic,Century Gothic_MSFontService,sans-serif" font-weight="400" font-size="42" transform="matrix(1 0 0 1.00069 1041 161)">8</text></g></svg>