<svg width="1328" height="671" xmlns="http://www.w3.org/2000/svg" xmlns:xlink="http://www.w3.org/1999/xlink" overflow="hidden"><defs><clipPath id="clip0"><rect x="0" y="0" width="1328" height="671"/></clipPath></defs><g clip-path="url(#clip0)"><rect x="0" y="0" width="1328" height="670.584" fill="#FFFFFF" fill-opacity="0"/><rect x="1.99996" y="2.0017" width="1323" height="408.356" stroke="#000000" stroke-width="3.9995" stroke-linejoin="round" stroke-miterlimit="10" fill="none"/><rect x="401.5" y="12.5108" width="525" height="91.0793" stroke="#4472C4" stroke-width="3.33291" stroke-miterlimit="8" fill="#D9D9D9"/><text font-family="Century Gothic,Century Gothic_MSFontService,sans-serif" font-weight="700" font-size="42" transform="matrix(1 0 0 1.00087 415.261 74)">APPLIED RESEARCH <tspan font-size="42" x="388.951" y="0">-</tspan><tspan font-size="42" x="418.281" y="0">APR</tspan><tspan font-size="42" x="-91.9384" y="297.741">The aim of the Applied Research</tspan><tspan font-size="42" x="-243.719" y="78.9312">IT USES  BASIC RESEARCH THEORIES TO PROVIDE A </tspan><tspan font-size="42" x="-148.731" y="128.888">POSSIBLE SOLUTION FOR THE APR CLIENT</tspan></text><rect x="1.99996" y="230.2" width="1323" height="74.0644" stroke="#0D0D0D" stroke-width="3.9995" stroke-miterlimit="8" fill="#D9D9D9"/><text font-family="Century Gothic,Century Gothic_MSFontService,sans-serif" font-weight="700" font-size="42" transform="matrix(1 0 0 1.00087 178.207 283)">MILLIONS OF LEARNERS IN AFRICA ARE ILLITERATE</text><rect x="1.99996" y="405.353" width="1323" height="263.229" stroke="#0D0D0D" stroke-width="3.9995" stroke-miterlimit="8" fill="#D9D9D9"/><text font-family="Century Gothic,Century Gothic_MSFontService,sans-serif" font-weight="700" font-size="42" transform="matrix(1 0 0 1.00087 138.959 477)">To develop a Basic Concept Mathematic Language <tspan font-size="42" x="-100.067" y="49.9565">Programme (BCMLP) to teach basic concepts (BC) to learners </tspan><tspan font-size="42" x="-103.234" y="100.912">in the FP who have severe BC mathematics, language barriers </tspan><tspan font-size="42" x="410.615" y="150.869">to learning. </tspan></text><rect x="14.5" y="315.775" width="53" height="54.047" stroke="#000000" stroke-width="1.33317" stroke-miterlimit="8" fill="none"/><text font-family="Century Gothic,Century Gothic_MSFontService,sans-serif" font-weight="700" font-size="42" transform="matrix(1 0 0 1.00087 28.6292 359)">5</text><rect x="14.5" y="14.5127" width="53" height="54.047" stroke="#000000" stroke-width="2.66633" stroke-miterlimit="8"/><text fill="#FFFFFF" font-family="Century Gothic,Century Gothic_MSFontService,sans-serif" font-weight="700" font-size="42" transform="matrix(1 0 0 1.00087 24.8797 57)">A</text></g></svg>